<?xml version="1.0" encoding="UTF-8"?>
<svg version="1.1" xmlns="http://www.w3.org/2000/svg" width="140" height="68" >
<path d="M1.086,27.409c12.051-0.555,23.154-8.192,29.971-17.724c-0.647-0.378-1.295-0.757-1.942-1.136 C25.704,15.561,22.386,22.618,19,29.64c0.647,0.378,1.295,0.757,1.942,1.136c1.106-2.604,2.543-5.082,4.12-7.424 c1.439-2.139,3.284-4.381,6.032-4.479c5.277-0.188,1.646,8.25,0.74,10.445c0.723,0.199,1.447,0.398,2.17,0.598 c1.206-3.045,2.46-6.073,3.749-9.084c0.587-1.372,4.13-10.108,4.666-10.09c1.452,0.048,1.447-2.202,0-2.25 c-2.638-0.088-4.666,6.801-5.438,8.525c-1.818,4.054-3.511,8.17-5.147,12.301c-0.538,1.357,1.627,1.913,2.17,0.598 c1.736-4.207,4.297-14.919-4.218-13.217C24.41,17.773,20.93,25.098,19,29.64c-0.553,1.302,1.302,2.464,1.942,1.136 c3.386-7.022,6.704-14.079,10.114-21.091c0.641-1.316-1.102-2.312-1.942-1.136c-6.333,8.854-16.821,16.094-28.029,16.609 C-0.359,25.225-0.365,27.476,1.086,27.409L1.086,27.409 M37.718,31.035c0.228-0.075,0.462-0.131,0.697-0.178c0.044-0.009,0.35-0.05,0.072-0.017 c0.125-0.015,0.249-0.018,0.374-0.017c0.292,0.002-0.227-0.057,0.036,0.005c-0.18-0.043-0.347-0.241-0.396-0.414 c0.392,1.395,2.563,0.802,2.17-0.598c-0.437-1.555-2.351-1.347-3.55-0.953c-0.583,0.191-0.955,0.771-0.786,1.384 C36.491,30.818,37.136,31.227,37.718,31.035L37.718,31.035 M84.115,0.549C82.539,3.317,75.934,3.7,73.419,3.992c-4.534,0.526-9.251,0.976-13.324,3.201 c-1.555,0.849-3.761,3.277-2.955,5.284c1.344,3.346,4.749,4.139,8.112,3.766c1.426-0.158,1.441-2.41,0-2.25 c-1.984,0.22-7.938-0.955-4.983-4.142c1.079-1.164,2.915-1.649,4.358-2.101c4.038-1.265,8.354-1.364,12.512-2.006 c2.663-0.412,7.382-1.36,8.919-4.058C86.777,0.422,84.833-0.711,84.115,0.549L84.115,0.549 M72.919,11.159c-4.054,0.249-7.223,2.873-9.472,6.057c-2.755,3.903-6.314,13.235-12.348,8.175 c-1.456-1.222-2.137-2.314-4.181-2.232c-1.446,0.058-1.452,2.309,0,2.25c1.549-0.063,2.512,1.74,3.651,2.448 c1.211,0.753,2.313,1.275,3.741,1.524c1.902,0.332,3.584-1.015,4.904-2.167c4.806-4.193,6.176-13.342,13.703-13.805 C74.361,13.32,74.37,11.07,72.919,11.159L72.919,11.159 M53.454,19.699c-2.521,0.985-5.065,3.012-5.159,5.918c-0.047,1.452,2.203,1.447,2.25,0 c0.038-1.173,0.859-2.083,1.764-2.746c0.402-0.294,0.835-0.545,1.276-0.776c0.162-0.085,0.329-0.163,0.496-0.239 c0.238-0.108-0.238,0.094-0.029,0.012C55.387,21.347,54.807,19.17,53.454,19.699L53.454,19.699 M72.058,26.018c0.959-1.905,2.143-3.845,3.747-5.27c0.266-0.236,0.759-0.617,1.148-0.546 c0.715,0.128,0.354,1.144,0.256,1.621c-0.23,1.119-0.497,2.392,0.643,3.099c1.236,0.768,2.365-1.179,1.135-1.942 c0.435,0.269,0.227,0.252,0.339-0.303c0.07-0.349,0.144-0.695,0.2-1.047c0.118-0.741,0.174-1.66-0.247-2.329 c-0.911-1.448-2.576-1.608-4.012-0.899c-2.348,1.161-4.019,4.229-5.152,6.48C69.464,26.175,71.406,27.314,72.058,26.018 L72.058,26.018 M66.715,27.079c0.379-0.315,0.8-0.573,1.222-0.826c1.571-0.943,1.64,0.47,2.234,1.563c0.79,1.45,2.166,2.218,3.752,2.528 c3.787,0.739,6.984-1.818,7.288-5.56c0.117-1.447-2.134-1.436-2.25,0c-0.195,2.397-2.026,3.476-4.276,3.402 c-2.337-0.078-2.406-1.78-3.152-3.459c-1.205-2.71-5.02-0.393-6.409,0.762C64.006,26.416,65.608,27.999,66.715,27.079 L66.715,27.079 M76.852,23.088c1.864,1.286,4.935,1.834,6.941,0.542c0.783-0.504,3.839-2.334,3.995-2.61 c-0.706,1.247-1.757,2.385-1.757,3.908c0,1.647,2.166,3.321,3.707,3.344c1.278,0.02,2.191-0.304,3.354-0.82 c1.663-0.739,3.309-3.908,4.073-1.496c1.713,5.407,7.823,2.864,9.275-1.208c1.854-5.201-4.501-5.421-3.853-3.065 c0.497,1.807,4.189,2.671,5.669,2.77c0.405,0.087,0.808,0.094,1.207,0.02c1.628-0.229-0.131-1.229-0.655-0.285 c-0.413,0.742-0.856,1.75-0.617,2.619c1.715,6.234,11.102-3.437,12.44-4.962c0.354-0.412,0.711-0.822,1.067-1.232 c0.886-1.021-0.543-2.224-1.521-1.331c-0.915,0.836-2.192,2.023-2.435,3.308c-0.333,1.771-0.09,4.846,2.079,5.468 c4.693,1.348,10.116-5.397,12.399-8.707c0.727-1.054-0.925-2.316-1.768-1.363c-1.29,1.46-6.964,8.847-3.056,10.505 c3.142,1.332,6.466-3.494,5.549-6.344c-0.262,0.461-0.523,0.922-0.785,1.384c-0.983,0.15,0.562,0.92,1.111,1.458 c1.259,1.233,2.292,2.651,3.135,4.192c2.182,3.987-5.038,7.99-7.81,9.444c-2.293,1.203-4.854,1.671-7.383,1.071 c-0.902-1.62-0.395-2.443,1.523-2.471c1.389-0.459,2.889-0.632,4.313-0.275c6.585,1.65,7.151,9.439,3.425,13.903 c-4.872,5.833-14.307,8.415-21.264,10.405c-8.622,2.466-17.635,3.756-26.599,3.781c-8.747,0.023-18.613-1.801-24.993-8.232 c-5.068-5.109-4.722-13.964,1.255-18.086c5.961-4.111,14.352-4.977,21.352-5.3c9.007-0.416,18.384,0.902,26.621,4.666 c1.31,0.599,2.453-1.34,1.135-1.942c-9.49-4.337-20.06-5.498-30.396-4.826c-7.624,0.496-16.912,2.063-22.567,7.683 c-4.906,4.875-3.697,13.377,0.141,18.378c5.865,7.644,17.112,9.563,26.112,9.889c11.37,0.412,23.084-1.887,33.824-5.475 c7.618-2.545,19.036-6.964,20.269-16.111c0.998-7.415-6.876-12.152-13.226-10.625c-1.77,0.425-5.418,1.906-4.739,4.373 c0.873,3.173,6.054,2.936,8.463,2.538c4.566-0.755,13.925-6.179,13.214-11.779c-0.313-2.473-4.455-9.294-7.516-8.827 c-0.589,0.09-0.957,0.851-0.785,1.384c0.669,2.081-3.222,4.779-1.637,1.064c0.657-1.539,1.805-2.99,2.904-4.233 c-0.59-0.454-1.179-0.909-1.768-1.363c-1.764,2.557-4.185,4.876-6.7,6.677c-0.599,0.419-1.243,0.756-1.932,1.01 c-0.482-1.1-0.964-2.2-1.446-3.3c0.45-0.645,0.974-1.221,1.568-1.729c0.558-0.52,0.992-0.903,1.233-1.625 c0.149-0.448-0.086-1.061-0.518-1.27c-0.029-0.015-0.06-0.029-0.09-0.044c-0.344-0.167-0.798-0.241-1.136,0 c-2.251,1.603-3.88,4.279-5.92,6.163c-0.932,0.86-5.63,3.227-4.03,0.199c0.291-0.551,0.357-1.115-0.006-1.638 c-0.321-0.462-0.728-0.592-1.271-0.517c-1.206,0.166-2.325-0.049-3.467-0.38c-2.432-0.707-1.818,0.177-2.296,2.39 c-0.492,2.279-4.396,2.909-5.138,0.572c-0.193-0.61-0.35-1.162-0.723-1.684c-0.524-0.734-1.292-0.726-2.091-0.582 c-0.42,0.076-0.825,0.397-1.153,0.661c-1.03,0.85-2.1,1.647-3.21,2.392c-2.649,0.962-3.753,0.413-3.309-1.648 c0.984-2.121,3.121-3.965,0.536-5.792c-0.741-0.523-1.721,0.022-2.343,0.431c-2.753,1.808-5.451,4.993-8.855,2.645 C76.79,20.319,75.666,22.271,76.852,23.088L76.852,23.088z"/>
</svg>