<?xml version="1.0" standalone="no"?>
<!DOCTYPE svg PUBLIC "-//W3C//DTD SVG 20010904//EN"
 "http://www.w3.org/TR/2001/REC-SVG-20010904/DTD/svg10.dtd">
<svg version="1.0" xmlns="http://www.w3.org/2000/svg"
 width="468pt" height="127pt" viewBox="0 0 468 127"
 preserveAspectRatio="xMidYMid meet">
<metadata>
Created by POTRACE VERSION, written by Peter Selinger 2001-2007
</metadata>
<g transform="translate(0,127) scale(0.063073,-0.063073)"
fill="#000000" stroke="none">
<path d="M1056 1887 c-17 -12 -49 -41 -73 -64 -24 -24 -46 -43 -49 -43 -2 0
-26 -21 -52 -46 -26 -25 -65 -58 -87 -72 -22 -15 -58 -41 -81 -59 -23 -18 -46
-33 -52 -33 -6 0 -15 -6 -19 -14 -4 -7 -32 -26 -60 -41 -29 -15 -53 -31 -53
-36 0 -5 -7 -9 -15 -9 -8 0 -24 -9 -35 -20 -11 -11 -27 -20 -35 -20 -8 0 -15
-4 -15 -9 0 -5 -12 -16 -27 -24 -16 -8 -59 -32 -98 -53 -38 -20 -72 -40 -75
-44 -3 -3 -21 -14 -42 -23 -20 -9 -39 -17 -43 -17 -4 0 -18 -9 -32 -20 -14
-11 -34 -20 -44 -20 -11 0 -19 -4 -19 -9 0 -6 4 -12 9 -15 5 -3 22 1 37 9 16
8 35 15 42 15 7 0 15 6 18 14 3 8 17 17 32 21 14 3 38 15 53 26 15 10 32 19
38 19 6 0 11 4 11 9 0 5 11 12 25 15 13 3 46 20 72 36 26 16 59 35 73 40 13 6
27 14 30 18 3 4 14 13 25 19 11 7 35 20 53 29 17 9 32 20 32 25 0 5 4 9 10 9
5 0 26 12 47 26 21 14 40 28 43 32 3 4 22 16 43 27 20 11 37 22 37 26 0 3 21
21 46 39 25 18 60 46 76 62 17 16 33 26 36 23 4 -4 -1 -12 -11 -19 -9 -7 -17
-17 -17 -23 0 -5 -13 -20 -30 -33 -16 -14 -29 -29 -30 -34 0 -5 -13 -21 -28
-35 -16 -14 -33 -33 -38 -43 -5 -9 -31 -42 -59 -74 -27 -32 -58 -65 -67 -73
-10 -9 -18 -21 -18 -28 0 -7 -4 -13 -10 -13 -5 0 -10 -5 -10 -11 0 -6 -13 -24
-29 -40 -16 -16 -32 -29 -36 -29 -3 0 -18 -13 -32 -30 -13 -16 -30 -30 -36
-30 -7 0 -21 -14 -32 -30 -11 -16 -23 -30 -27 -30 -5 0 -8 -7 -8 -15 0 -8 -4
-15 -10 -15 -5 0 -10 -5 -10 -11 0 -6 -13 -23 -29 -39 -15 -16 -31 -38 -34
-49 -4 -16 0 -21 15 -21 10 0 29 5 41 11 12 7 38 28 57 49 19 20 60 64 90 99
30 34 57 67 59 74 2 6 15 23 28 36 12 14 23 31 23 37 0 7 8 14 18 18 9 3 31
15 47 26 17 11 38 23 48 26 9 4 17 13 17 20 0 8 10 14 23 14 12 0 33 7 45 16
12 8 22 12 22 9 0 -4 7 1 16 9 8 9 26 16 39 16 13 0 25 4 27 10 2 5 18 14 36
20 31 8 33 8 20 -8 -7 -9 -19 -23 -25 -30 -7 -7 -13 -16 -13 -20 0 -4 -14 -23
-30 -42 -17 -19 -33 -43 -36 -52 -3 -10 -10 -18 -15 -18 -5 0 -9 -11 -9 -25 0
-14 -4 -25 -9 -25 -5 0 -13 -9 -16 -20 -3 -11 -12 -26 -19 -32 -6 -7 -22 -29
-34 -49 -12 -20 -22 -40 -22 -44 0 -4 20 -5 44 -3 26 3 52 14 65 27 11 11 21
28 21 37 0 9 17 48 37 88 21 39 42 76 48 83 5 6 18 22 28 35 10 13 31 43 48
68 17 25 38 57 47 72 9 16 23 28 30 28 6 0 12 4 12 9 0 4 17 20 38 33 20 14
43 37 51 52 10 19 11 30 4 37 -7 7 -23 4 -53 -11 -23 -12 -58 -39 -78 -62 -21
-22 -55 -52 -77 -67 -22 -15 -89 -47 -150 -71 -60 -24 -113 -49 -117 -54 -4
-6 -10 -7 -13 -4 -4 4 -1 16 7 27 8 11 35 43 61 71 26 28 47 55 47 59 0 5 7
11 15 15 8 3 15 9 15 14 0 5 15 25 33 44 17 19 43 49 57 67 14 18 39 47 56 64
16 18 40 46 52 64 12 17 22 36 22 42 0 6 -10 11 -22 10 -13 0 -36 -10 -52 -22z"/>
<path d="M7165 1858 c-4 -10 -11 -16 -16 -12 -6 3 -21 -6 -35 -21 -13 -14 -24
-30 -24 -36 0 -5 -4 -9 -9 -9 -5 0 -15 -26 -23 -57 -9 -40 -11 -68 -5 -88 5
-16 16 -44 24 -61 8 -18 13 -40 11 -50 -2 -10 -17 -23 -33 -29 -17 -5 -34 -15
-38 -22 -4 -7 -21 -13 -37 -13 -15 0 -30 -5 -32 -11 -2 -7 -37 -15 -78 -18
-41 -4 -81 -10 -88 -14 -6 -5 -51 -10 -99 -13 -69 -4 -90 -9 -103 -24 -10 -11
-23 -20 -30 -20 -7 0 -22 -11 -34 -23 -12 -13 -30 -28 -40 -34 -13 -7 -28 -7
-47 1 -16 6 -29 14 -29 18 0 4 -7 8 -16 8 -12 0 -15 6 -10 24 3 14 3 32 0 41
-5 13 -14 15 -43 10 -20 -4 -39 -12 -43 -18 -4 -7 -8 -25 -8 -41 0 -16 -3 -27
-6 -23 -3 3 -14 -3 -25 -14 -14 -14 -33 -19 -79 -19 -48 0 -64 4 -77 20 -11
12 -30 20 -48 20 -17 0 -35 -4 -40 -9 -6 -5 -26 -6 -45 -2 -29 6 -36 12 -38
36 -2 17 4 45 14 63 15 28 16 35 4 42 -8 5 -21 5 -32 -1 -9 -5 -23 -8 -29 -7
-7 2 -20 -18 -30 -43 -15 -38 -16 -53 -7 -83 6 -20 17 -36 25 -36 7 0 13 -5
13 -11 0 -8 18 -10 61 -5 33 4 66 3 72 -1 7 -5 28 -14 47 -20 19 -7 51 -10 70
-8 19 3 55 7 80 11 25 3 62 12 82 21 33 14 38 14 59 -1 14 -10 44 -16 74 -16
27 0 66 5 86 10 20 6 49 21 65 35 16 14 38 25 50 25 17 0 20 -5 16 -30 -3 -22
0 -30 11 -30 9 0 28 5 44 11 15 5 40 22 55 37 15 15 28 32 28 37 0 6 12 16 27
23 15 6 32 12 38 12 7 0 10 -12 7 -30 -4 -29 -3 -30 32 -30 23 0 36 5 36 13 0
8 10 23 23 35 13 12 29 22 35 22 7 0 12 -4 12 -9 0 -4 11 -6 25 -3 14 2 25 10
25 17 0 8 14 24 32 36 21 16 33 19 36 11 2 -7 8 -12 13 -12 5 0 9 7 9 15 0 8
6 15 13 15 8 0 31 -19 52 -42 37 -42 38 -45 39 -121 1 -49 -3 -80 -11 -85 -6
-4 -12 -11 -13 -17 -1 -5 -6 -20 -11 -33 -5 -13 -9 -25 -9 -28 0 -3 -5 -10
-10 -17 -6 -7 -21 -25 -35 -40 -14 -15 -25 -25 -25 -21 0 4 -7 -1 -15 -12 -8
-10 -15 -25 -15 -33 0 -7 -11 -24 -26 -37 -14 -13 -29 -24 -35 -24 -5 0 -9 -6
-9 -14 0 -8 -16 -20 -35 -27 -19 -7 -35 -17 -35 -21 0 -4 -18 -19 -40 -33 -22
-14 -51 -25 -65 -25 -14 0 -25 -4 -25 -9 0 -5 -31 -15 -70 -21 -38 -6 -70 -16
-70 -21 0 -5 -13 -9 -30 -9 -16 0 -85 -9 -152 -19 -68 -11 -176 -22 -240 -25
-65 -4 -123 -9 -130 -11 -7 -3 -89 -10 -183 -16 -93 -6 -197 -12 -230 -14 -33
-2 -76 -6 -95 -9 -19 -3 -89 -8 -155 -12 -66 -3 -176 -10 -245 -15 -69 -5
-190 -14 -270 -19 -80 -5 -176 -13 -215 -19 -38 -5 -77 -10 -85 -10 -8 0 -69
-5 -135 -11 -66 -6 -147 -15 -180 -20 -33 -6 -86 -10 -118 -10 -32 0 -118 -9
-190 -19 -73 -11 -168 -22 -212 -26 -44 -3 -120 -12 -170 -20 -49 -8 -114 -19
-144 -24 -29 -6 -71 -11 -91 -11 -21 0 -56 -7 -79 -15 -24 -8 -75 -19 -114
-24 -40 -6 -112 -17 -162 -25 -49 -9 -112 -22 -139 -31 -27 -8 -62 -15 -79
-15 -16 0 -50 -7 -76 -15 -25 -8 -71 -21 -101 -29 -30 -8 -91 -24 -135 -36
-44 -12 -98 -26 -120 -32 -22 -5 -50 -14 -63 -19 -13 -5 -34 -9 -48 -9 -13 0
-32 -4 -42 -9 -9 -5 -48 -19 -86 -31 -38 -11 -88 -30 -112 -40 -24 -11 -48
-20 -53 -20 -6 0 -11 -4 -11 -10 0 -5 -11 -12 -24 -16 -14 -3 -32 -17 -41 -30
-9 -14 -13 -29 -10 -34 3 -6 13 -10 21 -10 8 0 14 6 14 13 0 6 15 22 33 35 18
12 40 22 48 22 8 0 23 7 33 15 11 8 27 15 35 15 9 1 34 9 56 20 22 11 49 19
60 20 12 0 25 4 31 10 5 5 43 17 84 25 41 9 93 20 115 25 22 5 81 21 130 35
50 15 110 31 135 35 25 4 70 15 100 23 30 8 100 22 155 32 55 9 145 25 200 36
55 10 127 23 160 30 33 6 87 15 120 20 33 4 83 13 110 19 28 6 82 15 120 20
39 4 124 13 190 19 66 7 170 18 230 26 61 8 160 19 220 25 61 5 151 14 200 20
50 5 160 16 245 25 85 8 223 19 305 25 83 6 188 15 235 20 47 5 180 14 295 20
116 6 273 16 350 21 77 6 158 12 180 13 22 2 78 9 125 15 46 6 119 11 162 11
42 0 80 5 83 10 4 6 15 8 26 5 11 -4 19 -2 19 4 0 7 25 11 63 11 38 0 77 6 95
16 18 8 41 13 52 9 11 -3 20 -3 20 2 0 5 26 14 57 22 32 7 81 23 110 35 29 11
53 26 53 31 0 6 16 17 35 24 19 7 35 17 35 22 0 5 5 9 10 9 6 0 37 27 70 60
33 33 60 64 60 69 0 5 7 11 15 15 8 3 15 12 15 21 0 8 4 15 9 15 5 0 19 17 32
38 12 20 31 60 42 87 13 36 17 66 14 105 -3 30 -12 69 -21 85 -8 17 -33 50
-56 75 -22 24 -40 52 -40 62 0 10 4 26 9 36 5 9 14 37 21 62 7 25 15 79 19
120 6 69 8 75 31 80 14 3 26 14 28 23 3 16 -5 18 -72 16 -64 -1 -76 -5 -81
-21z m12 -125 c-1 -16 -5 -30 -9 -33 -4 -3 -8 -21 -10 -39 -1 -18 -6 -34 -9
-37 -4 -2 -11 10 -14 28 -5 20 -3 34 3 36 6 2 14 19 18 38 3 19 10 34 15 34 4
0 7 -12 6 -27z"/>
<path d="M4166 1793 c-4 -5 -12 -9 -17 -9 -5 -1 -13 -2 -18 -3 -6 0 -27 -17
-48 -36 -21 -19 -41 -35 -45 -35 -4 0 -10 -9 -13 -20 -3 -11 -15 -20 -26 -20
-10 0 -19 -5 -19 -11 0 -6 -10 -23 -22 -37 -13 -14 -35 -37 -50 -53 -16 -15
-28 -30 -28 -33 0 -4 -11 -17 -25 -30 -14 -13 -25 -26 -25 -30 0 -4 -13 -21
-30 -39 -16 -18 -30 -35 -30 -38 0 -4 -6 -9 -12 -12 -10 -3 -12 7 -9 39 l3 44
-37 0 c-20 0 -45 -5 -56 -10 -10 -6 -19 -17 -19 -25 0 -9 6 -12 16 -8 14 5 16
2 10 -23 -4 -16 -12 -30 -17 -32 -5 -2 -9 -10 -9 -18 0 -8 -9 -33 -20 -54 -11
-22 -25 -40 -31 -40 -6 0 -8 -4 -5 -9 3 -5 -1 -23 -10 -40 -8 -17 -20 -31 -25
-31 -5 0 -9 -9 -9 -20 0 -11 -4 -20 -10 -20 -5 0 -10 -6 -10 -14 0 -8 8 -17
18 -20 9 -3 25 -4 35 -2 11 1 39 24 63 50 24 27 44 52 44 56 0 4 7 10 15 14 8
3 15 11 15 18 0 8 12 27 28 44 15 16 47 55 72 84 25 30 48 60 52 65 4 6 26 30
48 55 22 25 42 53 45 63 4 9 13 17 21 17 8 0 14 6 14 13 0 6 29 40 64 74 35
33 78 69 96 78 19 10 42 14 56 11 13 -4 24 -13 24 -21 0 -8 4 -15 9 -15 5 0
15 -16 21 -34 6 -19 12 -66 13 -103 2 -46 -2 -73 -11 -82 -8 -8 -12 -25 -9
-38 2 -12 1 -23 -3 -23 -5 0 -13 -13 -18 -30 -6 -16 -17 -37 -24 -45 -7 -9
-24 -27 -38 -40 -14 -14 -28 -25 -32 -25 -4 0 -17 -8 -28 -17 -11 -10 -20 -28
-20 -40 0 -20 4 -22 32 -16 18 3 48 17 67 30 20 13 38 28 41 33 3 4 64 18 135
29 72 12 140 23 152 25 15 2 25 -3 28 -15 3 -9 17 -25 31 -34 14 -9 38 -18 55
-20 16 -2 40 2 54 9 18 10 21 16 13 24 -7 7 -19 12 -27 12 -9 0 -24 7 -35 15
-10 8 -16 21 -13 29 3 8 24 24 46 36 27 13 43 29 47 47 5 19 2 30 -10 38 -12
9 -27 10 -56 3 -22 -6 -54 -25 -71 -42 -17 -17 -35 -40 -39 -51 -5 -14 -19
-22 -41 -23 -19 -2 -77 -7 -129 -11 -52 -4 -97 -6 -99 -5 -2 2 4 10 13 19 9 9
19 28 22 43 4 15 10 32 14 37 4 6 11 28 15 50 4 22 9 51 10 65 1 14 -4 56 -12
93 -7 38 -21 80 -30 94 -10 14 -32 32 -50 39 -18 8 -43 14 -56 14 -13 0 -27
-3 -31 -7z"/>
<path d="M1340 1488 c-11 -10 -22 -18 -25 -18 -4 0 -23 -17 -44 -39 -20 -21
-48 -59 -61 -85 -20 -37 -31 -47 -60 -53 -19 -3 -42 -14 -53 -23 -13 -13 -15
-20 -7 -25 7 -4 17 -2 23 4 6 6 25 11 42 11 18 0 37 -8 48 -20 10 -12 30 -20
49 -21 18 -1 44 -1 58 0 14 1 34 6 45 11 11 5 50 20 86 34 36 15 73 26 82 26
9 0 17 -7 17 -15 0 -8 6 -15 14 -15 7 0 19 -6 26 -14 6 -8 18 -12 26 -9 8 3
14 0 14 -7 0 -10 20 -11 83 -6 76 6 85 5 101 -13 11 -12 33 -23 50 -26 17 -4
52 -6 76 -5 25 1 97 4 160 5 63 2 117 0 120 -4 3 -3 20 -12 38 -18 17 -7 44
-18 60 -24 22 -9 36 -7 75 11 26 11 45 25 42 31 -4 5 -22 9 -41 9 -19 0 -47 6
-62 14 -15 7 -56 17 -92 22 -36 4 -69 7 -73 6 -4 -1 -15 4 -23 13 -9 8 -20 15
-25 15 -5 0 -9 -4 -9 -8 0 -5 -17 -14 -39 -20 -21 -7 -59 -12 -84 -12 -25 0
-57 5 -71 11 -14 7 -26 21 -28 33 -3 18 -10 21 -45 21 -24 0 -43 -3 -43 -7 0
-4 -10 -8 -22 -8 -13 0 -41 0 -62 0 -21 1 -47 5 -57 10 -9 6 -23 27 -29 47 -6
21 -14 44 -16 52 -4 11 -8 11 -22 -3 -10 -9 -24 -16 -30 -16 -7 0 -34 -15 -60
-33 -26 -19 -68 -42 -94 -51 -31 -12 -61 -16 -90 -13 -23 3 -44 6 -45 6 -2 1
-3 6 -3 11 0 6 9 19 20 30 11 11 29 20 40 20 11 0 20 4 20 8 0 5 8 13 19 18
10 5 39 27 65 48 25 22 46 44 46 51 0 6 -9 21 -21 33 -15 16 -30 22 -55 20
-19 -1 -43 -10 -54 -20z m-5 -94 c-22 -19 -41 -30 -43 -25 -2 5 5 19 15 31 10
12 27 25 38 30 11 4 22 6 25 3 2 -2 -13 -20 -35 -39z"/>
<path d="M2543 1470 c-13 -5 -23 -16 -23 -24 0 -9 15 -16 43 -19 23 -4 68 -9
99 -13 32 -3 78 -3 104 1 27 4 44 11 41 18 -2 6 -50 19 -108 28 -57 10 -111
18 -119 18 -8 0 -25 -4 -37 -9z"/>
<path d="M5050 1452 c0 -5 -13 -12 -30 -15 -18 -4 -30 -13 -30 -22 0 -8 -9
-15 -20 -15 -16 0 -20 -7 -20 -35 0 -22 8 -43 21 -56 18 -18 29 -20 67 -15 24
3 53 6 63 6 11 0 19 6 19 14 0 8 -13 17 -30 21 -16 4 -34 4 -39 1 -5 -4 -12
-2 -16 3 -3 6 -3 21 1 34 4 19 17 28 50 37 32 9 44 17 42 29 -2 11 -16 17 -41
19 -20 2 -37 -1 -37 -6z"/>
<path d="M5593 1433 c-7 -2 -29 -19 -49 -36 -20 -18 -42 -44 -50 -60 -8 -15
-29 -43 -47 -62 -18 -18 -42 -46 -54 -62 -13 -15 -23 -32 -23 -37 0 -5 -7 -14
-15 -20 -8 -6 -32 -46 -55 -89 -22 -42 -40 -88 -40 -102 0 -22 3 -24 37 -19
21 2 46 10 57 17 15 10 20 26 20 63 1 33 8 56 21 72 11 13 30 36 43 50 12 15
25 35 28 45 3 9 9 15 14 12 4 -3 13 9 19 25 5 17 15 30 20 30 6 0 17 13 25 28
8 16 29 44 45 63 17 19 36 40 42 47 6 7 8 20 5 28 -3 7 -11 14 -18 13 -7 0
-19 -3 -25 -6z"/>
<path d="M5281 1405 c-29 -15 -48 -34 -57 -55 -8 -18 -14 -38 -14 -45 0 -8 7
-21 16 -29 8 -9 30 -16 48 -16 18 0 53 7 79 16 26 9 47 21 47 26 0 7 -18 9
-50 5 -27 -3 -52 -2 -55 3 -3 4 -1 20 4 33 6 14 19 28 30 32 12 3 21 12 21 19
0 8 -6 18 -12 23 -9 7 -27 3 -57 -12z"/>
</g>
</svg>
