<?xml version="1.0" encoding="UTF-8" standalone="no"?>
<!-- Created with Inkscape (http://www.inkscape.org/) -->
<svg
   xmlns:dc="http://purl.org/dc/elements/1.1/"
   xmlns:cc="http://creativecommons.org/ns#"
   xmlns:rdf="http://www.w3.org/1999/02/22-rdf-syntax-ns#"
   xmlns:svg="http://www.w3.org/2000/svg"
   xmlns="http://www.w3.org/2000/svg"
   xmlns:sodipodi="http://sodipodi.sourceforge.net/DTD/sodipodi-0.dtd"
   xmlns:inkscape="http://www.inkscape.org/namespaces/inkscape"
   id="svg2440"
   sodipodi:version="0.32"
   inkscape:version="0.46"
   width="340"
   height="121"
   version="1.0"
   sodipodi:docname="Hesse_Signature.svg"
   inkscape:output_extension="org.inkscape.output.svg.inkscape">
  <metadata
     id="metadata2445">
    <rdf:RDF>
      <cc:Work
         rdf:about="">
        <dc:format>image/svg+xml</dc:format>
        <dc:type
           rdf:resource="http://purl.org/dc/dcmitype/StillImage" />
      </cc:Work>
    </rdf:RDF>
  </metadata>
  <defs
     id="defs2443">
    <inkscape:perspective
       sodipodi:type="inkscape:persp3d"
       inkscape:vp_x="0 : 526.18109 : 1"
       inkscape:vp_y="0 : 1000 : 0"
       inkscape:vp_z="744.09448 : 526.18109 : 1"
       inkscape:persp3d-origin="372.04724 : 350.78739 : 1"
       id="perspective2447" />
  </defs>
  <sodipodi:namedview
     inkscape:window-height="667"
     inkscape:window-width="640"
     inkscape:pageshadow="2"
     inkscape:pageopacity="0.0"
     guidetolerance="10.0"
     gridtolerance="10.0"
     objecttolerance="10.0"
     borderopacity="1.0"
     bordercolor="#666666"
     pagecolor="#ffffff"
     id="base"
     showgrid="false"
     inkscape:zoom="1.36"
     inkscape:cx="200"
     inkscape:cy="81"
     inkscape:window-x="88"
     inkscape:window-y="99"
     inkscape:current-layer="svg2440" />
  <path
     style="fill:#000000"
     d="M 155.28162,118.15456 C 153.98816,117.33213 153.10597,113.94741 152.35899,106.94117 C 152.09512,104.46617 151.47202,100.86617 150.97433,98.941172 C 150.47665,97.016172 149.81363,94.203672 149.50097,92.691172 C 148.99382,90.237872 148.49589,89.941172 144.8858,89.941172 C 142.66012,89.941172 139.96201,90.410582 138.89001,90.984292 C 137.3736,91.795852 136.80629,91.676592 136.33447,90.447052 C 135.73713,88.890402 138.6538,84.656867 139.85424,85.338127 C 140.19323,85.530517 142.45627,85.407407 144.88321,85.064547 L 149.29582,84.441177 L 149.13839,67.292439 C 149.03057,55.547865 149.47308,47.354362 150.54258,41.292439 C 151.40147,36.424245 152.12549,29.966177 152.15152,26.941177 C 152.17754,23.916177 152.82248,19.923721 153.58471,18.069053 C 154.34695,16.214385 154.97227,13.514385 154.97433,12.069053 C 154.979,8.7848008 158.45049,2.9411768 160.39687,2.9411768 C 162.62322,2.9411768 163.16175,4.6071608 161.47927,6.2896408 C 159.9457,7.8232068 157.16418,18.163928 156.32774,25.441177 C 156.07488,27.641177 155.24819,33.941177 154.49065,39.441177 C 153.10738,49.484237 153.18671,73.018019 154.6182,77.280898 C 155.01718,78.469047 155.23312,80.410697 155.09806,81.595667 C 154.75281,84.624737 156.41608,85.279287 159.89156,83.482047 C 161.5304,82.634567 164.64195,81.941177 166.80612,81.941177 C 172.52801,81.941177 176.48666,79.909297 179.87338,75.234063 C 181.51608,72.966389 183.89746,70.787154 185.16535,70.391317 C 186.43323,69.995481 187.69559,69.371663 187.97059,69.005056 C 188.7723,67.936283 197.35167,64.938034 199.50402,64.974446 C 201.60089,65.00992 205.97059,68.16938 205.97059,69.650024 C 205.97059,71.44882 197.83511,78.936027 195.19579,79.566237 C 193.69693,79.924127 191.98656,80.594887 191.39496,81.056797 C 190.80336,81.518707 188.55336,82.169457 186.39496,82.502897 C 181.24445,83.298577 180.29868,84.317187 181.9118,87.331322 C 183.81114,90.880272 193.92528,94.441542 195.38719,92.076112 C 195.68124,91.600332 197.64399,90.980062 199.74885,90.697742 C 201.85372,90.415422 207.5163,88.329692 212.33236,86.062802 C 217.14843,83.795907 221.2588,81.941177 221.46651,81.941177 C 222.157,81.941177 235.19839,72.806855 237.28993,70.858296 C 242.7879,65.736158 247.28276,70.771253 248.58836,83.514667 C 248.95049,87.049242 249.65363,89.941172 250.15089,89.941172 C 251.90033,89.941172 259.97059,82.220677 259.97059,80.547057 C 259.97059,80.025437 260.5999,78.888227 261.36905,78.019917 C 263.9778,75.074861 268.97059,64.908164 268.97059,62.541082 C 268.97059,59.201654 271.28013,57.501287 273.90667,58.906967 C 275.04182,59.514485 275.97059,60.869154 275.97059,61.917344 C 275.97059,62.965533 276.42059,64.101258 276.97059,64.441177 C 277.52059,64.781096 277.9849,66.945153 278.00239,69.250194 C 278.01989,71.555235 278.69489,74.314685 279.50239,75.382307 C 280.3099,76.449928 280.98654,78.249927 281.00603,79.382307 C 281.02551,80.514687 281.65384,82.547087 282.4023,83.898757 C 283.59266,86.048452 284.37118,86.326142 288.61687,86.115402 C 291.28641,85.982887 295.59061,84.876987 298.18174,83.657827 C 303.24873,81.273747 303.801,79.905147 301.8723,74.512175 C 300.30853,70.13962 303.57017,64.918183 312.97059,56.745358 C 324.90295,46.371234 326.61739,45.946952 332.45359,51.923769 L 336.34249,55.906361 L 334.07204,60.452501 C 331.2206,66.161942 318.32532,79.941177 315.83358,79.941177 C 313.71483,79.941177 313.34823,82.193187 315.22059,83.706757 C 315.90809,84.262517 318.7901,85.028937 321.62506,85.409907 C 325.60067,85.944157 326.89883,86.558772 327.30116,88.097282 C 327.77985,89.927772 327.47897,90.036432 323.64669,89.417132 C 321.34984,89.045952 317.5195,87.895252 315.13484,86.860012 C 310.35795,84.786267 306.27395,84.655297 303.97059,86.501992 C 303.14559,87.163432 301.34559,88.036062 299.97059,88.441172 C 298.59559,88.846282 296.78561,89.776472 295.94841,90.508262 C 294.06513,92.154432 281.9686,93.379552 280.10858,92.112502 C 278.92268,91.304652 278.00619,88.276142 276.57659,80.441177 C 276.37588,79.341177 275.70742,77.174382 275.09113,75.626077 C 274.47483,74.077773 273.97059,71.265273 273.97059,69.376077 C 273.97059,67.486882 273.61099,65.941177 273.17148,65.941177 C 272.26454,65.941177 269.97059,71.794863 269.97059,74.109165 C 269.97059,74.948461 269.18309,76.566647 268.22059,77.705134 C 267.25809,78.843617 264.67059,82.121467 262.47059,84.989237 C 260.27059,87.857002 256.78309,91.962552 254.72059,94.112662 C 252.65809,96.262782 250.97059,98.917912 250.97059,100.01295 C 250.97059,102.48719 248.23991,103.65023 246.08467,102.09395 C 245.19692,101.45292 243.79559,100.65762 242.97059,100.32661 C 236.88348,97.884332 233.20578,95.867412 231.60329,94.092582 L 229.73598,92.024452 L 237.10329,92.232812 C 244.18531,92.433102 244.48371,92.348352 244.8094,90.044202 C 245.45396,85.484137 241.36713,73.941177 239.10805,73.941177 C 238.65901,73.941177 237.78469,75.053763 237.16511,76.413589 C 236.54554,77.773416 234.8983,79.172197 233.5046,79.521997 C 232.11089,79.871797 230.97059,80.559207 230.97059,81.049587 C 230.97059,81.539957 230.29559,81.941177 229.47059,81.941177 C 228.64559,81.941177 227.97059,82.383517 227.97059,82.924157 C 227.97059,84.646357 209.79749,92.658772 200.63814,94.974892 C 192.98198,96.910892 191.26272,97.045662 187.72877,95.986862 C 182.49095,94.417582 177.97059,91.066632 177.97059,88.753112 C 177.97059,87.756542 177.40809,86.870732 176.72059,86.784652 C 171.95649,86.188092 169.09832,86.407682 166.2755,87.587132 C 164.49313,88.331852 161.44537,88.941172 159.50271,88.941172 L 155.97059,88.941172 L 155.98514,96.691172 C 155.9933,101.03236 156.67356,106.3763 157.53175,108.84073 C 158.40474,111.34767 158.79448,114.46651 158.43774,116.09073 C 157.78387,119.06777 157.25834,119.41142 155.28162,118.15456 z M 311.39076,77.070339 C 311.68678,76.591378 313.24785,75.935725 314.85982,75.613331 C 319.53672,74.677951 329.97059,60.845288 329.97059,55.580284 C 329.97059,53.725837 328.01054,53.019722 324.64747,53.662614 C 321.69013,54.227945 312.98359,62.428923 308.55248,68.823004 C 306.49786,71.787834 305.9103,73.564836 306.3739,75.411947 C 306.99912,77.903038 310.21843,78.967217 311.39076,77.070339 z M 194.51254,74.378005 C 200.10344,71.733088 201.70982,70.307902 200.43382,69.124646 C 200.02845,68.748738 199.49589,69.003677 199.25035,69.691177 C 199.00482,70.378677 197.5023,70.941177 195.91143,70.941177 C 192.37676,70.941177 187.13829,73.977328 187.71594,75.691177 C 188.27105,77.338115 188.24457,77.343229 194.51254,74.378005 z M 52.170588,115.74117 C 51.510588,115.08117 50.967816,114.06867 50.964427,113.49117 C 50.961039,112.91367 50.305312,111.18938 49.507257,109.65942 C 48.709201,108.12945 47.287251,104.07945 46.347368,100.65942 C 45.407486,97.239382 43.363212,92.015322 41.804539,89.050402 C 40.245866,86.085482 38.970588,83.047987 38.970588,82.300407 C 38.970588,80.195297 41.094062,80.697337 41.680839,82.941177 C 41.968495,84.041177 42.601367,84.941177 43.087219,84.941177 C 43.573072,84.941177 43.970588,85.584037 43.970588,86.369742 C 43.970588,87.155462 44.756016,88.583742 45.715983,89.543712 C 47.376511,91.204242 47.49931,91.098302 48.241472,87.365142 C 49.655725,80.251277 50.853169,58.005423 50.028059,54.174331 C 49.834411,53.275198 39.741589,59.335001 38.727047,60.95954 C 38.046393,62.04944 36.980004,62.941177 36.357295,62.941177 C 35.734585,62.941177 33.80681,64.601585 32.073351,66.630973 C 29.324396,69.849218 28.736847,70.136008 27.47589,68.87505 C 25.441057,66.840217 26.649897,63.282085 29.82077,61.973068 C 33.903894,60.287451 36.1446,58.81532 42.033997,53.949048 C 50.574045,46.892604 50.425017,47.292232 50.093347,32.337309 C 49.890597,23.195411 50.153502,18.946164 50.952418,18.452406 C 51.585596,18.061081 52.319643,17.956899 52.583635,18.220891 C 52.847627,18.484882 53.148088,24.379943 53.251328,31.321026 C 53.390665,40.689073 53.762986,43.941177 54.696159,43.941177 C 55.859153,43.941177 64.836858,37.60497 65.970588,35.984012 C 66.245588,35.590828 69.099358,33.599529 72.312308,31.558905 C 75.525248,29.518281 78.675248,27.426275 79.312308,26.910003 C 85.100569,22.219184 86.878149,20.941007 87.614949,20.939956 C 88.085549,20.939284 89.820589,19.754923 91.470589,18.308042 C 95.509549,14.766292 101.41964,12.264898 107.47059,11.536189 C 113.58622,10.799691 114.7489,11.60668 118.23368,19.006619 C 120.90696,24.683329 121.56082,31.644299 121.09247,49.441177 C 120.67163,65.432835 121.13285,86.808512 121.96633,89.941172 C 123.69328,96.431962 124.27634,107.86784 122.96112,109.45259 C 121.28995,111.46622 119.97059,110.38607 119.97059,107.00428 C 119.97059,105.4539 119.34029,102.66796 118.56992,100.81329 C 117.46812,98.160682 117.13809,89.799542 117.02319,61.627106 C 116.87375,24.985394 116.86536,24.892285 112.99841,16.941177 C 111.71685,14.306078 106.41787,14.597513 101.25269,17.587172 C 96.839019,20.141845 87.987349,26.061146 85.518929,28.108666 C 84.942339,28.586938 83.389238,29.869909 82.067578,30.959714 C 80.745918,32.049519 79.199928,32.941177 78.632028,32.941177 C 78.064138,32.941177 76.670488,33.804724 75.535038,34.860169 C 73.443018,36.804793 67.313528,41.29161 58.780041,47.124925 C 56.200239,48.888423 53.870986,51.256011 53.603921,52.386231 C 53.089626,54.562734 52.52033,78.339707 52.80051,85.941177 C 52.891735,88.416172 52.605124,91.762462 52.163597,93.377372 C 51.643455,95.279822 51.978523,99.152622 53.115297,104.37737 C 55.67647,116.14884 55.438674,119.00926 52.170588,115.74117 z M 4.4646304,110.69117 C 3.7195544,106.63224 4.5427094,92.210792 5.9279224,85.054687 C 6.5013884,82.092117 6.9705884,73.906176 6.9705884,66.863704 C 6.9705884,59.821233 7.3545584,53.821905 7.8238544,53.531863 C 8.2931514,53.241822 8.9379744,49.555442 9.2567944,45.339907 C 9.5756144,41.124372 10.316644,37.195121 10.903527,36.608238 C 11.490411,36.021354 11.970588,33.231229 11.970588,30.407958 C 11.970588,19.774337 15.004709,10.608163 17.926783,12.414104 C 19.440647,13.349724 19.125359,23.767899 17.441752,28.441177 C 16.649174,30.641177 15.993925,34.594509 15.985644,37.22636 C 15.977363,39.858211 15.3418,43.008211 14.573281,44.22636 C 13.804762,45.444509 12.900904,50.257768 12.564707,54.922491 C 12.228511,59.587214 11.521881,65.887214 10.99442,68.922491 C 9.6322464,76.761126 6.9495274,103.54451 6.9609664,109.19117 C 6.9719244,114.6008 5.3600854,115.56932 4.4646304,110.69117 z M 33.029065,76.195953 C 31.331144,74.136079 30.428345,72.288591 31.022846,72.090424 C 32.126986,71.722378 37.970588,77.63589 37.970588,79.121287 C 37.970588,80.936687 35.951554,79.741437 33.029065,76.195953 z"
     id="path2453" />
</svg>
