<?xml version="1.0" encoding="UTF-8" standalone="no"?>
<!-- Created with Inkscape (http://www.inkscape.org/) -->
<svg
   xmlns:dc="http://purl.org/dc/elements/1.1/"
   xmlns:cc="http://creativecommons.org/ns#"
   xmlns:rdf="http://www.w3.org/1999/02/22-rdf-syntax-ns#"
   xmlns:svg="http://www.w3.org/2000/svg"
   xmlns="http://www.w3.org/2000/svg"
   xmlns:sodipodi="http://sodipodi.sourceforge.net/DTD/sodipodi-0.dtd"
   xmlns:inkscape="http://www.inkscape.org/namespaces/inkscape"
   id="svg3855"
   sodipodi:version="0.32"
   inkscape:version="0.46"
   width="315"
   height="78"
   version="1.0"
   sodipodi:docname="Albert Einstein signature.svg"
   inkscape:output_extension="org.inkscape.output.svg.inkscape">
  <metadata
     id="metadata3860">
    <rdf:RDF>
      <cc:Work
         rdf:about="">
        <dc:format>image/svg+xml</dc:format>
        <dc:type
           rdf:resource="http://purl.org/dc/dcmitype/StillImage" />
      </cc:Work>
    </rdf:RDF>
  </metadata>
  <defs
     id="defs3858">
    <inkscape:perspective
       sodipodi:type="inkscape:persp3d"
       inkscape:vp_x="0 : 526.18109 : 1"
       inkscape:vp_y="0 : 1000 : 0"
       inkscape:vp_z="744.09448 : 526.18109 : 1"
       inkscape:persp3d-origin="372.04724 : 350.78739 : 1"
       id="perspective3862" />
  </defs>
  <sodipodi:namedview
     inkscape:window-height="968"
     inkscape:window-width="1280"
     inkscape:pageshadow="2"
     inkscape:pageopacity="0.0"
     guidetolerance="10.0"
     gridtolerance="10.0"
     objecttolerance="10.0"
     borderopacity="1.0"
     bordercolor="#666666"
     pagecolor="#ffffff"
     id="base"
     showgrid="false"
     inkscape:zoom="1.2211622"
     inkscape:cx="183.63271"
     inkscape:cy="-9.3340495"
     inkscape:window-x="-4"
     inkscape:window-y="-4"
     inkscape:current-layer="svg3855" />
  <path
     style="fill:#000000;fill-rule:evenodd;stroke:none;stroke-width:1px;stroke-linecap:butt;stroke-linejoin:miter;stroke-opacity:1;opacity:1"
     d="M 33.062766,36.645952 C 34.977949,34.772607 45.02068,22.411765 48.929228,18.503217 C 52.837776,14.594669 55.298713,12.712776 56.167279,12.712776 C 57.035846,12.712776 57.098529,14.182379 57.325368,15.028952 C 57.552206,15.875526 54.285386,18.9375 53.272059,20.38511 C 52.258732,21.832721 47.047335,32.110754 45.599724,33.558364 C 44.152114,35.005974 42.12546,37.322151 40.967371,39.059283 C 39.809283,40.796415 37.348346,45.573529 37.637868,46.731618 C 37.92739,47.889706 39.375,48.323989 41.980699,48.323989 C 44.586397,48.323989 48.433467,48.10267 48.433467,52.049497 C 48.433467,55.996324 46.323529,55.272518 46.323529,55.272518 C 46.323529,55.272518 45.115147,53.492445 44.958693,52.908552 C 44.802239,52.32466 41.691177,50.640165 38.795956,50.640165 C 35.900735,50.640165 34.525506,51.508732 33.367417,52.956342 C 32.209329,54.403952 28.662684,60.194393 27.649357,61.786765 C 26.636029,63.379136 23.95795,71.992417 23.089384,73.078125 C 22.220818,74.163833 21.424632,77.131434 20.411305,77.131434 C 19.397978,77.131434 18.095129,74.742877 18.095129,73.512408 C 18.095129,72.281939 21.279871,66.346737 21.569393,65.116268 C 21.858915,63.8858 22.293199,60.556296 22.655101,60.556296 C 23.017004,60.556296 22.944623,62.076287 23.017004,62.800092 C 23.089384,63.523897 23.161765,64.030561 24.319853,64.030561 C 25.477941,64.030561 26.925552,61.786765 27.649357,60.556296 C 28.373162,59.325827 30.255055,54.765855 30.255055,53.969669 C 30.255055,53.173483 28.300781,52.449678 26.70841,52.449678 C 25.116039,52.449678 22.220818,52.883961 22.148438,54.11443 C 22.076057,55.344899 22.148438,57.009651 21.858915,57.009651 C 21.569393,57.009651 20.266544,55.344899 18.674173,55.344899 C 17.081801,55.344899 15.163718,56.97346 14.222771,57.842027 C 13.281824,58.710593 9.6627987,61.243911 8.3599495,62.51057 C 7.0571002,63.777229 4.1394047,66.68737 3.8361673,67.577206 C 3.1069901,69.716942 2.0015316,70.421135 0.28952206,69.784811 C -0.61380652,69.44906 0.80098676,67.139288 1.7649827,66.554139 C 2.6400104,66.022995 5.5275213,65.000089 8.905451,60.700906 C 12.283381,56.401722 14.415234,53.535373 18.015625,49.850586 C 23.360378,44.587831 26.982083,42.209882 33.062766,36.645952 z M 25.506269,47.704099 C 25.506269,48.300435 26.554578,49.336565 28.245135,49.336565 C 29.326571,49.336565 31.663074,48.645731 33.676935,47.291549 C 35.253531,46.231397 34.85715,43.394706 36.667747,41.265844 C 41.398806,35.694171 42.259617,31.843308 41.968217,31.681419 C 41.599281,31.476455 32.831382,39.333015 31.066717,40.893954 C 28.516163,43.150053 25.506269,46.109779 25.506269,47.704099 z"
     id="path4387"
     sodipodi:nodetypes="cscssssssssscssssssssssssssssssssssscssssss" />
  <path
     style="fill:#000000;fill-rule:evenodd;stroke:none;stroke-width:1px;stroke-linecap:butt;stroke-linejoin:miter;stroke-opacity:1;opacity:1"
     d="M 44.857825,71.829561 C 45.845973,72.794183 46.920817,73.184931 47.445428,72.734318 C 48.030703,72.231598 47.553998,70.798138 46.794003,70.056239 C 46.057877,69.337639 45.074966,68.590533 44.387351,69.205767 C 43.605091,69.905684 44.325983,71.310382 44.857825,71.829561 z"
     id="path4389"
     sodipodi:nodetypes="cssss" />
  <path
     style="fill:#000000;fill-rule:evenodd;stroke:none;stroke-width:1px;stroke-linecap:butt;stroke-linejoin:miter;stroke-opacity:1;opacity:1"
     d="M 104.55365,9.1299401 C 107.58303,9.1299401 106.54412,13.110868 105.42222,15.028952 C 104.30032,16.947036 102.92509,19.588925 103.6489,20.602252 C 104.3727,21.615579 108.57077,21.398437 108.57077,24.148897 C 108.57077,26.899357 94.890855,38.335478 91.488971,41.882123 C 88.087087,45.428768 82.730928,50.857307 82.730928,54.186811 C 82.730928,57.516314 85.264246,59.036305 87.21852,59.036305 C 89.172794,59.036305 90.078125,57.732422 91.152921,57.425337 C 92.227717,57.118253 93.507235,56.606445 93.507235,56.043457 C 93.507235,55.480469 88.491522,54.456854 88.491522,51.283647 C 88.491522,48.11044 93.404874,45.704945 96.219815,45.704945 C 99.034757,45.704945 102.46387,50.15767 102.46387,51.590732 C 102.46387,53.023793 101.8497,53.586781 102.41269,53.740323 C 102.97567,53.893865 106.55833,54.303311 109.06618,52.307262 C 111.57404,50.311213 116.48739,48.366344 117.71573,48.366344 C 118.94407,48.366344 121.34957,50.925382 123.24325,50.925382 C 125.13694,50.925382 129.28258,47.291548 129.28258,45.193137 C 129.28258,43.094727 128.10542,38.386097 127.79834,38.079013 C 127.49126,37.771928 126.46764,37.413663 126.46764,36.492409 C 126.46764,35.571156 127.03063,34.49636 128.31015,34.49636 C 129.58967,34.49636 130.5621,35.775879 130.5621,36.390048 C 130.5621,37.004217 129.18022,37.976651 129.12904,38.283736 C 129.07786,38.59082 130.51092,43.657715 130.51092,44.578968 C 130.51092,45.500222 127.38889,50.362393 125.64875,51.693093 C 123.9086,53.023793 121.34957,53.126154 118.63699,55.531649 C 115.92441,57.937145 115.25906,58.141868 114.59371,58.141868 C 113.92836,58.141868 112.18821,57.527699 112.18821,56.708807 C 112.18821,55.889915 114.38898,53.433239 113.92836,53.126154 C 113.46773,52.81907 111.26696,52.947021 110.80633,52.947021 C 110.3457,52.947021 107.22368,54.508034 105.94416,55.173384 C 104.66464,55.838734 102.87331,58.039506 101.74734,58.039506 C 100.62136,58.039506 99.879239,56.657626 98.420588,56.657626 C 96.961936,56.657626 95.86155,57.783603 94.889116,58.346591 C 93.916682,58.909579 89.822221,60.700906 87.058461,60.700906 C 84.2947,60.700906 79.381348,60.905629 79.381348,55.326926 C 79.381348,49.748224 105.27881,29.787731 105.27881,24.823198 C 105.27881,23.543679 102.92449,23.287775 100.97963,23.287775 C 99.034757,23.287775 90.897017,28.047585 89.924583,28.098766 C 88.952148,28.149947 86.649015,30.350719 84.704146,31.11843 C 82.759277,31.886142 81.377397,33.77983 79.790794,33.77983 C 78.20419,33.77983 77.230009,32.861401 77.230009,31.459329 C 77.230009,26.753313 82.386227,25.306549 82.913698,24.735969 C 83.454734,24.150715 83.997587,22.990809 84.576632,22.990809 C 85.155676,22.990809 84.949344,27.105931 86.952498,27.105931 C 88.955653,27.105931 93.081342,25.596507 94.890855,23.931755 C 96.700368,22.267004 98.03287,20.780713 98.36512,18.575597 C 98.967695,14.57636 101.92259,9.1299401 104.55365,9.1299401 z M 101.09502,15.592874 C 101.09502,16.375414 101.10736,16.941362 101.61938,16.941362 C 102.33592,16.941362 104.07606,14.689409 104.07606,14.049649 C 104.07606,13.40989 103.70553,13.026034 103.00127,13.026034 C 101.79018,13.026034 101.09502,13.804403 101.09502,15.592874 z"
     id="path4391"
     sodipodi:nodetypes="csssssssssssssssssssssssssssssssssssssssssssssscssss" />
  <path
     style="fill:#000000;fill-rule:evenodd;stroke:none;stroke-width:1px;stroke-linecap:butt;stroke-linejoin:miter;stroke-opacity:1;opacity:1"
     d="M 123.62711,60.880038 C 123.03264,60.347797 126.02041,57.301173 126.44205,58.141868 C 126.96643,59.187409 124.48255,61.645928 123.62711,60.880038 z"
     id="path4393"
     sodipodi:nodetypes="css" />
  <path
     style="fill:#000000;fill-rule:evenodd;stroke:none;stroke-width:1px;stroke-linecap:butt;stroke-linejoin:miter;stroke-opacity:1;opacity:1"
     d="M 210.04581,35.980602 C 213.37256,32.346768 213.57728,29.838912 213.57728,27.842862 C 213.57728,25.846813 207.53795,23.441317 207.53795,22.110618 C 207.53795,20.779918 214.95916,19.039773 245.25817,8.1894531 C 275.55717,-2.6608665 284.97443,0.61470174 285.17915,2.0477628 C 285.38388,3.4808239 283.33665,2.1501243 279.65163,2.1501243 C 275.96662,2.1501243 267.67533,1.2288708 246.69123,8.5988992 C 219.93652,17.995678 219.15598,19.55158 219.15598,22.622425 C 219.15598,25.693271 221.91974,30.094815 221.91974,33.984553 C 221.91974,37.87429 221.10085,38.079013 221.10085,39.102628 C 221.10085,40.126243 221.81738,41.098677 222.63627,41.098677 C 223.45517,41.098677 229.13623,38.53964 231.18346,36.082963 C 233.23069,33.626287 237.52987,25.386186 239.5771,25.386186 C 241.62433,25.386186 242.18732,27.586958 242.18732,28.712935 C 242.18732,29.838912 240.24245,32.244407 237.63224,34.189276 C 235.02202,36.134144 234.04958,37.464844 234.04958,38.437278 C 234.04958,39.409712 236.30154,40.023881 239.37238,40.023881 C 242.44323,40.023881 248.94318,36.236506 252.6282,32.551492 C 256.31321,28.866477 259.58878,26.205078 260.30531,26.205078 C 261.02184,26.205078 261.02184,27.945224 261.02184,28.559393 C 261.02184,29.173562 258.56516,33.370384 258.56516,34.49636 C 258.56516,35.622337 261.32892,37.362482 267.47061,32.756214 C 273.6123,28.149947 276.37607,27.535778 278.01385,27.535778 C 279.65163,27.535778 279.13983,29.327104 279.13983,30.145996 C 279.13983,30.964888 280.87997,32.960937 282.00595,32.960937 C 283.13192,32.960937 287.43111,30.299538 290.19487,28.35467 C 292.95863,26.409801 295.51767,24.157848 296.54128,24.157848 C 297.5649,24.157848 298.8956,26.921609 298.8956,27.842862 C 298.8956,28.764116 299.4074,29.583008 300.53338,29.583008 C 301.65936,29.583008 305.85618,27.228693 307.18688,26.921609 C 308.51758,26.614524 310.87189,26.512163 312.40732,24.874379 C 313.94274,23.236594 314.76163,22.92951 314.96635,23.134233 C 315.17108,23.338956 309.33647,28.457031 306.57271,29.787731 C 303.80895,31.11843 297.25781,34.291637 295.92711,34.291637 C 294.59641,34.291637 293.77752,30.094815 292.54918,30.094815 C 291.32085,30.094815 283.23429,36.953036 278.83274,36.953036 C 274.4312,36.953036 274.6871,32.909757 271.51389,32.909757 C 268.34069,32.909757 260.61239,39.92152 256.72266,39.92152 C 252.83292,39.92152 253.75417,35.622337 252.32111,35.622337 C 250.88805,35.622337 237.88814,43.913619 234.51021,43.913619 C 231.13228,43.913619 230.56929,40.433327 229.28977,40.433327 C 228.01025,40.433327 223.35281,44.271884 221.86856,44.271884 C 220.38432,44.271884 220.48668,43.708896 217.72292,47.189187 C 214.95916,50.669478 212.56458,53.330877 210.8647,53.330877 C 208.73054,53.330877 206.15607,49.236417 206.15607,47.189187 C 206.15607,45.141957 205.23482,42.941184 204.05766,42.941184 C 202.8805,42.941184 199.7073,44.323065 196.53409,46.575018 C 193.36088,48.826971 187.52628,55.378107 182.71529,55.378107 C 177.9043,55.378107 178.31374,52.511985 178.31374,52.000178 C 178.31374,51.48837 179.95153,49.850586 181.79403,49.850586 C 183.63654,49.850586 184.76252,49.952947 184.76252,47.803356 C 184.76252,45.653764 183.94363,44.527788 182.81765,44.527788 C 181.69167,44.527788 176.31769,48.161621 173.45157,50.055309 C 170.58545,51.948997 159.37686,59.370206 156.92019,59.370206 C 154.46351,59.370206 151.69975,54.91748 150.26669,54.91748 C 148.83363,54.91748 140.64471,60.905629 139.31401,60.905629 C 137.98331,60.905629 134.5542,57.425337 134.14475,56.657626 C 133.73531,55.889915 132.54663,56.051214 130.10147,56.964711 C 128.84786,57.433054 129.15539,57.04951 129.64085,56.708807 C 129.64085,56.708807 133.27468,54.456854 135.32191,53.5356 C 137.36914,52.614347 139.877,50.567116 140.69589,50.771839 C 141.51478,50.976562 139.77464,53.740323 139.77464,54.405673 C 139.77464,55.071023 141.00297,56.964711 142.23131,56.964711 C 143.45965,56.964711 154.46351,50.669478 157.02255,50.669478 C 159.58159,50.669478 159.37686,51.897816 159.37686,52.307262 C 159.37686,52.716708 157.87212,53.732482 157.87212,54.91356 C 157.87212,56.094638 157.6879,57.220614 159.73513,56.094638 C 161.78236,54.968661 169.30593,52.000178 173.09331,49.645863 C 176.88068,47.291548 183.53418,41.047496 185.0696,41.047496 C 186.60502,41.047496 187.17601,41.701172 187.61029,42.931641 C 188.04458,44.162109 187.86363,47.781135 188.11696,47.853516 C 188.37029,47.925896 190.95539,47.752175 191.92782,47.752175 C 192.90026,47.752175 196.63645,45.449043 198.99077,43.29945 C 203.5545,40.27668 206.56927,39.320297 210.04581,35.980602 z M 210.33778,44.922105 C 210.33778,46.948626 211.71301,50.857307 216.27298,44.632583 C 220.83295,38.407858 220.64227,32.400276 218.73392,32.400276 C 216.87819,32.400276 210.33778,40.869675 210.33778,44.922105 z"
     id="path4395"
     sodipodi:nodetypes="cscssssssssssssssssssssssssssssssssssssssssssssssssssssssssscssssssssssssscsss" />
  <path
     style="fill:#000000;fill-rule:evenodd;stroke:none;stroke-width:1px;stroke-linecap:butt;stroke-linejoin:miter;stroke-opacity:1;opacity:1"
     d="M 268.0336,13.358709 C 268.98699,12.301257 270.1832,13.768155 270.89973,14.331143 C 271.61626,14.894131 272.40956,16.608687 271.87216,16.992543 C 271.27586,17.418472 269.82493,16.890181 268.95486,16.173651 C 268.08479,15.45712 267.67554,13.755857 268.0336,13.358709 z"
     id="path4397"
     sodipodi:nodetypes="cssss" />
</svg>
