<?xml version="1.0" encoding="UTF-8" standalone="no"?>
<svg id="svg2" xmlns:rdf="http://www.w3.org/1999/02/22-rdf-syntax-ns#" xmlns="http://www.w3.org/2000/svg" viewBox="0 0 574.72 231.33" version="1.1" xmlns:cc="http://creativecommons.org/ns#" xmlns:dc="http://purl.org/dc/elements/1.1/">
 <defs id="defs4"></defs>
 <metadata id="metadata7">
  <rdf:RDF>
   <cc:Work rdf:about="">
    <dc:format>image/svg+xml</dc:format>
    <dc:type rdf:resource="http://purl.org/dc/dcmitype/StillImage"/>
    <dc:title/>
   </cc:Work>
  </rdf:RDF>
 </metadata>
 <g id="layer1" transform="translate(-12.530648,-18.993837)">
  <path id="path2858" fill="#000" d="m212.01,249.74c-6.109-0.6281-7.915-1.2925-8.994-3.3088-1.4664-2.7398,0.49778-5.5622,5.4871-7.8846,4.1588-1.9359,15.013-4.1491,20.089-4.0962,5.4306,0.057,0.0356,1.9637-8.8027,3.1117-4.5536,0.5914-9.2917,1.4668-10.529,1.9452-2.5176,0.9733-2.9773,4.0642-0.86516,5.8172,2.7207,2.2579,13.747,2.3391,28.714,0.2113,8.0293-1.1415,25.129-2.9814,38-4.0886s27.001-2.7104,31.401-3.5626c4.4-0.8523,13.563-1.7763,20.363-2.0534,6.7997-0.2772,16.667-1.0996,21.928-1.8277,6.7024-0.9277,10.634-1.0276,13.137-0.3341,1.9959,0.5531,7.0584,0.7005,11.474,0.3341,9.0994-0.755,9.2126,0.1311,0.61483,4.8106-4.778,2.6006-5.0172,2.6352-5.0172,0.7274,0-1.1019-0.5182-2.3237-1.1516-2.7151-1.4886-0.9201-13.186-0.5482-18.348,0.5833-2.2,0.4822-11.425,1.3627-20.5,1.9568-26.028,1.7038-39.639,3.056-51.647,5.1307-8.8432,1.5279-61.206,6.4165-61.725,5.7628-0.07-0.088-1.7022-0.322-3.6272-0.52zm-193.75-43.57c-1.6521-2.0815-3.1093-7.7763-4.4139-17.25-1.3414-9.7407-1.843-66.232-0.62597-70.5,0.70072-2.4574,4.4845-5.636,5.5001-4.6203,0.28503,0.28503-0.0122,2.0037-0.66048,3.8193-1.9084,5.3447-3.1654,39.842-2.0966,57.54,0.99571,16.486,2.2566,21.936,6.5972,28.511l2.4753,3.75h-2.8917c-1.5905,0-3.3382-0.5625-3.8839-1.25zm103.34-11.23c-0.95369-3.7998,0.38936-10.512,3.1335-15.661,1.5491-2.9066,2.2339-5.403,1.8307-6.6733-0.35428-1.1163-4.0075-4.1259-8.1183-6.688-5.1285-3.1965-8.1749-5.8857-9.7069-8.569-1.8198-3.7498-5.6378-3.1147-3.6213-7.1344,0.61134-1.1423,1.498-5.1544,1.9703-8.9158,1.0605-8.4458,3.8063-14.025,8.2551-16.775,3.79-2.3423,7.6047-2.7598,7.7737-0.85077,0.45622,5.152-1.9916,11.81-7.0397,19.147-4.1746,6.0675-3.9974,9.0315,0.81321,13.608,4.7983,4.5645,12.564,8.9954,15.767,8.9954,2.7649,0,4.3493-3.1319,4.3493-8.5972,0-6.8698,4.564-13.526,10.241-14.935,4.5888-1.1389,4.6617,1.8909,0.2466,10.245-3.6427,6.8923-3.7726,7.4306-2.1773,9.0259,2.0369,2.0369,13.797,2.9698,17.828,1.4143,1.4642-0.56508,3.6889-2.9064,5-5.262,1.2992-2.3341,2.9933-4.4498,3.7647-4.7016,1.4168-0.46228,1.3405,0.88974-0.51006,9.0483-0.4691,2.0681-0.1881,2.9037,1.149,3.4168,2.3962,0.91952,5.0116-2.4587,5.8207-7.5183,0.73965-4.6255,4.9519-10.136,7.7481-10.136,1.9575,0,2.3392,0.65695,5.3807,9.2614,0.92569,2.6188,2.5336,5.2166,3.5732,5.773,2.749,1.4712,7.7016-0.90255,12.466-5.975,5.4291-5.7801,9.3943-8.5347,10.579-7.3495,1.5116,1.5116,0.099,3.7729-3.1146,4.9859-3.4916,1.3179-5.5051,5.1365-4.6032,8.7298,0.59434,2.368,1.0373,2.556,5.561,2.3591,3.4706-0.151,5.4721,0.29008,6.8099,1.5007,1.042,0.94303,2.4237,1.7146,3.0703,1.7146,0.64665,0,5.3247-4.3096,10.396-9.5768,9.006-9.3545,11.521-10.708,8.291-4.4616-3.1788,6.147,0.63705,6.8209,5.8638,1.0355,3.9093-4.3271,4.3706-6.4158,2.0846-9.4382-2.3906-3.1607-1.9233-4.7234,1.0126-3.3857,5.7179,2.6052,4.4501,8.0218-3.6979,15.8-6.8281,6.5178-6.8323,6.9796-0.10052,11.14,2.7603,1.706,5.107,2.1504,11.638,2.2037,23.612-2.8776,55.436-11.91,72.333-29.044,3.8327-4.9795,4.0786-5.6625,3.1935-8.8681-1.5888-5.7543,0.31511-9.3583,4.9602-9.3891,4.9973-0.0332,8.9564,15.669,7.7133,30.592-0.7074,8.4922-0.88726,8.9954-4.5105,12.619-4.9416,4.9416-9.2986,5.1688-13.572,0.70748-5.4162-3.747-0.3342-11.337-3.9357-15.572-0.83559-0.32064-9.0318,3.0182-18.259,7.438-22.372,10.716-35.204,14.517-49.243,14.584-13.69,0.0659-17.234-1.4606-19.734-8.4981-0.95453-2.6875-2.2433-4.8864-2.864-4.8864-0.62064,0-3.2289,2.2455-5.7961,4.9901-4.6156,4.9344-4.6506,5.0231-3.1368,7.9503,0.84194,1.6281,1.5308,5.2672,1.5308,8.0868,0,4.3329-0.45255,5.5791-2.9231,8.0497-3.6196,3.6196-9.3782,4.0972-11.079,0.9189-1.3264-2.4783,0.31163-9.3024,3.0766-12.818,3.3313-4.235-0.54208-8.1783-8.0334-8.1783-3.399,0-4.2449-0.40622-5.0041-2.4029-1.3199-3.4716-1.989-3.6214-8.3138-1.861-5.3584,1.4914-5.8272,1.4796-7.6774-0.19479-1.0838-0.98078-2.496-3.4163-3.1384-5.4123-1.2444-3.8665-2.6825-6.1291-3.8958-6.1291-0.40896,0-1.7243,2.6898-2.923,5.9773-4.1346,11.339-9.8508,15.229-12.624,8.5911-0.7886-1.8874-1.8138-3.6665-2.2782-3.9535-0.46444-0.28704-3.0588,0.16545-5.7652,1.0055-4.7655,1.4793-12.776,1.3923-19.673-0.21356-5.4768-0.91977-5.596,8.197-5.7478,11.935,0,9.4083-4.9322,19.658-9.4597,19.658-1.64,0-2.5068-0.73023-2.9465-2.4824zm6.6228-15.151c-1.3202,0.81594-3.4505,10.446-2.6111,11.805,3.8442,0.43793,3.8963-9.1758,2.6111-11.805zm97.32,7.3448c0.85363-3.4011-1.1091-7.711-3.5117-7.711-1.7215,0-2.0248,0.64901-2.0248,4.3333,0,2.3833,0.3,4.6333,0.66667,5,1.4972,1.4972,4.3231,0.5557,4.8697-1.6224zm118.96-22.492c1.6101-2.1885,1.9976-4.2783,1.9875-10.719-0.0133-8.5168-0.92567-13.5-2.4718-13.5-0.52038,0-2.558,1.4152-4.5281,3.145-6.7988,5.9694-8.542,15.26-3.8987,20.778,3.188,3.7888,6.266,3.8908,8.9111,0.29531zm-199.11-12.29c2.1095-3.571,1.9361-4.0071-1.1318-2.8464-1.5169,0.57385-2.25,1.6763-2.25,3.3834,0,3.3812,1.1777,3.1942,3.3818-0.53701zm-27.933-19.725c0.46059-3.6394-0.062-3.8834-3.07-1.4336-2.1217,1.728-3.8556,7.4175-2.6331,8.64,1.2005,1.2005,5.2937-3.9716,5.7031-7.2064zm440.55,58.871c0-1.0578,1.0639-3.1953,2.3643-4.75,10.723-13.052,18.816-27.321,22.721-43.827,1.0177-6.9973,0.63139-9.9831-2.7816-21.5-3.1865-10.753-5.6251-15.536-10.321-20.244-3.7642-3.7738-6.7635-9.3081-5.6487-10.423,41.826,13.54,18.017,84.312-5.464,102.67-0.47815,0-0.86937-0.86547-0.86937-1.9233zm-74.828-16.332c-1.2806-0.61604-3.4256-3.2856-4.7668-5.9323s-2.8244-4.8122-3.296-4.8122c-0.47158,0-2.7154,0.65551-4.9861,1.4567-4.5459,1.6039-29.279,1.9073-32.293,0.39611-0.91846-0.46059-2.2001-2.4438-2.848-4.4071-1.1878-3.599-2.6247-4.5694-8.7334-5.898-3.1447-0.68396-3.3184-0.54875-5.2954,4.1226-3.4544,8.1623-8.0138,9.8225-10.518,3.8298-1.7474-4.182-2.5366-4.2875-6.9414-0.92771-2.2089,1.6848-4.3359,2.4611-6.1649,2.25-2.8538-0.32938-3.1252-0.79975-5.0271-8.7145l-0.81516-3.3922-6.4074,5.1422c-3.524,2.8282-6.7836,5.1422-7.2435,5.1422-0.45986,0-0.83611-1.5974-0.83611-3.5497,0-5.9525-5.1582-13.371-8.4252-12.117-0.82486,0.31653-2.8731,3.2961-4.5516,6.6213-4.7962,9.5012-5.1385,7.946-0.81844-3.7184,2.0926-5.6502,6.1847-8.8817,9.7957-7.7357,2.1152,0.67136,5.9997,6.3706,5.9997,8.8028,0,0.86178,0.43603,2.7137,0.96895,4.1154l0.96894,2.5485,6.584-4.9834c3.6212-2.7409,6.9522-4.9834,7.4022-4.9834,0.45001,0,1.1301,2.3512,1.5113,5.225,1.1954,9.0115,3.4248,9.8284,10.302,3.775,5.2028-4.5797,5.7948-4.7427,7.2627-2,1.5446,2.886,2.6402,2.5008,5.5976-1.9681,3.3102-5.002,5.576-5.7566,9.3075-3.0995,3.7108,2.6423,4.5294,2.6007,8.506-0.43239,6.2506-4.7675,9.1141-1.6545,4.0328,4.3843-1.9525,2.3204-2.3286,3.4628-1.5926,4.8379,1.7145,3.2036,4.927,5.4466,7.3162,5.1082,2.0495-0.29029,2.4081-1.0341,2.9558-6.1317,1.1601-10.797,12.645-29.46,17.555-28.527,1.3939,0.26485,1.8924,1.4323,2.1219,4.9699,0.36792,5.6704-2.485,14.188-7.4419,22.219-2.8994,4.6975-3.3436,6.0343-2.2378,6.7347,3.3335,2.1113,13.145,0.15486,14.797-2.9507,0.48132-0.90465,0.93334-7.9448,1.0045-15.645,0.11398-12.338,0.39346-14.52,2.3538-18.38,1.2234-2.4088,3.1968-5.0245,4.3852-5.8127,2.0872-1.3844,2.2226-1.2352,3.9762,4.3796,1.06,3.3938,1.8253,8.9338,1.8392,13.313,0.024,7.5758-1.3549,11.889-6.1619,19.272-1.7779,2.731-1.7622,2.8539,1.0451,8.2158,1.5675,2.9938,3.7028,5.7141,4.7452,6.0449,2.4304,0.77137,2.4151,2.1182-0.039,3.4316-2.2435,1.2007-1.909,1.2158-4.894-0.22025h0.00003zm-24.172-18.138c0-0.76616,0.65357-1.6438,1.4524-1.9504,1.8497-0.70979,5.295-8.2248,6.1114-13.33,0.45593-2.8512,0.22039-4.2604-0.86233-5.159-2.0429-1.6955-4.1933,0.57915-7.8454,8.2988-2.8464,6.0166-3.3993,8.9549-2.2491,11.952,0.74901,1.9519,3.393,2.099,3.393,0.18878zm25.5-14.096c0-7.3009-1.1831-10.443-3.4129-9.0653-1.194,0.73794-1.551,17.757-0.39665,18.911,0.37976,0.37976,1.3923-0.0125,2.25-0.87163,1.1319-1.1338,1.5595-3.5944,1.5595-8.974zm33.536-0.91572c-1.8291-4.8108-1.3518-6.5958,1.7636-6.5958,1.54,0,3.3512,0.55123,4.025,1.225,0.96661,0.96661,1.6386,0.96661,3.1864,0,1.0788-0.67373,2.7978-1.225,3.82-1.225,2.4715,0,5.5646,3.5256,4.8125,5.4854-1.1109,2.8949-3.6562,2.877-6.7084-0.0472l-2.945-2.8215-3.4589,3.3525-3.4589,3.3525-1.0364-2.726v0.00005zm-460.37-1.24c-1.4626-1.4626-0.17725-12.333,1.4583-12.333,1.4106,2.1689,1.7833,14.589-1.4583,12.333zm12.549-3.1786c-1.7432-1.1061-0.43418-4.1547,1.7839-4.1547,4.361,1.4758,2.6769,6.3957-1.7839,4.1547zm92.284-54.296c-4.454-2.607-5.6552-2.8692-11-2.401-23.328,2.0438-22.06,2.4604-21.858-7.1762,0.0779-3.7298,1.0904-10.754,2.25-15.61,2.6324-11.023,2.6423-14.112,0.057-17.743-2.35-3.3002-9.7402-5.9278-16.672-5.9278-7.092,0-19.413,2.939-24.683,5.8878-10.261,5.7896-9.0531,22.134-3.5538,30.925,1.8336,1.9681,1.9025,1.9592,11.448-1.4844,5.2817-1.9055,10.145-3.2833,10.808-3.0618,0.66257,0.2215-2.2506,2.043-6.4736,4.0477-4.2231,2.0047-7.9641,4.1074-8.3134,4.6726-1.3026,2.1077,2.7655,2.1952,8.2433,0.17732,3.1132-1.1468,5.8033-1.9423,5.9779-1.7676,1.9448,1.9448-6.6468,7.3118-12.23,7.6396-6.9917,0.4105-8.6396-0.0937-12.708-3.8885l-4.1303-3.8527-1.2958-20.86c-1.0156-16.35-1.0331-21.027-0.0809-21.631,1.8163-1.1528,3.0695-0.45393,4.5194,2.5203,1.5501,3.1798,2.8149,3.256,10.634,0.6407,14.389-4.813,30.033-4.5653,37.837,0.59892,6.032,3.9918,6.3556,6.0207,3.2263,20.231-4.052,18.401-2.4263,22.792,8.3114,22.446,3.1279-0.10055,7.2591-0.64594,9.1804-1.212,5.4436-1.6037,7.8322-1.2664,15.251,2.1531,6.3587,2.9309,7.293,3.1026,11.83,2.1732,2.7092-0.55496,4.9257-0.67394,4.9257-0.26439,0,0.67617-14.835,6.0541-16.003,5.8015-0.27312-0.059-2.7466-1.4244-5.4966-3.034h-0.00004zm215.8-7.3586c-3.3222-3.3222-3.8497-3.5-10.385-3.5-5.7417,0-7.8549,0.50819-12.722,3.0596-5.0692,2.6572-6.1766,2.9048-8.4205,1.8824-1.421-0.64746-3.4034-2.6993-4.4052-4.5596s-2.0567-3.3641-2.3441-3.3417c-0.28743,0.0224-2.0416,1.3398-3.898,2.9276-2.8682,2.4531-3.7667,2.7382-5.979,1.897-1.432-0.54444-4.7134-0.69972-7.2921-0.34506-3.8685,0.53205-5.0308,0.30249-6.646-1.3127-1.0766-1.0766-2.1795-2.5762-2.4509-3.3325-0.36787-1.0252-1.2265-0.70274-3.375,1.2675-3.9084,3.5842-13.053,8.0453-15.714,7.6662-2.791-0.39756-2.4254-2.9954,1.1548-8.2056,1.4728-2.1433,3.1278-4.5512,3.6778-5.3509,0.75731-1.1012,0.29351-1.9756-1.911-3.6031-7.0759-5.2238-7.9892-6.3436-7.968-9.7695,0.0115-1.8588,1.9137-8.0699,4.2271-13.803,2.5608-6.3458,3.8461-10.783,3.2859-11.343-1.5738-1.5738-5.8372,2.1063-8.1998,7.078-6.1618,12.966-9.3405,20.193-11.078,25.188-2.6936,7.7423-8.2598,15.812-11.46,16.616-3.7375,0.93805-4.5626-0.97765-3.926-9.1156,0.30116-3.85,0.63059-12.526,0.73205-19.279,0.17156-11.419,0.0316-12.432-1.9982-14.462-2.1665-2.1665-2.2306-2.17-8.6072-0.47085-9.2231,2.4576-9.8746,2.0978-3.167-1.7492,6.799-3.8994,14.744-5.4704,17.23-3.407,1.6915,1.4038,1.7046-0.14303-0.2889,33.982-0.39536,6.7675-0.25268,10.841,0.39371,11.24,1.7426,1.077,5.8767-5.5474,11.191-17.931,8.4415-19.673,13.938-29.224,18.851-32.761,7.1051-5.1146,7.3998-0.95876,0.97736,13.782-4.3391,9.9592-4.6222,13.444-1.3573,16.709,1.4441,1.4441,3.9978,3.194,5.6749,3.8887,2.7902,1.1557,3.2643,1.048,5.5805-1.2682,1.3922-1.3922,4.1766-5.8482,6.1877-9.9024,5.6356-11.361,6.6312-10.29,6.6312,7.1289,0,7.975,0.36406,15.062,0.80902,15.75,0.88345,1.365,4.5958,1.6555,6.1935,0.48469,0.55139-0.40408,2.9389-3.2836,5.3055-6.399,5.2976-6.9736,9.192-9.0223,9.192-4.8357,0,2.1308,3.3496,2.8614,4.5101,0.98369,1.2786-2.0688,2.5306,0.28231,1.9106,3.5877-0.76907,4.0995,0.0208,7.7271,2.1449,9.8512,1.3961,1.3961,1.8704,1.4033,4.4532,0.0677,1.5899-0.82215,4.3364-3.2938,6.1034-5.4926s3.6999-3.9949,4.2953-3.9914c0.59545,0.003,1.8492,1.3535,2.7861,3,1.5494,2.7229,2.1825,2.9974,7,3.0347,4.7128,0.0365,5.7648,0.46471,9.5465,3.8859,4.7364,4.2849,5.1442,5.5242,2.3157,7.0379-3.2238,1.7254-5.1044,1.1966-8.7657-2.4648v-0.00002zm-72.3-7.5257c0-2.7178-1.4636-2.4716-3.9274,0.66054-2.9022,3.6896-2.5817,4.6798,0.92742,2.8651,1.7965-0.929,3-2.3434,3-3.5257zm7.8032-9.9743c0.12572-1.65,0.0123-3-0.25211-3-0.97144,0-2.6246,4.072-2.0383,5.0207,1.1249,1.8202,2.0606,0.99467,2.2904-2.0207zm63.602-21.387c-0.72176-1.8809,2.1041-5.6126,4.2502-5.6126,2.1251,0,1.5719,2.4382-1.1289,4.9755-2.2069,2.0733-2.5438,2.142-3.1213,0.63707z"/>
 </g>
</svg>