<?xml version="1.0" encoding="UTF-8" standalone="no"?>
<svg
xmlns="http://www.w3.org/2000/svg"
version="1.0"
width="255"
height="71">
<path d="m 32.066166,69.793581 c 0.95163,-2.89709 28.63351,-6.32158 62.77082,-7.7653 12.924994,-0.54662 28.449984,-1.219486 34.499994,-1.495253 6.05,-0.275767 17.07499,-0.73861 24.49999,-1.02854 7.425,-0.28993 14.48201,-0.791568 15.68225,-1.11475 1.83517,-0.494151 2.09496,-0.253788 1.63337,1.511308 -0.6915,2.644325 0.67969,2.683595 3.45403,0.09891 1.81959,-1.695213 3.52898,-2 11.217,-2 11.45352,0 35.69757,-2.515797 43.53825,-4.51795 8.18731,-2.090662 12.81059,-7.482046 6.41609,-7.482046 -1.72309,0 -2.79701,-0.423909 -2.45909,-0.970683 0.90141,-1.458534 -3.8875,-2.326268 -10.02807,-1.817044 -2.9996,0.24875 -5.45382,0.16915 -5.45382,-0.176887 0,-0.988462 13.38329,-3.027402 13.97284,-2.128758 0.90197,1.37487 7.6364,3.180551 9.37455,2.513565 2.14774,-0.824165 2.08445,-1.605956 -0.29487,-3.643206 -1.54215,-1.320416 -2.63477,-1.470386 -5.24944,-0.720512 -2.16073,0.619693 -3.41732,0.600772 -3.63583,-0.05475 -0.18366,-0.550947 -1.09629,-1.001725 -2.02808,-1.001725 -2.61711,0 -6.13917,-2.896182 -6.13917,-5.04823 0,-1.064152 0.9,-2.496882 2,-3.183843 2.91841,-1.822574 2.46059,-2.420096 -1.5,-1.95772 -4.32707,0.50516 -4.55467,-1.074123 -0.5,-3.469278 1.65,-0.974679 3,-2.551709 3,-3.504519 0,-1.49635 -0.41493,-1.58773 -3.0456,-0.67067 -2.49739,0.8706 -3.39067,0.7494 -4.96274,-0.6733 -2.56925,-2.32513 -5.48804,-1.28848 -4.03208,1.43204 0.72793,1.360131 0.72773,2.150748 -6.7e-4,2.600922 -1.30734,0.807976 -3.95891,-1.300369 -3.95891,-3.147842 0,-1.81805 -4.00099,-1.7656 -6.64612,0.0871 -2.54361,1.781599 -3.51574,1.02837 -2.72726,-2.11316 0.82276,-3.27809 -0.95268,-2.94117 -4.07882,0.77403 -3.1417,3.733694 -4.15223,3.235 -2.65162,-1.30857 0.78055,-2.36335 1.74359,-3.35917 3.34967,-3.46369 1.23978,-0.0807 2.91268,-0.30569 3.71755,-0.5 0.80487,-0.19432 1.92674,0.66537 2.49304,1.91042 0.57865,1.2722 1.61602,2.03871 2.36839,1.75 0.73631,-0.28255 1.96779,-0.51373 2.73663,-0.51373 0.76884,0 2.3243,-1.81589 3.45657,-4.03532 2.20078,-4.31388 4.72028,-4.6792 2.77139,-0.40184 -0.78389,1.72045 -0.81421,2.81236 -0.098,3.52857 1.02535,1.02535 1.56402,0.64953 5.09802,-3.55671 0.70918,-0.84408 1.94667,-1.5347 2.74999,-1.5347 2.17297,0 1.7667,3.7658 -0.53943,5 -1.09999,0.5887 -2,1.56079 -2,2.16018 0,2.03877 6.37013,-0.12659 9.60979,-3.26659 1.74061,-1.68707 3.42987,-2.63844 3.7539,-2.11414 0.32403,0.52429 -0.27145,1.73209 -1.32329,2.68399 -1.99161,1.80238 -4.45606,7.537169 -3.23838,7.535742 0.38389,-4.5e-4 4.03851,-0.697723 8.12138,-1.549492 8.83237,-1.84262 11.59523,-1.08275 15.37412,4.228316 3.24845,4.565572 2.40489,7.794569 -3.75736,14.38251 -2.49709,2.669591 -4.54016,5.087204 -4.54016,5.372473 0,0.28527 0.89832,1.992048 1.99626,3.792841 2.65544,4.355326 2.52575,5.913208 -0.74626,8.964367 -2.76343,2.5769 -12.87772,6.515414 -13.95791,5.435224 -0.31809,-0.31809 0.27356,-0.85612 1.31478,-1.19562 7.45497,-2.430766 12.42095,-5.54517 12.36133,-7.752381 -0.0175,-0.647581 -0.68915,-2.046355 -1.49257,-3.108387 -1.43719,-1.899803 -1.5332,-1.894791 -5.94897,0.310551 -2.46851,1.232834 -7.75936,2.856598 -11.75743,3.608364 -10.46104,1.967009 -33.29733,4.512052 -40.48596,4.512052 -3.38419,0 -7.41987,0.537364 -8.96816,1.194141 -1.91936,0.81417 -11.40637,1.23659 -29.81512,1.32754 -14.84999,0.0734 -31.04999,0.42529 -35.99999,0.78205 -4.95,0.35675 -14.624994,0.91202 -21.499994,1.23392 -16.06772,0.75234 -44.48062,3.30929 -49,4.40963 -8.71188,2.1211 -9.20519,2.16871 -8.77082,0.84634 z M 253.83698,30.969276 c 0,-0.630907 -1.29021,-0.06146 -2.86714,1.265439 -1.57693,1.326899 -4.27693,2.996495 -6,3.710214 -3.55255,1.471511 -3.90943,2.499554 -1.38286,3.983464 1.42799,0.838688 2.53203,0.214517 6,-3.3921 2.3375,-2.430953 4.25,-4.93611 4.25,-5.567017 z m -8.33552,3.012984 c 2.29046,-0.986797 4.65054,-2.702404 5.24462,-3.812459 0.95873,-1.791375 0.67109,-2.153287 -2.55838,-3.219111 -7.20601,-2.378199 -21.39543,1.092239 -22.1991,5.429443 -0.19162,1.034095 0.25838,2.271725 1,2.750289 2.31501,1.493873 14.07304,0.764644 18.51287,-1.148162 z m -14.16448,-7.9823 c 0.33992,-0.55 0.16803,-1 -0.38197,-1 -0.55,0 -1.27811,0.45 -1.61803,1 -0.33992,0.55 -0.16803,1 0.38197,1 0.55001,0 1.27812,-0.45 1.61803,-1 z m 16.5,-2.386501 c 0,-0.821181 -6.1159,-1.234988 -6.60305,-0.446768 -0.28324,0.458298 1.08657,0.833269 3.04403,0.833269 1.95746,0 3.55902,-0.173925 3.55902,-0.386501 z M 48.836986,53.035144 c 0,-1.080649 0.9,-2.446482 2,-3.035184 2.19379,-1.17408 2.69016,-0.09016 0.81666,1.783333 -2.05304,2.053041 -0.2313,2.330659 2.28833,0.348721 1.32567,-1.042775 4.35029,-5.77479 6.72136,-10.515588 3.90227,-7.802314 7.36659,-11.756856 8.92991,-10.193543 0.32173,0.32173 -0.35427,1.595689 -1.50223,2.83102 -1.14795,1.235331 -3.2731,4.946057 -4.72256,8.246057 -3.32895,7.579066 -7.94582,12.5 -11.72764,12.5 -2.12043,0 -2.80383,-0.478902 -2.80383,-1.964816 z m 19.32458,-5.631718 c -0.67809,-1.767083 3.33187,-6.403466 5.5383,-6.403466 1.13185,0 0.96156,0.5149 -0.67432,2.038955 -2.71671,2.531003 -2.79406,3.961045 -0.21424,3.961045 1.18228,0 2.59668,-1.20352 3.52568,-3 2.03664,-3.938431 3.61998,-3.849919 2.81849,0.15756 -0.58364,2.918174 -0.4571,3.11195 1.66905,2.55595 1.4335,-0.37487 1.94678,-0.247835 1.36189,0.337061 -0.51627,0.516269 -3.7531,1.145548 -7.19295,1.398398 -4.94586,0.363548 -6.37513,0.144823 -6.8319,-1.045503 z m 145.925414,0.907208 c 0.96251,-0.251527 2.5375,-0.251527 3.5,0 0.96251,0.251528 0.175,0.457323 -1.75,0.457323 -1.925,0 -2.7125,-0.205795 -1.75,-0.457323 z M 88.583526,46.194555 c -0.94669,-1.140693 -0.63031,-1.897817 1.59172,-3.809132 1.5253,-1.312005 3.53567,-2.383228 4.4675,-2.380496 1.24678,0.0037 0.9261,0.61961 -1.21421,2.332209 -2.44159,1.953676 -2.64308,2.429073 -1.25524,2.961635 1.12263,0.430795 2.3571,-0.317689 3.8465,-2.332209 1.20632,-1.631631 2.853426,-2.966602 3.660236,-2.966602 1.220678,0 1.189108,0.306983 -0.18806,1.828741 -0.91025,1.005807 -1.654986,2.355807 -1.654986,3 0,2.157718 2.797224,1.200949 5.346544,-1.828741 3.07122,-3.649947 3.65345,-3.729629 3.65345,-0.5 0,3.322781 2.29227,3.215189 5.00617,-0.234973 1.94292,-2.470018 2.24539,-2.566895 3.12227,-1 1.2604,2.252213 2.46729,2.18952 5.10192,-0.265027 3.90259,-3.635809 8.66443,-1.751199 5.21261,2.063013 -1.58913,1.755965 -1.599,1.936987 -0.10568,1.936987 0.90601,0 2.85014,-1.35 4.32028,-3 1.47016,-1.65 3.59876,-3 4.73022,-3 2.0055,0 2.00134,0.03914 -0.16529,1.556704 -2.50533,1.754809 -2.97329,4.443296 -0.7734,4.443296 1.6327,0 6.5509,-5.994343 6.5509,-7.984294 0,-0.970112 -1.36115,-1.15503 -5.41911,-0.736211 -3.54737,0.366121 -6.00347,0.132002 -7.11097,-0.677827 -1.53524,-1.122593 -1.39451,-1.487346 1.52015,-3.939867 2.69882,-2.270905 3.95482,-2.642638 7.86097,-2.32657 3.5646,0.288431 4.87919,0.876323 5.63608,2.520471 0.82372,1.789346 1.84451,2.144298 6.16667,2.144298 3.25258,0 5.33605,0.46504 5.60025,1.25 0.32672,0.97076 0.79752,0.938926 2.10749,-0.142501 2.6053,-2.15076 3.25044,-0.387821 0.80907,2.210895 -2.9695,3.160889 -2.92532,6.117123 0.0794,5.311892 1.2375,-0.331637 3.0375,-0.609121 4,-0.616631 0.9625,-0.0075 1.75,-0.618911 1.75,-1.358667 -1e-5,-1.650044 3.18861,-4.654988 4.93951,-4.654988 0.70513,0 0.2197,0.868058 -1.07874,1.929017 -1.78534,1.458819 -2.08063,2.214284 -1.21144,3.099337 1.80639,1.839372 5.01025,0.21377 7.33105,-3.719691 1.5987,-2.709574 2.40996,-3.31832 3.27262,-2.455659 0.86267,0.862661 0.84953,1.44447 -0.053,2.346996 -2.15341,2.153414 -1.43663,4.8 1.3,4.8 1.375,0 2.5,0.441427 2.5,0.980948 0,1.598184 -5.13485,2.41593 -7.17397,1.142484 -1.34459,-0.839712 -2.42916,-0.871019 -3.84907,-0.111106 -1.37668,0.736778 -2.56884,0.741283 -3.92622,0.01483 -1.45507,-0.77873 -2.83372,-0.621429 -5.43799,0.620457 -3.25743,1.55336 -3.6586,1.552363 -6.05075,-0.01503 -2.89365,-1.895991 -3.13865,-3.286758 -1.06224,-6.02991 0.78989,-1.043527 1.21826,-2.2499 0.95193,-2.680829 -0.45502,-0.736244 -1.41808,-0.674106 -8.95736,0.577947 -2.02467,0.336239 -3.42632,1.396864 -4.29456,3.249678 -0.7089,1.512789 -2.64596,3.819699 -4.30457,5.126465 -2.38693,1.88058 -3.47061,2.172939 -5.19775,1.402269 -1.52428,-0.680154 -3.14727,-0.570386 -5.38387,0.364126 -3.2011,1.337512 -6.31358,0.955908 -6.31358,-0.774069 0,-0.504769 -1.16686,-1.361402 -2.59303,-1.903628 -2.15852,-0.820669 -3.09299,-0.565172 -5.57672,1.52475 -3.13141,2.634909 -6.2574,3.246524 -7.37238,1.442444 -0.3631,-0.587495 -1.40215,-0.750747 -2.30902,-0.362781 -3.157674,1.350882 -11.171204,1.108938 -12.402304,-0.37445 z m 36.253454,-5.253612 c 0,-0.582459 -0.45,-0.780902 -1,-0.440983 -0.55001,0.339919 -1,0.816476 -1,1.059017 0,0.242541 0.44999,0.440983 1,0.440983 0.55,0 1,-0.476558 1,-1.059017 z m 14.41739,-6.807336 c 0.29449,-0.476494 -0.32574,-1.645705 -1.37828,-2.598245 -1.6376,-1.482014 -2.42775,-1.562248 -5.47641,-0.556095 -5.4082,1.784865 -4.64176,4.020693 1.37827,4.020693 2.71755,0 5.18193,-0.389859 5.47642,-0.866353 z m 88.85344,12.262186 c 0.33229,-0.332291 1.19479,-0.367818 1.91667,-0.07895 0.79773,0.319226 0.56078,0.556183 -0.60417,0.604167 -1.05416,0.04342 -1.64479,-0.192928 -1.3125,-0.52522 z M 25.836986,37.357103 c 0,-1.833649 1.51186,-4.154716 4.9377,-7.580559 2.93478,-2.934779 4.71675,-5.513482 4.39301,-6.357143 -0.70771,-1.844271 -1.31796,-1.768941 -4.31309,0.532381 -3.04357,2.338542 -5.01762,1.129051 -5.01762,-3.074262 0,-3.33607 -1.45627,-3.76206 -3,-0.87756 -2.11946,3.960247 -6,1.96708 -6,-3.08179 0,-2.78451 -1.13789,-2.37198 -4.26394,1.54585 -3.0904998,3.873299 -10.0088894,6.663109 -11.88102937,4.790976 -1.73296003,-1.732966 -0.018,-3.237636 3.00171997,-2.633686 2.05483,0.41097 3.56514,-0.10546 5.7945196,-1.98137 2.8700498,-2.41499 9.3487298,-13.17726 9.3487298,-15.52996 0,-1.55522 -14.2358694,-1.47415 -15.7999994,0.09 -0.89306,0.89306 -1.2,0.90206 -1.2,0.0352 C 1.8369866,1.01665 5.7444366,0 14.271246,0 c 9.67774,0 9.77841,0.10911 6.5877,7.1408 C 18.513816,12.30899 18.153676,19 20.220626,19 c 1.96489,0 7.6568,-6.57942 11.49411,-13.28633 C 33.512706,2.57115 35.400736,0 35.910376,0 c 1.41171,0 1.19551,0.73021 -2.48554,8.39507 -3.49387,7.27511 -5.48746,14.631081 -3.94914,14.571661 1.60371,-0.06195 5.10484,-3.570131 6.76298,-6.776621 C 37.145996,14.43555 38.326786,13 38.862666,13 c 1.33911,0 1.22559,1.15437 -0.52568,5.34576 -1.89511,4.535629 -1.88555,4.65424 0.375,4.65424 1.28939,0 2.06516,-0.9508 2.48385,-3.04428 0.45298,-2.26487 1.50086,-3.41698 4.09289,-4.5 7.20286,-3.00955 8.97423,-1.03001 5.42951,6.06759 C 45.824976,31.321124 35.689806,40 29.141206,40 c -2.90547,0 -3.30422,-0.318943 -3.30422,-2.642857 z m 9.90329,-1.439405 c 5.59759,-3.412521 11.3539,-11.332006 8.84467,-12.168418 -1.88653,-0.628841 -10.14016,4.02837 -13.76245,7.765625 -5.4412,5.613891 -2.04955,8.650364 4.91778,4.402793 z M 47.902726,19.96478 c 2.50101,-1.3385 2.48424,-2.96482 -0.0306,-2.96482 -1.08065,0 -2.44648,0.9 -3.03519,2 -1.22702,2.29272 -0.0863,2.65172 3.06575,0.96482 z m 33.59752,4.365109 c -0.66283,-0.66283 -7.09468,-1.291724 -13.44395,-1.314522 -1.9816,-0.0071 -3.50807,-0.604315 -3.85491,-1.508157 -0.50053,-1.30437 -0.94445,-1.27768 -3.4595,0.20799 -3.85987,2.280085 -5.60543,0.718564 -4.29694,-3.84389 1.27024,-4.42905 3.92768,-5.29957 3.06882,-1.00528 -0.78536,3.92681 0.17432,3.9484 4.20688,0.0947 3.6348,-3.47361 5.52905,-3.17645 4.07813,0.63976 -1.23106,3.23793 -1.2159,3.3995 0.31897,3.3995 0.70442,0 1.78995,-1.34897 2.41228,-2.99772 1.11914,-2.96494 3.78143,-4.86114 5.04752,-3.59505 0.35987,0.35987 -0.15338,2.02161 -1.14056,3.69277 -2.09717,3.55022 -1.6568,4.382055 1.85343,3.50104 2.02797,-0.50898 2.54657,-1.25631 2.54657,-3.66975 0,-5.82386 4.81967,-11.89684 7.92065,-9.98033 1.71211,1.0581397 -0.12916,7.02278 -2.9583,9.58311 -3.73338,3.37867 -1.47545,7.398332 3.30376,5.881471 1.31433,-0.417155 1.75331,-0.255986 1.3001,0.477325 -0.74325,1.2026 -5.81621,1.523797 -6.90295,0.437063 z m 4.3145,-13.079929 c 0.0122,-0.6875 -0.33776,-1.2500003 -0.77776,-1.2500003 -1.61493,0 -3.19941,2.4681403 -3.17776,4.9500003 l 0.0222,2.55 1.95556,-2.5 c 1.07554,-1.375 1.96553,-3.0625 1.97776,-3.75 z m 23.431054,9.24272 c -0.85267,-3.3973 2.00392,-7.72061 4.82605,-7.30399 1.15966,0.1712 2.27631,0.82154 2.48144,1.4452 0.54904,1.66921 -2.53792,4.37176 -4.24525,3.71659 -0.80908,-0.31047 -1.47106,-0.0242 -1.47106,0.63611 0,0.66034 0.89494,1.43464 1.98875,1.72068 2.40487,0.62889 1.65833,2.29269 -1.02871,2.29269 -1.21756,0 -2.15256,-0.9189 -2.55122,-2.50728 z m 5.59118,-5.05174 c 0,-0.24254 -0.45,-0.44098 -1,-0.44098 -0.55,0 -1,0.47656 -1,1.05902 0,0.58246 0.45,0.7809 1,0.44098 0.55,-0.33992 1,-0.81648 1,-1.05902 z m 13.19999,6.35902 c -2.89471,-2.89471 0.0739,-8.8393 4.37874,-8.76832 1.6374,0.027 1.51596,0.33408 -0.82194,2.07845 -2.24853,1.67769 -2.55775,2.39327 -1.71481,3.96832 2.02633,3.786238 9.45801,1.37809 9.45801,-3.06475 0,-3.2062 3.3985,-4.11783 4.18198,-1.12179 0.4943,1.8902 0.71976,1.94011 2.65163,0.58697 2.71373,-1.90077 5.57095,-1.8912 6.30476,0.0211 0.73189,1.90728 2.25337,1.90795 4.3595,0.002 0.91045,-0.82394 3.05082,-1.61144 4.75639,-1.75 2.35439,-0.19127 3.84228,-1.27519 6.17966,-4.5019203 1.69324,-2.3374997 3.5258,-4.2499997 4.07236,-4.2499997 1.4345,0 1.22087,1.56659 -0.39668,2.90904 -2.3718,1.9684097 -5.90247,11.19808 -4.73158,12.36898 1.63369,1.63369 4.49137,-1.12801 3.01187,-2.9107 -1.31895,-1.58921 0.41926,-4.3673 2.73256,-4.3673 2.36981,0 1.50974,3.26842 -1.74325,6.62465 -4.17154,4.303931 -8.54408,2.872658 -7.22917,-2.36634 0.93003,-3.70557 -3.54706,-2.4404 -8.84681,2.49999 l -2.69678,2.513919 -0.66163,-2.636109 c -0.75421,-3.00499 -1.56389,-3.19624 -5.29052,-1.24965 -3.01491,1.57484 -13.08708,4.61354 -15.29217,4.61354 -0.80416,0 -2.00211,-0.54 -2.66212,-1.2 z m 49.88234,-0.64617 c -1.52622,-2.85177 2.19675,-6.77687 7.09262,-7.47769 l 3.67495,-0.52604 -0.56457,3.47904 c -0.54377,3.35085 -0.4673,3.45464 2.07505,2.81655 1.64288,-0.41234 2.63962,-0.25115 2.63962,0.42685 0,1.21554 -3.19964,2.12523 -7,1.99016 -1.375,-0.0489 -3.47397,0.22944 -4.66438,0.618463 -1.60839,0.525622 -2.4441,0.184656 -3.25329,-1.327333 z m 5.66767,-2.43151 c 0.6875,-0.53196 1.25,-1.57261 1.25,-2.31254 0,-2.08653 -4.18354,-0.14589 -5.11528,2.37285 -0.63761,1.72363 -0.4679,2.00349 0.91638,1.51115 0.93439,-0.33234 2.26141,-1.03949 2.94891,-1.57146 z m -85.499994,2.6154 c -1.37539,-0.55498 -1.6529,-4.15592 -0.46434,-6.02516 0.989956,-1.55688 6.214334,-3.53689 6.214334,-2.3552 0,0.49933 -0.9,1.19351 -2,1.54264 -2.542678,0.80702 -2.772968,4.78946 -0.25,4.32332 2.44941,-0.45254 5.60428,-7.27561 4.81612,-10.41588 -0.50345,-2.00592 -1.05879,-2.38585 -2.71774,-1.85932 -1.49852,0.47561 -1.95971,0.28063 -1.63957,-0.69318 0.24498,-0.74522 1.63253,-1.49582 3.08343,-1.668 2.08776,-0.24775 2.76515,0.19355 3.24759,2.11572 0.98056,3.90688 -1.27683,10.29826 -4.63544,13.12434 -3.14372,2.64526 -3.51939,2.772209 -5.654384,1.91072 z" />
</svg>
