<?xml version="1.0" encoding="UTF-8" standalone="no"?>
<!-- Created with Inkscape (http://www.inkscape.org/) -->
<svg
   xmlns:svg="http://www.w3.org/2000/svg"
   xmlns="http://www.w3.org/2000/svg"
   version="1.0"
   width="600"
   height="400"
   id="svg2789">
  <defs
     id="defs2791" />
  <g
     id="layer1">
    <path
       d="M 284.21844,355.60921 C 295.84137,351.04573 309.9942,345.19466 315.66915,342.60682 C 321.34411,340.01898 330.53926,336.11076 336.1028,333.92189 C 345.77698,330.11577 357.91328,317.63753 356.46273,312.98831 C 355.52806,309.99257 368.46577,279.09763 371.40586,277.30443 C 372.76949,276.47274 374.21801,274.49509 374.62478,272.90965 C 375.4395,269.7341 389.58742,258.23271 401.05475,251.42367 C 405.08973,249.02781 408.60221,246.24457 408.86029,245.2387 C 409.11836,244.23284 419.41723,236.96236 431.74669,229.08208 C 454.628,214.45765 472.22691,200.97798 473.15334,197.36719 C 473.43752,196.25945 478.88444,191.88592 485.2576,187.64826 C 491.63075,183.4106 504.36348,174.43669 513.55279,167.70626 C 522.74194,160.97581 534.09824,153.07041 538.78885,150.13867 C 543.47961,147.20695 546.57418,144.61759 545.66595,144.38457 C 544.75771,144.15155 537.05055,145.18899 528.5388,146.68997 C 513.19967,149.39493 506.31868,148.18939 501.84461,142.01328 C 500.05688,139.54552 497.07652,139.27917 488.83025,140.85021 C 476.95304,143.11301 471.06479,142.2259 465.78231,137.37784 C 463.28699,135.08772 460.64679,134.4919 456.83811,135.35939 C 447.4805,137.4907 437.34876,144.05944 437.77257,147.72019 C 438.05791,150.18481 437.07396,150.64799 434.36359,149.3249 C 431.36716,147.86216 431.08242,145.93944 433.03025,140.32166 C 434.39248,136.39285 437.73294,131.18373 440.45348,128.74584 C 443.17402,126.30793 445.45353,123.1082 445.51906,121.63529 C 445.81741,114.9288 465.80487,117.2904 472.69903,124.84668 C 475.01466,127.38472 475.94264,130.48081 474.84915,132.0205 C 471.98861,136.04804 477.7955,139.04962 487.21354,138.41171 C 495.40225,137.85708 497.63723,136.31812 500.63244,129.17158 C 502.5816,124.52084 508.81371,122.5113 512.70858,125.27756 C 515.47172,127.24003 515.29157,127.94795 510.67117,133.28131 C 506.40672,138.20395 505.99126,139.54519 508.05251,141.73561 C 512.0033,145.93376 516.01142,146.19733 531.13319,143.25338 C 545.19281,140.51624 559.96706,132.22929 561.51021,126.21484 C 561.94335,124.52634 564.21796,122.3774 566.56474,121.43945 C 570.01457,120.06066 571.27798,120.48855 573.16249,123.67367 C 575.1865,127.09452 574.93427,128.14303 571.24768,131.63612 C 565.58925,136.99735 547.50514,149.90323 533.47694,158.59151 C 527.23181,162.45938 518.56846,168.46234 514.22499,171.93142 C 509.88158,175.4005 504.49931,179.41624 502.26448,180.85529 C 500.02964,182.29435 496.19829,185.32881 493.75043,187.59856 C 491.30244,189.86828 487.17923,193.0487 484.58777,194.66615 C 481.99616,196.28356 479.65133,198.48211 479.37684,199.55179 C 479.10242,200.62148 478.06382,201.62701 477.0688,201.78633 C 476.07393,201.94563 470.27027,205.88387 464.17194,210.53797 C 458.07362,215.19205 445.71624,223.76205 436.7111,229.58239 C 427.70596,235.40274 415.90995,243.54238 410.49773,247.67046 C 405.08552,251.79855 398.68442,256.36533 396.27307,257.81881 C 393.8617,259.27233 386.85939,265.74203 380.71236,272.19592 C 370.60699,282.80577 369.13943,285.47571 365.39836,300.05719 C 358.93673,325.24248 349.7396,333.7802 316.33631,345.60161 C 309.20553,348.12522 294.68785,353.81335 284.07481,358.24191 C 256.98069,369.22254 261.98722,364.47829 284.21844,355.60921 z M 453.71687,132.1005 C 454.01627,130.93356 453.3628,129.74831 452.26475,129.46659 C 451.16669,129.18488 449.43325,129.75772 448.41265,130.73963 C 447.39205,131.72151 448.04551,132.90678 449.86478,133.37353 C 451.68402,133.84029 453.41747,133.26742 453.71687,132.1005 z M 553.68209,140.22252 C 557.18456,137.5345 557.12871,137.44021 553.08654,139.21594 C 548.8412,141.08089 547.27025,142.53483 549.01657,142.98285 C 549.45706,143.09589 551.55653,141.85373 553.68209,140.22252 z M 25.916897,143.69542 C 24.668134,141.05369 26.683891,138.55899 34.619201,132.92537 C 40.299344,128.8928 45.745581,125.45918 46.721976,125.2951 C 47.698362,125.13103 48.69673,124.21917 48.940587,123.26876 C 49.184419,122.31833 54.815788,116.23428 61.454725,109.74865 C 68.093669,103.26301 73.798332,96.893271 74.131761,95.593651 C 74.4652,94.294041 77.348616,91.027951 80.539364,88.335651 C 86.017316,83.713451 86.19005,83.185921 83.638017,78.872451 C 81.085991,74.558981 81.357438,74.110161 88.507577,70.821291 C 98.750275,66.109931 115.47511,63.410681 122.79238,65.288021 C 132.68263,67.825511 138.22485,73.504531 135.61443,78.426561 C 131.78733,85.642591 124.14799,89.181321 103.62569,93.244581 C 80.968648,97.730491 78.43926,98.872631 67.022444,109.7726 C 62.402756,114.18315 53.036935,122.4079 46.209524,128.0498 C 37.810887,134.9901 34.464434,139.00257 35.862668,140.45592 C 37.351515,142.00343 36.743599,143.30552 33.688308,145.11315 C 28.537983,148.1603 27.979303,148.05838 25.916897,143.69542 z M 100.82696,91.053041 C 113.41123,88.315021 127.18765,82.706891 127.87085,80.043971 C 128.15502,78.936431 126.98063,75.652341 125.26111,72.746011 C 122.74504,68.493311 120.98748,67.600941 116.25788,68.174751 C 113.02561,68.566901 107.73497,69.208781 104.5009,69.601131 C 99.274163,70.235241 98.795332,70.877351 100.19165,75.379731 C 101.54043,79.728841 101.01836,80.799341 96.498943,82.951701 C 93.60398,84.330421 89.537612,86.803691 87.462567,88.447851 C 84.233223,91.006621 84.197798,91.567581 87.216594,92.342091 C 89.156362,92.839771 95.281019,92.259691 100.82696,91.053041 z M 94.592116,130.47059 C 92.312295,128.05212 92.652958,127.35091 96.988179,125.5385 C 103.34901,122.87927 104.32812,123.10373 106.51096,127.72144 C 109.93205,134.95865 100.807,137.06339 94.592116,130.47059 z M 132.21962,133.60572 C 132.47665,132.60391 138.77906,127.87064 146.22499,123.08734 C 153.6709,118.30403 160.01472,113.40942 160.32234,112.21042 C 160.62995,111.01141 164.10036,107.19139 168.03434,103.72147 C 178.85048,94.181201 200.80425,68.468511 204.25404,61.300191 C 207.58302,54.382971 217.67793,51.311811 220.63838,56.315591 C 222.81619,59.996531 209.0969,68.075941 205.89882,64.995861 C 204.09894,63.262381 203.96015,63.499381 205.30872,66.003701 C 206.656,68.505671 205.41589,70.740471 200.05122,75.478191 C 196.18986,78.888291 192.827,82.471771 192.57821,83.441461 C 192.32942,84.411161 182.66203,94.254521 171.09512,105.31559 L 150.06437,125.42665 L 169.42802,113.43456 C 190.20931,100.56453 189.0977,102.07218 165.44191,118.84089 C 157.27036,124.63341 148.08986,129.65377 145.04082,129.99722 C 141.99176,130.34069 139.8067,131.61402 140.18509,132.82685 C 140.5635,134.03968 139.2202,135.22335 137.20002,135.45723 C 132.34093,136.01979 131.66475,135.76842 132.21962,133.60572 z M 208.52783,128.98852 C 206.39872,126.5046 203.71547,124.76597 202.56503,125.12489 C 199.73205,126.00878 193.44256,118.12464 195.84618,116.70255 C 196.89561,116.08167 200.43534,115.95646 203.71229,116.42431 C 207.3115,116.93817 212.50959,115.11193 216.8419,111.81147 C 229.89326,101.86856 246.47607,92.498081 249.60147,93.299951 C 260.13366,96.002121 246.61309,111.9579 230.72556,115.57562 C 211.59369,119.93209 204.61197,129.04713 219.9468,129.64791 C 235.41462,130.25391 261.91207,119.28341 262.53303,112.01633 C 263.30576,102.97278 273.54209,100.94072 279.82754,108.58311 C 282.64564,112.00962 282.47663,113.10264 278.14592,119.45839 C 275.49789,123.34465 272.65773,126.3515 271.83449,126.14028 C 271.01123,125.92906 270.34679,127.72793 270.35794,130.13776 C 270.37706,134.26451 271.23042,134.31529 285.03486,131.01109 C 296.41218,128.28783 303.3329,124.65718 315.96671,114.784 C 324.91808,107.7886 336.24597,97.495561 341.13978,91.910571 C 353.95258,77.288151 355.88498,76.400331 362.57692,82.061711 L 368.05319,86.694651 L 358.8248,91.961711 C 353.7492,94.858601 349.17243,98.701191 348.65422,100.5008 C 348.13601,102.30042 342.35772,106.97832 335.81354,110.89615 C 329.26938,114.81399 322.89354,119.63124 321.64502,121.60117 C 320.27146,123.76836 318.05444,124.44951 316.03125,123.32598 C 313.7825,122.07719 312.35781,122.75429 311.68064,125.39364 C 310.91915,128.36166 311.80951,129.26451 315.3337,129.09801 C 325.45705,128.6197 333.54267,125.67491 336.58968,121.35654 C 338.34815,118.86434 341.91104,116.7058 344.50724,116.55977 C 347.10343,116.41375 349.56102,114.99468 349.96854,113.40628 C 351.2898,108.25647 358.924,105.3688 364.60208,107.8711 C 367.57082,109.17939 371.58616,110.74051 373.52502,111.34022 C 378.8913,113.00009 378.57745,122.01986 373.07692,124.21827 C 370.58304,125.21502 368.99103,126.78854 369.53917,127.715 C 371.11518,130.37881 391.51698,123.71139 396.94564,118.75839 C 400.02019,115.95327 403.82954,114.77852 407.11654,115.62185 C 412.56332,117.0193 413.37149,120.33159 408.62687,121.81192 C 406.72513,122.40525 406.61515,123.49715 408.26142,125.4398 C 409.95027,127.43269 409.27915,127.54152 405.88908,125.8245 C 402.62251,124.17005 397.13586,124.8315 388.13409,127.96503 C 380.45619,130.6377 371.94964,131.90177 367.41887,131.04328 C 363.19069,130.24212 357.48986,130.76613 354.7504,132.20774 C 348.74635,135.3673 343.73959,134.36956 340.81789,129.43126 C 338.98547,126.33411 337.80995,126.1624 333.12605,128.30775 C 330.08519,129.70056 328.04023,131.58893 328.58168,132.50412 C 329.12316,133.41931 328.19473,133.89462 326.51854,133.56035 C 311.94797,130.6547 301.4944,130.68118 287.28305,133.65974 C 278.1381,135.57643 268.58276,136.61273 266.04895,135.96266 C 262.18281,134.97074 261.85179,133.88587 263.99035,129.21579 C 265.39189,126.15508 267.78836,122.69952 269.31582,121.53673 C 274.52435,117.57171 266.57046,117.78233 258.48584,121.82353 C 245.91448,128.10744 231.32599,132.92845 222.90772,133.5809 C 213.01953,134.34726 213.15942,134.39193 208.52783,128.98852 z M 355.0667,127.44263 C 361.28441,124.33645 363.78107,119.18622 358.78896,119.76418 C 357.02244,119.96868 354.95742,119.09327 354.20005,117.8188 C 353.41817,116.50312 351.78335,118.60354 350.41768,122.67845 C 347.61977,131.02672 347.70911,131.11826 355.0667,127.44263 z M 326.54303,113.6057 C 338.83323,104.25279 348.00726,95.452981 347.84596,93.171791 C 347.74434,91.735301 343.72842,94.556151 338.92165,99.440321 C 334.11487,104.32451 329.49956,108.65435 328.66538,109.06219 C 324.77164,110.96594 319.59119,115.77948 321.03684,116.15038 C 321.92627,116.37857 324.40407,115.23347 326.54303,113.6057 z M 361.12352,113.99776 C 361.5726,112.24737 360.98529,110.57027 359.81836,110.27088 C 358.65143,109.97149 357.32924,111.15867 356.88015,112.90906 C 356.43107,114.65945 357.01839,116.33655 358.18532,116.63594 C 359.35224,116.93532 360.67444,115.74814 361.12352,113.99776 z M 180.97839,107.43088 C 181.26241,106.26 200.52701,91.789811 211.77948,84.726871 C 223.03195,77.663931 237.56711,67.146651 244.07985,61.355141 C 258.92527,48.153683 283.17968,34.074543 288.65614,35.479603 C 294.43171,36.961403 293.03946,39.900733 285.96478,41.161673 C 282.70643,41.742413 279.77585,43.249143 279.45237,44.509953 C 279.12889,45.770773 278.18861,46.100103 277.36288,45.241823 C 276.53713,44.383513 273.0199,45.993383 269.5468,48.819283 C 266.07371,51.645171 262.55999,53.258691 261.73853,52.404861 C 260.91708,51.551031 259.94983,52.546581 259.5891,54.617191 C 259.22636,56.699381 257.7443,57.799201 256.27299,57.078051 C 254.80987,56.360931 253.94169,56.828421 254.34369,58.116941 C 254.74571,59.405461 250.78735,63.248721 245.54734,66.657531 C 240.30731,70.066341 235.7093,74.047641 235.32948,75.504871 C 234.94967,76.962091 233.62714,77.894791 232.39051,77.577521 C 231.15391,77.260251 221.17489,82.586431 210.21491,89.413491 C 199.25493,96.240541 180.69438,108.60175 180.97839,107.43088 z M 419.71413,108.18385 C 415.60629,105.401 418.5451,100.6204 424.34498,100.6508 C 430.47514,100.68293 434.62738,103.76456 431.97669,106.31474 C 429.26841,108.92032 422.35643,109.97389 419.71413,108.18385 z"
       id="path2849"
       style="fill:#000000" />
  </g>
</svg>
