<?xml version="1.0" encoding="UTF-8"?>
<svg version="1.1" xmlns="http://www.w3.org/2000/svg" width="138" height="50" >
<path d="M2.789,11.856c-1.74-1.104,1.136-1.278,1.832-1.173c1.633,0.249,3.151,0.923,4.569,1.742 c4.113,2.376,6.038,6.894,6.862,11.354c1.169,6.331-0.093,13.762-2.255,19.73c-1.288,3.558-4.595,7.159-6.955,2.406 c-0.214-0.433-2.058,0.263-1.932,0.518c1.509,3.04,4.375,3.597,7.195,1.9c6.392-3.844,6.56-17.694,6.044-23.817 c-0.556-6.61-4.343-12.417-10.832-14.298c-1.541-0.446-10.165-0.146-6.355,2.274C1.408,12.775,2.982,11.979,2.789,11.856 L2.789,11.856z"/>
<path d="M29.833,37.775c0.055-0.126,0.119-0.253,0.196-0.366c0.375-0.557,0.04,0.396-1.079,0.091 c0.084,0.022,0.181,0.358,0.209,0.434c0.203,0.554,2.111-0.028,1.932-0.518c-0.118-0.323-0.273-0.661-0.632-0.759 c-0.517-0.142-1.128,0.03-1.586,0.276c-0.451,0.242-0.754,0.68-0.955,1.141c-0.161,0.368,0.662,0.304,0.798,0.282 C29.072,38.301,29.67,38.149,29.833,37.775L29.833,37.775z"/>
<path d="M24.41,17.684c0.493,2.605,1.242,7.726,4.192,8.689c3.439,1.125,6.614-3.59,6.987-6.329 c-0.642,0.087-1.284,0.175-1.926,0.262c-0.202,6.813,6.919,3.162,10.738,2.065c5.606-1.609,0.728,0.03,0.154,2.357 c-0.578,2.345,3.889,2.141,5.186,2.212c0.691,0.039,2.072-0.959,0.77-1.031c-7.173-0.397-1.607-2.275-0.855-4.84 c0.024-0.092,0.003-0.171-0.063-0.237c-3.317-2.469-14.229,6.874-14.003-0.788c0.022-0.748-1.845-0.335-1.926,0.262 c-0.244,1.791-1.03,3.077-2.295,4.37c-2.06,2.107-3.192-1.335-3.65-2.46c-0.652-1.604-1.055-3.352-1.376-5.05 C26.225,16.551,24.284,17.021,24.41,17.684L24.41,17.684z"/>
<path d="M66.725,13.399c-1.613,3.47-3.673,7.475-3.835,11.351c-0.057,1.351,0.313,3.155,1.886,3.313 c2.094,0.21,2.587-2.567,2.816-4.007c0.122-0.771-1.827-0.433-1.934,0.236c-0.06,0.46-0.144,0.916-0.251,1.366 c-0.051,0.179-0.101,0.357-0.15,0.536c-0.481,0.582-0.396,0.813,0.256,0.695c-0.445-0.359-0.547-1.141-0.638-1.663 c-0.262-1.516,0.322-3.161,0.773-4.584c0.779-2.454,1.793-4.859,2.877-7.193C68.925,12.591,66.995,12.818,66.725,13.399 L66.725,13.399z"/>
<path d="M65.399,7.079c2.558-2.07,11.714-9.063,13.938-4.069c2.295,5.152-7.126,11.874-10.235,14.261 c-0.821,0.63,0.771,0.724,1.153,0.546c1.683-0.783,3.446-1.396,5.273-1.731c8.453-1.553-1.285,12.809-3.438,9.081 c-0.373-0.646-2.228,0.005-1.932,0.518c3.542,6.134,10.036-4.652,10.432-7.882c0.663-5.42-9.024-1.732-11.096-0.769 c0.385,0.183,0.769,0.364,1.153,0.546c2.792-2.144,15.384-11.856,9.492-16.59c-4.355-3.5-13.112,3.209-16.289,5.781 C62.992,7.467,64.923,7.464,65.399,7.079L65.399,7.079z"/>
<path d="M89.265,20.013c-1.195,0.353-8.835,2.662-6.469,4.815c2.009,1.827,8.55-1.502,10.442-2.324 c1.249-0.543,0.088-0.996-0.727-0.658c-0.946,0.394-2.863,0.945-2.886,2.162c0.034,0.087,0.097,0.145,0.188,0.173 c2.075,0.685,4.471-0.109,6.479-0.704c1.129-0.335,2.173-0.816,3.186-1.403c0.289-0.168,0.587-0.397,0.787-0.664 c1.268-1.685,3.776,0.315,2.673,1.638c-0.086,0.103-0.121,0.242-0.013,0.344c1.332,1.249,5.278-0.811,6.563-1.387 c3.438-1.541,5.377-3.78,2.039-6.688c-0.602,0.239-1.203,0.479-1.805,0.719c1.968,1.328,3.878,2.784,5.467,4.556 c1.415,1.576-2.812,2.048-2.53,4.344c0.067,0.547,2.011,0.128,1.932-0.518c-0.233-1.903,4.174-1.165,2.887-3.863 c-1.045-2.19-3.999-3.92-5.95-5.237c-0.454-0.307-2.286,0.299-1.805,0.719c2.524,1.505,2.401,3.17-0.367,4.993 c-0.969,0.579-3.716,0.883-4.341,1.632c0.571-0.685,1.433-2.002,0.498-2.863c-1.638-1.511-3.522-1.31-5.346-0.284 c-1.898,1.068-2.918,2.791-5.219,3.473c0.07-0.021-4.658,0.82-1.912-0.397c0.423-0.187-1.156-0.473-1.538-0.315 c-1.828,0.756-3.708,1.42-5.652,1.806c-0.176-0.525-0.351-1.052-0.526-1.577c0.762-0.413,1.55-0.768,2.363-1.062 c0.588-0.23,1.196-0.423,1.803-0.602C90.618,20.503,90.408,19.675,89.265,20.013L89.265,20.013z"/>
<path d="M120.91,18.934c1.476,3.637,7.329,4.016,10.444,2.83c1.906-0.725,3.55-1.894,4.465-3.76 c0.575-1.173,0.142-2.063-1.205-1.933c-2.257,0.218-7.227,3.182-4.636,5.613c2.018,1.894,7.264,3.576,7.621-0.604 c0.078-0.916-1.88-0.592-1.947,0.188c-0.207,2.425-3.271,0.19-4.217-0.697c-0.809-0.759,0.151-1.52,0.736-2.001 c0.286-0.221,0.583-0.425,0.89-0.613c0.552-0.358,1.142-0.921,1.011-0.323c-0.938,4.282-9.614,4.763-11.23,0.782 C122.521,17.627,120.608,18.19,120.91,18.934L120.91,18.934z"/>
<path d="M131.267,2.798c0.125-0.016,0.251-0.029,0.376-0.042c0.129-0.013,0.258-0.022,0.387-0.032 c0.073-0.005,0.146-0.009,0.219-0.013c0.044-0.002,0.375-0.011,0.133-0.008c0.146-0.001,0.291,0.004,0.437,0.014 c0.065,0.005,0.13,0.013,0.195,0.021c-0.232-0.031-0.007,0.008,0.048,0.026c-0.102-0.035-0.211-0.149-0.198-0.232 c0.023-0.155-0.04-0.006,0.049-0.108c-0.113,0.131-0.045,0.053-0.157,0.135c-0.286,0.211-0.551,0.636-0.135,0.88 c0.397,0.234,1.021,0.114,1.377-0.147c0.366-0.27,0.922-0.684,0.802-1.214c-0.104-0.458-0.769-0.552-1.139-0.602 c-0.707-0.096-1.471-0.018-2.176,0.076c-0.395,0.052-1.001,0.257-1.081,0.72C130.325,2.727,130.948,2.841,131.267,2.798 L131.267,2.798z"/>
</svg>