<?xml version="1.0" encoding="UTF-8" standalone="no"?>
<!-- Created with Inkscape (http://www.inkscape.org/) -->
<svg
   xmlns:svg="http://www.w3.org/2000/svg"
   xmlns="http://www.w3.org/2000/svg"
   version="1.0"
   width="600"
   height="200"
   id="svg2697">
  <defs
     id="defs2699" />
  <g
     id="layer1">
    <path
       d="M 503.04533,39.137094 C 500.38493,38.986619 498.18019,41.504512 499.31101,52.350343 C 500.1497,60.394312 495.29094,76.64377 491.25242,88.383756 C 482.33185,114.31569 484.3737,125.33216 494.34837,105.06359 C 502.62545,88.244479 505.62594,87.288661 512.3603,99.332586 C 517.14624,107.89204 531.85153,109.54695 548.83502,103.42547 C 552.19462,102.21455 558.41579,104.1505 562.6436,107.72854 C 570.19165,114.11624 570.08173,114.44288 556.7234,125.34214 C 549.24089,131.44729 539.09852,136.27051 534.19168,136.06649 C 526.96728,135.76611 526.383,136.49294 531.07988,139.8613 C 538.3388,145.06702 537.65124,145.05492 548.32032,140.19814 C 573.88162,128.56192 583.54407,110.44331 568.87705,101.65532 C 562.66942,97.935896 561.97649,95.448376 565.47343,89.612184 C 570.81761,80.692664 572.17739,61.819602 567.4954,61.592778 C 560.94735,61.275547 550.86855,74.951446 548.98008,86.715755 C 547.35009,96.869266 545.19221,98.705776 534.27353,99.231306 C 523.30779,99.759086 520.53892,97.898566 515.06842,86.298039 C 513.31124,82.571792 510.34512,78.659342 506.62546,77.541017 C 505.57158,72.256747 509.0957,61.442653 509.25387,57.151406 C 509.57691,48.382397 507.67019,40.69353 504.91255,39.601348 C 504.28632,39.353321 503.65928,39.171826 503.04533,39.137094 z M 197.66122,32.648682 C 184.8623,32.278116 176.00377,36.043901 175.62339,43.895347 C 175.48763,46.697774 177.16016,46.620358 180.43222,43.6507 C 186.67188,37.987686 207.87932,38.626076 207.59626,44.468325 C 207.48188,46.829252 199.11338,67.239869 188.99318,89.834042 C 178.87299,112.42822 171.62837,132.04665 172.88468,133.43089 C 176.07777,136.94912 175.74547,137.54272 197.53519,89.68718 C 208.31926,66.002726 217.63916,45.946592 218.25876,45.130248 C 220.18681,42.589969 243.11025,54.675211 242.94232,58.142028 C 242.85489,59.946661 238.89955,63.859237 234.15153,66.853245 C 229.40353,69.847245 222.77564,75.837961 219.42755,80.157063 C 213.89862,87.289539 214.4398,89.371392 225.14091,102.81977 C 231.66069,111.01334 235.80549,120.14299 234.42953,123.26757 C 233.06192,126.37313 224.54561,130.74884 215.51848,132.98366 C 206.49135,135.21848 199.05088,138.55696 198.96134,140.4049 C 198.6918,145.96884 215.98274,144.47577 228.65681,137.83569 C 247.37075,128.03125 250.03882,116.57345 236.52415,104.03576 C 222.36627,90.901353 222.59758,86.880951 238.1365,75.04127 C 255.04361,62.159113 254.84574,51.543907 237.57567,43.32496 C 223.30629,36.534065 208.95438,32.975659 197.66122,32.648682 z M 447.77857,48.732397 C 440.2028,48.301548 420.08735,67.792298 400.89761,94.410196 L 383.39923,118.6895 L 386.87983,100.85387 C 390.82008,80.720439 386.03348,60.817272 377.149,60.386844 C 373.89506,60.229197 365.89518,66.332222 359.38019,73.958476 C 352.86517,81.584729 339.06216,97.438546 328.70471,109.1869 L 309.87383,130.53591 L 307.4649,119.39239 C 305.96587,112.45858 307.78084,101.01078 312.25213,89.160364 C 316.2092,78.672915 318.40861,66.959925 317.14738,63.128352 C 315.09015,56.878572 313.7587,57.091222 304.1286,65.238759 C 285.57548,80.935573 263.56317,126.90098 274.34838,127.42348 C 275.85348,127.4964 281.20773,124.02874 286.24608,119.73496 L 295.40806,111.93467 L 299.06297,124.36377 C 301.08083,131.20003 303.59152,136.83518 304.62389,136.8852 C 312.97729,137.2899 323.02646,128.23229 345.48817,100.09454 C 376.164,61.666967 381.34599,62.395835 377.68469,104.62392 C 376.36483,119.84646 376.65174,132.36174 378.33162,132.4196 C 380.01145,132.47747 389.95263,120.60806 400.4164,106.05747 C 416.49161,83.703958 421.22193,79.641903 431.0085,79.837501 C 438.99094,79.997049 441.89778,81.660155 440.34318,85.190554 C 434.74899,97.893886 431.21458,126.24747 434.90855,128.78537 C 439.42569,131.88888 441.98513,125.51522 446.92819,98.862206 C 450.33509,80.492046 454.38887,75.22047 466.01053,74.036663 C 480.96435,72.513444 490.47008,69.383744 490.63754,65.926529 C 490.73856,63.841781 488.53913,62.720543 485.75409,63.426433 C 482.96911,64.132313 474.93342,65.412051 467.88161,66.277704 C 457.02292,67.610704 454.91747,66.546459 454.20342,59.281367 C 453.7398,54.563296 451.3141,49.910243 448.80643,48.94832 C 448.49607,48.829286 448.15119,48.753582 447.77857,48.732397 z M 106.72024,35.344905 C 96.168129,34.894816 85.27626,37.161876 78.209097,42.187037 C 67.979143,49.461104 62.028385,60.517407 71.020641,55.544432 C 73.281855,54.293913 74.996942,56.195418 74.824404,59.757348 C 74.381747,68.89427 39.134078,143.79635 29.266693,156.56321 C 24.758188,162.39652 22.93912,167.26273 25.233479,167.37387 C 27.527829,167.48502 32.155852,163.64815 35.53062,158.86023 C 45.109517,145.27028 81.250622,69.519632 84.970272,55.223472 C 88.120619,43.115358 89.28438,42.432859 105.65315,43.225884 C 141.66721,44.970647 140.94014,63.888867 104.16521,81.654229 L 83.7949,91.486515 L 92.644902,98.269716 C 116.44916,116.46054 120.52834,123.45954 116.91608,139.93956 C 112.53544,159.92516 120.42865,161.79746 125.16924,141.89687 C 129.20304,124.96332 124.37922,110.97244 111.16357,101.3681 L 101.47518,94.315856 L 118.89637,82.347146 C 139.84118,67.958507 144.35251,53.194784 130.98609,42.833424 C 125.07225,38.249144 116.03093,35.742045 106.72024,35.344905 z M 439.3021,60.386871 C 440.74467,60.445791 442.00019,61.068249 443.07419,62.251671 C 445.52916,64.956645 443.27577,67.772529 436.50863,70.468475 C 425.10056,75.013352 422.94773,70.457905 432.94834,62.944776 C 435.31277,61.168437 437.44735,60.311095 439.3021,60.386871 z M 561.90413,74.986026 C 561.99415,74.995914 562.08461,75.031991 562.1705,75.061227 C 563.54399,75.529032 563.82398,78.337726 562.80067,81.342368 C 561.77736,84.346992 559.83932,86.417898 558.46564,85.950093 C 557.09214,85.482297 556.79252,82.65187 557.81592,79.647238 C 558.77522,76.830403 560.55493,74.837765 561.90413,74.986026 z M 309.27941,73.794768 C 311.78611,74.08435 307.64843,81.726894 296.66435,97.147736 C 284.75784,113.86359 280.021,118.77914 280.24232,114.21103 C 280.41305,110.68676 303.05261,76.662105 306.49151,74.760304 C 307.77581,74.050048 308.70094,73.727931 309.27941,73.794768 z"
       id="path2759"
       style="fill:#000000" />
  </g>
</svg>
