<?xml version="1.0" encoding="UTF-8" standalone="no"?>
<!-- Created with Inkscape (http://www.inkscape.org/) -->
<svg
   xmlns:dc="http://purl.org/dc/elements/1.1/"
   xmlns:cc="http://creativecommons.org/ns#"
   xmlns:rdf="http://www.w3.org/1999/02/22-rdf-syntax-ns#"
   xmlns:svg="http://www.w3.org/2000/svg"
   xmlns="http://www.w3.org/2000/svg"
   xmlns:sodipodi="http://sodipodi.sourceforge.net/DTD/sodipodi-0.dtd"
   xmlns:inkscape="http://www.inkscape.org/namespaces/inkscape"
   id="svg5090"
   sodipodi:version="0.32"
   inkscape:version="0.46"
   width="399"
   height="135"
   version="1.0"
   sodipodi:docname="Isaac_Newton_signature.svg"
   inkscape:output_extension="org.inkscape.output.svg.inkscape">
  <metadata
     id="metadata5095">
    <rdf:RDF>
      <cc:Work
         rdf:about="">
        <dc:format>image/svg+xml</dc:format>
        <dc:type
           rdf:resource="http://purl.org/dc/dcmitype/StillImage" />
      </cc:Work>
    </rdf:RDF>
  </metadata>
  <defs
     id="defs5093">
    <inkscape:perspective
       sodipodi:type="inkscape:persp3d"
       inkscape:vp_x="0 : 526.18109 : 1"
       inkscape:vp_y="0 : 1000 : 0"
       inkscape:vp_z="744.09448 : 526.18109 : 1"
       inkscape:persp3d-origin="372.04724 : 350.78739 : 1"
       id="perspective5097" />
  </defs>
  <sodipodi:namedview
     inkscape:window-height="968"
     inkscape:window-width="1280"
     inkscape:pageshadow="2"
     inkscape:pageopacity="0.0"
     guidetolerance="10.0"
     gridtolerance="10.0"
     objecttolerance="10.0"
     borderopacity="1.0"
     bordercolor="#666666"
     pagecolor="#ffffff"
     id="base"
     showgrid="false"
     inkscape:zoom="1.3634085"
     inkscape:cx="154.78725"
     inkscape:cy="43.990897"
     inkscape:window-x="-4"
     inkscape:window-y="-4"
     inkscape:current-layer="svg5090" />
  <path
     style="fill:#000000"
     d="M 17.511226,126.60214 C 15.323247,124.41416 15.095998,123.53305 15.629663,119.3068 C 16.304219,113.96479 18.996764,107.80147 22.316687,104 C 27.080967,98.544667 39.999496,91.85503 60,84.486348 C 65.775,82.358695 71.020454,80.233658 71.656564,79.764044 C 72.292675,79.29443 74.039939,75.892905 75.539374,72.2051 C 79.328297,62.886386 80.912858,59.129896 83.007733,54.5 C 91.189355,36.417745 93.290282,30.60181 94.567299,22.5 C 94.914065,20.3 95.375294,18.210305 95.592252,17.856234 C 96.481245,16.405416 92.882146,10.095389 90.766989,9.3964658 C 86.061928,7.8417462 81.816753,9.1110058 74.903059,14.139603 C 66.589975,20.186029 61.162574,26.212785 56.705009,34.347284 C 52.346334,42.301322 51.729874,45.727384 53.552832,51.86595 C 54.788,56.025211 55.504081,56.951804 57.887854,57.475369 C 62.719675,58.536614 65.8209,57.012479 71.420724,50.824473 C 74.381912,47.552254 77.070085,45.304383 77.394442,45.829204 C 77.718799,46.354025 75.400241,49.545532 72.242091,52.921442 C 66.5267,59.03092 66.472952,59.059941 60.683075,59.162806 C 57.483767,59.219646 54.506079,58.868767 54.06599,58.383075 C 53.625902,57.897384 52.540706,55.310768 51.654442,52.635041 C 49.551657,46.286497 50.670414,41.130715 56.215445,31.615679 C 63.290291,19.475549 74.441995,10.000396 84.856057,7.280907 C 91.674306,5.5004149 95.119942,6.6773377 96.81532,11.365821 C 99.108622,17.707837 97.795027,25.546279 92.268073,38.5 C 83.501481,59.046579 78.847809,69.489798 76.337278,74.25 C 75.539585,75.7625 75.328895,77 75.869076,77 C 76.409258,77 80.573395,75.2 85.122715,73 C 89.672035,70.8 94.178952,69 95.138086,69 C 96.09722,69 97.160081,68.55 97.5,68 C 98.258108,66.773355 100,66.678695 100,67.864142 C 100,68.33942 97.8625,69.495577 95.25,70.43338 C 92.6375,71.371182 86.592749,74.019819 81.817221,76.319238 C 73.768109,80.194889 73.009503,80.822018 71.422481,84.912428 C 70.480903,87.339263 67.525654,92.884795 64.85526,97.235833 C 62.184867,101.58687 60,105.69319 60,106.361 C 60,107.73359 52.286109,115.33125 47,119.16512 C 40.32509,124.00625 33.313689,126.80532 23.749881,128.44696 C 20.597989,128.98798 19.602785,128.69369 17.511226,126.60214 z M 29,122.37592 C 32.025,122.0292 35.96882,120.86217 37.764045,119.78252 C 39.559269,118.70287 42.125047,117.52263 43.465774,117.15976 C 46.202185,116.41915 56.876268,108.02108 56.951445,106.54962 C 56.97815,106.02691 59.656243,101.52691 62.902763,96.549617 C 69.603822,86.27612 70.970173,83 68.553819,83 C 67.684293,83 66.191468,83.443284 65.236431,83.985076 C 64.281394,84.526867 59.45,86.5949 54.5,88.580705 C 32.402847,97.44548 25.376902,101.96609 20.562956,110.41636 C 17.50636,115.78182 16.697223,119.56574 18.061418,122.11476 C 18.857029,123.60137 19.784017,124.02114 21.33562,123.5974 C 22.526029,123.2723 25.975,122.72264 29,122.37592 z M 98.88598,84.225249 C 98.141194,79.487899 98.388018,77.776433 100.1366,75.553467 C 101.24131,74.14906 102.59516,73 103.14516,73 C 103.69516,73 103.2125,74.185686 102.07258,75.634859 C 98.241065,80.505841 100.36953,84.553046 104.3301,79.927445 C 106.62574,77.246325 108,73.572412 108,70.116402 C 108,65.050118 110.99772,57.156123 114.09953,54.054311 C 117.8148,50.339044 119.61088,50.184124 120.24931,53.523867 C 120.82482,56.53444 119.50554,57.725774 118.19314,55.380634 C 117.64056,54.393225 116.762,54.029055 116.02755,54.482973 C 113.9898,55.742375 111.04545,63.240175 111.02196,67.229764 C 110.99744,71.39432 108.41775,78.610692 106.03332,81.184902 C 104.25219,83.107797 99.057689,85.317441 98.88598,84.225249 z M 163,83.412485 C 163,81.13982 169.53295,69.771848 174.33713,63.68476 C 176.58774,60.833142 181.47264,55.35 185.19246,51.5 C 188.91227,47.65 191.96571,43.907916 191.97788,43.184259 C 191.99005,42.460601 192.54086,40.885601 193.20191,39.684259 C 194.64222,37.066743 194.89318,36.116407 196.02341,29 C 196.52587,25.836242 196.52242,23.124853 196.01528,22.616827 C 195.50558,22.106234 192.73469,23.087543 189.4471,24.942944 C 184.5201,27.723574 180.6797,31.123009 173.89702,38.707518 C 173.01538,39.693383 170.18431,42.470761 167.60575,44.87947 C 165.02719,47.288178 162.20839,50.663178 161.34176,52.37947 C 160.47512,54.095761 158.87155,56.479188 157.77826,57.675972 C 156.68497,58.872757 156.06995,60.304163 156.41154,60.856874 C 156.75314,61.409585 156.52497,62.17555 155.90451,62.559017 C 153.83403,63.838643 153.09785,60.711482 154.72747,57.559133 C 157.19466,52.786556 161.64084,47.533467 173,35.970428 C 183.32521,25.459889 185.94335,23.463099 193.08711,20.650481 C 199.52183,18.11702 201.35428,21.452956 199.0314,31.471925 C 198.52492,33.656484 198.28449,35.617827 198.49713,35.830465 C 198.70977,36.043102 201.0474,34.438226 203.69187,32.264073 C 209.60709,27.400872 214.62784,25.227844 216.2352,26.835204 C 216.85337,27.453368 217.2837,30.555833 217.1915,33.729569 C 217.06041,38.241929 215.79227,42.443273 211.3749,53 C 205.76962,66.395588 203.04676,75.380097 204.23289,76.566225 C 204.57245,76.905782 206.34646,76.630545 208.17513,75.954589 C 211.36387,74.7759 221.44532,64.180645 223.40281,59.950828 C 224.54962,57.472783 225.40545,57.500553 228.96367,60.131262 C 230.87503,61.544394 232.74118,62.091469 234.502,61.754868 C 237.64959,61.153167 238.78417,63.068418 237.20484,66.317461 C 236.62134,67.517857 235.85882,70.226626 235.51034,72.336946 C 234.90762,75.98694 234.98938,76.140848 237.18838,75.495693 C 238.45977,75.122683 243.28702,71.033557 247.9156,66.408747 C 252.54417,61.783936 256.94025,58 257.68465,58 C 259.06257,58 258.79001,60.563017 256.85357,65.8151 C 255.74431,68.823679 255.76735,69.006693 257.25,68.964037 C 258.97884,68.914298 263.5552,64.878717 264.32245,62.727319 C 265.1614,60.374861 267.99087,59.367197 269.03115,61.050401 C 269.49109,61.794603 269.41184,63.230461 268.85322,64.274259 C 267.60182,66.612515 268.42797,69 270.48849,69 C 274.28399,69 284.83454,59.914714 288.07892,53.852545 C 288.76311,52.574123 289.45674,49.11556 289.62033,46.166848 C 289.85791,41.884452 290.44712,40.31496 292.54827,38.367681 C 298.23052,33.101553 305.81022,27.987955 308.82857,27.384286 C 310.57286,27.035429 312,26.439113 312,26.059141 C 312,25.679169 313.76081,24.378652 315.91291,23.169104 C 318.06501,21.959557 323.29205,17.581541 327.52856,13.440182 C 331.76507,9.298822 335.59325,6.0430886 336.03562,6.2052184 C 336.99483,6.5567698 327.33516,23.552032 318.30951,37.392623 C 309.44089,50.99241 305.9041,60.586629 309.04398,62.527179 C 310.01591,63.12787 314.04928,61.018469 316.61698,58.566595 C 317.23132,57.979968 319.03132,56.426714 320.61698,55.114921 C 322.20264,53.803127 324.80169,51.553127 326.39265,50.114921 C 329.21985,47.559158 329.27287,47.550902 328.73626,49.75 C 328.04583,52.579532 328.36829,52.565998 331.20953,49.6462 C 336.03924,44.682951 347.2902,42.413682 351.71212,45.510918 C 352.89855,46.341923 354.01118,48.254423 354.18463,49.760918 C 354.41973,51.802791 355.12949,52.588778 356.97304,52.848778 C 358.3332,53.040606 360.63592,54.198748 362.09018,55.422427 C 363.54444,56.646106 366.14407,58.23125 367.86714,58.944969 C 371.10666,60.286819 372.06881,62 369.58291,62 C 367.27071,62 359.57985,58.403602 358.11339,56.636629 C 356.05732,54.159214 353.13821,54.601155 352.41064,57.5 C 352.06554,58.875 351.43445,60 351.00822,60 C 350.582,60 349.9985,60.897729 349.71157,61.994953 C 349.206,63.928259 346.40788,65.741211 345.43347,64.766806 C 345.16932,64.502658 346.08331,62.309565 347.46456,59.893268 C 350.39301,54.770339 350.65764,50.399299 348.22776,47.287 C 346.71926,45.354833 346.01407,45.185109 342.67078,45.949557 C 338.03936,47.008537 337.26498,47.664976 338.81667,49.216667 C 340.88118,51.281179 340.10149,54.352692 336.20797,59.493429 C 331.99952,65.049977 330.01792,65.896984 326.54711,63.622827 C 324.45928,62.254825 324.28867,61.653926 325.04102,58.318108 C 325.50768,56.249031 325.76379,54.430459 325.61017,54.276837 C 325.45655,54.123214 322.52661,56.248081 319.0992,58.998762 C 310.42655,65.959022 305,65.922696 305,58.90438 C 305,55.455606 313.55823,39.135248 319.18385,31.856096 C 320.73273,29.851948 322,27.9298 322,27.584655 C 322,27.239511 323.19085,25.15762 324.64634,22.958232 C 326.10182,20.758844 327.07597,18.742636 326.8111,18.477771 C 326.54624,18.212905 324.3759,19.854641 321.98813,22.126073 C 317.86579,26.047562 311.03921,29.930403 308.18328,29.978038 C 307.45908,29.990117 305.39161,31.125 303.58889,32.5 C 301.78617,33.875 299.90369,35.032489 299.40561,35.072197 C 298.90752,35.111906 297.15,36.764515 295.5,38.744661 C 293.17067,41.54006 292.47197,43.399276 292.37463,47.061143 C 292.18427,54.222267 286.55206,61.635768 275.81814,68.853937 C 271.89916,71.489307 270.71782,71.843215 268.56814,71.025908 C 266.74657,70.333346 266,69.31555 266,67.524751 C 266,64.295015 265.56556,64.349541 262.2359,67.997178 C 260.73116,69.645625 258.375,71.108125 257,71.247178 C 254.73276,71.476461 254.5,71.150796 254.5,67.749344 C 254.5,65.686484 254.25383,63.998984 253.95295,63.999344 C 253.65207,63.999705 251.62707,65.854356 249.45295,68.120791 C 243.54345,74.28121 238.04651,78 234.84996,78 C 232.30002,78 232.00065,77.657864 232.00616,74.75 C 232.00955,72.9625 232.68455,70.211062 233.50616,68.635693 C 234.32777,67.060324 235,65.618215 235,65.431006 C 235,65.243797 233.3125,64.786004 231.25,64.413688 C 229.1875,64.041372 226.67918,63.312313 225.67595,62.793558 C 224.25424,62.058414 223.74119,62.2737 223.35001,63.769567 C 222.84412,65.704104 213.81618,74.074575 208.78518,77.273696 C 207.29203,78.223163 205.09158,79 203.89528,79 C 201.86753,79 201.7578,78.64437 202.27539,73.75 C 202.58075,70.8625 204.37642,64.9 206.26578,60.5 C 211.41274,48.513552 213.85986,40.95491 214.0358,36.5 C 214.2751,30.441224 214.14703,30 212.14914,30 C 209.87158,30 197.10989,39.041515 197.04613,40.70031 C 197.02076,41.36048 196.43708,42.26048 195.74906,42.70031 C 194.49353,43.502939 191.79387,48.614163 188.19622,57 C 187.1344,59.475 185.25352,63.75 184.01646,66.5 C 182.77941,69.25 181.12687,72.955455 180.34415,74.734345 C 178.33079,79.310109 170.57776,85 166.3562,85 C 163.95735,85 163,84.547165 163,83.412485 z M 172.10185,80.609487 C 174.55387,78.621484 175.93796,76.656456 179.927,69.5 C 182.47645,64.926197 187.11319,53.779859 186.6564,53.323069 C 186.4339,53.100564 183.46979,55.954645 180.06949,59.66547 C 174.58876,65.646717 165,80.606055 165,83.175237 C 165,84.551211 169.04062,83.091419 172.10185,80.609487 z M 333.62947,60.25 C 336.33446,56.541012 337.16167,54.084725 336.45529,51.859123 C 335.64771,49.314672 334.3402,49.521786 330.83115,52.75 C 327.03487,56.242466 325.55589,59.759958 327.10095,61.621637 C 328.89486,63.783161 331.44319,63.247758 333.62947,60.25 z M 120.18963,78.3273 C 120.51102,74.524178 122.3303,72.812403 123.31729,75.384459 C 123.94169,77.011613 121.96598,81.97991 120.68963,81.992198 C 120.24393,81.996489 120.01893,80.347285 120.18963,78.3273 z"
     id="path5686" />
</svg>
