<?xml version="1.0" encoding="UTF-8" standalone="no"?>
<!-- Created with Inkscape (http://www.inkscape.org/) -->
<svg
   xmlns:svg="http://www.w3.org/2000/svg"
   xmlns="http://www.w3.org/2000/svg"
   version="1.0"
   width="600"
   height="400"
   id="svg2">
  <defs
     id="defs4" />
  <g
     id="layer1">
    <path
       d="M 495.80755,363.29433 C 491.96538,360.48489 491.32103,356.81218 491.80759,340.49547 C 492.37584,321.43936 499.53458,287.51508 506.15,272.5289 C 507.98479,268.37266 512.25446,258.69952 515.63833,251.03295 C 522.44055,235.62158 539.75662,209.80123 558.32378,187.38379 C 571.77186,171.14677 572.91974,166.9845 565.10345,162.80138 C 560.87428,160.53803 558.06327,160.87533 551.44248,164.44087 C 544.49898,168.18025 542.44274,168.37952 539.1347,165.63409 C 536.9502,163.82124 535.16303,160.65521 535.16303,158.59848 C 535.16303,156.03581 533.77584,155.42124 530.75483,156.64568 C 513.68046,163.56591 512.18683,163.67622 505.22928,158.5323 C 499.17535,154.05648 497.81605,153.88687 493.47322,157.06568 C 490.77236,159.04259 484.63999,160.32634 479.84573,159.91828 C 472.94247,159.33071 470.80307,157.86626 469.56272,152.87906 C 467.60412,145.00386 469.16134,140.28437 473.71841,140.28437 C 475.9379,140.28437 477.22731,143.06127 477.22731,147.84119 C 477.22731,156.6646 481.53156,157.60418 492.43804,151.16157 C 497.77789,148.00724 500.03225,144.30765 501.26379,136.67767 C 504.75079,115.07391 518.23645,93.43921 526.28962,96.529476 C 534.896,99.832069 529.30376,121.37818 515.33346,138.74152 C 511.00013,144.12734 507.45464,149.54715 507.45464,150.78557 C 507.45464,155.50997 515.67148,155.86559 525.23106,151.55469 C 534.48372,147.38236 535.5301,145.81785 540.18579,129.1925 C 547.07986,104.57431 558.18708,83.608125 564.3347,83.608125 C 568.46984,83.608125 569.15385,85.428892 569.06621,96.202843 C 568.95265,110.15494 561.81144,126.777 549.98719,140.61163 C 543.45754,148.25138 540.05222,160.43592 544.44666,160.43592 C 545.39649,160.43592 548.78409,157.98343 551.97484,154.98593 C 557.71235,149.59573 557.87147,149.58729 566.45375,154.2091 C 583.52076,163.4004 583.59466,170.72387 566.8336,191.92266 C 530.84573,237.43937 499.60475,311.25111 499.97792,349.88025 C 500.05338,357.69027 500.2718,357.89039 503.73031,353.31897 C 508.29882,347.28033 511.0856,349.62119 509.0384,357.77779 C 507.11456,365.44279 501.78486,367.66503 495.80755,363.29433 z M 518.68369,124.31965 C 525.5451,112.6115 526.68069,107.53809 522.43982,107.53809 C 519.94237,107.53809 515.23569,116.90533 511.36504,129.57885 C 508.65855,138.44057 511.68124,136.26848 518.68369,124.31965 z M 561.95152,104.81511 C 562.85674,100.07152 562.62613,97.103492 561.4381,98.207849 C 558.97584,100.49672 550.26012,122.62308 550.32112,126.43018 C 550.4043,131.61348 560.37315,113.08622 561.95152,104.81511 z M 442.81932,159.03645 C 441.99233,156.88136 441.97719,150.29203 442.78565,144.39359 C 443.59413,138.49511 443.58689,131.11186 442.76958,127.98641 C 441.29765,122.35782 441.23897,122.37133 436.60151,129.40485 C 433.89741,133.50614 431.9125,141.02843 431.90293,147.21146 C 431.87539,164.96792 426.27791,161.00842 416.76884,136.50595 C 398.86695,90.377309 377.315,74.681064 336.51615,78.058122 C 315.88208,79.766066 282.21272,90.199303 269.50476,98.823153 C 264.28129,102.36788 259.29028,104.54777 258.41363,103.66735 C 255.73045,100.97254 267.58911,92.99915 282.7422,87.309561 C 322.05104,72.550168 359.3896,68.475529 382.6629,76.405536 C 398.39679,81.766611 414.59496,97.787234 420.57441,113.90153 C 423.13134,120.79227 425.45094,126.76442 425.7291,127.17294 C 426.00727,127.58145 429.74266,124.40789 434.03,120.12056 C 440.78754,113.363 442.55094,112.71387 447.27795,115.24369 C 452.37128,117.96957 452.62467,119.41733 451.12118,137.20349 C 449.0792,161.36019 451.2925,159.73335 454.46017,134.74924 C 457.09874,113.93838 460.84184,103.52725 466.46057,101.37114 C 473.56388,98.645341 474.76961,102.95966 468.86545,109.97636 C 464.5009,115.16331 462.48777,121.40888 461.38953,133.16966 C 459.39851,154.49095 456.02056,162.95484 449.50224,162.95484 C 446.65362,162.95484 443.64629,161.19154 442.81932,159.03645 z M 95.607356,147.85326 C 39.799555,146.02068 27.068059,143.50803 21.574016,133.24233 C 18.580203,127.64833 23.144604,120.76408 33.479255,115.28626 C 41.768793,110.89242 45.110879,114.14012 35.142787,120.14213 C 18.026295,134.38187 29.389065,138.48413 101.41395,139.73765 C 154.36262,140.65916 160.04045,141.16823 159.3239,144.93001 C 158.34822,150.05226 160.11007,149.97137 95.607356,147.85326 z M 177.17148,146.21836 C 174.11681,142.53773 174.36041,142.27539 179.35943,143.86202 C 187.76336,146.52933 191.23369,143.22889 186.04904,137.4999 C 180.25094,131.09309 182.36415,129.64002 192.1228,133.32349 C 203.82473,137.74046 221.29425,131.53945 222.1873,122.65175 C 222.53532,119.18821 224.0335,110.40339 225.51663,103.12994 C 227.62637,92.783303 229.25092,89.905484 232.9818,89.905484 C 242.56056,89.905484 244.50758,106.85398 236.30167,118.8041 C 231.56822,125.69726 231.7615,136.21843 236.58751,134.36651 C 241.81812,132.35934 243.6467,136.58325 239.15941,140.30739 C 237.09655,142.01941 235.40872,144.98166 235.40872,146.89014 C 235.40872,154.4361 228.01978,150.03827 226.42622,141.54383 C 225.51656,136.69487 224.61505,132.76453 224.42288,132.80978 C 215.56867,134.89365 197.13318,142.93485 193.97941,146.08861 C 188.56892,151.49911 181.59875,151.55288 177.17148,146.21836 z M 237.75061,100.611 C 237.84799,98.879222 236.79415,97.462313 235.40872,97.462313 C 234.0233,97.462313 232.96946,101.14627 233.06684,105.64889 C 233.21518,112.50931 233.59455,113.01937 235.40872,108.79756 C 236.59941,106.02673 237.65325,102.34277 237.75061,100.611 z M 351.28013,142.5931 C 346.43117,141.37569 337.36296,140.44334 331.12858,140.52116 C 324.8942,140.599 311.91179,140.12643 302.27877,139.47095 C 292.64577,138.81549 282.3844,139.18401 279.47572,140.28987 C 272.876,142.7991 265.36634,138.88033 267.26964,133.92038 C 269.15672,129.00273 273.19288,129.16378 273.19288,134.15675 C 273.19288,138.89922 281.92444,136.94036 289.16379,130.57381 C 293.45811,126.79723 294.06195,126.85605 297.36456,131.37264 C 300.59859,135.79543 301.77606,135.94221 310.04261,132.95298 C 316.53959,130.60363 319.64462,130.44905 320.85933,132.41445 C 321.80328,133.94184 328.68551,135.01528 336.29189,134.82156 C 348.80373,134.50288 362.42769,135.95366 378.85715,139.35427 C 383.73184,140.36323 384.25936,141.1137 381.37609,142.93782 C 376.93923,145.74477 363.20693,145.58749 351.28013,142.5931 z M 37.893498,113.5862 C 37.893498,112.82281 48.219734,108.04009 53.415052,105.88917 C 58.610369,103.73821 67.96195,99.66073 74.196333,96.828069 C 86.456179,91.257681 97.65201,87.811898 134.65098,78.221565 C 164.64336,70.447407 184.41984,70.974143 193.81165,79.7973 C 202.62674,88.078653 201.73823,93.119412 190.33362,99.529161 C 175.52503,107.85205 160.00151,109.25764 152.25414,102.97714 C 148.80679,100.1825 146.84834,97.030752 147.90204,95.973242 C 148.95574,94.915743 152.22882,96.638418 155.17558,99.801389 C 159.68198,104.63844 162.14281,105.29488 170.6623,103.93255 C 204.29924,98.553782 202.37636,77.310766 168.25255,77.310766 C 143.4062,77.310766 97.020395,87.751646 63.25601,104.80916 C 36.850815,118.14887 37.573736,118.49144 37.893498,113.5862 z M 489.1923,43.576958 C 483.82821,39.505032 483.4317,34.488733 488.47394,34.488733 C 491.69786,34.488733 497.37887,41.614543 497.37887,45.658381 C 497.37887,48.018132 493.86637,47.12509 489.1923,43.576958 z"
       id="path2453"
       style="fill:#000000" />
  </g>
</svg>
