<?xml version="1.0" encoding="UTF-8" standalone="no"?>
<!-- Created with Inkscape (http://www.inkscape.org/) -->

<svg
   xmlns:dc="http://purl.org/dc/elements/1.1/"
   xmlns:cc="http://creativecommons.org/ns#"
   xmlns:rdf="http://www.w3.org/1999/02/22-rdf-syntax-ns#"
   xmlns:svg="http://www.w3.org/2000/svg"
   xmlns="http://www.w3.org/2000/svg"
   xmlns:sodipodi="http://sodipodi.sourceforge.net/DTD/sodipodi-0.dtd"
   xmlns:inkscape="http://www.inkscape.org/namespaces/inkscape"
   width="383.94565"
   height="242.65523"
   id="svg2"
   version="1.1"
   inkscape:version="0.48.1 "
   sodipodi:docname="Documento nuevo 1">
  <defs
     id="defs4" />
  <sodipodi:namedview
     id="base"
     pagecolor="#ffffff"
     bordercolor="#666666"
     borderopacity="1.0"
     inkscape:pageopacity="0.0"
     inkscape:pageshadow="2"
     inkscape:zoom="0.35"
     inkscape:cx="101.30464"
     inkscape:cy="141.13203"
     inkscape:document-units="px"
     inkscape:current-layer="layer1"
     showgrid="false"
     showguides="true"
     inkscape:guide-bbox="true"
     inkscape:window-width="1440"
     inkscape:window-height="851"
     inkscape:window-x="-4"
     inkscape:window-y="-4"
     inkscape:window-maximized="1"
     fit-margin-top="0"
     fit-margin-left="0"
     fit-margin-right="0"
     fit-margin-bottom="0" />
  <metadata
     id="metadata7">
    <rdf:RDF>
      <cc:Work
         rdf:about="">
        <dc:format>image/svg+xml</dc:format>
        <dc:type
           rdf:resource="http://purl.org/dc/dcmitype/StillImage" />
        <dc:title></dc:title>
      </cc:Work>
    </rdf:RDF>
  </metadata>
  <g
     inkscape:label="Capa 1"
     inkscape:groupmode="layer"
     id="layer1"
     transform="translate(-106.80845,-435.68234)">
    <path
       style="fill:#000000"
       d="m 158.56779,677.17538 c 0,-2.19401 89.1925,-30.54996 143.01946,-45.46855 64.87242,-17.97991 95.12192,-24.99221 127.92928,-29.65595 18.24035,-2.59295 22.82096,-2.80787 22.82096,-1.07069 0,0.68257 -7.13165,2.12391 -15.8481,3.20302 -50.41316,6.24114 -162.25259,35.73715 -258.52222,68.18143 -20.96287,7.06479 -19.39938,6.67707 -19.39938,4.81074 z M 415.0998,650.51955 c -1.09774,-2.05113 -1.4198,-6.4415 -0.83658,-11.40386 1.25386,-10.66834 6.84414,-28.55341 8.92485,-28.55341 0.90719,0 1.24028,1.06628 0.74017,2.36952 -4.0946,10.67039 -7.26713,24.68175 -6.86326,30.31132 0.66444,9.26145 4.58208,9.65312 13.96273,1.39595 14.84331,-13.06559 30.81246,-38.9565 43.42881,-70.41146 14.95959,-37.2971 17.42806,-66.25413 6.52137,-76.50045 l -3.37245,-3.16824 0.6646,4.52817 c 0.90572,6.17105 -2.28434,20.27782 -5.35211,23.66768 -3.42299,3.78236 -7.71967,3.47681 -9.98321,-0.70994 -1.71091,-3.16461 -2.06118,-2.50123 -3.87773,7.34425 -2.46972,13.38552 -6.2326,22.05635 -10.10523,23.28546 -7.99185,2.53652 -12.05847,-10.68499 -12.12285,-39.41419 -0.0524,-23.37558 -1.31573,-23.77646 -5.20654,-1.65207 -3.55598,20.22032 -6.77919,30.92312 -9.3127,30.92312 -2.74476,0 -3.96194,-3.36842 -4.0963,-11.33609 -0.0598,-3.54458 -0.70662,-7.83624 -1.43748,-9.53702 -1.17282,-2.72929 -1.34156,-2.58744 -1.43747,1.2084 -0.14828,5.86836 -5.99379,22.99823 -8.82099,25.84934 -2.04333,2.06061 -2.53593,2.00088 -4.41742,-0.53559 -1.16469,-1.57014 -2.60039,-7.36273 -3.19042,-12.8724 -1.20151,-11.21951 -2.21796,-11.10768 -6.0373,0.6642 -3.36786,10.38029 -5.68559,9.21852 -3.17295,-1.59047 1.0496,-4.5152 2.35376,-13.05185 2.89815,-18.97032 l 0.9898,-10.76088 -2.83664,8.50386 c -4.05181,12.14673 -12.57408,31.22499 -15.3674,34.40198 -4.30286,4.8939 -7.80136,3.35539 -10.07115,-4.4289 l -2.08039,-7.13469 -2.01771,9.01614 c -3.492,15.60383 -6.8304,19.93696 -11.41203,14.81243 -3.09227,-3.45869 -6.87232,-17.23412 -8.13866,-29.65924 -1.45001,-14.22745 1.53844,-10.1235 3.94066,5.41155 2.07392,13.41199 5.1504,22.41927 7.65743,22.41927 2.26645,0 5.96263,-13.8099 8.38578,-31.33158 1.1483,-8.30331 2.54181,-15.55091 3.09669,-16.10578 0.55487,-0.55489 1.05033,3.80354 1.10103,9.68537 0.10329,11.97733 1.89774,24.82205 3.71027,26.55718 3.06774,2.93674 15.10412,-21.98258 20.34656,-42.12418 3.02288,-11.61393 2.99593,-26.86332 -0.0669,-37.90423 -1.29752,-4.67713 -2.84492,-10.24329 -3.43867,-12.36926 -1.90001,-6.80304 3.54988,-0.74773 6.71956,7.46604 2.29858,5.95641 2.78715,11.89775 2.78715,33.89402 0,19.49613 0.49193,26.67146 1.8285,26.67119 2.20909,-4.5e-4 3.01708,2.66165 4.34073,14.30158 1.11136,9.77302 2.62515,11.12911 5.17789,4.63847 3.11601,-7.92297 9.52594,-38.8138 9.52594,-45.90778 0,-0.4749 0.69578,-0.86345 1.54616,-0.86345 0.91721,0 1.59277,6.13218 1.66076,15.07502 0.0631,8.29127 0.63278,18.20599 1.26611,22.03273 l 1.1515,6.9577 1.74594,-6.18462 c 0.96027,-3.40155 2.86895,-12.74633 4.24152,-20.76618 2.67725,-15.6431 5.79186,-24.84543 8.40915,-24.84543 0.89378,0 1.71979,0.17394 1.83558,0.38654 0.1158,0.21259 0.6635,12.21463 1.21715,26.67119 0.78846,20.58761 1.58923,27.3738 3.69457,31.30967 1.47837,2.76375 3.34798,5.02501 4.15469,5.02501 3.31179,0 7.07973,-11.70119 10.06772,-31.26497 0.90977,-5.95668 10.60433,-18.1554 12.73509,-16.02464 0.61402,0.61402 -0.33781,2.28642 -2.11518,3.71643 -4.29525,3.45582 -5.45496,7.20823 -3.67481,11.89039 3.97214,10.4475 11.90145,-3.75745 10.37162,-18.58019 -0.77716,-7.52987 -0.55455,-8.49096 1.9668,-8.49096 3.81411,0 10.35576,8.02546 12.32693,15.12303 3.25698,11.72724 0.63527,33.01807 -6.80053,55.22708 -13.66827,40.82387 -47.58469,91.9963 -60.97396,91.9963 -3.25008,0 -5.27335,-1.03767 -6.5029,-3.33511 z M 164.10209,576.36716 c -4.04538,-3.18209 -4.40437,-3.20334 -13.06573,-0.77307 -11.09876,3.11414 -14.74874,3.14178 -17.24779,0.13065 -2.51696,-3.03276 0.16522,-12.87358 4.60354,-16.8902 4.0273,-3.64466 8.54693,-2.37816 16.83747,4.71822 l 6.62885,5.67407 10.8059,-4.23956 c 13.23828,-5.19385 19.9189,-10.49969 19.9189,-15.81986 0,-3.99933 -8.80975,-20.09157 -14.4251,-26.34947 -4.50939,-5.02539 -6.77241,-4.34771 -11.47394,3.43599 -5.22584,8.65174 -10.68122,11.20364 -18.77006,8.78016 -12.57434,-3.76736 -28.10051,-19.46801 -36.90644,-37.32118 -9.68683,-19.63909 -2.26899,-41.77864 18.68641,-55.77213 11.83579,-7.90364 19.02043,-8.28987 24.87086,-1.33702 4.06531,4.83135 5.05343,7.61214 2.70485,7.61214 -0.71388,0 -2.08176,-1.72024 -3.03973,-3.82273 -1.918,-4.20958 -7.57496,-6.29208 -13.23381,-4.87182 -11.58793,2.9084 -26.88874,19.14671 -30.53752,32.4086 -4.5523,16.54587 10.29332,43.80904 31.01749,56.96194 11.46593,7.27702 18.23268,5.19949 25.13696,-7.7175 1.58721,-2.96945 3.83906,-4.92761 5.66668,-4.92761 6.22752,0 23.39566,25.00179 23.39566,34.07085 0,4.90804 -7.76707,11.3377 -19.6718,16.28452 -5.76304,2.39473 -10.77088,4.57104 -11.12857,4.83625 -0.35769,0.26522 0.9812,2.21888 2.97528,4.34149 4.42136,4.70631 1.97532,5.08956 -3.74836,0.5873 z m -10.94584,-4.41489 4.63846,-1.81519 -5.77538,-5.29899 c -7.60207,-6.97497 -11.4958,-6.89629 -14.4997,0.29306 -3.3119,7.92648 -1.90918,10.46263 5.2282,9.45274 3.17347,-0.44902 7.85726,-1.63325 10.40842,-2.63162 z m 128.0488,2.15785 c -4.56492,-6.45921 -13.26691,-24.35599 -17.98584,-36.99026 -4.61302,-12.35072 -14.97435,-49.58054 -14.97435,-53.80507 0,-5.49702 2.59899,-1.0881 4.56046,7.73635 2.42023,10.88833 7.69232,28.28792 8.57124,28.28792 0.35101,0 2.41037,-0.80745 4.57635,-1.79433 3.0078,-1.37045 4.89849,-1.35678 8.00334,0.0578 2.23585,1.01873 4.36085,1.55657 4.72221,1.19521 0.36136,-0.36137 -3.2074,-11.52289 -7.93058,-24.80338 -8.07293,-22.69918 -10.3355,-31.3661 -7.28886,-27.92046 0.71433,0.80787 4.27948,10.16598 7.92258,20.7958 12.72938,37.14183 23.38016,61.63441 32.73045,75.26715 2.4381,3.55477 4.4329,7.20756 4.4329,8.11732 0,3.85403 -2.88265,0.95441 -9.92253,-9.9809 -8.75556,-13.60035 -20.3648,-24.6498 -27.37077,-26.05099 -2.72076,-0.54415 -5.23189,-0.7043 -5.5803,-0.35591 -1.06878,1.0688 8.67835,23.23674 14.38125,32.70735 5.69649,9.45995 6.57582,15.21016 1.15245,7.53632 z m 5.05569,-39.69604 c -3.55861,-8.12486 -11.07483,-15.07502 -16.30282,-15.07502 -1.41249,0 -3.91874,1.0029 -5.56944,2.22868 -4.30127,3.194 -1.42069,7.05492 7.12999,9.55651 3.78204,1.10646 9.31163,4.09745 12.28798,6.64662 2.97635,2.54917 5.54611,4.66314 5.71058,4.6977 0.16446,0.0345 -1.30086,-3.58996 -3.25629,-8.05449 z m 49.40488,24.66498 c -1.37687,-2.10136 -3.3762,-8.09949 -4.44298,-13.32919 l -1.93956,-9.50854 -3.68309,3.92047 c -3.3275,3.54198 -11.54237,6.97707 -16.73877,6.99945 -1.10164,0.005 -3.71077,-1.69917 -5.79809,-3.78648 -6.58259,-6.58259 -3.96278,-22.36149 4.64968,-28.00459 3.40108,-2.22847 4.99968,-2.38142 9.79261,-0.93692 3.15042,0.94946 8.10616,3.36201 11.0128,5.36119 5.28349,3.63399 5.28481,3.63803 5.43857,16.66477 0.11024,9.33896 0.96994,14.68795 3.03495,18.88326 3.32348,6.75201 2.38403,9.39903 -1.32612,3.73658 z m -17.40753,-17.12147 c 5.74008,-2.44581 11.11509,-7.95035 12.62415,-12.9284 0.88134,-2.90734 -0.11441,-4.18847 -6.30963,-8.11732 -10.84534,-6.8779 -17.3278,-5.84603 -20.5035,3.26374 -2.56379,7.35452 -2.06981,13.3563 1.38353,16.80964 3.64757,3.64757 6.09147,3.83314 12.80545,0.97234 z m -106.3479,-2.5185 c -2.42718,-2.53342 -4.06514,-4.9541 -3.63997,-5.37929 0.42521,-0.4252 2.75895,1.29971 5.18612,3.83313 2.42717,2.53343 4.06514,4.95411 3.63995,5.3793 -0.4252,0.42519 -2.75893,-1.29972 -5.1861,-3.83314 z"
       id="path2996"
       inkscape:connector-curvature="0" />
  </g>
</svg>
