<?xml version="1.0" encoding="UTF-8" standalone="no"?>
<!-- Created with Inkscape (http://www.inkscape.org/) -->

<svg
   xmlns:dc="http://purl.org/dc/elements/1.1/"
   xmlns:cc="http://creativecommons.org/ns#"
   xmlns:rdf="http://www.w3.org/1999/02/22-rdf-syntax-ns#"
   xmlns:svg="http://www.w3.org/2000/svg"
   xmlns="http://www.w3.org/2000/svg"
   xmlns:sodipodi="http://sodipodi.sourceforge.net/DTD/sodipodi-0.dtd"
   xmlns:inkscape="http://www.inkscape.org/namespaces/inkscape"
   id="svg2973"
   version="1.1"
   inkscape:version="0.47 r22583"
   width="459"
   height="146"
   sodipodi:docname="R DUBOS.bmp">
  <metadata
     id="metadata2979">
    <rdf:RDF>
      <cc:Work
         rdf:about="">
        <dc:format>image/svg+xml</dc:format>
        <dc:type
           rdf:resource="http://purl.org/dc/dcmitype/StillImage" />
        <dc:title></dc:title>
      </cc:Work>
    </rdf:RDF>
  </metadata>
  <defs
     id="defs2977">
    <inkscape:perspective
       sodipodi:type="inkscape:persp3d"
       inkscape:vp_x="0 : 0.5 : 1"
       inkscape:vp_y="0 : 1000 : 0"
       inkscape:vp_z="1 : 0.5 : 1"
       inkscape:persp3d-origin="0.5 : 0.33333333 : 1"
       id="perspective2981" />
  </defs>
  <sodipodi:namedview
     pagecolor="#ffffff"
     bordercolor="#666666"
     borderopacity="1"
     objecttolerance="10"
     gridtolerance="10"
     guidetolerance="10"
     inkscape:pageopacity="0"
     inkscape:pageshadow="2"
     inkscape:window-width="640"
     inkscape:window-height="483"
     id="namedview2975"
     showgrid="false"
     inkscape:zoom="1.1764706"
     inkscape:cx="229.5"
     inkscape:cy="127.06729"
     inkscape:window-x="0"
     inkscape:window-y="0"
     inkscape:window-maximized="0"
     inkscape:current-layer="svg2973" />
  <path
     style="fill:#000000"
     d="M 26.666667,136.33333 C 26.3,135.96667 26,135.02851 26,134.24855 26,132.97737 36.323705,111.59168 42.533111,100 c 1.325802,-2.475 2.423226,-4.991722 2.438719,-5.592716 0.01549,-0.600994 1.1475,-3.075994 2.51557,-5.5 C 48.85547,86.483278 50.50798,83.375 51.159645,82 56.613859,70.49171 60.499135,61.637876 62.129689,57.001273 64.984879,48.882328 68.509011,44 71.514188,44 73.350458,44 74,44.533628 74,46.042206 c 0,1.123214 -0.443216,2.585714 -0.984925,3.25 -4.852095,5.950026 -6.188114,8.076505 -8.036722,12.791676 C 63.810473,65.062747 61.744536,68.4 60.387383,69.5 58.998936,70.625363 56.8376,74.4896 55.445134,78.336209 54.084052,82.096124 52.30209,85.840767 51.485219,86.657638 50.668349,87.474508 50,89.235714 50,90.571429 50,91.907143 49.594021,93 49.097825,93 47.971322,93 46,98.503993 46,101.64922 46,102.94215 45.41757,104 44.705711,104 c -0.711858,0 -3.241705,4.1625 -5.62188,9.25 -5.90277,12.61686 -6.821982,14.81729 -7.519366,18 C 31.233052,132.7625 30.520469,134 29.980948,134 29.441427,134 29,134.675 29,135.5 c 0,1.56157 -1.1827,1.98397 -2.333333,0.83333 z m 74.031343,-8.03054 C 100.43111,127.86125 99.905401,122.1 99.52977,115.5 98.852919,103.60747 97.229593,97.395315 94.355822,95.70031 93.61012,95.26048 93,94.195496 93,93.333679 c 0,-1.193041 -0.53689,-1.377904 -2.25,-0.774723 -1.2375,0.435721 -7.078355,0.966111 -12.979679,1.178645 -9.172394,0.330341 -11.090912,0.123434 -13.218575,-1.425588 -1.368893,-0.996607 -2.503037,-2.319413 -2.520321,-2.939568 -0.01728,-0.620156 -0.703341,-1.685197 -1.524572,-2.366758 -2.05938,-1.709133 -0.887194,-8.539478 1.948463,-11.353716 3.769707,-3.741233 6.896138,-4.85466 12.042507,-4.288742 2.649922,0.291398 5.084471,0.943228 5.410108,1.448511 0.325638,0.505284 1.640547,1.246093 2.922021,1.646242 1.281473,0.40015 3.651753,2.110684 5.267289,3.801188 1.615536,1.690503 3.942058,3.569248 5.170049,4.174989 1.22799,0.60574 2.676918,2.105858 3.219838,3.333594 1.141846,2.582118 3.307705,2.854663 6.071742,0.76405 C 103.62649,85.724295 105.4,85.034984 106.5,85 c 1.1,-0.03498 2.87351,-0.724295 3.94113,-1.531803 C 111.50875,82.660688 113.14115,82 114.06868,82 114.99622,82 116.31531,81.325 117,80.5 117.68469,79.675 119.0243,79 119.97692,79 122.37673,79 133,67.925009 133,65.423161 c 0,-0.817262 0.675,-1.744952 1.5,-2.061535 0.84507,-0.324283 1.5,-1.812983 1.5,-3.409598 0,-1.558697 0.47185,-3.125614 1.04856,-3.482039 C 137.77379,56.021773 137.75881,55.414314 137,54.5 136.24119,53.585686 136.22621,52.978227 136.95144,52.530011 138.24938,51.727844 138.35211,45 137.06642,45 c -0.51347,0 -1.07597,-1.222291 -1.25,-2.716202 -0.42598,-3.656667 -9.07005,-10.271707 -13.43156,-10.27876 C 120.67153,32.002267 118.12555,31.1 116.72713,30 114.39115,28.162519 112.67035,28 95.550457,28 78.298622,28 76.75713,28.148357 74.769625,30 73.311126,31.358799 71.240628,32 68.311439,32 65.940147,32 64,32.45 64,33 c 0,0.55 -1.296423,1 -2.880941,1 -1.584517,0 -5.86979,1.125 -9.522829,2.5 -8.93963,3.364868 -11.547857,3.021968 -4.09623,-0.538526 3.3,-1.576787 6.557102,-2.679362 7.238004,-2.450168 0.680902,0.229195 1.130902,-0.129588 1,-0.797294 -0.130902,-0.667707 0.742512,-1.227822 1.94092,-1.244701 1.198407,-0.01688 3.040904,-0.810771 4.094436,-1.764205 3.370435,-3.050201 15.0333,-5.127098 35.22664,-6.273081 12.66834,-0.718935 27.78378,3.19894 34.70134,8.99448 C 140.28767,39.620134 140,39.019842 140,49.74379 c 0,6.690069 -0.43653,10.438689 -1.37223,11.783704 -0.75472,1.084878 -1.68042,3.389244 -2.05712,5.120812 -0.39859,1.832267 -1.45345,3.349289 -2.52349,3.629109 -1.01122,0.264442 -2.61411,2.115081 -3.56196,4.112531 -1.12405,2.368769 -2.63829,3.855381 -4.35428,4.274862 -1.44701,0.353725 -2.85592,0.934518 -3.13092,1.290652 -1.46456,1.896654 -10.02954,7.019248 -13.5,8.074168 -2.2,0.668736 -4.78139,1.610643 -5.73643,2.093128 C 102.80853,90.60524 101.34603,91 100.51357,91 c -0.832464,0 -1.51106,0.3375 -1.507993,0.75 0.01596,2.147022 2.368283,8.85971 3.355743,9.57613 0.83717,0.60738 0.80769,0.96044 -0.11132,1.33333 -1.77318,0.71949 -1.55345,6.07134 0.29166,7.10392 1.24478,0.69661 1.48549,2.5682 1.25,9.71899 -0.18404,5.58826 -0.7191,8.99774 -1.45002,9.23972 -0.6371,0.21091 -1.37673,0.0222 -1.64363,-0.4193 z M 87.75,88.807674 C 89.5375,87.723738 91,86.518876 91,86.130203 c 0,-0.388673 -2.1375,-2.469052 -4.75,-4.623064 -2.6125,-2.154013 -5.109861,-4.499306 -5.54969,-5.211763 -0.471636,-0.763978 -2.727883,-1.294414 -5.5,-1.29303 -5.595445,0.0028 -10.669932,3.661536 -12.127586,8.74408 -0.79918,2.786579 -0.646675,3.252574 1.258972,3.846897 1.192567,0.371932 2.393304,0.965539 2.668304,1.319128 2.478901,3.187315 15.428905,3.121924 20.75,-0.104777 z m 291.82826,33.937246 c -2.80031,-3.04316 -2.71489,-10.03199 0.20296,-16.60658 1.44495,-3.2558 2.14888,-6.280696 1.79226,-7.701595 -0.62434,-2.487563 2.05704,-9.380494 4.17652,-10.736435 0.6875,-0.43983 1.25,-1.455627 1.25,-2.257327 0,-2.616769 5.26452,-11.278895 7.15543,-11.773378 C 395.16994,73.404304 396,72.632154 396,71.953717 396,70.406932 384.71323,71.360297 384.1827,72.951895 383.9812,73.556403 380.71131,74 376.45681,74 l -7.37653,0 -1.25906,4.25 c -1.13874,3.84388 -4.07988,9.215943 -6.83937,12.492306 -0.57548,0.683268 -1.88416,3.158268 -2.90819,5.5 -1.02402,2.341732 -2.69701,4.980904 -3.71776,5.864824 -1.02074,0.88392 -2.57911,2.45892 -3.46303,3.5 -4.64319,5.46873 -9.81764,7.57754 -12.0289,4.9023 -0.75018,-0.90759 -2.15147,-2.39351 -3.11397,-3.30204 -2.16381,-2.04247 -2.50659,-12.64269 -0.44974,-13.9077 C 336.50217,92.560488 339,85.714127 339,83.15898 c 0,-0.698867 -1.10943,-0.887093 -3,-0.50898 -3.3668,0.673359 -3.72306,-0.172679 -1.4433,-3.427494 C 335.46975,77.918956 337.16236,77 338.65032,77 c 1.69592,0 2.7103,-0.663013 3.05993,-2 0.28766,-1.1 0.87651,-2 1.30856,-2 0.43205,0 1.29352,-1.2375 1.91438,-2.75 0.62085,-1.5125 1.78324,-3.875 2.58308,-5.25 0.79983,-1.375 1.46088,-3.5125 1.46899,-4.75 0.008,-1.2375 0.44435,-2.25 0.96943,-2.25 0.52507,0 1.25016,-1.575 1.61129,-3.5 0.36113,-1.925 1.00027,-3.5 1.42031,-3.5 0.42004,0 1.02137,-1.2375 1.33628,-2.75 0.31491,-1.5125 2.17116,-5.209825 4.125,-8.216278 C 360.40141,37.027269 362,33.989769 362,33.283722 362,32.577675 362.45,32 363,32 c 0.55,0 1,-1.139123 1,-2.531385 0,-1.392261 0.675,-2.790406 1.5,-3.106989 0.825,-0.316582 1.5,-1.202459 1.5,-1.968615 C 367,23.626855 367.44396,23 367.98658,23 c 0.54262,0 1.60904,-1.4625 2.36983,-3.25 2.01861,-4.742822 12.68373,-13.46126 14.83814,-12.1297646 1.29309,0.7991766 0.40327,10.9545086 -1.12075,12.7908406 -0.58105,0.700118 -0.76035,1.569038 -0.39846,1.930933 C 384.03724,22.703904 383.86082,23 383.2833,23 c -0.87849,0 -1.53496,1.232081 -2.66409,5 -0.0824,0.275 -0.41823,0.95 -0.74626,1.5 -0.32804,0.55 -0.89222,2.2375 -1.25374,3.75 C 378.25769,34.7625 377.52047,36 376.98095,36 376.44143,36 376,36.517648 376,37.150328 c 0,2.026595 -5.28779,12.205321 -8.69813,16.743474 -4.41775,5.878712 -4.32255,7.351936 0.44813,6.934402 L 371.5,60.5 l -0.13759,5.25 c -0.0861,3.286578 0.28785,5.287891 1,5.351317 3.34298,0.297735 8.18346,-0.431448 11.18263,-1.684582 C 385.40994,68.637531 390.10022,68 393.96788,68 400.10953,68 401,68.231185 401,69.825686 c 0,1.004127 -1.0583,2.819908 -2.35178,4.035069 -1.29348,1.21516 -3.65598,4.881248 -5.25,8.146861 -1.76633,3.618614 -3.53989,5.9482 -4.54123,5.964931 C 387.02096,88.003225 386,89.986629 386,93.52277 c 0,1.297558 -0.39074,2.600684 -0.8683,2.895836 -0.47757,0.295152 -1.17491,3.24671 -1.54966,6.559014 C 383.2073,106.28993 382.47303,109 381.95034,109 381.42765,109 381,111.7 381,115 c 0,4.66667 0.33333,6 1.5,6 0.825,0 1.5,-0.675 1.5,-1.5 0,-0.825 0.40122,-1.5 0.89159,-1.5 0.49038,0 1.19358,-1.20321 1.56267,-2.67379 0.3691,-1.47058 1.95996,-4.50808 3.53526,-6.75 2.06167,-2.93411 3.17816,-6.17691 3.98479,-11.573674 0.61634,-4.123605 1.54926,-7.926105 2.07315,-8.45 C 396.57136,88.028641 397,86.8275 397,85.883333 c 0,-0.944166 0.46061,-1.870203 1.02358,-2.057858 0.56296,-0.187656 1.30764,-2.091672 1.65483,-4.231146 0.34718,-2.139474 2.13657,-6.175676 3.97642,-8.969337 C 405.49467,67.83133 407,65.067995 407,64.484246 c 0,-3.178569 7.37852,-14.15222 10.09558,-15.014581 2.60555,-0.826969 6.63889,0.480345 7.29663,2.365029 0.31964,0.915918 1.79084,3.690306 3.26933,6.165306 2.51945,4.217585 2.69288,5.284486 2.76331,17 0.0611,10.170298 -0.24986,13.059129 -1.66869,15.5 -0.95911,1.65 -1.74661,4.253332 -1.75,5.785183 -0.007,3.371244 -2.14577,6.937547 -7.23504,12.066697 l -3.82194,3.85189 -3.37572,-1.60189 C 410.71682,109.72085 408.75139,109 408.20586,109 c -2.42955,0 -2.2603,-5.5355 0.2212,-7.23469 1.94352,-1.33081 6.57294,-0.85492 6.57294,0.67567 0,0.79254 -0.45,1.7191 -1,2.05902 -1.86493,1.15259 -1.12106,4.5 1,4.5 1.1,0 2,-0.41786 2,-0.92857 0,-0.51072 0.5625,-1.52451 1.25,-2.25287 2.44886,-2.59442 6.66152,-12.41392 7.85883,-18.31856 0.66915,-3.3 1.592,-6.755282 2.05077,-7.678405 1.14845,-2.31085 -1.77264,-17.043715 -3.65448,-18.431838 C 423.67731,60.779124 423,59.620065 423,58.814071 c 0,-0.805993 -1.07074,-2.471348 -2.37941,-3.700786 l -2.37942,-2.235344 -2.12058,2.695888 C 414.95426,57.056568 414,58.725185 414,59.281867 c 0,0.556682 -1.575,2.934229 -3.5,5.283438 -1.925,2.349209 -3.5,5.060248 -3.5,6.024531 0,0.964284 -1.14412,4.613088 -2.54248,8.108454 -1.39837,3.495365 -2.33176,6.696175 -2.07421,7.11291 0.25756,0.416734 -0.84832,2.265676 -2.45751,4.108759 C 397.93515,92.19995 397,94.346379 397,96.635509 397,98.485979 396.55,100 396,100 c -0.55,0 -1,1.54286 -1,3.42857 0,1.88572 -0.71947,4.14805 -1.59883,5.0274 -0.87936,0.87936 -1.83005,3.32267 -2.11265,5.42958 -0.53943,4.02177 -6.05256,11.18709 -8.48754,11.03112 -0.71554,-0.0458 -2.16576,-1.02312 -3.22272,-2.17175 z M 347.6,104.6 c 1.87,-1.87 3.40168,-3.1075 3.40374,-2.75 0.002,0.3575 0.90205,-0.82338 2,-2.62417 C 354.10168,97.425037 355,95.287537 355,94.47583 355,93.664124 355.43103,93 355.95785,93 c 0.52681,0 2.19271,-2.1375 3.70198,-4.75 1.50928,-2.6125 3.05316,-4.975 3.43083,-5.25 0.37768,-0.275 1.17333,-2.270113 1.7681,-4.433585 1.10195,-4.00832 0.47731,-5.891787 -2.60876,-7.866105 -0.6875,-0.43983 -1.25,-1.67733 -1.25,-2.75 0,-2.184123 -2.46843,-2.637245 -3.70031,-0.679254 -0.43983,0.699081 -2.03719,1.814433 -3.54969,2.478561 C 352.2375,70.413745 351,71.64177 351,72.478561 351,73.315353 350.17844,74 349.17431,74 c -2.49041,0 -6.8075,4.589988 -4.99744,5.313344 0.87798,0.350867 0.73437,0.555322 -0.42687,0.607709 -0.9625,0.04342 -1.781,0.416447 -1.8189,0.828947 -0.41221,4.487063 -1.06608,6.741668 -2.37447,8.187422 -2.35632,2.603702 -2.20597,16.584988 0.19337,17.982478 2.86866,1.67084 4.27481,1.25529 7.85,-2.3199 z M 367.96482,69.065741 C 369.51407,66.170932 369.22717,65 366.96862,65 c -2.24138,0 -3.50007,2.172668 -2.60699,4.5 0.79335,2.067446 2.36573,1.877942 3.60319,-0.434259 z M 351.75,68.194288 c 0.9625,-0.993141 3.325,-3.73868 5.25,-6.101197 1.925,-2.362517 4.20877,-5.037446 5.07505,-5.944288 C 362.94132,55.241961 364.71664,52.7 366.0202,50.5 c 1.30357,-2.2 2.95729,-4.359861 3.67496,-4.79969 C 370.41282,45.26048 371,44.07808 371,43.072755 c 0,-1.005326 0.66309,-2.378183 1.47354,-3.050793 0.81044,-0.67261 1.76912,-2.865211 2.13039,-4.872445 0.36127,-2.007234 0.99621,-4.099517 1.41099,-4.649517 0.41477,-0.55 1.0586,-2.424907 1.43071,-4.16646 0.37212,-1.741553 1.32409,-3.41493 2.11548,-3.718615 C 380.3525,22.311239 381,20.978747 381,19.65383 c 0,-1.324918 0.675,-2.969141 1.5,-3.65383 1.7066,-1.416355 1.99391,-4.576714 0.5,-5.5 -0.55,-0.339919 -1.01023,-0.253976 -1.02274,0.190983 -0.0125,0.444959 -2.4875,3.479341 -5.5,6.74307 C 373.46477,20.697782 371,23.735282 371,24.184053 371,24.632824 370.1,25.9 369,27 c -1.1,1.1 -2,2.8449 -2,3.877555 0,1.032656 -0.63085,2.401114 -1.40189,3.041018 -0.77103,0.639905 -1.69325,2.324365 -2.04937,3.743244 -0.35611,1.41888 -1.18776,3.184805 -1.84811,3.924278 C 358.50348,45.166343 358,46.093235 358,48.398777 c 0,1.365754 -0.46823,2.772574 -1.04052,3.126266 -1.9336,1.195032 -5.95944,8.419217 -5.96564,10.705085 -0.003,1.24843 -0.6517,3.507372 -1.4407,5.019872 -1.62907,3.12293 -0.41875,3.643169 2.19686,0.944288 z M 215.82338,119.22156 c -3.07268,-2.02647 -5.77337,-5.26381 -8.54443,-10.24227 -1.59514,-2.86583 -2.59464,-3.53465 -5.66877,-3.79329 -2.8696,-0.24143 -3.65832,-0.70367 -3.41263,-2 C 198.84988,99.744202 209,101.50961 209,105.06487 c 0,0.56031 0.9,1.98479 2,3.1655 1.1,1.18072 2.00557,2.6244 2.01238,3.20819 0.0248,2.12303 6.89973,5.56144 11.11989,5.56144 3.56541,0 4.89013,-0.67158 9.26403,-4.69654 4.55247,-4.18929 9.5847,-10.71242 9.59858,-12.442349 0.003,-0.351389 -0.55738,-0.617998 -1.24488,-0.592466 -0.6875,0.02553 -3.8225,-0.02447 -6.96667,-0.111111 -5.1305,-0.141381 -6.08515,-0.526016 -9.31038,-3.751248 -4.12021,-4.120215 -5.54047,-7.087288 -6.37894,-13.326332 -0.3267,-2.431025 -1.04401,-4.557819 -1.59401,-4.72621 -0.55,-0.16839 -2.3094,1.644518 -3.90977,4.028684 -1.60037,2.384167 -4.40343,5.139235 -6.229,6.122373 -1.82558,0.983138 -3.56052,2.547758 -3.85543,3.476932 -0.29491,0.929175 -3.00436,4.2995 -6.021,7.489612 -3.01664,3.190115 -5.4848,6.129305 -5.4848,6.531545 0,0.40224 -1.87242,1.97045 -4.16093,3.48491 -2.28851,1.51447 -5.86856,4.44422 -7.95566,6.51056 -2.0871,2.06635 -4.03968,3.51204 -4.33907,3.21265 -1.44337,-1.44338 -0.2253,-4.29707 2.70566,-6.33879 3.95358,-2.75409 7.75,-6.63562 7.75,-7.92374 0,-0.52166 0.53703,-0.94848 1.1934,-0.94848 1.59197,0 11.42076,-10.208963 12.20367,-12.675711 0.33968,-1.070226 2.39105,-2.72831 4.5586,-3.684633 2.16756,-0.956322 4.18818,-2.503968 4.49027,-3.439212 0.30209,-0.935244 2.0911,-3.375614 3.97557,-5.423045 1.88448,-2.04743 3.71588,-4.63493 4.06979,-5.75 C 216.84521,70.91233 217.55445,70 218.06739,70 218.58032,70 219,67.776558 219,65.059017 c 0,-2.717541 0.39089,-5.182567 0.86865,-5.477837 0.47775,-0.295269 1.1488,-2.288859 1.49122,-4.4302 1.491,-9.324247 9.48959,-20.148348 14.89013,-20.150092 C 237.7625,35.0004 239,34.55 239,34 c 0,-1.572245 2.72178,-1.167414 3.36163,0.5 1.024,2.66851 5.37482,1.696888 9.10504,-2.033333 C 254.89635,29.036979 255,29.004271 255,31.351657 c 0,1.476061 -0.97409,3.056569 -2.5,4.056386 -2.62936,1.72282 -3.36676,5.136372 -1.26118,5.83823 0.84131,0.280439 1.20244,2.633492 1.12545,7.333333 -0.12791,7.80814 -1.99251,30.972438 -2.95177,36.670394 -0.59205,3.516773 -0.47295,3.75 1.91489,3.75 2.36787,0 15.76169,-8.23093 16.50594,-10.143438 C 268.01667,78.385453 269.02917,78 270.08333,78 271.25614,78 272,77.307473 272,76.215608 c 0,-0.981416 1.35,-2.581858 3,-3.556537 1.65,-0.974679 3,-2.191558 3,-2.704176 0,-0.512618 0.7875,-1.875072 1.75,-3.027675 3.41737,-4.092337 4.77303,-5.79629 6.64007,-8.346027 C 288.56549,55.610319 292,55.107282 292,57.759534 c 0,0.967743 -1.56528,3.105243 -3.47839,4.75 -1.91311,1.644756 -3.48811,3.380625 -3.5,3.857487 -0.0119,0.476861 -1.7157,2.511083 -3.78626,4.520493 -2.07056,2.009409 -5.10335,6.34425 -6.73954,9.632979 -1.63618,3.288729 -3.50711,6.319791 -4.15761,6.735694 C 268.27584,88.574775 265,94.64346 265,97.145528 c 0,1.325203 -0.65961,3.351182 -1.4658,4.502182 -1.29304,1.84607 -2.0589,4.22407 -4.21974,13.10229 -0.43365,1.78175 -0.11941,2.25 1.50995,2.25 1.13165,0 2.31312,-0.41351 2.62548,-0.91891 0.31235,-0.5054 3.38314,-2.49328 6.82397,-4.4175 C 276.91467,107.94984 282,103.77969 282,102.04775 282,101.47149 282.43844,101 282.97432,101 c 0.53588,0 1.62329,-1.2375 2.41648,-2.75 0.7932,-1.5125 3.24542,-4.557015 5.4494,-6.765588 2.20397,-2.208574 6.24279,-7.082051 8.97515,-10.82995 5.49751,-7.54078 8.51222,-10.126475 10.7883,-9.25306 1.18064,0.453055 0.73334,1.380404 -2.04638,4.242592 C 306.60077,77.658538 305,79.762522 305,80.319513 c 0,1.051101 -0.66902,1.878966 -6.13561,7.592331 -2.28599,2.389187 -3.47363,4.787086 -3.96228,8 -0.3838,2.523486 -1.00866,5.713156 -1.38858,7.088156 -1.85271,6.70523 -1.82261,7.25826 0.48994,9.00262 1.99678,1.50617 2.62208,1.55324 4.89294,0.36828 1.43197,-0.74722 3.39109,-1.36135 4.35359,-1.36474 0.9625,-0.003 1.75,-0.45616 1.75,-1.00616 0,-0.55 0.6375,-1 1.41667,-1 0.77916,0 1.58137,-0.49411 1.78267,-1.09803 0.20131,-0.60392 1.47631,-0.90809 2.83334,-0.67594 2.3216,0.39716 2.3492,0.47335 0.46732,1.29007 -1.1,0.47739 -3.27212,2.13157 -4.82692,3.67594 -1.55481,1.54438 -3.62257,2.80796 -4.59502,2.80796 -0.97244,0 -2.58257,0.9 -3.57806,2 -2.37833,2.62803 -2.79414,2.55865 -7.04756,-1.1759 -3.40744,-2.99177 -3.59787,-3.47741 -3.28479,-8.37664 0.22989,-3.59741 -0.0332,-5.14654 -0.85326,-5.02492 -1.2882,0.19105 -11.36706,7.80938 -14.73217,11.13564 -3.5579,3.51683 -9.20364,7.44182 -10.70437,7.44182 -4.00289,0 -7.73434,-11.07362 -4.18979,-12.43379 0.72157,-0.27689 1.32625,-1.30506 1.34374,-2.28483 0.0175,-0.97976 0.6925,-2.65489 1.5,-3.72251 C 261.33931,101.49125 262,98.903749 262,96.80887 262,94.713992 262.45,93 263,93 c 0.55,0 1,-0.480025 1,-1.066722 0,-0.586697 1.125,-2.541673 2.5,-4.344391 3.41349,-4.475315 3.13683,-5.176402 -0.84439,-2.139778 C 263.81619,86.852099 261.56619,88 260.65561,88 259.74502,88 259,88.395406 259,88.87868 c 0,0.483273 -1.4625,1.455194 -3.25,2.159822 -6.05725,2.387757 -9.75,5.801137 -9.75,9.012388 0,1.62201 -0.46114,2.94911 -1.02475,2.94911 -0.56361,0 -1.42411,1.0504 -1.91222,2.33422 -0.48811,1.28382 -3.69715,5.33382 -7.13121,9 L 229.68808,121 l -5.59404,-0.007 c -3.65929,-0.004 -6.51977,-0.61712 -8.27066,-1.77185 z M 238,94 c 1.375,-1.075541 3.30162,-1.965534 4.28138,-1.977764 0.97977,-0.01223 2.04044,-0.809736 2.35707,-1.772236 0.31662,-0.9625 1.17678,-3.113804 1.91145,-4.780677 2.18239,-4.951501 3.43451,-15.185622 3.44255,-28.137536 C 250.0008,43.870157 249.63138,42 246.96386,42 245.46962,42 239,49.78308 239,51.580683 c 0,0.264231 -1.57901,1.866809 -3.50891,3.561285 -1.9299,1.694476 -3.76421,4.098048 -4.07624,5.34127 -0.31203,1.243222 -1.65802,2.844126 -2.99109,3.557563 C 227.09069,64.754238 226,65.951042 226,66.700364 c 0,0.749323 -0.66394,1.617184 -1.47543,1.92858 -1.93269,0.741644 -4.63944,6.182028 -3.44348,6.92117 0.5054,0.312356 0.91891,2.981297 0.91891,5.93098 0,5.066037 0.23538,5.566701 4.25,9.040021 3.68772,3.190495 7.0321,5.251878 8.75,5.393263 0.275,0.02263 1.625,-0.838837 3,-1.914378 z M 227.72802,59.743167 c 1.22541,-1.783742 4.88001,-6.034936 8.12132,-9.447098 7.28819,-7.672344 8.11242,-9.927913 3.85614,-10.552604 -1.71759,-0.252087 -4.22841,0.223598 -5.73046,1.085657 -3.09185,1.774479 -7.96024,9.87238 -8.00682,13.318258 -0.0175,1.293941 -0.6925,3.226128 -1.5,4.29375 -0.80751,1.067621 -1.4682,2.530121 -1.4682,3.25 0,2.367576 2.45941,1.35429 4.72802,-1.947963 z M 134.0562,111.10501 c -1.18919,-2.22202 1.17433,-5.15906 2.46764,-3.06644 0.50543,0.81781 1.00618,0.83141 1.78903,0.0486 1.51195,-1.51195 3.68713,-1.35982 3.68713,0.25788 0,1.79623 -3.25092,4.65499 -5.29356,4.65499 -0.89984,0 -2.09245,-0.85275 -2.65024,-1.89499 z"
     id="path2987" />
</svg>
