<?xml version="1.0" encoding="UTF-8" standalone="no"?>
<!-- Created with Inkscape (http://www.inkscape.org/) -->

<svg
   xmlns:svg="http://www.w3.org/2000/svg"
   xmlns="http://www.w3.org/2000/svg"
   version="1.1"
   width="560"
   height="150"
   id="svg2">
  <defs
     id="defs6" />
  <path
     d="m 345,3.2500029 c -0.82858,0.046 -1.79927,0.31737 -2.9375,0.875 -9.53177,4.66967 -18.16106,32.2269501 -24.65625,59.0937501 -0.81214,3.35935 0.0213,8.03952 -7.78125,17.21875 -24.22255,28.496407 -37.49868,45.134807 -40.34375,27.656247 -0.49733,-3.05531 -1.39016,-9.485247 1.1875,-13.468747 12.43963,-19.22415 -6.79939,-25.962 -15.1875,5.0625 -0.58754,2.173087 0.18308,4.418447 -4.0625,5.406247 -6.91584,1.60907 -4.54748,-1.02677 -4.78125,-14.249997 -0.0543,-3.07375 -0.56098,-6.40309 4.4375,-9.0625 21.90313,-11.65342 19.41215,-36.47556 11.59375,-37.34375 -6.45522,-0.71682 -17.29472,15.18748 -22.375,28.25 -1.82865,4.70187 -3.94831,7.03594 -11.84375,9.4375 -4.13199,1.25683 -3.93601,11.3749 1.03125,10.46875 1.75077,-0.31939 4.3186,-3.03694 4.375,3.03125 0.1318,14.175347 -1.48853,32.825917 12.84375,23.312497 9.51907,-6.31855 7.97902,-3.13979 9.4375,-0.34375 6.38851,12.24733 9.99851,13.84049 15.53125,10.8125 14.90653,-8.15813 32.68954,-29.438797 48.15625,-51.749997 2.57988,-3.72156 6.85011,0.64207 10.65625,0.125 0.76618,-0.10409 3.43453,-1.42278 4.375,-3.21875 1.10306,-2.10647 1.15652,-5.0174 -0.53125,-5.03125 -8.14283,-0.0668 -7.15897,-2.9798 -6.28125,-4.625 2.32406,-4.35624 6.06795,-11.21137 8.46875,-15.53125 C 343.99507,35.551333 354.7773,2.7073229 345,3.2500029 z M 127.40625,31.062503 c -1.30082,-0.004 -2.71966,0.53962 -3.5,1.40625 -2.80969,3.12039 -1.74846,4.84658 -0.46875,6.875 2.04095,3.23505 13.5463,10.16584 20.3125,16.65625 1.55112,1.4879 3.06022,0.43877 3.9375,-0.5 1.26532,-1.35401 1.30004,-3.01491 -0.46875,-5.0625 -3.05308,-3.53432 -10.38854,-12.19854 -17.75,-18.71875 -0.52379,-0.46393 -1.28201,-0.65409 -2.0625,-0.65625 z m -95,5.5 c -2.099674,-0.005 -4.411878,1.54021 -6.3125,5.53125 -4.158005,8.73121 -1.180134,8.34328 -10.5,36.5625 -6.9117333,20.92774 -15.63557267,41.995917 -11.5,62.906247 2.0870899,10.55277 10.402189,5.38873 9.46875,-0.5 -2.094102,-13.21094 2.607189,-33.84092 12.53125,-58.812497 5.000669,-12.58301 10.05717,-24.07993 12,-36.84375 0.688936,-4.52611 -2.188043,-8.83536 -5.6875,-8.84375 z m 380.0625,12.84375 c -6.77415,0.49411 -20.83237,15.46608 -32.6875,36.53125 -5.04007,8.95561 -5.27137,25.113417 -16.78125,25.843747 -10.58309,0.66092 -3.38764,-12.346377 -9.78125,-10.71875 -2.14131,0.54512 -5.48159,0.50809 -6.46875,-1.468747 -6.00492,-12.02515 -22.89924,-2.83917 -28.25,3.687497 -19.10065,23.2983 -6.47153,36.78028 16.0625,18.09375 4.69606,-3.89425 8.28435,-2.52466 8.78125,1.40625 0.60126,4.75654 4.24093,4.30167 7.09375,-0.46875 0.88106,-1.47329 2.04165,-2.20721 4.96875,-1.3125 6.22888,1.90394 9.30776,-2.07785 13.6875,-3.875 4.03929,-1.6577 5.72475,-5.03793 8.46875,-1.65625 10.7076,13.1959 29.71236,-13.65045 30.09375,-4.625 0.41431,9.80441 6.49528,16.12216 26.96875,8.6875 4.36323,-1.58445 4.71596,-4.87337 7.375,-0.90625 3.60554,5.37924 8.15619,2.06415 11.84375,0.90625 4.70712,-1.47804 4.29962,-1.05423 6.4375,-0.1875 9.75989,3.95683 13.84661,2.87884 21.25,-0.1875 14.77671,-6.12022 19.61672,-17.55467 19.375,-8.3125 -0.27411,10.48085 5.4276,13.04859 31.40625,2.03125 5.41326,-2.29572 11.01895,-7.49332 1.46875,11.84375 -5.77988,11.70299 8.68433,12.67687 12.71875,3.125 3.78957,-8.97212 4.65828,-11.43048 6.65625,-20.125 2.80648,-12.212867 -8.35325,-9.977657 -28.0625,1.65625 -6.72804,3.9714 -15.11284,4.66347 -12.90625,-2.21875 0.8082,-2.52073 2.76272,-6.83583 0.15625,-7.937497 -2.01863,-0.85321 -2.8451,-1.31706 -5.15625,-4.0625 -1.57047,-1.86557 -3.25097,-5.8138 -7.1875,1.3125 -5.38709,9.752237 -14.90313,16.150887 -24.5625,15.499997 -7.4109,-0.49938 -4.65203,-5.58706 -0.1875,-10.15625 2.22487,-2.277027 1.70599,-8.498187 -5.53125,-4.812497 -4.70526,2.39623 -1.47265,3.158367 -10.34375,11.999997 -5.98677,5.96688 -12.99629,1.68444 -3.15625,-4.25 2.58723,-1.56033 12.99165,-9.414747 0.5625,-9.031247 -8.2451,0.2544 -12.19991,8.735567 -20.125,14.406247 -7.76278,5.55453 -16.24998,7.84555 -19.75,2.21875 -4.40043,-7.07433 9.27159,-15.232907 13.46875,-21.062497 4.70003,-6.52806 33.8477,-1.50504 45.0625,-6.46875 11.10611,-4.91561 -15.12114,-4.62075 -32.125,-4.96875 -5.61194,-0.11486 -4.75369,-0.81825 -0.9375,-10.71875 2.8283,-7.33758 -4.44116,-12.53147 -12,-1.46875 -3.99735,5.8503 -5.66377,12.78148 -14.03125,12.375 -3.22537,-0.15669 -9.81775,1.9089 -9.59375,-1.3125 0.36569,-5.25916 8.35647,-13.31883 9.21875,-18.09375 1.36663,-7.56781 0.0786,-11.00831 -2.875,-11.21875 -0.20306,-0.0145 -0.40648,-0.0159 -0.625,0 z m -367.75,1.5 c -2.606176,0.15484 -5.083492,3.11464 -5.09375,7.5625 -0.04851,21.03657 -1.500161,37.47333 -4.59375,58.281247 -2.024941,13.62005 8.577098,18.56337 32.46875,-16.874997 2.445203,-3.62696 6.502872,-5.1852 4.34375,2.062497 -2.973843,9.98254 0.498197,42.22644 26.84375,14.5625 1.123014,-1.17921 4.49807,-1.08416 4.875,0.5 2.07155,8.70629 11.81624,6.26873 27.34375,-4.34375 5.4962,-3.75645 4.48943,2.72004 2.8125,6.65625 -1.79816,4.22078 5.0734,5.436 7.9375,3.3125 2.511,-1.86171 5.48793,-3.02754 8.4375,-4.0625 1.8145,-0.63668 1.39613,-2.15349 3.3125,-2.3125 5.87081,-0.48713 6.57202,8.58408 19.6875,1.03125 14.9665,-8.61879 29.39288,0.31886 18.15625,20.4375 -2.83966,5.08427 5.60284,15.22601 12.8125,3.84375 7.10275,-11.21347 10.38513,-50.373527 -30.4375,-29.90625 -6.53229,3.2751 -11.93388,-5.5923 -3.0625,-6.90625 4.73043,-0.70063 8.13633,-5.315827 4.84375,-6.656247 -8.33245,-3.39218 -14.80977,4.399477 -24.28125,11.749997 -3.54295,2.74957 -5.46139,2.45506 -5.875,0.53125 -0.93668,-4.35672 7.58835,-16.375447 14.8125,-20.968747 9.01397,-5.73132 18.38432,-18.17581 5.875,-31.46875 -2.16833,-2.30416 -6.95677,-3.56103 -9.4375,0.78125 -6.18927,10.83373 -9.96943,21.21093 -14.59375,31.96875 -4.34855,10.116267 -8.98194,15.574897 -23,21.718747 -1.74559,0.76506 -4.12302,1.87145 -5.125,-2.5625 -0.54483,-2.41098 -0.60702,-5.01017 0,-7.40625 0.60155,-2.3745 -0.54782,-9.437387 -7.15625,-2.812497 -4.55611,4.567447 -4.88343,5.350877 -14.0625,13.312497 -6.915011,5.99785 -12.354562,1.02808 -12.03125,-3.09375 0.88125,-11.234837 6.377493,-23.397667 13.0625,-38.843747 3.448896,-7.96887 -2.618736,-20.15693 -8.4375,-9.71875 -9.108456,16.3395 -8.899549,21.98988 -32.46875,45.749997 -1.154616,1.16397 -4.858386,2.24135 -4.375,-2.28125 1.702366,-15.927497 4.900943,-31.460057 2.0625,-46.812497 -0.950486,-5.14095 -3.356683,-7.16787 -5.65625,-7.03125 z m 214.71875,6.625 c 1.92208,-0.0148 2.46022,3.46792 -0.46875,9.3125 -3.52211,7.02814 -10.48246,6.75139 -4.75,-4.03125 1.93,-3.6303 3.90364,-5.27112 5.21875,-5.28125 z M 551,62.812503 c -1.68824,0.14246 -3.1037,1.82922 -3.09375,5.25 0.0145,4.99723 0.0604,10.00285 0.0937,15 0.075,11.24552 8.4798,-1.63831 8.5,-11.375 0.0124,-5.97678 -3.03257,-9.08322 -5.5,-8.875 z m -148.8125,6.40625 c 1.68319,-0.0225 0.48182,4.04896 -3.59375,9.40625 -9.06652,11.91784 -11.852,7.12215 -3.90625,-2.6875 3.85502,-4.75933 6.34834,-6.70335 7.5,-6.71875 z m -240.59375,0.1875 c 0.46395,0.004 1.05856,0.23731 1.8125,0.8125 3.04413,2.3224 0.0367,9.20205 -3.34375,11 -5.91207,3.14439 -2.52367,-2.96379 -1.78125,-4.34375 1.54675,-2.87499 1.30204,-7.48383 3.3125,-7.46875 z m 251.1875,19.5 c 8.74071,-0.1815 -10.7272,20.543757 -24.09375,20.999997 -7.93417,0.27082 -3.70398,-6.06936 1.21875,-12.124997 3.32985,-4.09617 6.69454,-8.66127 7.875,-8.65625 4.05085,0.0172 9.99973,-0.11492 15,-0.21875 z m -76.9375,14.499997 c 5.55668,0.0434 5.78866,7.33527 -2.5625,11.78125 -11.27945,6.00494 -17.36204,0.7645 -6.21875,-7.90625 3.61284,-2.8112 6.6069,-3.89199 8.78125,-3.875 z"
     id="path2835"
     style="fill:#000000;stroke:none" />
</svg>
