<?xml version="1.0" encoding="UTF-8" standalone="no"?>
<!-- Created with Inkscape (http://www.inkscape.org/) -->
<svg
   xmlns:svg="http://www.w3.org/2000/svg"
   xmlns="http://www.w3.org/2000/svg"
   version="1.0"
   width="600"
   height="180"
   id="svg2691">
  <defs
     id="defs2693" />
  <g
     id="layer1">
    <path
       d="M 493.2009,163.39936 C 493.69429,162.32253 494.37257,161.46744 494.70815,161.49917 C 495.04373,161.53089 495.37518,160.95519 495.44469,160.21984 C 495.5142,159.4845 496.34829,158.47251 497.29816,157.97096 C 498.24803,157.46942 499.28258,156.33193 499.59715,155.44322 C 499.91165,154.55447 500.48549,153.85726 500.87233,153.89382 C 501.25911,153.93039 501.39848,153.60218 501.18201,153.16448 C 500.96552,152.72676 501.08181,152.20041 501.44051,151.99482 C 503.02303,151.08767 506.74833,146.52273 506.55222,145.73095 C 506.43318,145.25059 506.82752,144.90405 507.42847,144.96086 C 508.4987,145.06203 510.18582,142.61609 509.726,141.63002 C 509.5979,141.35527 510.14146,140.85851 510.93396,140.5261 C 511.72646,140.1937 512.41702,139.47595 512.46852,138.9311 C 512.52002,138.38624 512.87298,137.96983 513.25293,138.00574 C 513.63288,138.04166 514.39301,137.26912 514.94215,136.28901 C 515.49129,135.30888 516.33436,134.23713 516.81568,133.90735 C 517.29699,133.57756 518.71948,131.6948 519.97682,129.72345 C 521.24073,127.74186 522.61698,126.29559 523.05477,126.489 C 523.72783,126.78634 524.07277,126.0189 524.04184,124.29324 C 524.03788,124.07105 524.62707,123.52241 525.35118,123.07404 C 526.07529,122.62568 526.40892,122.22461 526.09252,122.18276 C 525.77612,122.1409 526.56347,121.1202 527.8422,119.91453 C 529.12092,118.70885 530.19482,117.42934 530.22867,117.07119 C 530.26253,116.71303 531.49555,115.03805 532.96871,113.34901 C 536.0547,109.81082 536.11602,109.64932 534.55881,109.15976 C 533.6488,108.87368 533.85825,108.60399 535.5318,107.90689 C 538.49733,106.67163 540.51594,104.67804 540.14545,103.35052 C 539.97353,102.73448 540.10343,102.4402 540.43614,102.69199 C 540.76701,102.94236 541.65634,102.35151 542.41253,101.379 C 543.16865,100.40649 544.19807,99.404065 544.70007,99.151415 C 545.20206,98.898755 545.65099,98.287925 545.69768,97.794005 C 545.74436,97.300095 546.27131,96.562745 546.86857,96.155445 C 547.46584,95.748145 547.82665,95.156345 547.67038,94.840345 C 547.51404,94.524335 548.41347,93.415945 549.66903,92.377245 C 550.9246,91.338545 551.62415,90.457725 551.22358,90.419855 C 550.82301,90.381995 551.16149,89.799885 551.97573,89.126285 C 552.78998,88.452685 553.49693,87.470427 553.54674,86.943471 C 553.59656,86.41653 553.88773,85.906718 554.19384,85.810552 C 557.42044,84.343607 557.90759,80.472421 560.1801,78.289336 C 561.4664,76.934862 560.91565,76.865719 562.20376,74.416949 C 564.07923,73.236226 564.31264,72.212699 562.66976,72.671212 C 560.15901,72.987905 552.98676,72.076739 553.64319,71.001072 C 554.37786,70.039667 553.16862,70.014999 552.54946,69.106997 C 551.68964,67.846074 547.90997,67.172712 547.80699,68.262114 C 547.77183,68.634073 547.33539,68.899876 546.83716,68.852771 C 546.33894,68.805673 545.51268,69.495205 545.00115,70.385065 C 544.48954,71.274909 543.69541,71.967473 543.23647,71.92409 C 542.77754,71.880699 541.70929,72.554775 540.86268,73.422033 C 539.71456,74.598099 538.27583,75.072578 535.20186,75.288903 L 531.08042,75.57895 L 529.2049,72.99967 C 527.03791,70.019546 526.51311,69.858768 524.19221,71.464116 C 519.56339,74.66589 517.91237,75.541096 515.46375,76.091047 C 514.00059,76.41967 512.22944,76.479003 511.52785,76.222884 C 510.82632,75.966773 510.22623,76.033064 510.19435,76.370201 C 510.16249,76.707345 509.54891,76.927644 508.83083,76.859766 C 507.99919,76.781152 507.39548,77.272414 507.16762,78.213236 C 506.71074,80.10003 500.29585,84.097838 497.27357,84.37934 C 496.01409,84.496648 494.28889,84.193243 493.43987,83.705107 C 492.11965,82.946079 491.59212,83.05668 489.79619,84.469028 C 481.64435,90.879755 477.03521,92.617455 467.85335,92.741775 C 464.38711,92.788715 461.57194,92.404455 458.57964,91.475955 C 454.23977,90.129305 449.41856,87.503553 449.10113,86.31372 C 449.00629,85.958245 448.05563,84.401676 446.98854,82.85468 C 443.8671,78.329429 442.01036,74.537501 441.06083,70.74895 C 440.10485,66.934601 440.07712,61.572344 441.00702,60.343573 C 441.32265,59.926496 441.42036,59.260666 441.22415,58.86396 C 441.02794,58.467247 440.97826,55.622329 441.11378,52.541916 C 441.24929,49.461494 441.23188,46.007873 441.07509,44.867195 C 440.91828,43.726517 440.78197,42.485432 440.77216,42.109216 C 440.72949,40.47236 439.43606,37.481987 438.5889,37.061564 C 438.08084,36.809427 436.22088,37.103023 434.45565,37.714012 C 432.69042,38.324985 430.27925,38.839171 429.09747,38.856653 C 427.91571,38.874135 426.72401,39.144336 426.44927,39.457079 C 425.88972,40.09404 421.94996,41.2912 419.3164,41.624512 C 418.36683,41.744695 417.25082,42.182026 416.83636,42.596363 C 414.76217,44.66997 402.58089,44.626178 397.92303,42.528359 C 396.80327,42.024045 395.96608,41.951062 395.67733,42.332602 C 394.41232,44.004187 394.28086,48.9784 395.33944,55.118203 C 396.91336,64.247099 396.16017,73.54915 393.36573,79.494099 C 392.292,81.778338 390.92575,84.050756 390.3296,84.543942 C 389.73345,85.037121 389.211,85.807568 389.1686,86.256043 C 389.12621,86.704527 388.08403,87.984755 386.85266,89.101005 C 385.62129,90.217265 384.5875,91.339405 384.55535,91.594675 C 384.46725,92.294315 379.58168,94.866685 375.59473,96.312665 C 373.65169,97.017355 370.94239,98.068415 369.57407,98.648365 C 362.67626,101.57187 352.00631,103.24799 348.6525,101.93488 C 344.81491,100.43234 343.13393,98.597665 342.34854,95.054545 C 341.92715,93.153565 341.62224,91.176685 341.67093,90.661445 C 341.88167,88.432165 337.35228,89.925715 336.62147,92.326495 C 336.40009,93.053725 335.76766,93.516605 335.19978,93.367045 C 334.63716,93.218865 333.38918,93.791765 332.42646,94.640145 C 331.46376,95.488525 330.34845,96.154465 329.94803,96.120025 C 329.5476,96.085585 328.41776,96.896715 327.43728,97.922545 C 326.35153,99.058535 324.53081,99.977135 322.77998,100.27228 C 321.19893,100.53881 318.22366,101.3636 316.16826,102.10511 C 313.8064,102.95721 312.02358,103.22327 311.32356,102.82812 C 310.71437,102.48426 309.31899,102.01521 308.2227,101.78577 C 306.05236,101.33158 301.41028,96.102945 300.84085,93.471185 C 300.66184,92.643825 300.25515,91.942285 299.9371,91.912235 C 299.61905,91.882165 299.11071,90.771095 298.80745,89.443195 C 298.30098,87.225491 298.07778,87.042158 296.06736,87.192459 C 294.86358,87.28246 293.2458,87.554554 292.47229,87.797115 C 291.19048,88.199065 287.9304,88.808245 286.22084,88.965255 C 285.84226,89.000025 285.29736,89.080045 285.00994,89.143075 C 284.72252,89.206105 283.64351,89.251925 282.61214,89.244885 C 281.58077,89.237855 277.55636,89.486185 273.669,89.796725 C 266.69726,90.353665 266.57834,90.340775 264.93034,88.849315 C 261.44975,85.699338 261.07906,84.328025 261.73889,77.042801 C 262.07591,73.321806 262.75907,68.75669 263.25703,66.898098 C 264.37197,62.736669 263.91373,59.538461 262.71966,63.147613 C 262.29827,64.421275 261.85007,65.914168 261.72366,66.465148 C 261.59724,67.01612 261.05198,68.346304 260.51195,69.421115 C 259.97194,70.495925 259.09749,72.255571 258.56875,73.331442 C 258.04,74.407321 257.1333,75.750031 256.55386,76.315234 C 255.97441,76.880444 255.54628,77.761124 255.60244,78.272302 C 255.74876,79.604159 252.65814,85.634703 251.55077,86.178089 C 251.03796,86.429724 250.57887,87.053632 250.53057,87.564551 C 250.48228,88.075475 249.57884,89.343105 248.52294,90.381495 C 247.46703,91.419905 246.6033,92.436495 246.60354,92.640595 C 246.60504,93.925285 246.40789,94.532995 246.10744,94.169825 C 245.9164,93.938885 244.80116,94.525055 243.62913,95.472415 C 241.12937,97.492985 239.38265,97.172365 236.69963,94.200465 C 233.95383,91.159015 233.29885,88.492765 233.67697,81.895811 C 233.80533,79.656243 233.89049,77.514923 233.86621,77.137341 C 233.84194,76.759767 232.84694,77.971528 231.65513,79.830152 C 230.46331,81.688768 228.93055,83.330117 228.24899,83.477582 C 227.56743,83.625048 226.95358,84.340387 226.88486,85.067223 C 226.81365,85.820542 226.0017,86.651225 224.99638,86.999246 C 224.02643,87.335048 223.18303,88.136595 223.12217,88.780495 C 223.05469,89.494255 222.26845,90.063755 221.10782,90.239555 C 220.06079,90.398155 218.63959,90.947505 217.94958,91.460345 C 215.87849,92.999705 211.07837,92.750545 209.43447,91.018355 C 208.66657,90.209205 208.06848,89.227815 208.10537,88.837495 C 208.14227,88.447165 207.8848,87.998275 207.53322,87.839925 C 207.01065,87.604605 206.75957,83.524821 207.00171,79.203621 C 207.06987,77.987321 205.71587,78.024193 205.60077,79.241773 C 205.54803,79.799719 205.20816,80.228161 204.84549,80.19388 C 204.47221,80.158594 204.27979,81.03665 204.40202,82.217491 C 204.55017,83.648671 204.23518,84.653625 203.3985,85.419101 C 202.7278,86.03272 202.35475,86.747164 202.56951,87.006762 C 202.78427,87.266361 202.44477,88.130505 201.81507,88.927075 C 201.18538,89.723655 200.38785,91.184625 200.04281,92.173645 C 198.1657,97.554175 191.10357,97.626365 187.66208,92.300195 C 185.87055,89.527555 185.05773,87.231656 185.22842,85.426019 C 185.40581,83.549411 184.10319,83.120844 183.47256,84.848337 C 183.06729,85.958465 181.15288,86.844752 177.76098,87.492527 C 176.93637,87.650005 176.04891,88.207625 175.78884,88.731685 C 175.52877,89.255735 174.84993,89.640455 174.28031,89.586625 C 173.71069,89.532775 173.21588,89.793045 173.18072,90.165015 C 173.14555,90.536975 172.50812,90.783765 171.7642,90.713435 C 171.02027,90.643115 170.38213,90.897445 170.3461,91.278615 C 170.14831,93.370965 161.8596,93.741945 151.84473,92.106695 C 150.92078,91.955825 148.49999,92.499115 146.46518,93.313975 C 144.43038,94.128855 142.22267,94.746145 141.55916,94.685735 C 140.89564,94.625325 139.39289,94.985575 138.21969,95.486285 C 136.93411,96.034975 134.42725,96.253795 131.91004,96.037075 C 128.09091,95.708245 127.5266,95.457185 125.31638,93.103455 C 122.83539,90.461375 121.60386,88.349075 119.65875,83.399738 C 119.04602,81.840679 117.98101,80.069865 117.29202,79.464593 C 116.60305,78.859322 115.58831,77.842243 115.03705,77.204426 C 112.53768,74.312537 109.91932,72.585192 107.71993,72.377285 C 106.42495,72.254873 105.14857,72.441268 104.88353,72.791496 C 104.61848,73.141725 103.53915,73.346749 102.48501,73.247103 C 101.40524,73.145031 100.35657,73.492785 100.08323,74.043561 C 99.816386,74.581269 99.054516,74.96983 98.390176,74.907025 C 97.725846,74.844228 96.024236,75.988338 94.608816,77.449503 C 92.253806,79.880658 87.636626,82.802469 84.976806,83.544769 C 83.694286,83.902702 79.948866,80.320424 80.086236,78.86723 C 80.169496,77.986504 80.046016,77.976279 79.070676,78.783143 C 78.459996,79.288337 77.930996,80.012079 77.895146,80.391444 C 77.804236,81.353093 74.054516,84.584946 73.348496,84.310151 C 73.030136,84.186238 72.682436,85.007387 72.575856,86.134942 C 72.459386,87.367012 71.946516,88.306605 71.290546,88.489685 C 70.690216,88.657225 70.319686,89.226665 70.467176,89.755105 C 70.616286,90.289415 70.311406,90.675835 69.780326,90.625625 C 69.255096,90.575975 68.199736,91.397375 67.435076,92.450945 C 66.670426,93.504515 65.501746,94.315195 64.838016,94.252455 C 63.769726,94.151475 63.085436,95.597615 63.215536,97.681355 C 63.233206,97.964475 62.936816,98.166755 62.556876,98.130835 C 62.176936,98.094925 61.450726,98.787995 60.943056,99.671015 C 60.435406,100.55403 59.440686,101.40184 58.732586,101.55504 C 58.024486,101.70825 57.401426,102.19259 57.348016,102.63137 C 57.294606,103.07013 56.771226,103.95171 56.184966,104.59043 C 55.256876,105.60157 54.824306,105.62258 52.839956,104.75297 C 50.202986,103.59739 49.643426,102.36781 50.994776,100.69847 C 51.521046,100.04838 52.057466,98.815315 52.186836,97.958325 C 52.316206,97.101315 53.209286,95.101845 54.171476,93.515055 C 55.133666,91.928265 55.821136,90.017745 55.699196,89.269455 C 55.554146,88.379305 55.816596,87.940975 56.458276,88.001625 C 56.997696,88.052615 57.421056,87.708825 57.399066,87.23764 C 57.336096,85.888215 58.743476,82.086699 59.432136,81.746075 C 59.774976,81.57651 60.122176,80.732153 60.203706,79.869757 C 60.285226,79.007345 60.867056,77.950472 61.496656,77.521143 C 62.126266,77.091822 62.546206,76.15642 62.429876,75.442487 C 62.313546,74.728538 63.066646,72.62892 64.103436,70.776658 C 66.890776,65.797017 67.307556,64.890885 67.245426,63.945461 C 67.214416,63.473425 67.497146,63.11634 67.873736,63.15194 C 68.250336,63.18754 68.434376,62.772073 68.282726,62.228679 C 68.131076,61.685286 68.526546,60.41771 69.161566,59.41183 C 69.796576,58.40595 70.630946,56.384507 71.015706,54.919737 L 71.715296,52.256526 L 70.086856,54.013722 C 69.191206,54.98017 66.826356,57.21303 64.831606,58.97563 C 62.836856,60.738229 61.181436,62.400546 61.152896,62.669679 C 61.124366,62.938811 60.166036,63.535711 59.023246,63.996132 C 57.880466,64.456553 56.705826,65.397563 56.412946,66.087252 C 56.120066,66.776941 55.112716,67.458557 54.174386,67.60197 C 53.124426,67.762426 52.422526,68.347561 52.349176,69.123521 C 52.283616,69.816972 51.606276,70.485983 50.843956,70.610194 C 50.040756,70.741073 49.404166,71.404806 49.330076,72.188628 C 49.231816,73.228066 48.882776,73.424609 47.822446,73.037524 C 46.435096,72.53105 42.932686,74.900601 42.786756,76.444432 C 42.750056,76.832624 42.103826,77.091987 41.350706,77.020795 C 40.545666,76.944694 39.678256,77.506921 39.245806,78.385126 C 38.841246,79.206691 37.983736,80.237907 37.340236,80.676707 C 35.196426,82.138579 35.929476,83.126922 40.151896,84.467567 C 44.401136,85.816733 46.053406,85.951319 46.771716,85.006767 C 46.997306,84.710123 47.603536,84.793418 48.118896,85.191859 C 48.905946,85.800366 48.866346,85.900066 47.871416,85.814785 C 47.128636,85.751124 46.637636,86.234658 46.554756,87.111434 C 46.453376,88.183865 46.128276,88.384605 45.159266,87.973115 C 44.327466,87.619875 43.626136,87.827275 43.106036,88.580275 C 42.671586,89.209275 42.121446,89.488585 41.883506,89.200955 C 41.645556,88.913345 40.804976,88.948915 40.015556,89.280035 C 38.815416,89.783405 38.665886,89.709425 39.103016,88.828585 C 39.542956,87.942105 39.066556,87.720605 36.097476,87.431143 C 31.721826,87.004563 30.871206,86.364846 30.215596,83.007674 C 29.764816,80.699349 29.878866,80.187228 31.076216,79.143196 C 31.835356,78.481269 32.697216,77.259472 32.991436,76.428089 C 33.285666,75.596714 34.026436,74.959063 34.637596,75.011092 C 36.414666,75.162367 38.052956,74.083842 37.141676,73.362589 C 36.640506,72.965931 37.438656,72.319994 39.474086,71.474986 C 41.175946,70.768458 42.778506,69.614822 43.035306,68.911342 C 43.292116,68.207862 43.763006,67.742525 44.081716,67.877244 C 44.802786,68.182048 51.522776,63.539905 51.226786,62.941466 C 51.108216,62.70176 52.111046,62.040972 53.455276,61.473036 C 54.799506,60.9051 55.928666,60.130098 55.964516,59.750812 C 56.000376,59.371518 57.098276,58.313773 58.404306,57.400259 C 60.671136,55.814717 60.700766,55.746996 59.057126,55.908017 C 57.941716,56.017299 58.396146,55.658778 60.347446,54.890043 C 62.004096,54.237375 63.392586,53.353853 63.432966,52.926676 C 63.473356,52.499483 64.177956,51.813901 64.998756,51.40313 C 65.837736,50.983281 66.368906,50.218347 66.211976,49.656034 C 66.058446,49.105879 66.247676,48.758604 66.632496,48.884299 C 67.017316,49.010003 67.740226,48.554074 68.238966,47.871131 C 68.737716,47.188196 69.773876,46.057932 70.541556,45.359447 C 71.309246,44.660962 73.439226,42.190924 75.274886,39.870458 C 77.110526,37.550014 78.958206,35.480429 79.380836,35.271391 C 79.803466,35.062354 80.191676,34.442538 80.243526,33.894008 C 80.399746,32.241476 84.727566,29.153201 86.081446,29.72815 C 88.483686,30.748276 88.046596,33.577173 84.632096,39.108704 C 82.868256,41.966125 80.529926,46.368759 79.435796,48.892326 C 78.341676,51.415892 77.173516,53.74653 76.839886,54.071509 C 76.506256,54.396488 76.181506,55.210184 76.118206,55.879713 C 76.054916,56.549242 75.720716,57.07034 75.375506,57.037716 C 75.030316,57.005077 74.382516,58.623446 73.935976,60.634067 C 73.489426,62.644689 72.668346,64.600508 72.111346,64.980321 C 71.554356,65.360133 71.023456,66.466169 70.931576,67.438185 C 70.766126,69.188446 66.829266,76.148142 65.811296,76.489983 C 65.520606,76.587602 65.229326,77.232809 65.164016,77.923786 C 65.098706,78.614755 64.765606,79.318424 64.423806,79.487479 C 64.081996,79.656534 63.457936,81.291827 63.036996,83.121456 C 62.616056,84.951093 61.958866,86.602761 61.576586,86.791843 C 61.194306,86.980924 60.800446,87.993395 60.701346,89.041775 C 60.602246,90.090165 60.028846,91.283645 59.427136,91.693955 C 58.825416,92.104265 58.280516,92.996245 58.216256,93.676135 C 58.151976,94.356035 57.541316,95.158845 56.859206,95.460155 C 56.177096,95.761455 55.816736,96.246985 56.058386,96.539085 C 56.574906,97.163455 58.691616,95.865565 58.786056,94.866575 C 58.821796,94.488415 60.648956,92.472615 62.846386,90.387005 C 65.043816,88.301405 67.493066,85.941109 68.289146,85.14191 C 69.085226,84.342719 70.452396,83.037172 71.327316,82.240698 C 73.248856,80.491419 78.550586,73.457829 78.637046,72.54316 C 78.671016,72.183782 79.338566,71.279126 80.120476,70.532821 C 80.902406,69.786524 82.192276,67.635348 82.986886,65.75244 C 84.543896,62.062923 85.533166,60.11886 87.309636,57.257623 C 87.932716,56.254075 88.479796,55.038419 88.525386,54.556173 C 88.699796,52.711183 90.620576,52.143797 92.715706,53.318394 C 94.687476,54.423834 95.244226,56.972422 93.682656,57.744777 C 93.288966,57.939506 92.914536,58.652268 92.850606,59.328685 C 92.786656,60.005117 92.244386,60.892653 91.645546,61.300997 C 91.046706,61.709341 90.113016,63.232117 89.570676,64.684942 C 89.028326,66.137758 88.184066,68.094779 87.694526,69.033873 C 87.204986,69.972974 86.569366,71.947297 86.282046,73.421279 C 85.994726,74.895261 85.591486,76.469163 85.385976,76.918848 C 84.717266,78.382016 85.938386,77.880356 89.774196,75.116063 C 91.845856,73.623114 93.752276,72.421603 94.010686,72.446027 C 94.269096,72.47046 95.150916,71.786182 95.970286,70.925427 C 96.789646,70.064664 97.722466,69.385216 98.043226,69.415539 C 98.363976,69.445853 99.516436,69.199308 100.60426,68.867653 C 103.07978,68.112897 108.05968,68.12979 110.8078,68.902263 C 111.95697,69.225287 113.83357,70.486572 114.97803,71.70511 C 116.12248,72.92364 117.33291,73.951447 117.66789,73.989105 C 118.74481,74.110175 122.97154,80.208912 124.12807,83.310475 C 124.74453,84.963706 125.51974,86.341961 125.85074,86.373249 C 126.18173,86.404538 126.40122,86.973188 126.33847,87.636905 C 126.27573,88.300635 127.10136,89.480165 128.17319,90.258065 C 129.89568,91.508205 130.5393,91.615115 133.71544,91.178695 C 135.69185,90.907135 138.18584,90.340585 139.25766,89.919695 C 140.32947,89.498815 141.19064,89.321445 141.17134,89.525545 C 141.15205,89.729655 141.86162,89.531785 142.74817,89.085845 C 143.63471,88.639895 145.56411,88.014525 147.03571,87.696135 C 149.63789,87.133149 149.70507,87.048457 149.48224,84.611828 C 149.35623,83.233848 148.95863,81.883536 148.59869,81.611144 C 148.23875,81.338752 148.08722,79.797858 148.26197,78.186942 C 148.4367,76.576018 148.36463,74.921217 148.1018,74.509613 C 147.56436,73.667974 147.54695,72.394736 148.01274,67.998118 C 148.67514,61.745546 149.65066,58.1427 151.71945,54.308261 C 153.44698,51.106314 154.27548,50.25269 156.11729,49.777049 C 158.89336,49.060132 163.15544,49.39602 163.63701,50.369661 C 163.83173,50.763351 164.50551,51.135733 165.1343,51.197187 C 166.4865,51.329331 171.07278,58.886366 170.75314,60.455627 C 170.63155,61.052558 170.74709,62.053601 171.0099,62.680179 C 171.27271,63.306741 171.51117,65.337884 171.5398,67.193814 C 171.59829,70.98392 168.55799,78.489169 165.8331,81.281288 C 164.99426,82.140817 163.97168,83.4552 163.56069,84.202133 C 163.14969,84.949067 161.86819,85.850982 160.71289,86.206385 C 159.55762,86.561805 158.41651,87.389119 158.17712,88.044865 C 157.81738,89.030315 158.11165,89.241685 159.8734,89.263325 C 163.15796,89.303665 165.92558,88.715915 168.66612,87.396007 C 170.04227,86.733224 172.07277,85.83361 173.17833,85.396851 C 179.68879,80.716823 181.29345,80.60912 183.46703,78.599127 L 185.42399,76.480912 L 186.13124,64.966428 C 186.71061,55.533961 187.02482,53.324897 187.86898,52.749273 C 188.6957,52.185523 189.272,52.561542 190.78359,54.651013 C 191.81988,56.083442 192.61289,57.835548 192.54587,58.544573 C 192.47884,59.253605 192.73552,60.069469 193.11627,60.357599 C 193.49701,60.645738 193.58259,61.500367 193.30646,62.256764 C 193.03033,63.013176 193.06248,64.01052 193.37791,64.4731 C 194.54588,66.185916 193.23544,75.204399 191.55014,77.051816 C 190.24633,78.481049 189.70661,82.473155 190.14228,87.465322 C 190.38385,90.233365 192.39246,91.255565 194.50022,89.683075 C 198.42697,86.753533 203.6857,73.607816 202.27567,70.246065 C 201.93997,69.445696 201.98272,69.005875 202.39246,69.044609 C 202.74796,69.078214 203.32644,68.209197 203.67799,67.113441 C 204.42433,64.787179 206.70824,63.511852 207.93107,64.73855 C 208.36918,65.178041 208.9468,65.356293 209.21469,65.13469 C 209.48257,64.913071 209.6538,65.238977 209.59519,65.858911 C 209.53659,66.478853 209.77247,67.012893 210.11936,67.045689 C 210.71859,67.102329 211.65186,69.805003 211.36053,70.639998 C 211.28503,70.856418 211.47904,72.410019 211.7917,74.092441 C 212.10435,75.774872 212.17242,78.459852 211.94295,80.05909 C 211.4309,83.627797 212.08373,87.703795 213.18258,87.798725 C 214.52965,87.915115 224.54938,80.900588 224.65664,79.76609 C 224.6751,79.570663 225.57246,78.633957 226.65073,77.684512 C 230.25197,74.513595 238.2187,59.088359 237.25818,57.146362 C 236.7993,56.218609 238.75793,35.95157 239.38677,35.120627 C 240.18608,34.064414 242.5874,34.446669 242.47719,35.612564 C 242.4262,36.152023 242.77454,36.87582 243.25128,37.220991 C 245.62621,38.940529 244.615,55.163715 241.69918,62.121919 C 240.95659,63.893965 240.2721,66.15773 240.17807,67.152505 C 240.08403,68.147288 239.79396,69.137508 239.53347,69.353001 C 239.13728,69.68076 238.30002,74.244179 237.54079,80.214048 C 237.17454,83.093906 238.00386,89.720995 238.86001,90.755905 C 239.65251,91.713865 239.98542,91.712745 241.63449,90.746515 C 242.66514,90.142625 243.75869,88.981335 244.0646,88.165865 C 244.37051,87.350393 244.86985,86.706726 245.17425,86.735501 C 245.47864,86.764277 246.2296,85.990869 246.84306,85.016827 C 247.96343,83.237893 248.48332,82.429175 250.96797,78.600281 C 251.70801,77.459854 252.28902,76.440089 252.25907,76.334153 C 252.16744,76.009928 253.27961,73.582991 254.06063,72.402794 C 254.4665,71.789512 254.8548,70.6929 254.92352,69.965883 C 254.99225,69.238858 255.32898,68.505283 255.67183,68.33571 C 256.01467,68.166136 256.57981,67.079263 256.9277,65.920427 C 257.27559,64.7616 257.96219,63.412756 258.45347,62.923026 C 258.94476,62.43328 259.44412,61.530069 259.56317,60.915875 C 259.68221,60.301698 260.38946,58.321564 261.13484,56.515606 C 261.88022,54.709639 263.22144,51.458851 264.11533,49.291646 C 265.00921,47.124433 265.80462,45.050261 265.88287,44.68237 C 266.31054,42.672 267.69317,38.575787 268.2264,37.739371 C 268.56489,37.208441 269.12018,35.690817 269.46039,34.366869 C 270.36522,30.845605 271.65105,28.510397 272.63395,28.60332 C 273.1081,28.648156 274.17749,29.747163 275.01035,31.045556 C 276.31421,33.07823 276.41567,33.775262 275.74047,36.061496 C 275.30917,37.521867 274.67275,39.876356 274.32619,41.29369 C 273.97965,42.711024 273.26481,45.253377 272.73766,46.943386 C 270.81948,53.09299 267.417,66.746619 266.98377,70.032897 C 266.73944,71.886228 266.25737,73.759727 265.9125,74.196234 C 265.56762,74.632733 265.45174,75.326097 265.655,75.737033 C 265.85826,76.147977 265.63992,76.867635 265.1698,77.336263 C 264.58221,77.922003 264.52374,78.346274 264.98274,78.693644 C 265.34998,78.971549 265.56819,80.06908 265.46766,81.132597 C 265.039,85.667178 265.54084,85.865731 275.49787,85.100883 C 278.99481,84.832269 282.6216,84.633433 283.55739,84.659036 C 285.9162,84.723576 294.89042,82.704206 296.49718,81.747332 C 297.69937,81.031404 297.76337,80.68405 297.20251,77.919074 C 296.43761,74.148194 297.57128,62.966809 298.77909,62.369423 C 300.79267,61.373485 306.63009,64.345229 306.44781,66.273451 C 306.39589,66.822822 306.62796,67.298259 306.96352,67.329979 C 307.66573,67.396365 308.93588,71.535473 308.6323,72.768124 C 308.52041,73.222404 308.69495,74.228488 309.02017,75.003851 C 309.69636,76.616016 308.22214,79.330926 304.67882,82.998823 L 302.57961,85.171832 L 303.40774,89.226865 C 304.55044,94.822135 307.26596,98.065185 311.10778,98.422685 C 312.67644,98.568655 314.87456,98.315865 315.9925,97.860925 C 317.11043,97.405995 318.44682,97.073635 318.96224,97.122355 C 319.47767,97.171075 319.92815,96.906615 319.96331,96.534645 C 319.99847,96.162695 320.60175,95.912665 321.30394,95.979045 C 322.66491,96.107695 328.42042,93.124375 331.79926,90.538885 C 332.92248,89.679385 334.10137,89.000745 334.41902,89.030765 C 334.73666,89.060795 335.03731,88.654225 335.08712,88.127285 C 335.13694,87.600335 335.43325,87.091007 335.74559,86.995437 C 336.05794,86.899868 337.39565,85.517662 338.71828,83.923867 C 340.7911,81.426107 341.32143,80.066574 342.55981,74.075855 C 343.35002,70.253251 344.16678,66.900713 344.37485,66.625769 C 345.07677,65.698259 346.45847,66.277567 347.86386,68.088622 C 349.21643,69.831611 349.22111,70.122223 348.00971,77.143365 C 346.85052,83.861903 346.59048,86.048176 346.23607,92.055275 C 346.0642,94.968615 348.40619,97.858675 351.14902,98.117955 C 353.8207,98.370515 362.44028,96.409185 367.95303,94.294345 C 370.36118,93.370505 372.75677,92.654835 373.27653,92.703965 C 373.7963,92.753095 374.24581,92.536815 374.27545,92.223335 C 374.30508,91.909855 375.75873,91.081145 377.50579,90.381745 C 379.25284,89.682355 380.91474,88.562645 381.19889,87.893515 C 381.48305,87.224368 382.33335,86.417763 383.08843,86.101046 C 383.84353,85.784345 384.50347,85.07942 384.55498,84.534573 C 384.60649,83.989711 384.93245,83.570757 385.27935,83.603545 C 385.98123,83.669892 387.27044,81.153228 387.15844,79.935373 C 387.11889,79.505228 387.5279,79.030113 388.06737,78.87956 C 388.94425,78.634829 389.58513,77.147889 391.79471,70.231536 C 393.05755,66.278595 392.68362,55.820183 391.10928,51.061321 C 389.48281,46.144894 389.36594,38.214203 390.902,36.996498 C 391.65198,36.401962 395.95864,36.53892 397.2178,37.197344 C 400.08002,38.694014 404.56223,39.577254 408.6054,39.441333 C 415.21508,39.219141 416.53428,38.937898 424.4951,36.053815 C 428.50456,34.60125 432.17411,33.449569 432.64965,33.494522 C 433.1252,33.539476 434.47219,33.206376 435.64297,32.754311 C 439.81388,31.143811 443.42449,34.489517 445.07273,41.492243 C 445.87563,44.903455 446.01581,53.864419 445.3667,60.284295 C 444.66664,67.208202 444.94034,70.542112 446.54388,74.623081 C 448.23764,78.933679 451.36688,83.709764 452.57201,83.823679 C 453.09869,83.873471 453.50463,84.178431 453.47411,84.501376 C 453.44358,84.824329 455.20235,85.775894 457.38246,86.615971 C 462.01045,88.399295 471.51225,88.919045 474.14539,87.532909 C 475.0201,87.072433 476.18601,86.738242 476.7363,86.790264 C 477.28659,86.842286 478.61924,86.260033 479.69776,85.496387 C 481.57213,84.169219 481.62217,84.015808 480.83143,82.021287 C 478.95019,77.276129 478.54432,62.91068 480.14633,57.772139 C 481.24015,54.263614 482.56432,51.870628 483.42551,51.846125 C 486.68518,51.753351 489.73772,52.297349 489.43176,52.916498 C 489.23734,53.30996 490.07563,55.077993 491.29463,56.845446 C 495.06875,62.317542 496.52622,68.878954 495.4209,75.421541 C 494.75158,79.383702 494.79471,79.62695 496.18957,79.75881 C 497.86704,79.917381 504.66761,74.475654 505.88731,71.998863 C 506.80075,70.143781 507.26252,66.224689 506.6542,65.489371 C 506.41991,65.206141 506.32166,62.714389 506.43586,59.952153 C 506.62712,55.326008 506.76747,54.877885 508.21534,54.270603 C 511.6966,52.810436 514.01227,59.658855 513.04647,68.558475 C 512.82271,70.620899 513.01361,71.114132 514.07451,71.214413 C 515.38625,71.338413 522.03267,66.628015 522.13942,65.498732 C 522.21235,64.72728 526.00749,61.425051 526.74141,61.494429 C 527.5299,61.568975 531.84509,67.489728 531.7608,68.381464 C 531.72204,68.791387 532.60534,69.304568 533.72368,69.52186 C 537.70882,70.296163 544.03817,64.917218 548.38903,57.058583 C 549.4346,55.170037 550.09583,52.209413 550.82129,46.167779 C 551.60963,39.603092 552.06915,37.6625 553.02225,36.874069 C 554.13482,35.953635 554.35291,36.030011 555.87886,37.874577 C 557.43855,39.759919 557.50156,40.259058 557.00507,46.800459 C 556.71586,50.611338 556.21995,54.165398 555.90305,54.698369 C 555.58608,55.231334 554.99736,57.241602 554.59475,59.16563 C 554.05497,61.74524 554.09589,62.945769 554.75082,63.737421 C 555.23931,64.327873 555.61163,65.099781 555.57826,65.452765 C 555.46385,66.66312 557.34732,67.96218 558.61284,67.545763 C 559.2956,67.321097 560.11477,67.223469 560.43328,67.328809 C 560.75174,67.434148 561.63169,67.057909 562.38874,66.49273 C 563.14573,65.927535 563.74297,65.699445 563.71591,65.985855 C 563.68883,66.272266 564.39342,66.127101 565.28166,65.663271 C 567.00071,64.765589 568.57803,65.078513 568.46309,66.294428 C 568.42484,66.699097 568.8456,67.635693 569.39814,68.375739 C 570.22261,69.48011 570.23306,70.016271 569.45654,71.367039 C 568.93612,72.272182 568.43978,73.759263 568.35353,74.671671 C 568.26728,75.58407 567.95094,76.307349 567.6506,76.278966 C 567.35019,76.25056 566.4676,77.366437 565.68927,78.758671 C 564.91094,80.150898 563.41801,82.326294 562.37166,83.59288 C 561.32526,84.859458 560.45413,86.05471 560.43576,86.248991 C 560.4174,86.443271 559.51244,87.56547 558.42479,88.742765 C 555.90092,91.474575 551.14649,97.898615 551.07297,98.676335 C 551.04207,99.003225 550.71244,99.241915 550.34049,99.206755 C 549.96853,99.171585 549.63502,99.451455 549.59936,99.828675 C 549.5637,100.20589 547.98662,102.08621 546.09469,104.00716 C 544.20283,105.92812 542.77849,107.64915 542.92943,107.83166 C 543.08045,108.01418 542.23311,109.04364 541.04651,110.11933 C 539.85985,111.19501 538.86358,112.34391 538.83253,112.67245 C 538.80148,113.00097 537.83421,114.30081 536.68306,115.56097 C 533.88747,118.62131 532.70715,120.15815 532.09553,121.53443 C 531.81549,122.1647 531.30194,122.6535 530.95433,122.62064 C 530.60678,122.58779 529.76543,123.60515 529.08459,124.88146 C 528.40381,126.15775 526.73495,128.54839 525.37609,130.19401 C 522.0464,134.22637 521.05146,135.50419 520.43834,136.53552 C 520.15322,137.01515 519.214,138.0392 518.35116,138.81118 C 517.48831,139.58318 515.78176,141.5497 514.55878,143.18123 C 509.81784,149.14311 510.88254,147.11498 506.22435,153.35783 C 504.67006,156.03641 501.0849,160.48826 498.81179,162.56245 L 493.2009,163.39936 z M 157.51281,82.405442 C 159.1622,80.984621 160.5335,79.591412 160.56016,79.309431 C 160.58681,79.027458 161.40006,78.168274 162.36739,77.400136 C 164.24336,75.910439 166.43106,71.55916 165.87218,70.429194 C 165.6871,70.055012 165.85597,69.590437 166.24746,69.396808 C 166.67443,69.185627 166.97271,67.215577 166.99291,64.473187 C 167.03939,58.1667 165.31628,55.304748 161.24084,54.919501 C 158.61002,54.670811 158.13376,54.890003 156.00834,57.327802 C 153.88211,59.766519 153.57037,60.638167 152.57017,66.941206 C 151.18098,75.69548 151.84258,84.736236 153.88654,84.929449 C 154.23161,84.962072 155.86343,83.826263 157.51281,82.405442 z M 303.83897,75.866585 C 304.49956,74.392164 304.71577,72.816478 304.46395,71.311954 C 303.83579,67.558901 302.46943,68.897064 301.76406,73.956143 C 301.05868,79.015348 302.02825,79.908067 303.83897,75.866585 z M 485.89712,79.294525 C 487.27937,77.916631 487.78701,59.51252 486.48614,57.940047 C 486.25002,57.654611 485.86608,57.578871 485.63295,57.771731 C 484.99037,58.30332 482.95237,71.064819 483.44992,71.441357 C 483.68857,71.621964 483.92316,73.616305 483.97123,75.873237 C 484.05938,80.011812 484.46131,80.725831 485.89712,79.294525 z M 550.70395,66.48896 C 550.73912,66.116993 550.63371,65.799986 550.46964,65.784467 C 550.30563,65.768964 549.95454,66.042825 549.68951,66.393061 C 549.42448,66.743289 549.52988,67.060312 549.92382,67.097546 C 550.3177,67.134779 550.66879,66.860919 550.70395,66.48896 z M 354.43577,96.381645 C 354.70082,96.031415 355.05188,95.757545 355.21591,95.773055 C 355.37994,95.788565 355.48537,96.105575 355.45021,96.477545 C 355.41505,96.849505 355.06398,97.123365 354.67007,97.086135 C 354.27616,97.048895 354.17072,96.731875 354.43577,96.381645 z"
       id="path2751"
       style="fill:#000000" />
  </g>
</svg>
