<?xml version="1.0" encoding="UTF-8" standalone="no"?>
<!-- Created with Inkscape (http://www.inkscape.org/) -->
<svg
   xmlns:svg="http://www.w3.org/2000/svg"
   xmlns="http://www.w3.org/2000/svg"
   version="1.0"
   width="600"
   height="360"
   id="svg2">
  <defs
     id="defs4" />
  <g
     id="layer1">
    <path
       d="M 26.878523,307.32714 C 26.375334,305.80769 26.590329,300.80589 27.356286,296.21201 C 28.122233,291.61816 29.092384,283.62358 29.512168,278.44632 C 30.375242,267.80171 31.385942,261.55669 39.565129,216.32957 C 42.768591,198.61591 44.875538,183.2875 44.247211,182.26643 C 43.618913,181.24534 41.565913,181.72108 39.685022,183.32359 C 35.614353,186.79178 33.441245,186.63945 34.320399,182.94749 C 34.67073,181.47628 37.77313,178.65879 41.214613,176.68644 C 45.843269,174.03369 47.500578,171.69559 47.582236,167.70307 C 48.051323,144.76817 49.553452,128.49044 52.40392,115.45302 C 53.98804,108.2076 55.686728,97.098187 56.178786,90.765425 C 56.670844,84.432675 58.056235,72.768897 59.257424,64.845935 C 60.458623,56.922972 61.91006,46.541909 62.482854,41.776896 C 63.617712,32.335923 67.524752,29.02594 70.1607,35.272318 C 71.62266,38.736712 74.13327,38.983991 96.95176,37.911016 C 111.77953,37.21378 123.0603,37.661292 124.39342,38.999631 C 128.43979,43.061807 122.3526,44.38523 96.97267,44.961237 C 83.4446,45.268248 71.09449,46.608737 69.52796,47.940082 C 67.48126,49.679522 65.757453,59.02826 63.402375,81.160909 C 61.599818,98.101019 59.226243,115.58506 58.127748,120.01432 C 55.419992,130.93239 53.3251,166.84538 55.367614,167.33176 C 56.269945,167.54662 62.880096,166.35301 70.05684,164.67927 C 103.7339,156.82519 128.99129,165.30892 147.45024,190.67496 C 161.00784,209.30561 161.03649,232.97224 147.54406,268.17311 C 138.7158,291.20548 118.57476,310.31554 106.22701,307.37521 C 101.40406,306.22674 96.22006,299.07514 97.20679,294.93138 C 97.91801,291.94467 101.29509,292.65126 102.4108,296.02023 C 103.53383,299.41138 114.9453,299.73043 120.77221,296.53361 C 132.14491,290.29419 141.6355,272.46701 148.26526,244.89056 C 153.19754,224.37471 153.53058,220.63963 151.15084,212.52846 C 147.22877,199.16038 141.61667,190.30415 131.73368,181.88699 C 123.77388,175.1078 121.24393,174.10578 103.48119,170.69744 C 83.35279,166.8352 77.99648,167.31975 60.031026,174.62817 L 52.092433,177.85764 L 50.163234,192.53436 C 49.102165,200.60659 46.926135,212.17689 45.327586,218.24615 C 43.729045,224.31544 40.941709,241.88208 39.133507,257.28313 C 33.828852,302.4648 32.804746,308.43014 30.20506,309.29106 C 28.878653,309.73034 27.381712,308.84655 26.878523,307.32714 z M 210.62464,331.26106 C 207.27069,329.34037 204.68272,327.11307 204.87359,326.31152 C 205.06445,325.50999 210.79334,324.62055 217.60444,324.335 C 224.41555,324.04947 237.5465,323.31781 246.78434,322.70912 C 256.02217,322.10044 269.1366,321.82209 275.9275,322.09059 L 288.2746,322.57874 L 291.29102,311.52673 C 295.02611,297.84146 298.20467,294.11304 306.01949,294.25036 C 309.37488,294.30931 314.53563,292.98656 317.48786,291.31089 C 322.45849,288.48958 323.07427,286.94858 325.81257,270.4781 C 329.35731,249.15683 351.38004,157.21196 362.52841,117.18932 C 371.78038,83.974841 371.54918,81.666716 358.88605,80.824587 C 351.23053,80.315487 350.76285,79.9133 349.65835,72.889345 C 347.22103,57.389587 353.62674,33.663206 359.84869,35.144808 C 361.00431,35.419995 360.71058,37.313732 359.13111,39.771402 C 352.60987,49.918619 352.70383,73.955372 359.27085,75.519159 C 363.84476,76.60833 366.98746,72.612665 371.277,60.254378 C 376.35391,45.627566 385.6084,30.689476 389.95218,30.109938 C 394.61148,29.4883 396.01522,35.086547 393.20642,43.088176 C 391.66152,47.489219 391.64943,50.995736 393.17285,52.802411 C 397.29114,57.686333 392.76779,69.574824 382.71315,80.293215 L 373.37109,90.251991 L 349.78523,188.57607 C 336.81305,242.65429 326.71372,287.73764 327.34229,288.76131 C 329.11058,291.64097 338.20294,285.73942 339.33731,280.97573 C 340.33636,276.78028 351.64955,267.73525 354.92304,268.51476 C 358.0643,269.26279 360.167,275.67507 357.55474,276.54019 C 356.2198,276.98226 354.71468,279.07789 354.21003,281.19715 C 352.69813,287.54634 359.59187,284.94441 365.14778,277.06883 C 367.88891,273.18325 371.39509,270.30499 372.93926,270.67271 C 376.18743,271.44618 375.92528,274.78012 372.52785,275.90524 C 371.25473,276.32686 369.59488,279.26799 368.83929,282.44108 C 366.67636,291.52417 364.36885,293.69219 359.29376,291.40958 C 352.96959,288.56521 341.68122,289.94981 332.54422,294.69061 C 325.24305,298.47887 324.78989,299.23653 323.2079,310.30101 L 321.54523,321.92991 L 337.13147,324.84378 C 345.70386,326.44642 351.70911,327.96376 350.47641,328.21565 C 349.24373,328.46752 332.71097,329.3971 313.73697,330.28141 C 213.13701,334.96983 217.03619,334.93277 210.62464,331.26106 z M 308.52668,322.48401 L 315.54106,322.82326 L 317.25014,311.10995 C 318.19012,304.66766 317.9961,299.41195 316.81893,299.43064 C 302.72038,299.65431 300.7686,300.62822 297.33858,309.15091 C 293.60128,318.43713 294.04052,323.14163 298.58821,322.53489 C 300.19649,322.32032 304.6688,322.2974 308.52668,322.48401 z M 375.01118,74.603141 C 374.75036,72.840105 374.15837,73.20438 373.50181,75.531936 C 372.90769,77.638153 373.10078,78.94348 373.93095,78.432648 C 374.7611,77.921816 375.2472,76.198537 375.01118,74.603141 z M 388.0519,67.447229 C 388.31617,66.337451 388.13199,65.334098 387.64259,65.217566 C 387.15319,65.101034 385.97538,65.780049 385.02522,66.726499 C 384.07506,67.67296 384.25925,68.676313 385.43453,68.956185 C 386.60981,69.236046 387.78764,68.557019 388.0519,67.447229 z M 382.06973,58.026945 C 386.69257,51.44111 390.40632,40.289182 388.15519,39.753125 C 386.57687,39.377295 383.80253,43.840911 376.89971,57.86193 C 373.91079,63.933028 377.83611,64.05832 382.06973,58.026945 z M 73.18597,295.07205 C 66.046103,288.26983 79.80718,262.7042 89.38126,264.98405 C 92.7552,265.78746 93.13069,267.27832 91.58933,273.75113 C 90.46421,278.47605 87.67481,283.18183 84.51266,285.68967 C 79.96215,289.29859 79.59915,290.23651 81.68059,293.00715 C 86.28567,299.13705 79.24831,300.84773 73.18597,295.07205 z M 83.02079,278.39491 C 83.97096,277.44845 83.78676,276.44509 82.61148,276.16522 C 81.43621,275.88536 80.25839,276.56438 79.99411,277.67417 C 79.72986,278.78396 79.91404,279.78732 80.40344,279.90385 C 80.89284,280.02039 82.07064,279.34137 83.02079,278.39491 z M 153.08209,289.57345 C 152.26428,283.44381 154.19109,279.04065 158.79698,276.51373 C 164.58539,273.33801 165.59066,273.68314 167.08626,279.35954 C 168.00454,282.84473 167.52574,284.65407 165.22848,286.37989 C 162.70399,288.27638 162.92293,288.8929 166.41622,289.72474 C 172.0815,291.07379 171.13522,294.27338 165.02021,294.44501 C 157.05118,294.66874 153.5725,293.24919 153.08209,289.57345 z M 161.5709,284.30652 C 161.83517,283.19673 161.65097,282.19338 161.16157,282.07684 C 160.67219,281.9603 159.49436,282.63933 158.54421,283.58579 C 157.59406,284.53224 157.77824,285.5356 158.95352,285.81546 C 160.12881,286.09533 161.30662,285.4163 161.5709,284.30652 z M 189.52202,289.19537 C 185.97967,282.7387 187.03035,281.31719 193.15754,284.27677 C 197.15351,286.20694 199.73823,286.04539 203.2329,283.64707 C 209.76405,279.16486 210.95085,279.9331 213.45713,290.26539 C 215.8208,300.00981 213.20915,301.61823 207.80625,293.74555 C 204.92197,289.54278 204.59682,289.46535 201.37156,292.21328 C 196.98799,295.94804 192.61581,294.8345 189.52202,289.19537 z M 224.57197,297.06657 C 223.11648,291.54241 225.63034,284.22926 229.08465,283.93856 C 230.42815,283.82549 231.57294,285.80313 231.62863,288.33331 C 231.75612,294.12608 236.15763,293.8618 241.78108,287.72371 C 245.45683,283.71157 245.74452,282.6429 243.70631,280.57251 C 242.30699,279.15116 242.20115,276.8363 243.45189,275.00878 C 245.07731,272.63386 246.84512,272.53009 250.78281,274.57847 C 258.92181,278.81239 260.6394,282.35954 257.67296,288.80786 C 254.26743,296.21061 247.44486,300.862 243.48375,298.48162 C 241.72944,297.42741 238.35843,298.00266 235.73335,299.80421 C 229.80633,303.87182 226.12725,302.96943 224.57197,297.06657 z M 253.64509,289.57396 C 255.7205,286.23049 251.36809,286.00048 249.08725,289.33309 C 247.86518,291.11867 248.09648,292.14852 249.688,292.00815 C 251.1113,291.88262 252.89198,290.78721 253.64509,289.57396 z M 216.58366,268.77116 C 213.38822,263.19558 214.56598,256.3934 218.55637,257.37779 C 220.04351,257.74467 224.28893,269.88338 224.03812,273.05159 C 223.75445,276.63535 219.7842,274.3556 216.58366,268.77116 z M 379.02536,288.12976 C 378.94176,281.23933 384.53079,272.53743 388.92086,272.72286 C 392.73783,272.88405 392.53858,278.46807 388.67017,279.74917 C 387.39707,280.17077 386.03049,282.06086 385.63334,283.94932 C 385.15067,286.24456 388.5856,284.83551 395.99409,279.69921 C 406.8165,272.19607 411.42131,272.68728 406.5321,280.82333 C 403.1865,286.39066 409.19989,286.84136 414.90573,281.45091 C 418.51004,278.04585 419.8957,277.71094 420.6727,280.05711 C 421.2352,281.75562 421.16363,283.67504 420.51366,284.32246 C 419.8637,284.96989 421.02526,286.40185 423.09493,287.50458 C 425.29539,288.67702 426.45198,291.21426 425.88032,293.61494 C 424.48888,299.45825 419.90142,300.27311 417.71438,295.06545 C 416.13273,291.29929 414.89881,290.76739 409.38015,291.47293 C 404.21013,292.13385 402.55585,291.59973 401.18581,288.82714 C 399.72131,285.86342 398.53133,285.87904 393.08298,288.93333 C 383.23473,294.45427 379.09922,294.21786 379.02536,288.12976 z M 470.11262,287.79236 C 469.51152,285.51101 471.00062,272.67257 473.42173,259.26249 C 480.78048,218.50372 484.97911,190.1844 485.1831,179.93315 C 485.28978,174.57333 488.79444,153.33953 492.97127,132.74692 C 497.14806,112.1543 500.87882,92.501934 501.26187,89.075011 C 501.64487,85.648076 504.25275,70.338208 507.05716,55.053102 C 510.88153,34.208713 512.85515,27.030473 514.9528,26.33579 C 516.49101,25.82639 518.18291,26.113866 518.71259,26.974645 C 519.24226,27.835414 516.33855,43.311564 512.25991,61.36607 C 508.18126,79.420598 503.14694,103.863 501.07254,115.68252 C 498.99814,127.50206 495.38289,146.97841 493.03865,158.9633 C 490.69444,170.94817 488.8586,184.42367 488.95904,188.90884 C 489.13168,196.61816 483.01367,238.25618 477.30028,268.25633 C 475.86636,275.78568 475.16418,282.71153 475.73986,283.64711 C 477.22823,286.06585 484.11639,282.25377 487.65068,277.05539 C 490.06476,273.50461 491.09141,273.24606 492.95043,275.72064 C 496.28069,280.15358 492.15922,285.05084 481.79455,288.97636 C 471.19742,292.98993 471.48987,293.01957 470.11262,287.79236 z M 501.1847,286.39599 C 501.2662,281.75735 502.81544,278.85376 507.16529,275.18707 C 512.23638,270.91242 513.6622,270.66431 517.63498,273.36532 C 520.16448,275.08508 522.45851,276.27889 522.73281,276.01821 C 523.00712,275.75754 525.25868,271.94913 527.73631,267.55508 C 531.94963,260.08275 534.29502,258.4641 536.26654,261.66806 C 536.72003,262.40501 535.08428,266.09334 532.63154,269.86436 C 530.17882,273.63535 527.42945,279.66225 526.52187,283.25745 C 525.61428,286.85265 523.96371,289.57797 522.85392,289.31369 C 521.74413,289.04942 521.04473,287.95714 521.29972,286.88639 C 521.55468,285.81566 520.16697,283.52485 518.21589,281.7957 C 514.40314,278.41661 514.15784,278.6071 509.26775,288.74372 C 505.91463,295.69442 501.04615,294.28037 501.1847,286.39599 z M 507.7205,285.71003 C 508.67065,284.76355 508.48646,283.76021 507.31117,283.48034 C 506.13589,283.20048 504.95807,283.87951 504.69381,284.98928 C 504.42954,286.09907 504.61374,287.10243 505.10312,287.21896 C 505.59252,287.3355 506.77034,286.65648 507.7205,285.71003 z M 538.1635,293.67004 C 535.26594,288.96121 547.07073,271.62607 552.32314,272.87681 C 555.75249,273.69343 553.37126,278.63141 548.1728,281.48344 C 542.39134,284.65532 541.30058,287.3097 545.37951,288.28101 C 546.98771,288.66395 551.47541,286.38372 555.35221,283.21381 C 562.5949,277.29168 567.27043,277.88124 563.45215,284.23519 C 561.85696,286.8897 562.27833,288.04065 565.09055,288.71031 C 570.60058,290.0224 575.77429,296.56937 572.22894,297.74349 C 567.30316,299.37474 553.03654,296.87485 553.60673,294.48038 C 553.92692,293.13571 552.06769,293.07622 548.90371,294.32984 C 543.29104,296.55365 539.80617,296.33957 538.1635,293.67004 z M 409.14354,245.58627 C 404.60948,242.36669 409.56474,238.34305 415.29314,240.59283 C 417.8529,241.59815 419.62588,243.77028 419.2331,245.41974 C 418.42507,248.81304 413.79534,248.88945 409.14354,245.58627 z M 68.92092,104.24797 C 66.844889,97.979168 88.27132,90.723371 93.9631,95.767736 C 98.85233,100.10083 96.48068,104.62563 90.11054,103.11786 C 87.05763,102.39526 81.21807,102.88843 77.13371,104.21375 C 72.44502,105.73518 69.41762,105.7478 68.92092,104.24797 z"
       id="path2453"
       style="fill:#000000" />
  </g>
</svg>
