<?xml version="1.0" encoding="UTF-8" standalone="no"?>
<!-- Created with Inkscape (http://www.inkscape.org/) -->

<svg
   xmlns:dc="http://purl.org/dc/elements/1.1/"
   xmlns:cc="http://creativecommons.org/ns#"
   xmlns:rdf="http://www.w3.org/1999/02/22-rdf-syntax-ns#"
   xmlns:svg="http://www.w3.org/2000/svg"
   xmlns="http://www.w3.org/2000/svg"
   xmlns:sodipodi="http://sodipodi.sourceforge.net/DTD/sodipodi-0.dtd"
   xmlns:inkscape="http://www.inkscape.org/namespaces/inkscape"
   id="svg2"
   version="1.1"
   inkscape:version="0.48.2 r9819"
   width="1154"
   height="513"
   sodipodi:docname="Signature_Paul_Eluard.jpg">
  <metadata
     id="metadata8">
    <rdf:RDF>
      <cc:Work
         rdf:about="">
        <dc:format>image/svg+xml</dc:format>
        <dc:type
           rdf:resource="http://purl.org/dc/dcmitype/StillImage" />
        <dc:title></dc:title>
      </cc:Work>
    </rdf:RDF>
  </metadata>
  <defs
     id="defs6" />
  <sodipodi:namedview
     pagecolor="#ffffff"
     bordercolor="#666666"
     borderopacity="1"
     objecttolerance="10"
     gridtolerance="10"
     guidetolerance="10"
     inkscape:pageopacity="0"
     inkscape:pageshadow="2"
     inkscape:window-width="1366"
     inkscape:window-height="706"
     id="namedview4"
     showgrid="false"
     inkscape:zoom="0.3721691"
     inkscape:cx="726.10665"
     inkscape:cy="157.0201"
     inkscape:window-x="-8"
     inkscape:window-y="-8"
     inkscape:window-maximized="1"
     inkscape:current-layer="svg2" />
  <path
     style="fill:#000000"
     d="m 52.70417,487.77435 c 0,-1.85152 4.2752,-5.67431 6.34584,-5.67431 0.94431,0 1.9975,-0.7875 2.34042,-1.75 0.65288,-1.83252 5.24306,-6.15208 6.60334,-6.21404 0.43428,-0.0198 2.55396,-1.83596 4.7104,-4.03596 2.15644,-2.2 4.31226,-4 4.79071,-4 0.47846,0 2.85878,-1.79365 5.2896,-3.98588 2.43083,-2.19224 4.96264,-3.99224 5.62623,-4 0.6636,-0.008 3.1386,-1.80851 5.5,-4.00165 2.36141,-2.19315 4.82382,-3.99315 5.47203,-4 0.64822,-0.007 1.79522,-0.62912 2.5489,-1.3828 0.75368,-0.75367 2.69832,-2.1253 4.32143,-3.04805 1.6231,-0.92275 5.6511,-3.67722 8.9511,-6.12104 3.3,-2.44382 7.125,-5.00445 8.5,-5.69028 1.375,-0.68584 3.09397,-1.81405 3.81993,-2.50714 0.72596,-0.69308 2.41346,-1.53462 3.75,-1.87007 1.33654,-0.33545 2.43007,-1.01112 2.43007,-1.5015 0,-0.49037 0.69649,-0.89159 1.54775,-0.89159 0.85126,0 2.53876,-1.05588 3.75,-2.3464 1.21124,-1.29052 4.45225,-3.58526 7.20225,-5.09944 2.75,-1.51417 5.71043,-3.38329 6.57874,-4.1536 0.86831,-0.77031 2.25237,-1.40056 3.07569,-1.40056 0.82332,0 2.53248,-1.10228 3.79814,-2.44952 1.26567,-1.34723 4.33411,-3.40509 6.81877,-4.57302 2.48466,-1.16793 5.1597,-2.76565 5.94454,-3.55048 0.78484,-0.78484 2.03769,-1.42698 2.78412,-1.42698 0.74643,0 1.95179,-0.58392 2.67857,-1.2976 0.72679,-0.71368 5.59643,-3.66994 10.82143,-6.56946 5.225,-2.89952 10.175,-5.69387 11,-6.20966 0.825,-0.51579 2.625,-1.49385 4,-2.17347 1.375,-0.67963 2.95,-1.5827 3.5,-2.00683 3.01182,-2.32256 8.57639,-5.63245 10.49073,-6.24004 1.20834,-0.38351 4.13251,-2.00356 6.49815,-3.60012 2.36564,-1.59655 4.64343,-2.90282 5.06175,-2.90282 0.41833,0 2.23554,-1.125 4.03826,-2.5 1.80272,-1.375 3.697,-2.5 4.20953,-2.5 0.51252,0 2.04056,-0.8721 3.39564,-1.93801 1.35508,-1.06591 3.66577,-2.23969 5.13486,-2.60841 1.46909,-0.36872 2.67108,-1.04248 2.67108,-1.49726 0,-0.45478 1.575,-1.39639 3.5,-2.09248 1.925,-0.69609 3.5,-1.57062 3.5,-1.94341 0,-0.37278 1.4625,-1.26846 3.25,-1.99039 1.7875,-0.72192 3.60986,-1.90152 4.04969,-2.62132 0.43983,-0.71979 1.39164,-1.30872 2.11514,-1.30872 0.7235,0 2.42415,-0.8721 3.77923,-1.93801 1.35508,-1.06591 3.66577,-2.23969 5.13486,-2.60841 1.46909,-0.36872 2.67108,-1.04248 2.67108,-1.49726 0,-0.45478 1.575,-1.39639 3.5,-2.09248 1.925,-0.69609 3.5,-1.60715 3.5,-2.02459 0,-0.41743 1.8,-1.29826 4,-1.9574 2.2,-0.65913 4,-1.76644 4,-2.46068 0,-0.69424 1.35,-1.55877 3,-1.92117 1.65,-0.3624 3,-1.06265 3,-1.55612 0,-0.49346 1.6875,-1.72244 3.75,-2.73107 4.28973,-2.09782 8.51762,-4.48043 9.25,-5.21281 0.76826,-0.76826 6.12745,-3.78902 9.75,-5.49569 1.7875,-0.84213 3.25,-1.89112 3.25,-2.33108 0,-0.43997 1.575,-1.41792 3.5,-2.17323 1.925,-0.75531 3.5,-1.70898 3.5,-2.11926 0,-0.41028 0.89734,-1.03077 1.99408,-1.37886 1.09674,-0.34809 2.55924,-1.17634 3.25,-1.84055 0.69076,-0.66421 4.40592,-2.77223 8.25592,-4.68449 3.85,-1.91226 7.35986,-4.03934 7.79969,-4.72684 0.43983,-0.6875 1.38259,-1.25 2.09501,-1.25 0.71243,0 2.10981,-0.9 3.1053,-2 0.99549,-1.1 2.56563,-2 3.4892,-2 0.92358,0 4.24882,-1.8 7.38942,-4 3.14061,-2.2 6.0745,-4 6.51976,-4 0.44527,0 2.02347,-1.125 3.50712,-2.5 1.48365,-1.375 3.34936,-2.5 4.14602,-2.5 0.79666,0 1.44848,-0.34015 1.44848,-0.75589 0,-0.41574 1.4625,-1.39219 3.25,-2.16989 1.7875,-0.77769 3.475,-1.67926 3.75,-2.00347 0.80058,-0.94383 8.8947,-6.07075 9.5842,-6.07075 0.3449,0 1.96407,-1.125 3.59817,-2.5 1.63409,-1.375 3.83655,-2.5 4.89436,-2.5 1.0578,0 1.92327,-0.4151 1.92327,-0.92245 0,-0.50734 1.52059,-1.42428 3.37908,-2.03764 1.8585,-0.61336 4.17824,-1.99826 5.15499,-3.07756 0.97675,-1.07929 2.60616,-1.96235 3.62092,-1.96235 1.01475,0 1.84501,-0.45 1.84501,-1 0,-0.55 0.61364,-1 1.36364,-1 0.75,0 2.4375,-1.04128 3.75,-2.31396 2.78614,-2.70161 8.43205,-6.16914 11.61191,-7.13165 1.22405,-0.3705 3.81974,-2.22181 5.76819,-4.11402 1.94846,-1.8922 4.13971,-3.44037 4.86946,-3.44037 0.72976,0 2.14131,-0.9 3.1368,-2 0.99549,-1.1 2.27136,-2 2.83527,-2 1.03181,0 8.21539,-4.38753 21.16473,-12.92682 3.85,-2.53884 8.6875,-5.49625 10.75,-6.57203 2.0625,-1.07578 3.75,-2.24903 3.75,-2.60723 0,-0.35821 1.4625,-1.2517 3.25,-1.98556 1.7875,-0.73385 4.12444,-2.14039 5.1932,-3.12564 1.06876,-0.98524 3.99376,-2.77297 6.5,-3.97271 4.75642,-2.27691 9.10222,-5.08859 12.45772,-8.06001 1.08691,-0.9625 2.37277,-1.75 2.85747,-1.75 1.74605,0 9.74161,-6.12727 9.74161,-7.46533 0,-0.75309 -2.1375,-2.15773 -4.75,-3.12143 -2.6125,-0.9637 -5.425,-2.2875 -6.25,-2.94177 -0.825,-0.65428 -3.74402,-1.73633 -6.48672,-2.40454 -2.7427,-0.66822 -5.2177,-1.51914 -5.5,-1.89094 -0.84527,-1.11322 -11.94093,-6.17599 -13.53543,-6.17599 -0.81282,0 -1.47785,0.44664 -1.47785,0.99253 0,2.61767 -19.15267,20.00747 -22.03571,20.00747 -0.52079,0 -2.23703,1.35 -3.81386,3 -1.57682,1.65 -3.14447,3 -3.48365,3 -1.28894,0 -13.50921,5.93602 -14.06216,6.83073 -0.31889,0.51597 -3.62288,1.49942 -7.34221,2.18545 -3.71933,0.68603 -7.3847,1.74276 -8.14528,2.34829 -2.28925,1.82257 -18.12495,3.32497 -26.55686,2.51956 -5.90671,-0.5642 -8.33406,-1.26234 -10.07475,-2.89763 -2.03302,-1.90992 -2.95646,-2.07147 -8.13935,-1.42391 -3.2154,0.40173 -5.91143,0.55202 -5.99118,0.33397 -0.0798,-0.21805 -0.97976,0.33311 -2,1.22481 -1.14842,1.00372 -4.90223,1.92975 -9.85499,2.43115 -11.14664,1.12843 -14.08993,0.88708 -18.11037,-1.48504 -3.60763,-2.12855 -9.96547,-2.8014 -10.5563,-1.11718 -0.18333,0.52262 -4.40638,1.25543 -9.38455,1.62848 -7.58306,0.56825 -9.60193,0.39348 -12.44637,-1.07743 -4.47228,-2.31271 -15.14412,-2.5024 -17.33833,-0.30818 -3.72292,3.72291 -20.91494,3.33248 -25.12647,-0.57063 -2.12316,-1.96768 -2.22656,-2.45692 -1.09043,-5.159 0.69035,-1.64184 3.23464,-4.32901 5.654,-5.97149 2.41935,-1.64248 4.62382,-3.2623 4.89882,-3.59961 0.275,-0.3373 1.85,-1.36475 3.5,-2.28322 1.65,-0.91847 4.35,-2.5572 6,-3.64162 1.65,-1.08442 4.575,-2.69631 6.5,-3.58198 1.925,-0.88566 3.725,-1.93468 4,-2.33113 0.275,-0.39646 3.08113,-1.93106 6.23585,-3.41022 8.23331,-3.86036 12.71448,-2.27876 11.15445,3.93689 -0.44636,1.77844 -0.0121,2.90459 1.63401,4.23754 1.97681,1.60073 2.09194,2.09567 0.97355,4.18541 -0.69762,1.3035 -2.10752,3.2707 -3.13312,4.37155 -1.02561,1.10086 -1.86474,2.59171 -1.86474,3.313 0,0.72129 -0.45,1.31144 -1,1.31144 -0.55,0 -1,0.87243 -1,1.93873 0,1.51555 0.92766,2.07597 4.25,2.56752 5.25087,0.77688 20.07478,-0.98058 20.56044,-2.43756 0.19592,-0.58778 0.93093,-1.06869 1.63335,-1.06869 0.70241,0 2.96292,-1.14402 5.02335,-2.54226 2.06042,-1.39824 5.33669,-2.63574 7.28059,-2.75 3.06093,-0.17991 3.66318,0.16838 4.49594,2.60012 0.75946,2.21769 0.59215,3.21608 -0.79604,4.75 -1.58373,1.75 -1.33159,2.3975 0.80237,2.06056 0.4125,-0.0651 0.75,0.33158 0.75,0.88158 0,1.28182 3.29812,1.30188 4.57219,0.0278 0.53471,-0.53471 4.44971,-1.48941 8.7,-2.12156 4.2503,-0.63216 7.72781,-1.48619 7.72781,-1.89785 0,-0.41166 2.025,-1.31544 4.5,-2.0084 2.475,-0.69296 4.5,-1.59685 4.5,-2.00864 0,-1.42305 5.8494,-3.17392 8.17628,-2.44736 3.22537,1.0071 3.78678,2.26353 2.57046,5.75267 -1.40861,4.04072 1.09081,6.02825 6.75326,5.37016 10.86702,-1.26295 18.91925,-2.76474 21.80587,-4.06691 1.75677,-0.79249 4.31913,-1.75684 5.69413,-2.143 2.70816,-0.76057 21.18102,-9.56402 22,-10.48435 1.09636,-1.23203 8.19629,-4.97257 9.43847,-4.97257 0.72828,0 2.44391,-1.4625 3.81251,-3.25 1.36859,-1.7875 4.347,-5.21812 6.61869,-7.6236 2.27168,-2.40546 4.13033,-4.72796 4.13033,-5.16109 0,-1.35565 -6.0693,-5.9653 -7.85422,-5.9653 -0.93542,0 -2.63495,-0.65433 -3.77673,-1.45406 -1.14177,-0.79973 -5.1794,-3.02489 -8.9725,-4.9448 -7.30928,-3.69966 -16.25006,-9.20321 -20.39655,-12.55524 -1.375,-1.11155 -3.88712,-2.68695 -5.5825,-3.50088 -3.39538,-1.6301 -23.4175,-20.77412 -23.4175,-22.39051 0,-0.55641 -0.63663,-1.64828 -1.41472,-2.42638 -2.6287,-2.62869 -4.35817,-10.82014 -3.15359,-14.93657 0.59686,-2.039651 1.59625,-4.219503 2.22087,-4.844122 1.33504,-1.33504 13.89164,-1.722917 20.34744,-0.628538 7.76849,1.316905 9.20402,1.742263 10.6037,3.141944 0.74916,0.749156 4.49825,2.332726 8.33132,3.519046 3.83307,1.18632 8.07424,3.02615 9.42483,4.08852 1.35058,1.06238 2.91016,1.93159 3.46572,1.93159 1.50957,0 11.62298,5.18681 12.00776,6.15836 0.18334,0.4629 0.96046,0.84164 1.72695,0.84164 0.76649,0 2.13074,1.125 3.03168,2.5 0.90093,1.375 2.22747,2.5 2.94786,2.5 2.0991,0 9.463,8.11308 11.62094,12.80321 3.55204,7.72016 4.54258,13.39556 3.70541,21.23061 -0.42769,4.00269 -1.24754,7.74755 -1.82189,8.3219 -1.70548,1.70548 -1.19667,3.62828 1.20572,4.55644 8.62189,3.33106 11.98145,4.73699 17.48921,7.31901 3.43157,1.6087 6.49563,3.33979 6.80902,3.84687 0.31339,0.50708 1.33075,0.92607 2.26079,0.9311 0.93004,0.005 3.94098,1.11596 6.69098,2.46873 5.78856,2.84749 8.20732,3.09562 10.41611,1.06855 0.87114,-0.79947 2.63583,-2.41391 3.92154,-3.58765 1.28571,-1.17374 3.76071,-2.74287 5.5,-3.48695 1.73929,-0.74409 4.38021,-2.50465 5.86871,-3.91236 1.48849,-1.4077 3.07254,-2.55946 3.5201,-2.55946 0.44756,0 6.56816,-3.78273 13.60134,-8.40607 7.03317,-4.62334 13.8355,-8.66908 15.11628,-8.99054 1.28078,-0.32146 3.7376,-1.82622 5.4596,-3.34393 3.13805,-2.76575 14.43988,-10.18889 19.05863,-12.51786 1.35427,-0.68288 3.60427,-2.2994 5,-3.59227 1.39573,-1.29286 3.88769,-3.04315 5.53769,-3.88953 1.65,-0.84637 3.225,-1.81498 3.5,-2.15246 0.88916,-1.09116 11.10309,-7.10734 12.06645,-7.10734 0.51345,0 0.93355,-0.40122 0.93355,-0.89159 0,-0.49038 1.0125,-1.15132 2.25,-1.46875 1.2375,-0.31744 3.46786,-1.71622 4.95636,-3.10841 1.48849,-1.39219 3.17599,-2.53125 3.75,-2.53125 0.574,0 1.04364,-0.42087 1.04364,-0.93527 0,-0.5144 1.575,-1.5048 3.5,-2.20089 1.925,-0.69609 3.5,-1.57643 3.5,-1.95632 0,-0.37989 1.21738,-0.99625 2.70528,-1.36969 1.48791,-0.37344 3.31342,-1.54722 4.05671,-2.6084 0.74328,-1.06119 1.96876,-1.92943 2.72329,-1.92943 0.75452,0 2.02689,-0.655028 2.82748,-1.455617 1.75258,-1.752578 6.98558,-4.93885 11.43724,-6.963907 1.7875,-0.813133 3.25,-1.951386 3.25,-2.52945 0,-0.578065 0.585,-1.051027 1.3,-1.051027 0.715,0 1.8625,-0.5625 2.55,-1.25 0.6875,-0.6875 1.565,-1.262989 1.95,-1.278864 0.385,-0.01588 2.5,-1.154294 4.7,-2.529819 5.85363,-3.659914 7.25992,-4.440464 15.24215,-8.460021 3.98318,-2.005783 7.48219,-4.035267 7.77557,-4.509962 0.29337,-0.474696 4.23441,-2.736715 8.75785,-5.026708 12.02027,-6.08527 15.10779,-7.738866 16.22443,-8.689384 0.55,-0.468176 6.85,-3.710547 14,-7.205269 7.15,-3.494723 13.675,-6.866217 14.5,-7.49221 0.825,-0.625992 4.425,-2.470077 8,-4.097965 3.575,-1.627889 7.0536,-3.481237 7.7302,-4.118552 0.6766,-0.637315 3.1516,-1.475694 5.5,-1.863065 2.3484,-0.387371 4.7198,-1.022374 5.2698,-1.411119 1.9236,-1.359601 9.1847,-3.274432 11.0527,-2.914697 1.4324,0.275863 0.5725,1.229149 -3.5841,3.973386 -3.0077,1.985747 -6.5936,3.955455 -7.9686,4.37713 -1.375,0.421675 -2.725,1.060779 -3,1.420232 -0.275,0.359452 -7.5537,4.236301 -16.175,8.615218 -8.62118,4.378918 -20.54618,10.436669 -26.49996,13.461669 -5.95377,3.025 -12.81867,6.79436 -15.25533,8.376357 -2.43666,1.581996 -5.89339,3.487677 -7.68162,4.234848 -1.78823,0.747171 -3.51226,1.780689 -3.83118,2.296707 -0.31891,0.516018 -1.92468,1.233591 -3.56838,1.594607 -1.64369,0.361015 -2.98853,1.035738 -2.98853,1.499384 0,0.463646 -1.67507,1.395814 -3.72237,2.071485 -2.0473,0.675671 -4.28537,1.791492 -4.97348,2.479601 -2.09468,2.09468 -7.64792,5.252123 -10.48055,5.958997 -1.47203,0.367338 -3.44631,1.518615 -4.38729,2.558393 -0.94099,1.039778 -3.20876,2.171509 -5.0395,2.514958 -1.87232,0.351249 -3.56705,1.375689 -3.8736,2.341534 -0.29974,0.944396 -2.45258,2.771003 -4.7841,4.059128 -2.33151,1.288122 -5.81411,3.525502 -7.73911,4.971952 -1.925,1.44644 -4.625,3.17716 -6,3.84604 -1.375,0.66887 -5.65,3.23063 -9.5,5.6928 -3.85,2.46216 -8.52809,5.19108 -10.39574,6.06425 -1.86766,0.87318 -4.03731,2.22915 -4.82143,3.01328 -0.78413,0.78412 -1.86236,1.42568 -2.39607,1.42568 -0.53371,0 -1.87241,0.84036 -2.97487,1.86746 -1.10247,1.02711 -3.65213,2.71461 -5.6659,3.75 -2.01377,1.0354 -5.93044,3.57976 -8.7037,5.65415 -2.77326,2.07438 -6.05479,4.03567 -7.29229,4.35841 -1.2375,0.32274 -2.25,0.98197 -2.25,1.46497 0,0.48299 -1.4625,1.54507 -3.25,2.36017 -4.07163,1.85667 -21.90188,13.24546 -23.25256,14.85221 -1.45188,1.72714 -7.0459,4.69263 -8.85204,4.69263 -0.85031,0 -1.90588,0.56395 -2.34571,1.25323 -0.87444,1.37036 -7.53234,5.63406 -19.54969,12.51956 -4.2625,2.44226 -7.75,4.84249 -7.75,5.33384 0,0.49135 -0.6199,0.89337 -1.37756,0.89337 -0.75765,0 -1.96355,0.70609 -2.67977,1.56908 -1.10735,1.33427 -0.86378,1.92315 1.62755,3.93499 1.61138,1.30125 4.05478,2.65522 5.42978,3.00883 1.375,0.35361 3.175,1.21152 4,1.90646 0.825,0.69495 5.775,2.77508 11,4.62252 5.225,1.84743 10.09464,3.94378 10.82143,4.65854 0.72678,0.71477 1.85178,1.31485 2.5,1.33351 0.64821,0.0187 2.97857,0.90339 5.17857,1.96607 2.2,1.06268 4.675,1.95018 5.5,1.97223 0.825,0.0221 2.78894,0.71232 4.36431,1.53393 1.57537,0.82161 3.42718,1.49384 4.11514,1.49384 0.68796,0 2.35119,0.86554 3.69606,1.92342 1.34488,1.05788 4.44307,2.21907 6.88486,2.58043 2.4418,0.36136 5.11463,1.25143 5.93963,1.97794 0.825,0.72651 3.525,1.89295 6,2.59209 2.475,0.69914 5.175,1.80266 6,2.45226 2.63142,2.07197 8.086,4.40082 11.85066,5.05967 2.00714,0.35127 4.63967,1.25901 5.85006,2.0172 1.2104,0.75819 5.7104,2.75429 10,4.43578 4.28961,1.68149 9.21729,3.71064 10.95041,4.50923 1.73312,0.79859 3.75812,1.45475 4.5,1.45814 0.74188,0.003 2.55606,0.63598 4.03151,1.40575 1.47545,0.76977 4.17545,1.72343 6,2.11924 1.82455,0.39581 5.11736,1.64229 7.31736,2.76995 7.06614,3.62192 8.90444,4.3707 14,5.70246 2.75,0.71873 5.56716,1.74592 6.26036,2.28265 0.69319,0.53673 3.35888,1.36792 5.92375,1.84709 2.56487,0.47917 5.37271,1.50712 6.23964,2.28434 0.86694,0.77722 3.26375,1.72629 5.32625,2.10904 2.0625,0.38274 3.75,1.07848 3.75,1.54607 0,0.46759 1.9125,1.32785 4.25,1.91169 2.3375,0.58385 4.93977,1.44397 5.78282,1.91139 0.84306,0.46742 2.94946,1.161 4.68091,1.54129 1.73144,0.38029 3.68427,1.33751 4.33962,2.12716 0.65535,0.78965 2.17144,1.43572 3.36909,1.43572 1.19766,0 2.60506,0.40169 3.12756,0.89263 1.14924,1.07985 12.58719,5.84834 17.45,7.27493 1.925,0.56473 4.85,1.83451 6.5,2.82174 1.65,0.98722 4.4625,2.10425 6.25,2.48228 1.7875,0.37803 3.25,1.04309 3.25,1.47791 0,0.43483 2.1375,1.38327 4.75,2.10766 2.6125,0.7244 7.225,2.55445 10.25,4.06679 3.025,1.51234 7.4125,3.24548 9.75,3.85143 2.3375,0.60594 4.25,1.53437 4.25,2.06317 0,0.5288 0.781,0.96146 1.7356,0.96146 0.9547,0 4.2172,1.17086 7.25,2.60191 7.7189,3.64208 12.6427,5.90169 19.0144,8.72594 3.025,1.34083 7.6326,3.39059 10.2391,4.55501 2.6065,1.16443 5.419,2.11714 6.25,2.11714 0.831,0 1.5109,0.45 1.5109,1 0,0.55 0.4488,1 0.9973,1 0.5486,0 3.8546,1.35 7.3469,3 3.4922,1.65 7.0668,3 7.9436,3 0.8768,0 1.8754,0.45512 2.2192,1.01139 0.6967,1.12723 12.817,6.98861 14.4513,6.98861 0.5729,0 1.0417,0.45 1.0417,1 0,0.55 0.7262,1 1.6138,1 0.8877,0 3.2502,0.83619 5.25,1.85821 11.6824,5.97011 25.1383,12.14179 26.4723,12.14179 0.8502,0 1.8354,0.46852 2.1893,1.04117 0.354,0.57264 3.643,2.44901 7.3091,4.16972 3.666,1.7207 6.8155,3.50218 6.9988,3.95883 0.1834,0.45665 1.3658,0.83028 2.6276,0.83028 1.2618,0 2.8178,0.63085 3.4577,1.40189 0.6399,0.77103 2.355,1.70095 3.8114,2.06649 1.4564,0.36553 3.8699,1.53468 5.3634,2.59811 1.4934,1.06343 3.4334,1.93351 4.311,1.93351 1.7415,0 2.189,2.51521 0.62,3.4849 -0.5365,0.33162 -2.674,-0.27355 -4.75,-1.34482 -2.0759,-1.07126 -6.5869,-3.19877 -10.0244,-4.72778 -3.4375,-1.52902 -6.25,-3.1124 -6.25,-3.51862 0,-0.40622 -1.6875,-1.27781 -3.75,-1.93688 -2.0625,-0.65906 -8.3657,-3.39396 -14.0071,-6.07755 -5.6414,-2.68359 -10.6717,-4.87925 -11.1785,-4.87925 -0.5069,0 -1.5336,-0.5625 -2.2816,-1.25 -1.9172,-1.76198 -5.5528,-3.75 -6.8579,-3.75 -0.6062,0 -5.3213,-2.025 -10.4781,-4.5 -5.1567,-2.475 -9.8418,-4.5 -10.4113,-4.5 -0.5695,0 -1.0355,-0.40841 -1.0355,-0.90759 0,-0.49917 -2.25,-1.48424 -5,-2.18905 -2.75,-0.7048 -5,-1.61606 -5,-2.02502 0,-0.40896 -1.0125,-1.04894 -2.25,-1.42218 -3.7804,-1.14021 -9.122,-3.73047 -11.6349,-5.64199 -1.3116,-0.99779 -3.3302,-1.81417 -4.4856,-1.81417 -1.1554,0 -4.3573,-1.08427 -7.1151,-2.40949 -13.8695,-6.66453 -20.3106,-9.45202 -23.2727,-10.07157 -1.7921,-0.37483 -3.6875,-1.48338 -4.212,-2.46345 -0.5842,-1.09158 -2.574,-1.99928 -5.1358,-2.3429 -2.3002,-0.30851 -4.4548,-0.93345 -4.788,-1.38875 -0.3333,-0.4553 -4.5434,-2.17145 -9.3559,-3.81368 -4.8125,-1.64222 -8.75,-3.29266 -8.75,-3.66764 0,-0.37498 -2.3625,-1.45249 -5.25,-2.39447 -2.8875,-0.94198 -5.7,-2.05914 -6.25,-2.48259 -0.55,-0.42345 -2.9125,-1.28126 -5.25,-1.90623 -2.3375,-0.62498 -4.25,-1.51049 -4.25,-1.96781 0,-0.45733 -2.025,-1.39846 -4.5,-2.09142 -2.475,-0.69296 -4.5,-1.61189 -4.5,-2.04206 0,-0.43018 -1.9125,-1.08994 -4.25,-1.46614 -2.3375,-0.3762 -5.15,-1.24752 -6.25,-1.93627 -1.1,-0.68876 -3.8,-1.82916 -6,-2.53423 -2.2,-0.70507 -4.45,-1.6293 -5,-2.05385 -0.55,-0.42455 -2.9125,-1.28325 -5.25,-1.90822 -2.3375,-0.62498 -4.25,-1.54858 -4.25,-2.05246 0,-0.50388 -1.6875,-1.21629 -3.75,-1.58314 -2.0625,-0.36685 -5.15312,-1.51224 -6.86803,-2.54531 -1.71492,-1.03308 -3.7569,-1.87832 -4.53773,-1.87832 -0.78083,0 -5.13529,-1.54365 -9.67657,-3.43034 -4.54129,-1.88669 -9.69931,-3.74669 -11.46228,-4.13333 -1.76296,-0.38664 -4.77373,-1.54298 -6.69058,-2.56966 -1.91686,-1.02667 -4.13142,-1.86667 -4.92126,-1.86667 -0.78984,0 -2.1465,-0.60779 -3.01481,-1.35065 -0.86831,-0.74286 -4.05374,-2.12982 -7.07874,-3.08213 -3.025,-0.95232 -10.9,-3.89546 -17.5,-6.54032 -6.6,-2.64486 -14.925,-5.71671 -18.5,-6.82634 -3.575,-1.10964 -7.85,-2.73093 -9.5,-3.60288 -1.65,-0.87195 -3.58311,-1.58813 -4.29581,-1.59152 -0.71269,-0.003 -3.40911,-1.13116 -5.99204,-2.50616 -2.58293,-1.375 -5.26395,-2.5 -5.95782,-2.5 -0.69387,0 -2.94078,-0.9 -4.99315,-2 -2.05236,-1.1 -4.41323,-2.01527 -5.24637,-2.03393 -0.83315,-0.0187 -3.31481,-0.90339 -5.51481,-1.96607 -2.2,-1.06268 -4.7324,-1.94741 -5.62756,-1.96607 -0.89515,-0.0187 -2.15111,-0.66478 -2.79101,-1.43582 -0.63991,-0.77103 -2.3669,-1.70393 -3.83776,-2.07309 -1.47086,-0.36916 -4.57771,-1.53831 -6.90412,-2.59811 -2.3264,-1.0598 -4.89737,-1.92691 -5.71326,-1.92691 -0.81589,0 -2.07808,-0.58839 -2.80486,-1.30753 -0.72679,-0.71915 -3.45038,-1.90024 -6.05243,-2.62465 -2.60205,-0.7244 -5.24465,-1.93601 -5.87244,-2.69246 -0.6278,-0.75645 -2.02942,-1.37536 -3.11471,-1.37536 -1.0853,0 -3.1677,-0.6445 -4.62756,-1.43222 -7.15889,-3.86286 -14.1863,-6.50059 -15.83347,-5.94307 -4.55798,1.54273 -10.21324,4.59893 -11.84365,6.40052 -0.98293,1.08612 -2.6174,1.97477 -3.63216,1.97477 -1.01475,0 -1.84501,0.675 -1.84501,1.5 0,0.825 -0.79452,1.5 -1.7656,1.5 -2.73727,0 -8.53987,3.48061 -16.25445,9.75 -1.52276,1.2375 -3.23406,2.25 -3.80288,2.25 -0.56882,0 -1.62886,0.5625 -2.35564,1.25 -0.72679,0.6875 -2.89643,2.05992 -4.82143,3.04982 -1.925,0.9899 -5.3,2.89172 -7.5,4.22625 -2.2,1.33454 -5.11584,2.91528 -6.47965,3.51275 -1.3638,0.59746 -2.7138,1.39821 -3,1.77943 -1.1559,1.53971 -7.66366,5.93928 -9.77035,6.60525 -1.2375,0.3912 -2.25,1.10182 -2.25,1.57916 0,0.47734 -1.575,1.43741 -3.5,2.1335 -1.925,0.69609 -3.5,1.59489 -3.5,1.99734 0,0.40245 -0.98708,1.04501 -2.19351,1.42792 -1.20643,0.3829 -4.32386,2.19358 -6.92763,4.02373 -2.60377,1.83014 -6.34169,3.99922 -8.30649,4.82017 -1.96481,0.82094 -3.57237,1.91681 -3.57237,2.43525 0,0.51844 -1.23382,1.25228 -2.74182,1.63077 -1.50801,0.37848 -3.42051,1.33984 -4.25,2.13635 -1.68912,1.62193 -7.06442,5.48941 -11.31523,8.14119 -1.54388,0.96312 -6.71888,4.26235 -11.5,7.33164 -4.78112,3.06928 -9.93045,5.89035 -11.44295,6.26905 -1.5125,0.37869 -2.75,1.1108 -2.75,1.6269 0,0.5161 -3.0375,2.42002 -6.75,4.23094 -3.7125,1.81093 -7.31516,3.82561 -8.00592,4.47708 -0.69076,0.65147 -2.15326,1.4693 -3.25,1.81739 -1.09674,0.34809 -1.99408,0.99798 -1.99408,1.44419 0,0.44621 -1.4432,1.40908 -3.20711,2.13972 -1.76391,0.73063 -3.98165,2.02273 -4.92832,2.87132 -3.72119,3.33566 -5.03758,4.21723 -8.38704,5.61672 -1.91264,0.79916 -3.47753,1.86122 -3.47753,2.36013 0,0.49892 -1.34484,1.20251 -2.98853,1.56352 -1.6437,0.36102 -3.21426,1.02162 -3.49014,1.46801 -0.27588,0.44639 -5.01841,3.44927 -10.53895,6.67306 -5.52054,3.2238 -11.71248,6.87072 -13.75986,8.10428 -2.04739,1.23356 -5.14379,2.90987 -6.8809,3.72514 -1.73711,0.81527 -3.31211,1.84526 -3.5,2.28887 -0.18789,0.44361 -3.04162,2.13775 -6.34162,3.76475 -3.3,1.62699 -6.225,3.2491 -6.5,3.60467 -0.67244,0.86946 -12.2564,7.27464 -18.65505,10.31505 -2.83528,1.34722 -5.76765,3.32409 -6.51638,4.39306 -0.74873,1.06896 -2.92896,2.68084 -4.84495,3.58196 -5.7325,2.69608 -14.69605,7.96345 -16.73408,9.83367 -1.04886,0.9625 -2.62456,1.75 -3.50156,1.75 -0.87699,0 -2.87012,1.0125 -4.42916,2.25 -4.1208,3.27089 -6.07573,4.43881 -13.31882,7.95695 -3.575,1.73646 -6.725,3.47469 -7,3.86273 -0.275,0.38805 -2.075,1.40657 -4,2.26338 -4.15236,1.8482 -8.90905,4.6768 -10.79099,6.41694 -0.74353,0.6875 -1.85085,1.25 -2.46072,1.25 -0.99665,0 -9.96381,5.3598 -16.89797,10.10016 -1.45733,0.99626 -3.81983,2.10507 -5.25,2.46402 -1.43018,0.35895 -2.60032,1.00137 -2.60032,1.4276 0,0.42622 -0.7875,1.03267 -1.75,1.34766 -2.249,0.736 -10.05074,5.36028 -13.13486,7.78533 -1.31167,1.03138 -2.99917,1.87523 -3.75,1.87523 -0.75083,0 -1.36514,0.36665 -1.36514,0.81479 0,0.44813 -1.575,1.56585 -3.5,2.48382 -1.925,0.91797 -3.5,2.05429 -3.5,2.52515 0,0.47087 -1.80644,1.4523 -4.01431,2.18096 -2.20788,0.72867 -4.51298,1.92569 -5.12245,2.66006 -0.60947,0.73437 -1.50303,1.33522 -1.98568,1.33522 -0.48266,0 -1.72413,0.7875 -2.75883,1.75 -3.68889,3.43147 -6.55111,5.25 -8.2631,5.25 -0.95568,0 -2.00192,0.42768 -2.32498,0.9504 -0.73764,1.19353 -22.32123,15.85748 -27.30279,18.5496 -2.03547,1.1 -4.15693,2.49348 -4.71436,3.09662 -0.55742,0.60314 -2.62263,2.0539 -4.58934,3.22392 -1.96671,1.17002 -4.80239,3.26404 -6.30152,4.65338 -1.49913,1.38934 -3.30775,2.52608 -4.01917,2.52608 -0.71142,0 -2.10798,0.9 -3.10347,2 -0.99549,1.1 -2.16519,2 -2.59934,2 -0.43415,0 -2.5019,1.57285 -4.59501,3.49522 -2.09311,1.92237 -4.287,3.49737 -4.87531,3.5 -0.58832,0.003 -2.01962,1.01728 -3.18067,2.25478 -3.16996,3.37869 -4.74628,4.53862 -9.87055,7.26322 -5.45348,2.89964 -5.37912,2.88359 -5.37912,1.16109 z M 302.15928,201.9008 c 5.01381,-1.34099 6.9844,-3.80076 3.04489,-3.80076 -1.75558,0 -2.27625,-0.41952 -1.86163,-1.5 0.39796,-1.03706 2.01704,-1.5 5.24611,-1.5 5.91476,0 9.11552,-2.12671 9.11552,-6.0567 0,-2.56803 -0.36273,-2.9433 -2.84501,-2.9433 -1.57502,0 -3.65297,0.89278 -4.65499,2 -0.99549,1.1 -2.16867,2 -2.60708,2 -0.4384,0 -3.78045,2.1375 -7.42677,4.75 -3.64631,2.6125 -7.53315,5.26158 -8.63741,5.88683 -4.04557,2.29071 3.37467,3.10347 10.62637,1.16393 z m 193.59836,-47.56469 c 0.65966,-2.05484 1.8528,-4.48552 2.65142,-5.40151 1.27406,-1.46131 1.248,-1.97683 -0.21263,-4.20602 -0.91556,-1.39732 -1.39673,-2.9741 -1.06926,-3.50394 0.32746,-0.52985 -0.0838,-1.6425 -0.91381,-2.47255 -0.83005,-0.83006 -1.50919,-2.45099 -1.50919,-3.60207 0,-1.18563 -2.31905,-4.44929 -5.34965,-7.52869 -2.94231,-2.9897 -5.97981,-6.33612 -6.75,-7.43649 -1.67494,-2.39298 -22.64281,-13.362 -23.97194,-12.54056 -0.51062,0.31559 -0.92841,0.11458 -0.92841,-0.44668 0,-0.56126 -1.781,-1.50005 -3.95778,-2.08619 -2.17678,-0.58615 -4.22833,-1.50349 -4.55901,-2.03854 -0.33069,-0.53506 -1.36885,-0.97283 -2.30704,-0.97283 -0.93818,0 -3.31293,-0.86138 -5.27721,-1.91417 -4.09651,-2.195596 -11.76704,-3.579865 -14.69223,-2.651445 -4.79283,1.521185 -2.80403,10.545975 4.29327,19.481995 2.75,3.46245 5.56756,6.81022 6.26125,7.43949 0.69369,0.62927 3.0567,2.83163 5.25114,4.89413 2.19445,2.0625 4.21378,3.75 4.48741,3.75 0.44188,0 12.23777,8.73757 13.5002,10 1.15028,1.15028 5.07415,3 6.36399,3 0.76511,0 1.89088,0.60217 2.50169,1.33815 0.61081,0.73599 2.86253,1.86306 5.00382,2.5046 2.14128,0.64155 4.45173,1.83938 5.13432,2.66185 0.68259,0.82247 2.01622,1.4954 2.96364,1.4954 0.94741,0 2.51409,0.87462 3.48151,1.94361 1.58896,1.75578 6.01115,3.08802 7.72807,2.32817 0.37238,-0.1648 1.21677,-1.98087 1.87643,-4.03571 z m 481.94653,216.58647 c -1.5723,-0.66078 -2.0162,-1.23146 -1.1963,-1.53783 1.9009,-0.71035 8.1963,0.64192 8.1963,1.7606 0,1.23848 -3.8117,1.11717 -7,-0.22277 z M 23.975,369.49587 c 0.33229,-0.33229 1.19479,-0.36781 1.91667,-0.0789 0.79773,0.31922 0.56078,0.55618 -0.60417,0.60416 -1.05416,0.0434 -1.64479,-0.19293 -1.3125,-0.52522 z m 11.85192,-9.62519 c 1.77968,-3.32537 3.32362,-4.59716 6.50645,-5.35956 l 2.8708,-0.68766 -2.40301,2.13829 c -1.32166,1.17606 -2.73167,2.13829 -3.13337,2.13829 -0.4017,0 -0.96571,0.9 -1.25337,2 -0.28766,1.1 -1.25597,2 -2.15181,2 -1.37479,0 -1.44274,-0.34768 -0.43569,-2.22936 z m 10.87725,-10.73546 c 0,-1.05175 3.22444,-3.03518 4.93426,-3.03518 1.66337,0 1.25042,2.71515 -0.51605,3.39301 -2.3522,0.90263 -4.41821,0.7353 -4.41821,-0.35783 z m 8.03976,-4.98006 c -1.24801,-0.79742 -1.17879,-1.2689 0.47624,-3.24407 1.06506,-1.27108 2.51183,-2.81225 3.21506,-3.42482 0.70323,-0.61258 3.86392,-3.38824 7.02377,-6.16815 9.11266,-8.01695 9.96353,-8.732 12.82823,-10.78044 2.62293,-1.87557 7.75338,-6.2685 13.36718,-11.44559 1.49573,-1.37938 4.36574,-3.62938 6.3778,-5 2.01206,-1.37063 3.66137,-3.02423 3.66513,-3.67466 0.004,-0.65044 0.83378,-1.44508 1.84449,-1.76586 1.01071,-0.32079 3.37321,-1.96607 5.25,-3.65617 1.87679,-1.69011 5.1527,-4.49547 7.2798,-6.23414 2.1271,-1.73867 4.38513,-3.6514 5.01785,-4.25051 0.63272,-0.5991 1.68497,-1.2741 2.33832,-1.5 1.43812,-0.49721 5.9138,-4.09815 11.38608,-9.16071 2.22942,-2.0625 4.36676,-3.75 4.74965,-3.75 0.38289,0 1.42744,-0.7875 2.32124,-1.75 0.89379,-0.9625 3.28388,-2.875 5.3113,-4.25 3.13651,-2.12719 6.70215,-4.93385 15.54175,-12.23353 0.8435,-0.69656 3.52836,-2.61647 5.96635,-4.26647 2.43799,-1.65 6.06112,-4.575 8.0514,-6.5 1.99028,-1.925 4.65902,-4.175 5.93053,-5 1.27151,-0.825 3.54574,-2.625 5.05384,-4 5.27967,-4.8137 11.19047,-9.51115 13.56693,-10.78194 1.31851,-0.70506 2.3973,-1.71756 2.3973,-2.25 0,-0.53243 0.5625,-0.97583 1.25,-0.98534 0.6875,-0.01 2.30973,-1.1345 3.60496,-2.5 1.29523,-1.36549 2.98273,-2.48272 3.75,-2.48272 0.76727,0 1.39504,-0.39187 1.39504,-0.87083 0,-0.47896 2.99177,-3.06646 6.64838,-5.75 3.65661,-2.68354 8.34633,-6.56667 10.4216,-8.62917 2.07527,-2.0625 4.26148,-3.75 4.85823,-3.75 0.59676,0 2.06319,-1.125 3.25874,-2.5 1.19555,-1.375 2.76757,-2.5 3.49339,-2.5 0.72581,0 1.31966,-0.49303 1.31966,-1.09563 0,-0.6026 0.84405,-2.2901 1.87566,-3.75 1.03162,-1.4599 2.20961,-4.19537 2.61777,-6.07881 0.40816,-1.88344 1.54508,-4.80844 2.52649,-6.5 0.98141,-1.69156 3.51591,-6.45056 5.63223,-10.57556 2.11632,-4.125 4.07412,-7.725 4.35066,-8 1.44213,-1.43406 5.99719,-8.74793 5.99719,-9.62944 0,-0.56206 1.172,-2.11287 2.60444,-3.44625 1.43244,-1.33337 3.61221,-4.44931 4.84392,-6.92431 3.37885,-6.78943 5.96773,-10.98663 6.78104,-10.99368 1.00132,-0.009 9.10784,-8.85761 9.96181,-10.87413 0.38017,-0.89771 2.51064,-3.65719 4.73438,-6.13219 2.22374,-2.475 4.0502,-4.90953 4.05879,-5.41006 0.0269,-1.56513 26.87977,-27.469144 30.28274,-29.212646 1.77808,-0.910998 3.49743,-2.064595 3.82077,-2.563549 0.32334,-0.498954 1.95057,-1.673664 3.61606,-2.610467 4.49325,-2.527363 12.58227,-7.910207 14.29605,-9.513319 0.825,-0.771725 2.80658,-1.718584 4.40352,-2.104131 1.59693,-0.385547 4.74693,-1.949553 7,-3.47557 2.25306,-1.526017 6.23398,-3.358587 8.84648,-4.072378 2.6125,-0.713792 4.75,-1.630838 4.75,-2.037881 0,-0.407043 2.1375,-1.284985 4.75,-1.950982 2.6125,-0.665998 5.94443,-1.84948 7.40429,-2.629961 1.45986,-0.780481 4.49132,-1.419057 6.73658,-1.419057 3.71988,0 4.21205,0.310568 5.54397,3.498292 1.3864,3.318123 1.30867,3.825262 -1.50922,9.846952 -1.63399,3.491763 -4.08571,7.395973 -5.44826,8.676022 -1.36255,1.280049 -2.47736,2.830488 -2.47736,3.445421 0,1.34402 -14.77623,16.533313 -16.0837,16.533313 -0.50396,0 -0.9163,0.642339 -0.9163,1.42742 0,0.785081 -1.125,2.312345 -2.5,3.39392 -1.375,1.081575 -2.5,2.433912 -2.5,3.005192 0,0.571281 -0.9909,1.353191 -2.20199,1.737577 -1.21109,0.384387 -6.19558,4.865357 -11.07662,9.957712 -5.98045,6.23935 -9.82801,9.4495 -11.79801,9.8435 -1.60786,0.32158 -2.92338,1.10683 -2.92338,1.74501 0,1.36205 -4.07398,5.32034 -6.39091,6.20943 -0.885,0.33961 -1.60909,1.2152 -1.60909,1.94577 0,0.73056 -1.41014,2.43218 -3.13364,3.78138 -1.7235,1.3492 -4.92644,4.14059 -7.11764,6.20309 -2.19121,2.0625 -4.22627,3.75 -4.52236,3.75 -0.29609,0 -2.30279,1.8 -4.45933,4 -2.15654,2.2 -4.38542,4 -4.95306,4 -1.06779,0 -4.4677,2.83627 -8.09139,6.75 -1.14579,1.2375 -2.53564,2.25 -3.08856,2.25 -0.55292,0 -3.14,1.8 -5.74907,4 -2.60907,2.2 -5.22553,4 -5.81436,4 -0.58882,0 -1.07059,0.59872 -1.07059,1.33048 0,0.73176 -2.1375,2.84366 -4.75,4.69309 -4.23013,2.99459 -6.83325,5.45135 -10.40701,9.82188 -1.67962,2.05408 -8.84299,15.30651 -8.84299,16.35976 0,0.51053 -1.01363,2.36071 -2.25251,4.11151 -3.38222,4.7798 -4.64145,6.86583 -6.24273,10.34166 -0.80027,1.73711 -1.8624,3.31211 -2.3603,3.5 -0.49789,0.18789 -3.21318,4.95412 -6.03398,10.59162 -4.31043,8.61461 -5.50172,10.25 -7.46659,10.25 -2.49842,0 -6.64389,-3.01515 -6.64389,-4.83235 0,-1.51679 2.85007,-10.28583 4.03151,-12.40408 3.31416,-5.94207 -1.65121,-7.82527 -7.21979,-2.73823 -1.82145,1.66393 -4.77238,3.55366 -6.55762,4.1994 -1.78525,0.64574 -3.47958,1.91033 -3.76519,2.81019 -0.60247,1.89823 -10.21863,9.96507 -11.87896,9.96507 -0.61644,0 -3.03177,1.8 -5.3674,4 -2.33563,2.2 -4.65706,4 -5.15873,4 -0.50166,0 -2.53394,1.575 -4.51616,3.5 -1.98222,1.925 -3.93356,3.5 -4.3363,3.5 -0.40273,0 -2.60287,1.70992 -4.88918,3.79981 -2.28632,2.0899 -6.08512,5.1274 -8.44178,6.75 -2.35666,1.62261 -5.66084,4.20991 -7.34262,5.74957 -1.68178,1.53967 -5.30778,4.35566 -8.05778,6.25776 -8.60857,5.95434 -9.91109,6.90157 -11.60952,8.44286 -0.90912,0.825 -2.71889,2.28471 -4.02171,3.2438 -1.30282,0.95909 -5.63417,4.33409 -9.62522,7.5 -11.78259,9.34658 -12.95337,10.20762 -14.8904,10.95092 -1.01634,0.39001 -2.79261,1.63074 -3.94728,2.75719 -2.54338,2.48123 -9.50599,8.41017 -12.63087,10.75571 -5.15687,3.87075 -9.29545,7.33857 -9.61235,8.05444 -0.18555,0.41913 -2.33818,2.13866 -4.78364,3.82118 -2.44545,1.68252 -6.34364,4.84404 -8.66264,7.02561 -2.319,2.18157 -7.40266,6.39244 -11.29702,9.35747 -3.89436,2.96504 -7.71936,6.32042 -8.5,7.4564 -1.01781,1.48109 -1.83246,1.80146 -2.87959,1.1324 z M 250.11505,195.08857 c 1.20391,-2.51288 2.59131,-3.98853 3.75,-3.98853 1.01152,0 1.83912,-0.40787 1.83912,-0.90638 0,-1.52524 -4.39373,0.11316 -6.23146,2.32368 -0.95231,1.14549 -2.11156,2.54244 -2.57612,3.10435 -0.90473,1.09432 -0.46261,3.48587 0.64091,3.46688 0.36667,-0.006 1.52657,-1.80631 2.57755,-4 z m 7.58912,-14.98853 c 0,-0.55 -0.47656,-1 -1.05902,-1 -0.58246,0 -0.7809,0.45 -0.44098,1 0.33992,0.55 0.81648,1 1.05902,1 0.24254,0 0.44098,-0.45 0.44098,-1 z m 6,-11.44831 c 0,-0.73165 1.54041,-2.55844 3.42313,-4.05953 1.98875,-1.58562 3.19975,-3.31134 2.89005,-4.11842 -0.2932,-0.76405 0.1914,-2.49487 1.07687,-3.84628 2.09821,-3.20227 2.18056,-7.68365 0.12671,-6.89552 -1.59459,0.6119 -8.51676,13.44224 -8.51676,15.78593 0,0.77851 -0.53096,1.59245 -1.17991,1.80877 -0.67864,0.22621 -0.89406,1.13821 -0.50706,2.14671 0.7346,1.91435 2.68697,1.31733 2.68697,-0.82166 z m 22.42764,-15.80169 c 3.92193,-3.87032 5.45096,-5.07948 8.4587,-6.68917 1.2432,-0.66534 3.9562,-2.86371 6.02887,-4.88527 10.54254,-10.28251 29.28579,-27.14046 30.19905,-27.16144 0.98068,-0.0225 10.88574,-10.03348 10.88574,-11.0021 0,-0.48249 0.91578,-1.1679 2.03506,-1.52315 1.69898,-0.53923 5.84623,-4.198196 15.10664,-13.328021 0.74706,-0.736532 2.9333,-3.034701 4.8583,-5.107042 1.925,-2.072341 6.7625,-7.184825 10.75,-11.361075 3.9875,-4.17625 7.25,-7.888121 7.25,-8.248602 0,-0.36048 1.13178,-2.070379 2.51507,-3.799775 3.86112,-4.827181 3.89111,-4.87481 5.8606,-9.30749 1.01736,-2.289724 1.57894,-4.601285 1.24798,-5.136804 -0.68254,-1.104358 -7.6791,1.024942 -10.99165,3.345143 -1.14236,0.800137 -3.1207,1.454795 -4.39632,1.454795 -1.27562,0 -3.28534,0.9 -4.46605,2 -1.18072,1.1 -3.1869,2 -4.45819,2 -1.27129,0 -2.31144,0.377768 -2.31144,0.839485 0,1.108414 -4.5756,3.160515 -7.04705,3.160515 -1.07412,0 -1.95295,0.630979 -1.95295,1.402175 0,0.771196 -1.3904,1.886871 -3.08978,2.479278 -1.69938,0.592406 -3.89966,2.106705 -4.88952,3.365107 -0.98986,1.258402 -5.25894,4.020769 -9.48684,6.138593 -4.2279,2.117825 -7.91919,4.455418 -8.20286,5.194651 -0.28367,0.739234 -1.48669,1.639418 -2.67338,2.00041 -3.1227,0.949923 -5.65762,3.447728 -5.65762,5.574774 0,1.014756 -0.45,1.845012 -1,1.845012 -0.55,0 -1,0.675 -1,1.5 0,0.825 -0.47152,1.5 -1.04782,1.5 -0.5763,0 -2.9607,2.025 -5.29866,4.5 -2.33796,2.475 -4.6435,4.500001 -5.12343,4.500001 -1.77117,0 -4.53009,3.37799 -4.53009,5.54658 0,1.60484 0.7752,2.43117 2.74441,2.92541 3.23098,0.81092 5.26389,2.32568 5.23467,3.90045 -0.0115,0.62016 -3.38651,4.71143 -7.5,9.09171 -4.11349,4.38029 -7.47908,8.12281 -7.47908,8.31673 0,0.19391 -1.125,1.82751 -2.5,3.63023 -1.375,1.80272 -2.5,3.57165 -2.5,3.93097 0,0.35931 -1.575,2.84558 -3.5,5.52504 -1.925,2.67945 -3.5,5.45756 -3.5,6.17357 0,0.71601 -0.62177,2.01226 -1.38172,2.88057 -1.98783,2.27128 -3.0016,6.07874 -1.61852,6.07874 0.624,0 2.61655,-1.4625 4.42788,-3.25 z m -10.10621,-7.03867 c 1.90271,-2.08045 3.60366,-5.45291 3.03638,-6.02019 -0.28846,-0.28846 -1.42448,0.37553 -2.52448,1.47553 -1.1,1.1 -1.7414,2.25859 -1.42534,2.57465 0.31606,0.31607 0.0735,1.17857 -0.53911,1.91667 -1.42567,1.71782 -0.11379,1.766 1.45255,0.0533 z m 838.9682,82.94049 c -2.3158,-0.6335 -4.7683,-1.71432 -5.45,-2.40182 -0.6818,-0.6875 -3.0846,-1.25 -5.3396,-1.25 -2.255,0 -4.5275,-0.39047 -5.05,-0.8677 -0.5225,-0.47724 -4.4375,-1.66945 -8.7,-2.64937 -4.2625,-0.97992 -7.75,-2.10986 -7.75,-2.51098 0,-1.03597 -4.2688,-2.44518 -13.5,-4.45664 -4.4,-0.95875 -8.5625,-1.90278 -9.25,-2.09786 -0.6875,-0.19507 -1.25,-1.6288 -1.25,-3.18607 0,-5.13585 -1.6698,-5.14333 -7.1142,-0.0319 -5.6409,5.29602 -8.9917,6.03657 -15.3303,3.38815 -5.1251,-2.14142 -7.5555,-5.06917 -7.5555,-9.10167 0,-3.66627 3.6561,-10.45208 5.643,-10.4736 0.6287,-0.007 1.402,-0.68738 1.7186,-1.51238 0.3166,-0.825 1.1523,-1.50277 1.857,-1.50616 0.7048,-0.003 2.6314,-0.71153 4.2814,-1.57365 2.1883,-1.14339 5.2582,-1.49013 11.3466,-1.28157 l 8.3465,0.28591 2.3347,-3.86834 c 1.284,-2.12758 3.1113,-6.8356 4.0605,-10.46226 1.8802,-7.18306 4.3148,-10.03622 8.5943,-10.07169 3.4725,-0.0288 4.1295,2.12416 2.7598,9.0438 -0.5916,2.98868 -1.2931,6.55896 -1.5588,7.93396 -0.2658,1.375 -1.3517,4.3108 -2.4132,6.52399 -1.0615,2.2132 -2.2389,5.56843 -2.6164,7.45608 -0.3775,1.88764 -1.2839,4.57684 -2.0141,5.976 -1.4803,2.83655 -1.6992,5.93053 -0.5477,7.74187 0.4188,0.65886 4.5744,2.37853 9.2346,3.82148 4.6603,1.44295 10.2732,3.45016 12.4732,4.46047 5.1091,2.34625 12.563,4.82652 16.6904,5.55365 1.7708,0.31198 4.5899,1.18155 6.2647,1.93239 1.6747,0.75083 5.2949,1.67027 8.0449,2.0432 4.9379,0.66962 7.5,1.90399 7.5,3.61331 0,1.23204 -10.653,0.91292 -15.7104,-0.47062 z m -70.5867,-22.82478 c 1.5384,-0.64512 4.7096,-3.17326 7.0471,-5.61809 4.0931,-4.28107 5.0896,-6.0813 3.5,-6.32297 -5.0786,-0.77209 -6.7505,-0.49617 -10.0394,1.65682 -5.721,3.74507 -6.2106,4.32951 -6.2106,7.41329 0,1.58249 0.5625,3.10422 1.25,3.38163 0.6875,0.27741 1.3413,0.53991 1.4529,0.58333 0.1117,0.0434 1.4617,-0.44888 3,-1.09401 z m 22.2971,-3.82704 c 0,-0.55 -0.45,-1 -1,-1 -0.55,0 -1,0.45 -1,1 0,0.55 0.45,1 1,1 0.55,0 1,-0.45 1,-1 z m 3.5102,-9.0165 c 1.143,-1.84947 1.5456,-5.9835 0.5826,-5.9835 -0.771,0 -4.0928,5.40023 -4.0928,6.65364 0,0.81656 2.938,0.25566 3.5102,-0.67014 z m -201.25393,28.03551 c -8.7528,-1.33372 -10.1594,-1.93097 -11.7381,-4.98384 -2.1767,-4.20934 -1.9414,-5.30666 2.0443,-9.53278 2.0844,-2.21005 3.1928,-4.14704 2.6716,-4.66832 -0.4901,-0.49003 -6.9307,-0.94922 -14.3125,-1.02041 -17.4131,-0.16795 -93.07607,1.02587 -112.4216,1.77379 -8.25,0.31895 -16.125,0.53777 -17.5,0.48625 -2.70711,-0.10142 -10.07876,2.16432 -16.56572,5.09161 -2.23615,1.00908 -4.71473,1.83469 -5.50796,1.83469 -0.79323,0 -3.62006,1.15935 -6.28186,2.57633 -4.50727,2.39941 -5.18061,2.49453 -9.80496,1.38517 -3.97777,-0.95426 -4.83181,-1.5164 -4.29397,-2.82634 0.36925,-0.89934 1.08923,-3.0814 1.59995,-4.84903 0.51072,-1.76762 1.36191,-3.48168 1.89155,-3.80901 0.52963,-0.32734 0.96297,-1.51163 0.96297,-2.63177 0,-1.12013 0.7875,-3.23301 1.75,-4.69527 5.17871,-7.86768 5.60406,-8.78502 4.91094,-10.59128 -0.45642,-1.18942 -2.78988,-1.35072 -13.35699,-0.92334 -7.04217,0.28482 -13.70395,0.96025 -14.80395,1.50095 -1.1,0.54071 -3.35,3.76871 -5,7.17335 -2.95796,6.10349 -5.63205,7.95863 -6.32033,4.3847 -0.19124,-0.99305 0.5901,-3.80064 1.73631,-6.2391 1.14621,-2.43846 2.08402,-5.96098 2.08402,-7.82783 0,-4.49755 0.74843,-4.67385 21.73945,-5.12071 15.77695,-0.33586 17.58801,-0.56289 21.34804,-2.67615 2.25972,-1.27003 4.79533,-3.66399 5.63469,-5.31991 2.01592,-3.97706 12.30393,-17.65691 14.52782,-19.31746 0.9625,-0.71869 1.75,-1.76344 1.75,-2.32167 0,-0.55824 1.9949,-3.12022 4.43311,-5.6933 2.43822,-2.57308 6.15072,-6.52147 8.25,-8.77421 2.09929,-2.25273 6.51689,-6.07517 9.81689,-8.49431 3.3,-2.41914 6.32109,-4.851 6.71353,-5.40413 0.39243,-0.55312 3.83269,-1.00568 7.64501,-1.00568 10.01257,0 10.98728,1.11713 10.78599,12.36195 -0.13657,7.62933 -0.47132,9.14643 -2.65042,12.01177 -3.87485,5.09511 -16.64451,18.12628 -17.76252,18.12628 -0.55087,0 -1.7387,1.125 -2.63963,2.5 -0.90094,1.375 -2.31682,2.5 -3.1464,2.5 -0.82958,0 -1.76735,0.675 -2.08393,1.5 -0.31659,0.825 -1.09663,1.5 -1.73343,1.5 -0.6368,0 -2.83702,0.9 -4.88938,2 -2.05237,1.1 -4.8031,2 -6.11275,2 -1.30965,0 -2.94138,0.675 -3.62607,1.5 -0.68469,0.825 -1.99289,1.5 -2.9071,1.5 -5.67706,0 -19.0929,7.18874 -19.0929,10.23074 0,0.4711 -1.1659,2.07441 -2.59088,3.5629 -2.87815,3.00643 -6.40912,10.32787 -6.40912,13.28927 0,2.31092 2.6316,2.51433 6.66896,0.51547 6.07973,-3.01002 10.50102,-4.59838 12.79987,-4.59838 1.32053,0 3.66777,-0.49262 5.21607,-1.09471 1.87593,-0.7295 17.16077,-1.11073 45.8151,-1.14271 23.65,-0.0264 47.725,-0.38347 53.5,-0.7935 5.913,-0.41984 10.915,-0.3575 11.45,0.1427 1.3467,1.25912 7.2987,1.10383 8.1117,-0.21164 0.4787,-0.77457 6.3372,-0.90964 19.809,-0.45671 10.5211,0.35373 20.9293,0.54865 23.1293,0.43315 2.2,-0.11551 5.35,-0.11623 7,-0.002 1.65,0.11462 5.1651,0.21924 7.8114,0.23249 3.272,0.0164 4.675,0.40298 4.3851,1.20832 -0.2344,0.65133 -0.044,1.92828 0.4221,2.83768 0.7124,1.38834 0.01,1.81271 -4.3851,2.64672 -2.8784,0.54631 -7.6765,1.66973 -10.6625,2.49649 -2.9859,0.82677 -6.0234,1.2751 -6.75,0.99629 -0.7265,-0.27881 -1.321,-0.081 -1.321,0.43955 0,0.52056 -1.125,1.45905 -2.5,2.08555 -1.6186,0.73749 -2.5,1.95517 -2.5,3.45392 0,1.87085 0.7978,2.5278 4.1597,3.42513 6.7504,1.80178 19.8422,-2.4276 25.7267,-8.31112 1.3125,-1.31229 2.9518,-2.38598 3.643,-2.38598 0.6911,0 1.5156,-0.675 1.8322,-1.5 0.3166,-0.825 1.0172,-1.5 1.5569,-1.5 1.9775,0 10.2683,-6.31587 11.3196,-8.6232 0.8936,-1.96121 1.8281,-2.3768 5.3449,-2.3768 3.9594,0 4.3415,0.24111 5.3829,3.39668 0.7321,2.21829 2.1143,3.8081 3.9841,4.5826 2.8277,1.1713 3.4846,1.12202 22.05,-1.65424 1.925,-0.28787 5.3,-1.11273 7.5,-1.83304 2.2,-0.72031 5.575,-1.62764 7.5,-2.0163 1.925,-0.38865 3.95,-1.05821 4.5,-1.4879 0.55,-0.42969 3.025,-1.36084 5.5,-2.06924 2.475,-0.70839 5.3876,-1.87986 6.4725,-2.60327 1.0849,-0.72341 2.999,-1.31529 4.25363,-1.31529 1.2546,0 3.9604,-0.9 6.0127,-2 4.6822,-2.50949 9.3149,-2.55534 12.1229,-0.11999 2.6728,2.31815 1.9775,4.52975 -1.9336,6.14975 -1.6104,0.66709 -2.9281,1.83329 -2.9281,2.59156 0,0.75827 -0.3953,1.37868 -0.8784,1.37868 -1.0318,0 -3.2316,8.01296 -2.5172,9.16898 0.2685,0.43433 -0.012,1.72442 -0.6236,2.86687 -0.8911,1.66501 -0.6995,2.7757 0.9653,5.59744 2.5104,4.2548 2.0012,5.36671 -2.4581,5.36671 -5.4134,0 -8.72203,-1.9317 -8.0301,-4.68837 0.3315,-1.32059 0.1282,-2.31163 -0.47403,-2.31163 -0.7324,0 -0.7383,-0.59046 -0.019,-1.93426 0.56933,-1.06346 1.03513,-3.34304 1.03513,-5.06536 0,-3.21521 1.53,-6.99857 3.2954,-8.14908 1.5116,-0.98505 0.01,-3.85182 -2.014,-3.84433 -0.9798,0.004 -3.13143,0.90066 -4.78143,1.99341 -1.65,1.09275 -3.675,1.99256 -4.5,1.99957 -0.825,0.007 -2.85,0.72509 -4.5,1.59572 -1.65,0.87063 -6.15,2.40317 -10,3.40564 -3.85,1.00248 -8.2276,2.29748 -9.7281,2.87779 -1.5004,0.5803 -5.6255,1.55966 -9.1668,2.17636 -7.2665,1.26541 -15.3943,0.0901 -21.7709,-3.14817 -4.542,-2.30663 -8.0207,-1.34511 -13.5537,3.74625 -2.0793,1.91333 -5.0343,3.7336 -6.5667,4.04505 -1.5324,0.31145 -4.077,2.13226 -5.6547,4.04625 -2.0348,2.46855 -3.7591,3.52478 -5.9327,3.63409 -1.6853,0.0848 -3.6407,0.89411 -4.3453,1.79856 -1.5805,2.02881 -11.0918,2.97451 -18.5248,1.8419 z m -147.9646,-54.07542 c 10.86001,-5.34648 16.70302,-8.5936 18.48062,-10.27016 8.00945,-7.5542 12.22768,-11.89611 12.22768,-12.58619 0,-0.44964 0.90995,-1.97433 2.02211,-3.38821 1.96751,-2.50129 3.37929,-11.48941 2.262,-14.40103 -0.76333,-1.98922 -6.04005,-1.54206 -8.28411,0.702 -1.1,1.1 -2.3375,2.01422 -2.75,2.0316 -1.22421,0.0516 -6.25,4.78668 -6.25,5.8885 0,0.55881 -1.03738,1.5929 -2.30529,2.29796 -2.75131,1.52997 -10.69471,10.08054 -10.69471,11.51219 0,0.55363 -1.92099,2.9783 -4.26887,5.38817 -5.69597,5.84635 -11.73113,13.46025 -11.73113,14.79988 0,1.98987 5.02299,1.11144 11.2917,-1.97471 z"
     id="path2987"
     inkscape:connector-curvature="0" />
</svg>
