<?xml version="1.0" encoding="UTF-8" standalone="no"?>
<!-- Created with Inkscape (http://www.inkscape.org/) -->

<svg
   xmlns:dc="http://purl.org/dc/elements/1.1/"
   xmlns:cc="http://creativecommons.org/ns#"
   xmlns:rdf="http://www.w3.org/1999/02/22-rdf-syntax-ns#"
   xmlns:svg="http://www.w3.org/2000/svg"
   xmlns="http://www.w3.org/2000/svg"
   xmlns:sodipodi="http://sodipodi.sourceforge.net/DTD/sodipodi-0.dtd"
   xmlns:inkscape="http://www.inkscape.org/namespaces/inkscape"
   version="1.0"
   width="175"
   height="40"
   id="svg1306"
   inkscape:version="0.47 r22583"
   sodipodi:docname="Defaut.svg">
  <metadata
     id="metadata10">
    <rdf:RDF>
      <cc:Work
         rdf:about="">
        <dc:format>image/svg+xml</dc:format>
        <dc:type
           rdf:resource="http://purl.org/dc/dcmitype/StillImage" />
      </cc:Work>
    </rdf:RDF>
  </metadata>
  <sodipodi:namedview
     pagecolor="#ffffff"
     bordercolor="#666666"
     borderopacity="1"
     objecttolerance="10"
     gridtolerance="10"
     guidetolerance="10"
     inkscape:pageopacity="0"
     inkscape:pageshadow="2"
     inkscape:window-width="1280"
     inkscape:window-height="750"
     id="namedview8"
     showgrid="false"
     inkscape:zoom="2.6222222"
     inkscape:cx="102.33403"
     inkscape:cy="38.51695"
     inkscape:window-x="-8"
     inkscape:window-y="-8"
     inkscape:window-maximized="1"
     inkscape:current-layer="svg1306" />
  <defs
     id="defs1308">
    <inkscape:perspective
       sodipodi:type="inkscape:persp3d"
       inkscape:vp_x="0 : 45 : 1"
       inkscape:vp_y="0 : 1000 : 0"
       inkscape:vp_z="175 : 45 : 1"
       inkscape:persp3d-origin="87.5 : 30 : 1"
       id="perspective12" />
  </defs>
  <g
     id="text2823"
     style="font-size:12px;font-style:normal;font-variant:normal;font-weight:normal;font-stretch:normal;text-align:center;line-height:100%;writing-mode:lr-tb;text-anchor:middle;opacity:0.75;fill:#000000;fill-opacity:1;stroke:none;font-family:Tahoma;-inkscape-font-specification:Tahoma"
     transform="matrix(1.0575346,0,0,1.0575346,-5.0342759,-20.474569)">
    <path
       id="path2817"
       d="m 17.741211,36.921986 c -0.511722,-10e-7 -0.958987,-0.06738 -1.341797,-0.202149 -0.382815,-0.134765 -0.708986,-0.33496 -0.978516,-0.600586 -0.304688,-0.304686 -0.519532,-0.668944 -0.644531,-1.092773 -0.125001,-0.423826 -0.187501,-0.946287 -0.1875,-1.567383 l 0,-5.443359 1.160156,0 0,5.443359 c -2e-6,0.402347 0.02539,0.741213 0.07617,1.016602 0.05078,0.275392 0.150389,0.522462 0.298828,0.741211 0.156248,0.234376 0.368162,0.41211 0.635743,0.533203 0.267575,0.121094 0.594723,0.181641 0.981445,0.18164 0.363277,1e-6 0.685542,-0.06055 0.966797,-0.18164 0.281245,-0.121093 0.499994,-0.298827 0.65625,-0.533203 0.144525,-0.222655 0.243158,-0.468749 0.295898,-0.738282 0.05273,-0.269528 0.0791,-0.599606 0.0791,-0.990234 l 0,-5.472656 1.160156,0 0,5.443359 c -7e-6,0.605471 -0.06153,1.125002 -0.18457,1.558594 -0.123054,0.433595 -0.338874,0.800782 -0.647461,1.101562 -0.27735,0.269532 -0.600592,0.470704 -0.969727,0.603516 -0.369145,0.132812 -0.821293,0.199218 -1.356445,0.199219 z" />
    <path
       id="path2819"
       d="m 27.625977,36.740345 -1.101563,0 0,-3.726562 c -5e-6,-0.300778 -0.01465,-0.581051 -0.04395,-0.840821 -0.0293,-0.259761 -0.08497,-0.467768 -0.166992,-0.624023 -0.08985,-0.164057 -0.214849,-0.286128 -0.375,-0.366211 -0.160161,-0.08007 -0.378911,-0.120112 -0.65625,-0.120117 -0.273441,5e-6 -0.555668,0.07325 -0.84668,0.219726 -0.291018,0.14649 -0.575198,0.336919 -0.852539,0.571289 l 0,4.886719 -1.101563,0 0,-6.544922 1.101563,0 0,0.726563 c 0.328123,-0.292963 0.652341,-0.517572 0.972656,-0.673828 0.320309,-0.156244 0.6582,-0.234369 1.013672,-0.234375 0.644527,6e-6 1.148432,0.21192 1.511719,0.635742 0.363275,0.423833 0.544916,1.038091 0.544922,1.842773 z" />
    <path
       id="path2821"
       d="m 32.026367,36.892689 c -1.042971,0 -1.852541,-0.293945 -2.428711,-0.881836 -0.576172,-0.587889 -0.864258,-1.42285 -0.864258,-2.504883 0,-1.066402 0.279297,-1.915034 0.837891,-2.545898 0.558592,-0.630853 1.28906,-0.946283 2.191406,-0.946289 0.406247,6e-6 0.765621,0.0586 1.078125,0.175781 0.312496,0.117194 0.585933,0.300787 0.820313,0.550781 0.234369,0.250006 0.414057,0.55567 0.539062,0.916992 0.124994,0.361333 0.187494,0.803715 0.1875,1.327149 l 0,0.597656 -4.535156,0 c -1e-6,0.761721 0.191405,1.343752 0.574219,1.746094 0.38281,0.402344 0.912106,0.603516 1.58789,0.603515 0.242184,1e-6 0.479489,-0.02734 0.711914,-0.08203 0.232418,-0.05469 0.442379,-0.124999 0.629883,-0.210937 0.199214,-0.08984 0.367182,-0.176757 0.503907,-0.260743 0.136713,-0.08398 0.249994,-0.163084 0.339843,-0.237304 l 0.06445,0 0,1.201172 c -0.128912,0.05078 -0.289068,0.114258 -0.480468,0.190429 -0.191412,0.07617 -0.363287,0.135742 -0.515625,0.178711 -0.214849,0.05859 -0.409184,0.103516 -0.583008,0.134766 -0.173832,0.03125 -0.393559,0.04687 -0.65918,0.04687 z m 1.289063,-4.154297 c -0.0078,-0.296871 -0.04297,-0.55273 -0.105469,-0.767578 -0.06251,-0.214839 -0.152348,-0.396479 -0.269531,-0.544922 -0.128911,-0.164057 -0.29395,-0.289057 -0.495118,-0.375 -0.201175,-0.08593 -0.450198,-0.128901 -0.74707,-0.128906 -0.292972,5e-6 -0.541995,0.04395 -0.74707,0.131836 -0.205081,0.0879 -0.391604,0.215825 -0.55957,0.383789 -0.164065,0.17188 -0.289065,0.362309 -0.375,0.571289 -0.08594,0.208989 -0.140627,0.452152 -0.164063,0.729492 z" />
    <path
       id="path2823"
       d="m 40.387695,36.740345 -1.101562,0 0,-6.544922 1.101562,0 z m 0.07617,-7.640625 -1.253906,0 0,-1.142578 1.253906,0 z" />
    <path
       id="path2825"
       d="m 43.129883,36.740345 -1.101563,0 0,-9.117187 1.101563,0 z" />
    <path
       id="path2827"
       d="m 45.87207,36.740345 -1.101562,0 0,-9.117187 1.101562,0 z" />
    <path
       id="path2829"
       d="m 52.586914,36.740345 -1.101562,0 0,-0.726562 c -0.339849,0.296875 -0.662114,0.522461 -0.966797,0.676757 -0.304691,0.154297 -0.644535,0.231445 -1.019532,0.231446 -0.285158,-10e-7 -0.553713,-0.04688 -0.805664,-0.140625 -0.251954,-0.09375 -0.471681,-0.242188 -0.659179,-0.445313 -0.187501,-0.203124 -0.333009,-0.458983 -0.436524,-0.767578 -0.103516,-0.308592 -0.155274,-0.683592 -0.155273,-1.125 l 0,-4.248047 1.101562,0 0,3.726563 c -2e-6,0.347658 0.01269,0.635744 0.03809,0.864257 0.02539,0.228518 0.08301,0.428713 0.172852,0.600586 0.08984,0.16797 0.211912,0.291017 0.366211,0.369141 0.154294,0.07813 0.375974,0.117188 0.665039,0.117188 0.269528,0 0.556637,-0.07617 0.861328,-0.228516 0.304683,-0.152343 0.58398,-0.339842 0.837891,-0.5625 l 0,-4.886719 1.101562,0 z" />
    <path
       id="path2831"
       d="m 55.961914,36.898548 c -0.437502,0 -0.846681,-0.05859 -1.227539,-0.175781 -0.38086,-0.117187 -0.69629,-0.242187 -0.946289,-0.375 l 0,-1.236328 0.05859,0 c 0.09375,0.07422 0.204101,0.156251 0.331054,0.246094 0.126953,0.08985 0.295898,0.183594 0.506836,0.28125 0.187499,0.08594 0.393553,0.16211 0.618164,0.228515 0.224608,0.06641 0.458006,0.09961 0.700196,0.09961 0.175778,0 0.363278,-0.02051 0.5625,-0.06152 0.199215,-0.04101 0.347652,-0.09277 0.445312,-0.155273 0.136715,-0.08984 0.235348,-0.185546 0.295899,-0.28711 0.06054,-0.101561 0.09082,-0.253904 0.09082,-0.457031 -4e-6,-0.261717 -0.07129,-0.458982 -0.213867,-0.591797 -0.142582,-0.13281 -0.395511,-0.244138 -0.758789,-0.333984 -0.140628,-0.03515 -0.324222,-0.07617 -0.550782,-0.123047 -0.226564,-0.04687 -0.435548,-0.09765 -0.626953,-0.152344 -0.500001,-0.144528 -0.863282,-0.368161 -1.089843,-0.670898 -0.226563,-0.302731 -0.339845,-0.668941 -0.339844,-1.098633 -1e-6,-0.589839 0.222655,-1.070307 0.667969,-1.441406 0.445311,-0.371088 1.037107,-0.556634 1.77539,-0.556641 0.363278,7e-6 0.728512,0.04493 1.095703,0.134766 0.367183,0.08985 0.675777,0.203131 0.925782,0.339843 l 0,1.177735 -0.05859,0 c -0.281255,-0.222651 -0.594731,-0.398432 -0.94043,-0.527344 -0.345707,-0.128901 -0.694339,-0.193354 -1.045898,-0.193359 -0.363284,5e-6 -0.669924,0.07618 -0.919922,0.228515 -0.250002,0.152349 -0.375002,0.382818 -0.375,0.691407 -2e-6,0.273442 0.07422,0.477543 0.222656,0.612304 0.148436,0.13477 0.386717,0.245121 0.714844,0.331055 0.16406,0.04297 0.346677,0.08497 0.547851,0.125976 0.201169,0.04102 0.413083,0.08887 0.635743,0.143555 0.48437,0.121097 0.848628,0.322269 1.092773,0.603516 0.244136,0.281253 0.366206,0.664065 0.366211,1.148437 -5e-6,0.281252 -0.05567,0.547853 -0.166992,0.799805 -0.111333,0.251954 -0.274419,0.467774 -0.489258,0.647461 -0.234379,0.195313 -0.499027,0.34375 -0.793945,0.445312 -0.294926,0.101563 -0.665042,0.152344 -1.110352,0.152344 z" />
    <path
       id="path2833"
       d="m 61.540039,36.869251 c -0.601565,0 -1.070314,-0.170898 -1.40625,-0.512695 -0.335938,-0.341796 -0.503907,-0.881835 -0.503906,-1.620117 l 0,-3.626953 -0.744141,0 0,-0.914063 0.744141,0 0,-1.880859 1.101562,0 0,1.880859 2.027344,0 0,0.914063 -2.027344,0 0,3.111328 c -2e-6,0.332033 0.0059,0.587892 0.01758,0.767578 0.01172,0.179689 0.05664,0.347658 0.134766,0.503906 0.0664,0.13672 0.173826,0.239259 0.322266,0.307617 0.148435,0.06836 0.349606,0.10254 0.603515,0.102539 0.179685,1e-6 0.353513,-0.02637 0.521485,-0.0791 0.167965,-0.05273 0.289058,-0.09668 0.363281,-0.131836 l 0.06445,0 0,0.990234 c -0.207035,0.05859 -0.416996,0.104492 -0.629883,0.137696 -0.212894,0.0332 -0.409182,0.0498 -0.588867,0.0498 z" />
    <path
       id="path2835"
       d="m 67.036133,31.379017 -0.05859,0 c -0.08203,-0.02343 -0.168949,-0.03808 -0.260742,-0.04395 -0.0918,-0.0059 -0.202152,-0.0088 -0.331055,-0.0088 -0.296878,5e-6 -0.5918,0.06446 -0.884765,0.193359 -0.292972,0.128911 -0.570315,0.320317 -0.832032,0.574219 l 0,4.646484 -1.101562,0 0,-6.544922 1.101562,0 0,0.972656 c 0.402342,-0.355462 0.752927,-0.606439 1.051758,-0.752929 0.298825,-0.146478 0.588864,-0.21972 0.870117,-0.219727 0.113278,7e-6 0.198238,0.0029 0.254883,0.0088 0.05664,0.0059 0.120113,0.01466 0.19043,0.02637 z" />
    <path
       id="path2837"
       d="m 71.55957,35.129017 0,-1.816406 c -0.261723,0.02344 -0.592777,0.05567 -0.993164,0.09668 -0.400393,0.04102 -0.723635,0.09864 -0.969726,0.172852 -0.292971,0.08985 -0.535159,0.227542 -0.726563,0.413086 -0.191408,0.185549 -0.287111,0.444338 -0.287109,0.776367 -2e-6,0.375002 0.105467,0.658204 0.316406,0.849609 0.210936,0.191408 0.519529,0.287111 0.925781,0.28711 0.347653,10e-7 0.662106,-0.07519 0.94336,-0.225586 0.281246,-0.15039 0.544917,-0.33496 0.791015,-0.553711 z m 0,0.914062 c -0.08985,0.06641 -0.209965,0.159181 -0.360351,0.278321 -0.150395,0.119141 -0.295902,0.213867 -0.436524,0.284179 -0.195316,0.101563 -0.383792,0.179688 -0.565429,0.234375 -0.181644,0.05469 -0.436526,0.08203 -0.764649,0.08203 -0.269533,-1e-6 -0.525392,-0.05078 -0.767578,-0.152344 -0.242189,-0.101563 -0.455079,-0.244141 -0.638672,-0.427734 -0.175782,-0.179687 -0.316407,-0.401367 -0.421875,-0.66504 -0.105469,-0.26367 -0.158203,-0.54199 -0.158203,-0.83496 0,-0.453123 0.0957,-0.838865 0.287109,-1.157227 0.191406,-0.318356 0.49414,-0.571285 0.908204,-0.758789 0.367185,-0.167965 0.800778,-0.284176 1.300781,-0.348633 0.499996,-0.06445 1.039058,-0.1123 1.617187,-0.143555 l 0,-0.210937 c -4e-6,-0.257808 -0.03907,-0.465815 -0.117187,-0.624024 -0.07813,-0.158197 -0.187504,-0.280268 -0.328125,-0.36621 -0.140629,-0.08984 -0.312504,-0.149409 -0.515625,-0.178711 -0.203128,-0.02929 -0.412113,-0.04394 -0.626953,-0.04395 -0.253909,6e-6 -0.552737,0.03809 -0.896485,0.114258 -0.343751,0.07618 -0.687501,0.186529 -1.03125,0.331055 l -0.06445,0 0,-1.119141 c 0.203124,-0.05859 0.494139,-0.12304 0.873047,-0.193359 0.378904,-0.07031 0.753904,-0.105462 1.125,-0.105469 0.449215,7e-6 0.828121,0.03516 1.136719,0.105469 0.308589,0.07032 0.585933,0.197272 0.832031,0.380859 0.238276,0.179694 0.41601,0.412115 0.533203,0.697266 0.117182,0.285161 0.175776,0.632817 0.175781,1.042969 l 0,4.476562 -1.095703,0 z" />
    <path
       id="path2839"
       d="m 76.188477,36.869251 c -0.601565,0 -1.070315,-0.170898 -1.40625,-0.512695 -0.335939,-0.341796 -0.503908,-0.881835 -0.503907,-1.620117 l 0,-3.626953 -0.74414,0 0,-0.914063 0.74414,0 0,-1.880859 1.101563,0 0,1.880859 2.027344,0 0,0.914063 -2.027344,0 0,3.111328 c -2e-6,0.332033 0.0059,0.587892 0.01758,0.767578 0.01172,0.179689 0.05664,0.347658 0.134766,0.503906 0.0664,0.13672 0.173825,0.239259 0.322265,0.307617 0.148435,0.06836 0.349607,0.10254 0.603516,0.102539 0.179684,1e-6 0.353512,-0.02637 0.521484,-0.0791 0.167965,-0.05273 0.289059,-0.09668 0.363281,-0.131836 l 0.06445,0 0,0.990234 c -0.207035,0.05859 -0.416996,0.104492 -0.629883,0.137696 -0.212894,0.0332 -0.409183,0.0498 -0.588867,0.0498 z" />
    <path
       id="path2841"
       d="m 79.34082,36.740345 -1.101562,0 0,-6.544922 1.101562,0 z m 0.07617,-7.640625 -1.253906,0 0,-1.142578 1.253906,0 z" />
    <path
       id="path2843"
       d="m 86.342773,33.470814 c -6e-6,1.101564 -0.26563,1.95215 -0.796875,2.551758 -0.531254,0.599609 -1.238285,0.899413 -2.121093,0.899414 -0.910159,-10e-7 -1.625979,-0.309571 -2.147461,-0.928711 -0.521485,-0.61914 -0.782227,-1.459959 -0.782227,-2.522461 0,-1.093746 0.268554,-1.943354 0.805664,-2.548828 0.537108,-0.605463 1.245115,-0.908197 2.124024,-0.908203 0.882808,6e-6 1.589839,0.301764 2.121093,0.905273 0.531245,0.603521 0.796869,1.454106 0.796875,2.551758 z m -1.136718,0 c -5e-6,-0.847652 -0.154302,-1.477535 -0.462891,-1.889649 -0.308598,-0.412103 -0.748051,-0.618158 -1.318359,-0.618164 -0.574222,6e-6 -1.016604,0.206061 -1.327149,0.618164 -0.310548,0.412114 -0.465822,1.041997 -0.46582,1.889649 -2e-6,0.820315 0.155272,1.442384 0.46582,1.866211 0.310545,0.423829 0.752927,0.635743 1.327149,0.635742 0.566402,1e-6 1.004878,-0.208007 1.315429,-0.624024 0.310542,-0.416013 0.465816,-1.041989 0.465821,-1.877929 z" />
    <path
       id="path2845"
       d="m 92.618164,36.740345 -1.101562,0 0,-3.726562 c -5e-6,-0.300778 -0.01465,-0.581051 -0.04395,-0.840821 -0.0293,-0.259761 -0.08496,-0.467768 -0.166992,-0.624023 -0.08985,-0.164057 -0.214848,-0.286128 -0.375,-0.366211 -0.16016,-0.08007 -0.37891,-0.120112 -0.65625,-0.120117 -0.273441,5e-6 -0.555667,0.07325 -0.84668,0.219726 -0.291018,0.14649 -0.575197,0.336919 -0.852539,0.571289 l 0,4.886719 -1.101562,0 0,-6.544922 1.101562,0 0,0.726563 c 0.328123,-0.292963 0.652342,-0.517572 0.972657,-0.673828 0.320309,-0.156244 0.658199,-0.234369 1.013671,-0.234375 0.644527,6e-6 1.148433,0.21192 1.511719,0.635742 0.363276,0.423833 0.544916,1.038091 0.544922,1.842773 z" />
    <path
       id="path2847"
       d="m 99.696289,36.898548 c -0.437502,0 -0.846681,-0.05859 -1.227539,-0.175781 -0.38086,-0.117187 -0.69629,-0.242187 -0.946289,-0.375 l 0,-1.236328 0.05859,0 c 0.09375,0.07422 0.204101,0.156251 0.331054,0.246094 0.126953,0.08985 0.295898,0.183594 0.506836,0.28125 0.187499,0.08594 0.393553,0.16211 0.618164,0.228515 0.224608,0.06641 0.458006,0.09961 0.700196,0.09961 0.175778,0 0.363279,-0.02051 0.562499,-0.06152 0.19922,-0.04101 0.34766,-0.09277 0.44532,-0.155273 0.13671,-0.08984 0.23534,-0.185546 0.2959,-0.28711 0.0605,-0.101561 0.0908,-0.253904 0.0908,-0.457031 -1e-5,-0.261717 -0.0713,-0.458982 -0.21387,-0.591797 -0.14258,-0.13281 -0.39551,-0.244138 -0.75879,-0.333984 -0.14063,-0.03515 -0.324226,-0.07617 -0.550786,-0.123047 -0.226564,-0.04687 -0.435548,-0.09765 -0.626953,-0.152344 -0.500001,-0.144528 -0.863282,-0.368161 -1.089843,-0.670898 -0.226563,-0.302731 -0.339845,-0.668941 -0.339844,-1.098633 -10e-7,-0.589839 0.222655,-1.070307 0.667969,-1.441406 0.445311,-0.371088 1.037107,-0.556634 1.77539,-0.556641 0.363287,7e-6 0.728517,0.04493 1.095707,0.134766 0.36718,0.08985 0.67578,0.203131 0.92578,0.339843 l 0,1.177735 -0.0586,0 c -0.28126,-0.222651 -0.59473,-0.398432 -0.94043,-0.527344 -0.34571,-0.128901 -0.69434,-0.193354 -1.045904,-0.193359 -0.363284,5e-6 -0.669924,0.07618 -0.919922,0.228515 -0.250002,0.152349 -0.375002,0.382818 -0.375,0.691407 -2e-6,0.273442 0.07422,0.477543 0.222656,0.612304 0.148436,0.13477 0.386717,0.245121 0.714844,0.331055 0.16406,0.04297 0.346677,0.08497 0.547856,0.125976 0.20117,0.04102 0.41308,0.08887 0.63574,0.143555 0.48437,0.121097 0.84863,0.322269 1.09278,0.603516 0.24413,0.281253 0.3662,0.664065 0.36621,1.148437 -1e-5,0.281252 -0.0557,0.547853 -0.167,0.799805 -0.11133,0.251954 -0.27441,0.467774 -0.48925,0.647461 -0.23438,0.195313 -0.49903,0.34375 -0.79395,0.445312 -0.29492,0.101563 -0.66504,0.152344 -1.110355,0.152344 z" />
    <path
       id="path2849"
       d="m 108.67871,33.470814 c -10e-6,1.101564 -0.26563,1.95215 -0.79687,2.551758 -0.53126,0.599609 -1.23829,0.899413 -2.1211,0.899414 -0.91016,-10e-7 -1.62598,-0.309571 -2.14746,-0.928711 -0.52148,-0.61914 -0.78223,-1.459959 -0.78223,-2.522461 0,-1.093746 0.26856,-1.943354 0.80567,-2.548828 0.53711,-0.605463 1.24511,-0.908197 2.12402,-0.908203 0.88281,6e-6 1.58984,0.301764 2.1211,0.905273 0.53124,0.603521 0.79686,1.454106 0.79687,2.551758 z m -1.13672,0 c 0,-0.847652 -0.1543,-1.477535 -0.46289,-1.889649 -0.3086,-0.412103 -0.74805,-0.618158 -1.31836,-0.618164 -0.57422,6e-6 -1.0166,0.206061 -1.32715,0.618164 -0.31054,0.412114 -0.46582,1.041997 -0.46582,1.889649 0,0.820315 0.15528,1.442384 0.46582,1.866211 0.31055,0.423829 0.75293,0.635743 1.32715,0.635742 0.5664,1e-6 1.00488,-0.208007 1.31543,-0.624024 0.31054,-0.416013 0.46582,-1.041989 0.46582,-1.877929 z" />
    <path
       id="path2851"
       d="m 114.90723,36.740345 -1.10157,0 0,-0.726562 c -0.33984,0.296875 -0.66211,0.522461 -0.96679,0.676757 -0.30469,0.154297 -0.64454,0.231445 -1.01953,0.231446 -0.28516,-10e-7 -0.55372,-0.04688 -0.80567,-0.140625 -0.25195,-0.09375 -0.47168,-0.242188 -0.65918,-0.445313 -0.1875,-0.203124 -0.33301,-0.458983 -0.43652,-0.767578 -0.10352,-0.308592 -0.15528,-0.683592 -0.15527,-1.125 l 0,-4.248047 1.10156,0 0,3.726563 c 0,0.347658 0.0127,0.635744 0.0381,0.864257 0.0254,0.228518 0.083,0.428713 0.17286,0.600586 0.0898,0.16797 0.21191,0.291017 0.36621,0.369141 0.15429,0.07813 0.37597,0.117188 0.66504,0.117188 0.26952,0 0.55663,-0.07617 0.86132,-0.228516 0.30469,-0.152343 0.58398,-0.339842 0.83789,-0.5625 l 0,-4.886719 1.10157,0 z" />
    <path
       id="path2853"
       d="m 118.28223,36.898548 c -0.43751,0 -0.84668,-0.05859 -1.22754,-0.175781 -0.38086,-0.117187 -0.69629,-0.242187 -0.94629,-0.375 l 0,-1.236328 0.0586,0 c 0.0937,0.07422 0.2041,0.156251 0.33106,0.246094 0.12695,0.08985 0.29589,0.183594 0.50683,0.28125 0.1875,0.08594 0.39356,0.16211 0.61817,0.228515 0.2246,0.06641 0.458,0.09961 0.70019,0.09961 0.17578,0 0.36328,-0.02051 0.5625,-0.06152 0.19922,-0.04101 0.34765,-0.09277 0.44531,-0.155273 0.13672,-0.08984 0.23535,-0.185546 0.2959,-0.28711 0.0606,-0.101561 0.0908,-0.253904 0.0908,-0.457031 0,-0.261717 -0.0713,-0.458982 -0.21386,-0.591797 -0.14259,-0.13281 -0.39551,-0.244138 -0.75879,-0.333984 -0.14063,-0.03515 -0.32422,-0.07617 -0.55078,-0.123047 -0.22657,-0.04687 -0.43555,-0.09765 -0.62696,-0.152344 -0.5,-0.144528 -0.86328,-0.368161 -1.08984,-0.670898 -0.22656,-0.302731 -0.33985,-0.668941 -0.33984,-1.098633 -1e-5,-0.589839 0.22265,-1.070307 0.66796,-1.441406 0.44532,-0.371088 1.03711,-0.556634 1.77539,-0.556641 0.36328,7e-6 0.72852,0.04493 1.09571,0.134766 0.36718,0.08985 0.67577,0.203131 0.92578,0.339843 l 0,1.177735 -0.0586,0 c -0.28126,-0.222651 -0.59474,-0.398432 -0.94043,-0.527344 -0.34571,-0.128901 -0.69434,-0.193354 -1.0459,-0.193359 -0.36329,5e-6 -0.66993,0.07618 -0.91992,0.228515 -0.25001,0.152349 -0.37501,0.382818 -0.375,0.691407 -1e-5,0.273442 0.0742,0.477543 0.22265,0.612304 0.14844,0.13477 0.38672,0.245121 0.71485,0.331055 0.16406,0.04297 0.34667,0.08497 0.54785,0.125976 0.20117,0.04102 0.41308,0.08887 0.63574,0.143555 0.48437,0.121097 0.84863,0.322269 1.09277,0.603516 0.24414,0.281253 0.36621,0.664065 0.36621,1.148437 0,0.281252 -0.0557,0.547853 -0.16699,0.799805 -0.11133,0.251954 -0.27442,0.467774 -0.48926,0.647461 -0.23438,0.195313 -0.49902,0.34375 -0.79394,0.445312 -0.29493,0.101563 -0.66504,0.152344 -1.11035,0.152344 z" />
    <path
       id="path2855"
       d="m 126.75488,36.740345 -1.10156,0 0,-9.117187 1.10156,0 z" />
    <path
       id="path2857"
       d="m 129.49707,36.740345 -1.10156,0 0,-6.544922 1.10156,0 z m 0.0762,-7.640625 -1.2539,0 0,-1.142578 1.2539,0 z" />
    <path
       id="path2859"
       d="m 133.71582,36.886829 c -0.44922,0 -0.86133,-0.06934 -1.23633,-0.208007 -0.375,-0.138672 -0.69726,-0.348633 -0.96679,-0.629883 -0.26954,-0.281249 -0.47852,-0.635741 -0.62696,-1.063477 -0.14844,-0.427732 -0.22265,-0.930661 -0.22265,-1.508789 0,-0.574215 0.0771,-1.070308 0.23144,-1.488281 0.1543,-0.417964 0.36035,-0.769526 0.61817,-1.054688 0.25781,-0.28515 0.5791,-0.504876 0.96386,-0.659179 0.38477,-0.154291 0.79785,-0.231439 1.23926,-0.231446 0.35937,7e-6 0.70605,0.05079 1.04004,0.152344 0.33398,0.101569 0.63183,0.218756 0.89355,0.351563 l 0,1.236328 -0.0644,0 c -0.0781,-0.0664 -0.17872,-0.142573 -0.30176,-0.228516 -0.12305,-0.08593 -0.27246,-0.173823 -0.44824,-0.263672 -0.15235,-0.07812 -0.33203,-0.146479 -0.53906,-0.205078 -0.20704,-0.05859 -0.40626,-0.08788 -0.59766,-0.08789 -0.57031,5e-6 -1.02832,0.215825 -1.37402,0.64746 -0.34571,0.431646 -0.51856,1.041997 -0.51856,1.831055 0,0.77344 0.16699,1.375979 0.50098,1.807617 0.33398,0.431642 0.79785,0.647462 1.3916,0.647461 0.35937,1e-6 0.70117,-0.07422 1.02539,-0.222656 0.32422,-0.148436 0.61133,-0.339842 0.86133,-0.574219 l 0.0644,0 0,1.236328 c -0.10938,0.05078 -0.24609,0.112305 -0.41015,0.184571 -0.16407,0.07227 -0.31251,0.125976 -0.44531,0.161133 -0.18751,0.05469 -0.35548,0.09668 -0.50391,0.125976 -0.14844,0.0293 -0.33985,0.04395 -0.57422,0.04395 z" />
    <path
       id="path2861"
       d="m 139.4873,36.892689 c -1.04297,0 -1.85254,-0.293945 -2.42871,-0.881836 -0.57617,-0.587889 -0.86425,-1.42285 -0.86425,-2.504883 0,-1.066402 0.27929,-1.915034 0.83789,-2.545898 0.55859,-0.630853 1.28906,-0.946283 2.1914,-0.946289 0.40625,6e-6 0.76562,0.0586 1.07813,0.175781 0.31249,0.117194 0.58593,0.300787 0.82031,0.550781 0.23437,0.250006 0.41406,0.55567 0.53906,0.916992 0.125,0.361333 0.1875,0.803715 0.1875,1.327149 l 0,0.597656 -4.53515,0 c 0,0.761721 0.1914,1.343752 0.57422,1.746094 0.38281,0.402344 0.9121,0.603516 1.58789,0.603515 0.24218,1e-6 0.47948,-0.02734 0.71191,-0.08203 0.23242,-0.05469 0.44238,-0.124999 0.62988,-0.210937 0.19922,-0.08984 0.36718,-0.176757 0.50391,-0.260743 0.13671,-0.08398 0.24999,-0.163084 0.33984,-0.237304 l 0.0645,0 0,1.201172 c -0.12892,0.05078 -0.28907,0.114258 -0.48047,0.190429 -0.19141,0.07617 -0.36329,0.135742 -0.51563,0.178711 -0.21485,0.05859 -0.40918,0.103516 -0.58301,0.134766 -0.17383,0.03125 -0.39355,0.04687 -0.65918,0.04687 z m 1.28907,-4.154297 c -0.008,-0.296871 -0.043,-0.55273 -0.10547,-0.767578 -0.0625,-0.214839 -0.15235,-0.396479 -0.26953,-0.544922 -0.12891,-0.164057 -0.29395,-0.289057 -0.49512,-0.375 -0.20118,-0.08593 -0.4502,-0.128901 -0.74707,-0.128906 -0.29297,5e-6 -0.542,0.04395 -0.74707,0.131836 -0.20508,0.0879 -0.3916,0.215825 -0.55957,0.383789 -0.16407,0.17188 -0.28907,0.362309 -0.375,0.571289 -0.0859,0.208989 -0.14063,0.452152 -0.16406,0.729492 z" />
    <path
       id="path2863"
       d="m 148.11816,36.740345 -1.10156,0 0,-3.726562 c 0,-0.300778 -0.0147,-0.581051 -0.0439,-0.840821 -0.0293,-0.259761 -0.085,-0.467768 -0.167,-0.624023 -0.0898,-0.164057 -0.21484,-0.286128 -0.375,-0.366211 -0.16016,-0.08007 -0.37891,-0.120112 -0.65625,-0.120117 -0.27344,5e-6 -0.55566,0.07325 -0.84668,0.219726 -0.29101,0.14649 -0.57519,0.336919 -0.85253,0.571289 l 0,4.886719 -1.10157,0 0,-6.544922 1.10157,0 0,0.726563 c 0.32812,-0.292963 0.65234,-0.517572 0.97265,-0.673828 0.32031,-0.156244 0.6582,-0.234369 1.01367,-0.234375 0.64453,6e-6 1.14844,0.21192 1.51172,0.635742 0.36328,0.423833 0.54492,1.038091 0.54492,1.842773 z" />
    <path
       id="path2865"
       d="m 152.27832,36.886829 c -0.44922,0 -0.86133,-0.06934 -1.23633,-0.208007 -0.375,-0.138672 -0.69726,-0.348633 -0.96679,-0.629883 -0.26954,-0.281249 -0.47852,-0.635741 -0.62696,-1.063477 -0.14844,-0.427732 -0.22265,-0.930661 -0.22265,-1.508789 0,-0.574215 0.0771,-1.070308 0.23144,-1.488281 0.1543,-0.417964 0.36035,-0.769526 0.61817,-1.054688 0.25781,-0.28515 0.5791,-0.504876 0.96386,-0.659179 0.38477,-0.154291 0.79785,-0.231439 1.23926,-0.231446 0.35937,7e-6 0.70605,0.05079 1.04004,0.152344 0.33398,0.101569 0.63183,0.218756 0.89355,0.351563 l 0,1.236328 -0.0644,0 c -0.0781,-0.0664 -0.17872,-0.142573 -0.30176,-0.228516 -0.12305,-0.08593 -0.27246,-0.173823 -0.44824,-0.263672 -0.15235,-0.07812 -0.33203,-0.146479 -0.53906,-0.205078 -0.20704,-0.05859 -0.40626,-0.08788 -0.59766,-0.08789 -0.57031,5e-6 -1.02832,0.215825 -1.37402,0.64746 -0.34571,0.431646 -0.51856,1.041997 -0.51856,1.831055 0,0.77344 0.16699,1.375979 0.50098,1.807617 0.33398,0.431642 0.79785,0.647462 1.3916,0.647461 0.35937,1e-6 0.70117,-0.07422 1.02539,-0.222656 0.32422,-0.148436 0.61133,-0.339842 0.86133,-0.574219 l 0.0644,0 0,1.236328 c -0.10938,0.05078 -0.24609,0.112305 -0.41015,0.184571 -0.16407,0.07227 -0.31251,0.125976 -0.44531,0.161133 -0.18751,0.05469 -0.35548,0.09668 -0.50391,0.125976 -0.14844,0.0293 -0.33985,0.04395 -0.57422,0.04395 z" />
    <path
       id="path2867"
       d="m 158.0498,36.892689 c -1.04297,0 -1.85254,-0.293945 -2.42871,-0.881836 -0.57617,-0.587889 -0.86425,-1.42285 -0.86425,-2.504883 0,-1.066402 0.27929,-1.915034 0.83789,-2.545898 0.55859,-0.630853 1.28906,-0.946283 2.1914,-0.946289 0.40625,6e-6 0.76562,0.0586 1.07813,0.175781 0.31249,0.117194 0.58593,0.300787 0.82031,0.550781 0.23437,0.250006 0.41406,0.55567 0.53906,0.916992 0.125,0.361333 0.1875,0.803715 0.1875,1.327149 l 0,0.597656 -4.53515,0 c 0,0.761721 0.1914,1.343752 0.57422,1.746094 0.38281,0.402344 0.9121,0.603516 1.58789,0.603515 0.24218,1e-6 0.47948,-0.02734 0.71191,-0.08203 0.23242,-0.05469 0.44238,-0.124999 0.62988,-0.210937 0.19922,-0.08984 0.36718,-0.176757 0.50391,-0.260743 0.13671,-0.08398 0.24999,-0.163084 0.33984,-0.237304 l 0.0645,0 0,1.201172 c -0.12892,0.05078 -0.28907,0.114258 -0.48047,0.190429 -0.19141,0.07617 -0.36329,0.135742 -0.51563,0.178711 -0.21485,0.05859 -0.40918,0.103516 -0.58301,0.134766 -0.17383,0.03125 -0.39355,0.04687 -0.65918,0.04687 z m 1.28907,-4.154297 c -0.008,-0.296871 -0.043,-0.55273 -0.10547,-0.767578 -0.0625,-0.214839 -0.15235,-0.396479 -0.26953,-0.544922 -0.12891,-0.164057 -0.29395,-0.289057 -0.49512,-0.375 -0.20118,-0.08593 -0.4502,-0.128901 -0.74707,-0.128906 -0.29297,5e-6 -0.542,0.04395 -0.74707,0.131836 -0.20508,0.0879 -0.3916,0.215825 -0.55957,0.383789 -0.16407,0.17188 -0.28907,0.362309 -0.375,0.571289 -0.0859,0.208989 -0.14063,0.452152 -0.16406,0.729492 z" />
    <path
       id="path2869"
       d="m 25.891602,48.740345 -1.101563,0 0,-9.117187 1.101563,0 z" />
    <path
       id="path2871"
       d="m 28.633789,48.740345 -1.101562,0 0,-6.544922 1.101562,0 z m 0.07617,-7.640625 -1.253906,0 0,-1.142578 1.253906,0 z" />
    <path
       id="path2873"
       d="m 34.604492,45.447376 c -5e-6,-0.781246 -0.119145,-1.374019 -0.357422,-1.77832 -0.238285,-0.404291 -0.621098,-0.60644 -1.148437,-0.606445 -0.300785,5e-6 -0.604495,0.07032 -0.911133,0.210937 -0.306643,0.14063 -0.584963,0.318365 -0.834961,0.533203 l 0,3.75 c 0.277342,0.13672 0.523435,0.2334 0.738281,0.290039 0.214841,0.05664 0.451169,0.08496 0.708985,0.08496 0.562496,10e-7 1.003902,-0.199217 1.324218,-0.597656 0.320308,-0.398436 0.480464,-1.027341 0.480469,-1.886719 z m 1.136719,-0.08789 c -6e-6,1.070314 -0.259772,1.931642 -0.779297,2.583984 -0.519536,0.652344 -1.169926,0.978515 -1.951172,0.978516 -0.355472,-10e-7 -0.659182,-0.04395 -0.911133,-0.131836 -0.251955,-0.08789 -0.500978,-0.206055 -0.74707,-0.354492 l -0.07031,0.304687 -1.03125,0 0,-9.117187 1.101562,0 0,3.257812 c 0.277342,-0.249994 0.578123,-0.457025 0.902344,-0.621094 0.324215,-0.164056 0.691403,-0.246087 1.101562,-0.246093 0.738277,6e-6 1.320308,0.295904 1.746094,0.887695 0.425775,0.591802 0.638666,1.411137 0.638672,2.458008 z" />
    <path
       id="path2875"
       d="m 40.352539,43.379017 -0.05859,0 c -0.08203,-0.02343 -0.168949,-0.03808 -0.260742,-0.04395 -0.0918,-0.0059 -0.202152,-0.0088 -0.331055,-0.0088 -0.296878,5e-6 -0.591799,0.06446 -0.884765,0.193359 -0.292971,0.128911 -0.570315,0.320317 -0.832031,0.574219 l 0,4.646484 -1.101563,0 0,-6.544922 1.101563,0 0,0.972656 c 0.402341,-0.355462 0.752927,-0.606439 1.051757,-0.752929 0.298825,-0.146478 0.588864,-0.21972 0.870118,-0.219727 0.113277,7e-6 0.198238,0.0029 0.254882,0.0088 0.05664,0.0059 0.120113,0.01466 0.19043,0.02637 z" />
    <path
       id="path2877"
       d="m 44.061523,48.892689 c -1.042971,0 -1.85254,-0.293945 -2.428711,-0.881836 -0.576172,-0.587889 -0.864258,-1.42285 -0.864257,-2.504883 -10e-7,-1.066402 0.279296,-1.915034 0.83789,-2.545898 0.558592,-0.630853 1.28906,-0.946283 2.191407,-0.946289 0.406246,6e-6 0.76562,0.0586 1.078125,0.175781 0.312495,0.117194 0.585932,0.300787 0.820312,0.550781 0.23437,0.250006 0.414057,0.55567 0.539063,0.916992 0.124994,0.361333 0.187494,0.803715 0.1875,1.327149 l 0,0.597656 -4.535157,0 c -10e-7,0.761721 0.191405,1.343752 0.574219,1.746094 0.38281,0.402344 0.912106,0.603516 1.587891,0.603515 0.242183,1e-6 0.479488,-0.02734 0.711914,-0.08203 0.232417,-0.05469 0.442378,-0.124999 0.629883,-0.210937 0.199213,-0.08984 0.367182,-0.176757 0.503906,-0.260743 0.136713,-0.08398 0.249994,-0.163084 0.339844,-0.237304 l 0.06445,0 0,1.201172 c -0.128912,0.05078 -0.289068,0.114258 -0.480469,0.190429 -0.191412,0.07617 -0.363286,0.135742 -0.515625,0.178711 -0.214848,0.05859 -0.409184,0.103516 -0.583008,0.134766 -0.173832,0.03125 -0.393558,0.04687 -0.65918,0.04687 z m 1.289063,-4.154297 c -0.0078,-0.296871 -0.04297,-0.55273 -0.105469,-0.767578 -0.06251,-0.214839 -0.152348,-0.396479 -0.269531,-0.544922 -0.128911,-0.164057 -0.29395,-0.289057 -0.495117,-0.375 -0.201176,-0.08593 -0.450199,-0.128901 -0.747071,-0.128906 -0.292971,5e-6 -0.541995,0.04395 -0.74707,0.131836 -0.20508,0.0879 -0.391604,0.215825 -0.55957,0.383789 -0.164065,0.17188 -0.289064,0.362309 -0.375,0.571289 -0.08594,0.208989 -0.140627,0.452152 -0.164063,0.729492 z" />
    <path
       id="path2879"
       d="m 53.067383,48.898548 c -0.437502,0 -0.846682,-0.05859 -1.227539,-0.175781 -0.380861,-0.117187 -0.69629,-0.242187 -0.946289,-0.375 l 0,-1.236328 0.05859,0 c 0.09375,0.07422 0.204101,0.156251 0.331055,0.246094 0.126952,0.08985 0.295897,0.183594 0.506836,0.28125 0.187499,0.08594 0.393553,0.16211 0.618164,0.228515 0.224607,0.06641 0.458006,0.09961 0.700195,0.09961 0.175779,0 0.363279,-0.02051 0.5625,-0.06152 0.199216,-0.04101 0.347653,-0.09277 0.445313,-0.155273 0.136715,-0.08984 0.235348,-0.185546 0.295898,-0.28711 0.06054,-0.101561 0.09082,-0.253904 0.09082,-0.457031 -4e-6,-0.261717 -0.07129,-0.458982 -0.213868,-0.591797 -0.142581,-0.13281 -0.395511,-0.244138 -0.758789,-0.333984 -0.140627,-0.03515 -0.324221,-0.07617 -0.550781,-0.123047 -0.226565,-0.04687 -0.435549,-0.09765 -0.626953,-0.152344 -0.500001,-0.144528 -0.863282,-0.368161 -1.089844,-0.670898 -0.226563,-0.302731 -0.339844,-0.668941 -0.339843,-1.098633 -1e-6,-0.589839 0.222655,-1.070307 0.667968,-1.441406 0.445311,-0.371088 1.037108,-0.556634 1.775391,-0.556641 0.363278,7e-6 0.728512,0.04493 1.095703,0.134766 0.367183,0.08985 0.675777,0.203131 0.925781,0.339843 l 0,1.177735 -0.05859,0 c -0.281255,-0.222651 -0.594731,-0.398432 -0.94043,-0.527344 -0.345707,-0.128901 -0.694339,-0.193354 -1.045899,-0.193359 -0.363283,5e-6 -0.669924,0.07618 -0.919921,0.228515 -0.250002,0.152349 -0.375002,0.382818 -0.375,0.691407 -2e-6,0.273442 0.07422,0.477543 0.222656,0.612304 0.148435,0.13477 0.386716,0.245121 0.714844,0.331055 0.164059,0.04297 0.346676,0.08497 0.547851,0.125976 0.201169,0.04102 0.413083,0.08887 0.635742,0.143555 0.484371,0.121097 0.848629,0.322269 1.092774,0.603516 0.244135,0.281253 0.366206,0.664065 0.366211,1.148437 -5e-6,0.281252 -0.05567,0.547853 -0.166993,0.799805 -0.111332,0.251954 -0.274418,0.467774 -0.489257,0.647461 -0.23438,0.195313 -0.499028,0.34375 -0.793946,0.445312 -0.294925,0.101563 -0.665042,0.152344 -1.110351,0.152344 z" />
    <path
       id="path2881"
       d="m 59.506836,48.892689 c -1.042971,0 -1.852541,-0.293945 -2.428711,-0.881836 -0.576173,-0.587889 -0.864258,-1.42285 -0.864258,-2.504883 0,-1.066402 0.279296,-1.915034 0.837891,-2.545898 0.558592,-0.630853 1.28906,-0.946283 2.191406,-0.946289 0.406246,6e-6 0.765621,0.0586 1.078125,0.175781 0.312495,0.117194 0.585933,0.300787 0.820313,0.550781 0.234369,0.250006 0.414056,0.55567 0.539062,0.916992 0.124994,0.361333 0.187494,0.803715 0.1875,1.327149 l 0,0.597656 -4.535156,0 c -2e-6,0.761721 0.191404,1.343752 0.574219,1.746094 0.38281,0.402344 0.912106,0.603516 1.58789,0.603515 0.242184,1e-6 0.479488,-0.02734 0.711914,-0.08203 0.232418,-0.05469 0.442378,-0.124999 0.629883,-0.210937 0.199214,-0.08984 0.367182,-0.176757 0.503906,-0.260743 0.136713,-0.08398 0.249995,-0.163084 0.339844,-0.237304 l 0.06445,0 0,1.201172 c -0.128912,0.05078 -0.289068,0.114258 -0.480469,0.190429 -0.191411,0.07617 -0.363286,0.135742 -0.515625,0.178711 -0.214848,0.05859 -0.409184,0.103516 -0.583007,0.134766 -0.173833,0.03125 -0.393559,0.04687 -0.65918,0.04687 z m 1.289062,-4.154297 c -0.0078,-0.296871 -0.04297,-0.55273 -0.105468,-0.767578 -0.06251,-0.214839 -0.152349,-0.396479 -0.269532,-0.544922 -0.12891,-0.164057 -0.293949,-0.289057 -0.495117,-0.375 -0.201175,-0.08593 -0.450199,-0.128901 -0.74707,-0.128906 -0.292972,5e-6 -0.541995,0.04395 -0.74707,0.131836 -0.205081,0.0879 -0.391604,0.215825 -0.559571,0.383789 -0.164064,0.17188 -0.289064,0.362309 -0.375,0.571289 -0.08594,0.208989 -0.140626,0.452152 -0.164062,0.729492 z" />
    <path
       id="path2883"
       d="m 66.461914,43.379017 -0.05859,0 c -0.08203,-0.02343 -0.168949,-0.03808 -0.260742,-0.04395 -0.0918,-0.0059 -0.202152,-0.0088 -0.331055,-0.0088 -0.296878,5e-6 -0.591799,0.06446 -0.884765,0.193359 -0.292971,0.128911 -0.570315,0.320317 -0.832031,0.574219 l 0,4.646484 -1.101563,0 0,-6.544922 1.101563,0 0,0.972656 c 0.402341,-0.355462 0.752927,-0.606439 1.051757,-0.752929 0.298825,-0.146478 0.588864,-0.21972 0.870118,-0.219727 0.113277,7e-6 0.198238,0.0029 0.254882,0.0088 0.05664,0.0059 0.120113,0.01466 0.19043,0.02637 z" />
    <path
       id="path2885"
       d="m 70.985352,47.129017 0,-1.816406 c -0.261723,0.02344 -0.592778,0.05567 -0.993165,0.09668 -0.400393,0.04102 -0.723635,0.09864 -0.969726,0.172852 -0.292971,0.08985 -0.535158,0.227542 -0.726563,0.413086 -0.191407,0.185549 -0.28711,0.444338 -0.287109,0.776367 -10e-7,0.375002 0.105467,0.658204 0.316406,0.849609 0.210936,0.191408 0.519529,0.287111 0.925782,0.28711 0.347653,10e-7 0.662106,-0.07519 0.943359,-0.225586 0.281246,-0.15039 0.544918,-0.33496 0.791016,-0.553711 z m 0,0.914062 c -0.08985,0.06641 -0.209966,0.159181 -0.360352,0.278321 -0.150395,0.119141 -0.295902,0.213867 -0.436523,0.284179 -0.195316,0.101563 -0.383793,0.179688 -0.56543,0.234375 -0.181644,0.05469 -0.436526,0.08203 -0.764649,0.08203 -0.269533,-1e-6 -0.525392,-0.05078 -0.767578,-0.152344 -0.242189,-0.101563 -0.455079,-0.244141 -0.638672,-0.427734 -0.175782,-0.179687 -0.316406,-0.401367 -0.421875,-0.66504 -0.105469,-0.26367 -0.158203,-0.54199 -0.158203,-0.83496 0,-0.453123 0.0957,-0.838865 0.28711,-1.157227 0.191405,-0.318356 0.494139,-0.571285 0.908203,-0.758789 0.367185,-0.167965 0.800779,-0.284176 1.300781,-0.348633 0.499997,-0.06445 1.039059,-0.1123 1.617188,-0.143555 l 0,-0.210937 c -5e-6,-0.257808 -0.03907,-0.465815 -0.117188,-0.624024 -0.07813,-0.158197 -0.187504,-0.280268 -0.328125,-0.36621 -0.140629,-0.08984 -0.312504,-0.149409 -0.515625,-0.178711 -0.203128,-0.02929 -0.412112,-0.04394 -0.626953,-0.04395 -0.253909,6e-6 -0.552737,0.03809 -0.896484,0.114258 -0.343752,0.07618 -0.687502,0.186529 -1.03125,0.331055 l -0.06445,0 0,-1.119141 c 0.203124,-0.05859 0.49414,-0.12304 0.873047,-0.193359 0.378904,-0.07031 0.753904,-0.105462 1.125,-0.105469 0.449216,7e-6 0.828122,0.03516 1.136719,0.105469 0.308589,0.07032 0.585933,0.197272 0.832031,0.380859 0.238276,0.179694 0.416011,0.412115 0.533203,0.697266 0.117182,0.285161 0.175776,0.632817 0.175782,1.042969 l 0,4.476562 -1.095703,0 z" />
    <path
       id="path2887"
       d="m 74.758789,48.740345 -1.101562,0 0,-6.544922 1.101562,0 z m 0.07617,-7.640625 -1.253906,0 0,-1.142578 1.253906,0 z" />
    <path
       id="path2889"
       d="m 78.356445,48.869251 c -0.601564,0 -1.070314,-0.170898 -1.40625,-0.512695 -0.335938,-0.341796 -0.503907,-0.881835 -0.503906,-1.620117 l 0,-3.626953 -0.744141,0 0,-0.914063 0.744141,0 0,-1.880859 1.101563,0 0,1.880859 2.027343,0 0,0.914063 -2.027343,0 0,3.111328 c -2e-6,0.332033 0.0059,0.587892 0.01758,0.767578 0.01172,0.179689 0.05664,0.347658 0.134765,0.503906 0.0664,0.13672 0.173826,0.239259 0.322266,0.307617 0.148435,0.06836 0.349607,0.10254 0.603516,0.102539 0.179684,1e-6 0.353512,-0.02637 0.521484,-0.0791 0.167965,-0.05273 0.289059,-0.09668 0.363281,-0.131836 l 0.06445,0 0,0.990234 c -0.207035,0.05859 -0.416995,0.104492 -0.629883,0.137696 -0.212893,0.0332 -0.409182,0.0498 -0.588867,0.0498 z" />
    <path
       id="path2891"
       d="m 85.258789,48.740345 -1.101562,0 0,-9.117187 1.101562,0 z" />
    <path
       id="path2893"
       d="m 90.532227,47.129017 0,-1.816406 c -0.261723,0.02344 -0.592778,0.05567 -0.993165,0.09668 -0.400393,0.04102 -0.723635,0.09864 -0.969726,0.172852 -0.292971,0.08985 -0.535158,0.227542 -0.726563,0.413086 -0.191407,0.185549 -0.28711,0.444338 -0.287109,0.776367 -10e-7,0.375002 0.105467,0.658204 0.316406,0.849609 0.210936,0.191408 0.519529,0.287111 0.925782,0.28711 0.347653,10e-7 0.662106,-0.07519 0.943359,-0.225586 0.281246,-0.15039 0.544918,-0.33496 0.791016,-0.553711 z m 0,0.914062 c -0.08985,0.06641 -0.209966,0.159181 -0.360352,0.278321 -0.150395,0.119141 -0.295902,0.213867 -0.436523,0.284179 -0.195316,0.101563 -0.383793,0.179688 -0.56543,0.234375 -0.181644,0.05469 -0.436526,0.08203 -0.764649,0.08203 -0.269533,-1e-6 -0.525392,-0.05078 -0.767578,-0.152344 -0.242189,-0.101563 -0.455079,-0.244141 -0.638672,-0.427734 -0.175782,-0.179687 -0.316406,-0.401367 -0.421875,-0.66504 -0.105469,-0.26367 -0.158203,-0.54199 -0.158203,-0.83496 0,-0.453123 0.0957,-0.838865 0.28711,-1.157227 0.191405,-0.318356 0.494139,-0.571285 0.908203,-0.758789 0.367185,-0.167965 0.800779,-0.284176 1.300781,-0.348633 0.499997,-0.06445 1.039059,-0.1123 1.617188,-0.143555 l 0,-0.210937 c -5e-6,-0.257808 -0.03907,-0.465815 -0.117188,-0.624024 -0.07813,-0.158197 -0.187504,-0.280268 -0.328125,-0.36621 -0.140629,-0.08984 -0.312504,-0.149409 -0.515625,-0.178711 -0.203128,-0.02929 -0.412112,-0.04394 -0.626953,-0.04395 -0.253909,6e-6 -0.552737,0.03809 -0.896484,0.114258 -0.343752,0.07618 -0.687502,0.186529 -1.03125,0.331055 l -0.06445,0 0,-1.119141 c 0.203124,-0.05859 0.49414,-0.12304 0.873047,-0.193359 0.378904,-0.07031 0.753904,-0.105462 1.125,-0.105469 0.449216,7e-6 0.828122,0.03516 1.136719,0.105469 0.308589,0.07032 0.585933,0.197272 0.832031,0.380859 0.238276,0.179694 0.416011,0.412115 0.533203,0.697266 0.117182,0.285161 0.175776,0.632817 0.175782,1.042969 l 0,4.476562 -1.095703,0 z" />
    <path
       id="path2895"
       d="m 101.28418,45.447376 c -1e-5,-0.781246 -0.11915,-1.374019 -0.35742,-1.77832 -0.23829,-0.404291 -0.6211,-0.60644 -1.14844,-0.606445 -0.300784,5e-6 -0.604495,0.07032 -0.911133,0.210937 -0.306643,0.14063 -0.584963,0.318365 -0.83496,0.533203 l 0,3.75 c 0.277341,0.13672 0.523435,0.2334 0.738281,0.290039 0.214841,0.05664 0.451169,0.08496 0.708984,0.08496 0.562498,10e-7 1.003898,-0.199217 1.324218,-0.597656 0.32031,-0.398436 0.48046,-1.027341 0.48047,-1.886719 z m 1.13672,-0.08789 c -1e-5,1.070314 -0.25977,1.931642 -0.7793,2.583984 -0.51953,0.652344 -1.16992,0.978515 -1.95117,0.978516 -0.355472,-10e-7 -0.659183,-0.04395 -0.911133,-0.131836 -0.251956,-0.08789 -0.500979,-0.206055 -0.74707,-0.354492 l -0.07031,0.304687 -1.03125,0 0,-9.117187 1.101563,0 0,3.257812 c 0.277341,-0.249994 0.578122,-0.457025 0.902343,-0.621094 0.324216,-0.164056 0.691403,-0.246087 1.101557,-0.246093 0.73828,6e-6 1.32031,0.295904 1.7461,0.887695 0.42577,0.591802 0.63866,1.411137 0.63867,2.458008 z" />
    <path
       id="path2897"
       d="m 104.68848,48.740345 -1.10157,0 0,-6.544922 1.10157,0 z m 0.0762,-7.640625 -1.25391,0 0,-1.142578 1.25391,0 z" />
    <path
       id="path2899"
       d="m 109.14746,48.892689 c -1.04297,0 -1.85254,-0.293945 -2.42871,-0.881836 -0.57617,-0.587889 -0.86426,-1.42285 -0.86426,-2.504883 0,-1.066402 0.2793,-1.915034 0.83789,-2.545898 0.55859,-0.630853 1.28906,-0.946283 2.19141,-0.946289 0.40625,6e-6 0.76562,0.0586 1.07812,0.175781 0.3125,0.117194 0.58594,0.300787 0.82032,0.550781 0.23437,0.250006 0.41405,0.55567 0.53906,0.916992 0.12499,0.361333 0.18749,0.803715 0.1875,1.327149 l 0,0.597656 -4.53516,0 c 0,0.761721 0.19141,1.343752 0.57422,1.746094 0.38281,0.402344 0.91211,0.603516 1.58789,0.603515 0.24219,1e-6 0.47949,-0.02734 0.71192,-0.08203 0.23241,-0.05469 0.44237,-0.124999 0.62988,-0.210937 0.19921,-0.08984 0.36718,-0.176757 0.50391,-0.260743 0.13671,-0.08398 0.24999,-0.163084 0.33984,-0.237304 l 0.0644,0 0,1.201172 c -0.12891,0.05078 -0.28907,0.114258 -0.48047,0.190429 -0.19141,0.07617 -0.36328,0.135742 -0.51562,0.178711 -0.21485,0.05859 -0.40919,0.103516 -0.58301,0.134766 -0.17383,0.03125 -0.39356,0.04687 -0.65918,0.04687 z m 1.28906,-4.154297 c -0.008,-0.296871 -0.043,-0.55273 -0.10547,-0.767578 -0.0625,-0.214839 -0.15234,-0.396479 -0.26953,-0.544922 -0.12891,-0.164057 -0.29395,-0.289057 -0.49511,-0.375 -0.20118,-0.08593 -0.4502,-0.128901 -0.74707,-0.128906 -0.29298,5e-6 -0.542,0.04395 -0.74707,0.131836 -0.20508,0.0879 -0.39161,0.215825 -0.55957,0.383789 -0.16407,0.17188 -0.28907,0.362309 -0.375,0.571289 -0.0859,0.208989 -0.14063,0.452152 -0.16407,0.729492 z" />
    <path
       id="path2901"
       d="m 117.77832,48.740345 -1.10156,0 0,-3.726562 c -1e-5,-0.300778 -0.0147,-0.581051 -0.0439,-0.840821 -0.0293,-0.259761 -0.085,-0.467768 -0.16699,-0.624023 -0.0898,-0.164057 -0.21485,-0.286128 -0.375,-0.366211 -0.16016,-0.08007 -0.37891,-0.120112 -0.65625,-0.120117 -0.27344,5e-6 -0.55567,0.07325 -0.84668,0.219726 -0.29102,0.14649 -0.5752,0.336919 -0.85254,0.571289 l 0,4.886719 -1.10156,0 0,-6.544922 1.10156,0 0,0.726563 c 0.32812,-0.292963 0.65234,-0.517572 0.97266,-0.673828 0.32031,-0.156244 0.6582,-0.234369 1.01367,-0.234375 0.64453,6e-6 1.14843,0.21192 1.51172,0.635742 0.36327,0.423833 0.54491,1.038091 0.54492,1.842773 z" />
    <path
       id="path2903"
       d="m 124.48145,42.195423 -2.4668,6.544922 -0.99024,0 -2.44921,-6.544922 1.18945,0 1.79297,5.050781 1.77539,-5.050781 z" />
    <path
       id="path2905"
       d="m 128.15527,48.892689 c -1.04297,0 -1.85254,-0.293945 -2.42871,-0.881836 -0.57617,-0.587889 -0.86426,-1.42285 -0.86426,-2.504883 0,-1.066402 0.2793,-1.915034 0.8379,-2.545898 0.55859,-0.630853 1.28906,-0.946283 2.1914,-0.946289 0.40625,6e-6 0.76562,0.0586 1.07813,0.175781 0.31249,0.117194 0.58593,0.300787 0.82031,0.550781 0.23437,0.250006 0.41406,0.55567 0.53906,0.916992 0.125,0.361333 0.1875,0.803715 0.1875,1.327149 l 0,0.597656 -4.53515,0 c -10e-6,0.761721 0.1914,1.343752 0.57421,1.746094 0.38281,0.402344 0.91211,0.603516 1.58789,0.603515 0.24219,1e-6 0.47949,-0.02734 0.71192,-0.08203 0.23242,-0.05469 0.44238,-0.124999 0.62988,-0.210937 0.19922,-0.08984 0.36718,-0.176757 0.50391,-0.260743 0.13671,-0.08398 0.24999,-0.163084 0.33984,-0.237304 l 0.0644,0 0,1.201172 c -0.12891,0.05078 -0.28906,0.114258 -0.48046,0.190429 -0.19142,0.07617 -0.36329,0.135742 -0.51563,0.178711 -0.21485,0.05859 -0.40918,0.103516 -0.58301,0.134766 -0.17383,0.03125 -0.39356,0.04687 -0.65918,0.04687 z m 1.28907,-4.154297 c -0.008,-0.296871 -0.043,-0.55273 -0.10547,-0.767578 -0.0625,-0.214839 -0.15235,-0.396479 -0.26953,-0.544922 -0.12891,-0.164057 -0.29395,-0.289057 -0.49512,-0.375 -0.20118,-0.08593 -0.4502,-0.128901 -0.74707,-0.128906 -0.29297,5e-6 -0.542,0.04395 -0.74707,0.131836 -0.20508,0.0879 -0.39161,0.215825 -0.55957,0.383789 -0.16407,0.17188 -0.28907,0.362309 -0.375,0.571289 -0.0859,0.208989 -0.14063,0.452152 -0.16406,0.729492 z" />
    <path
       id="path2907"
       d="m 136.78613,48.740345 -1.10156,0 0,-3.726562 c 0,-0.300778 -0.0147,-0.581051 -0.0439,-0.840821 -0.0293,-0.259761 -0.085,-0.467768 -0.16699,-0.624023 -0.0899,-0.164057 -0.21485,-0.286128 -0.375,-0.366211 -0.16016,-0.08007 -0.37891,-0.120112 -0.65625,-0.120117 -0.27344,5e-6 -0.55566,0.07325 -0.84668,0.219726 -0.29101,0.14649 -0.57519,0.336919 -0.85254,0.571289 l 0,4.886719 -1.10156,0 0,-6.544922 1.10156,0 0,0.726563 c 0.32813,-0.292963 0.65235,-0.517572 0.97266,-0.673828 0.32031,-0.156244 0.6582,-0.234369 1.01367,-0.234375 0.64453,6e-6 1.14843,0.21192 1.51172,0.635742 0.36328,0.423833 0.54492,1.038091 0.54492,1.842773 z" />
    <path
       id="path2909"
       d="m 143.44238,48.740345 -1.10156,0 0,-0.726562 c -0.33985,0.296875 -0.66211,0.522461 -0.9668,0.676757 -0.30469,0.154297 -0.64453,0.231445 -1.01953,0.231446 -0.28516,-10e-7 -0.55371,-0.04688 -0.80566,-0.140625 -0.25196,-0.09375 -0.47168,-0.242188 -0.65918,-0.445313 -0.1875,-0.203124 -0.33301,-0.458983 -0.43653,-0.767578 -0.10351,-0.308592 -0.15527,-0.683592 -0.15527,-1.125 l 0,-4.248047 1.10156,0 0,3.726563 c 0,0.347658 0.0127,0.635744 0.0381,0.864257 0.0254,0.228518 0.083,0.428713 0.17285,0.600586 0.0898,0.16797 0.21191,0.291017 0.36621,0.369141 0.1543,0.07813 0.37598,0.117188 0.66504,0.117188 0.26953,0 0.55664,-0.07617 0.86133,-0.228516 0.30468,-0.152343 0.58398,-0.339842 0.83789,-0.5625 l 0,-4.886719 1.10156,0 z" />
    <path
       id="path2911"
       d="m 147.88965,48.892689 c -1.04297,0 -1.85254,-0.293945 -2.42871,-0.881836 -0.57618,-0.587889 -0.86426,-1.42285 -0.86426,-2.504883 0,-1.066402 0.2793,-1.915034 0.83789,-2.545898 0.55859,-0.630853 1.28906,-0.946283 2.19141,-0.946289 0.40624,6e-6 0.76562,0.0586 1.07812,0.175781 0.3125,0.117194 0.58593,0.300787 0.82031,0.550781 0.23437,0.250006 0.41406,0.55567 0.53907,0.916992 0.12499,0.361333 0.18749,0.803715 0.1875,1.327149 l 0,0.597656 -4.53516,0 c 0,0.761721 0.1914,1.343752 0.57422,1.746094 0.38281,0.402344 0.91211,0.603516 1.58789,0.603515 0.24218,1e-6 0.47949,-0.02734 0.71191,-0.08203 0.23242,-0.05469 0.44238,-0.124999 0.62989,-0.210937 0.19921,-0.08984 0.36718,-0.176757 0.5039,-0.260743 0.13672,-0.08398 0.25,-0.163084 0.33985,-0.237304 l 0.0644,0 0,1.201172 c -0.12891,0.05078 -0.28907,0.114258 -0.48047,0.190429 -0.19141,0.07617 -0.36329,0.135742 -0.51562,0.178711 -0.21485,0.05859 -0.40919,0.103516 -0.58301,0.134766 -0.17383,0.03125 -0.39356,0.04687 -0.65918,0.04687 z m 1.28906,-4.154297 c -0.008,-0.296871 -0.043,-0.55273 -0.10547,-0.767578 -0.0625,-0.214839 -0.15235,-0.396479 -0.26953,-0.544922 -0.12891,-0.164057 -0.29395,-0.289057 -0.49512,-0.375 -0.20117,-0.08593 -0.4502,-0.128901 -0.74707,-0.128906 -0.29297,5e-6 -0.54199,0.04395 -0.74707,0.131836 -0.20508,0.0879 -0.3916,0.215825 -0.55957,0.383789 -0.16406,0.17188 -0.28906,0.362309 -0.375,0.571289 -0.0859,0.208989 -0.14062,0.452152 -0.16406,0.729492 z" />
  </g>
</svg>
