<?xml version="1.0" encoding="UTF-8"?>
<svg version="1.1" xmlns="http://www.w3.org/2000/svg" width="278" height="71" >
<path d="M258.381,26.675c4.758-0.509,11.813-1.461,15.14-5.241c3.794-4.308,6.19-10.579,0.582-14.1 c-6.235-3.915-14.54-4.976-21.66-5.884c-17.674-2.255-35.745-1.511-53.463-0.255c-27.698,1.962-55.386,5.728-82.438,12.025 c-22.759,5.297-45.138,12.464-66.663,21.565C35.127,41.022,19.955,48.135,7.285,58.08c-2.598,2.039-5.925,4.621-7.081,7.865 c-1.426,4.002,5.002,4.428,7.353,4.233c14.43-1.196,30.22-8.964,40.5-18.937c2.312-2.244,4.289-4.862,5.507-7.854 c-0.066,0.164-2.467,0.484-2.855,0.728c-1.714,1.075-4.363,3.132-0.712,2.814c2.382-0.207,4.78-0.959,7.113-1.458 c1.8-0.386,1.863-0.949,0.634-0.008c-4.604,3.53-3.118,8.903-4.114,13.929c-0.305,1.539-0.854,2.999-1.501,4.42 c-1.007,2.214-1.556,2.33-3.732,1.576c-3.185-1.104-3.299-4.324-2.333-7c-0.129,0.359-2.655,0.103-2.897,0.776 c-2.178,6.032,4.632,9.737,9.535,6.563c7.451-4.824,1.138-16.226,8.32-21.291c0.15-0.106-0.665,0.023-0.705,0.031 c-1.278,0.274-2.556,0.548-3.834,0.822c-1.779,0.381-7.792,2.093-4.708-0.618c0.531-0.467,1.148-0.859,1.747-1.235 c-0.952,0.243-1.903,0.485-2.855,0.728c-3.222,7.912-11.391,13.224-18.518,17.285c-4.771,2.719-9.891,4.961-15.137,6.579 c-3.64,1.122-8.919,2.445-12.567,0.459c-7.075-3.85,12.105-15.723,14.204-17.056C35.867,40.495,55.12,32.563,74.287,25.788 c29.928-10.579,60.936-16.979,92.394-20.849c28.496-3.506,58.513-6.56,87.104-2.088c5.456,0.854,11.119,2.026,16.092,4.518 c1.11,0.556,2.209,1.218,3.1,2.092c2.872,2.818,1.861,6.269,0.088,9.308c-2.844,4.875-6.51,6.493-12.216,7.104 C260.252,25.937,258.14,26.701,258.381,26.675L258.381,26.675z"/>
<path d="M53.563,61.886c0.854-3.92,5.233-6.034,8.176-8.245c3.799-2.854,7.003-6.336,9.352-10.47 c1.797-3.163,6.827-18.986-1.52-17.132c-3.753,0.834-4.999,3.431-6.228,6.94c-3.619,10.331-3.85,22.128-4.177,32.933 c0.001-0.061,2.684-0.341,2.897-0.776c0.866-1.765,1.862-3.499,3.318-4.848c-1.597,1.48-1.492-0.154-1.124,1.354 c0.19,0.779,0.113,1.681,0.178,2.479c0.291,3.577,3.811,2.339,6.098,1.676c2.022-0.587,0.074-0.31-0.838-0.045 c-4.029,1.169-0.557-6.583-4.431-5.761c-3.234,0.687-4.68,3.03-6.099,5.921c0.966-0.259,1.932-0.518,2.897-0.776 c0.292-9.623,0.859-19.339,3.002-28.752c0.567-2.49,1.322-4.957,2.43-7.261c0.396-0.821,0.895-1.594,1.507-2.27 c1.163-1.285-1.015-0.519,0.683,0.194c2.638,1.107,1.429,6.396,1.133,8.329c-0.759,4.96-2.552,9.135-5.662,13.06 c-2.588,3.267-6.02,5.862-9.449,8.179c-2.041,1.378-4.484,3.487-5.042,6.048C50.721,62.409,53.431,62.493,53.563,61.886 L53.563,61.886z"/>
<path d="M72.815,61.206c-4.183,1.491-3.056,5.59,1.229,4.309c2.038-0.609,2.94-1.371,2.8-3.71c-0.3-0.296-0.6-0.591-0.9-0.887 c0.742-0.161,1.492-0.229,2.251-0.204c0.775,0.003,1.49,0.243,2.146,0.637c1.366,0.818,0.872,2.866,0.574,4.061 c0.024-0.097,2.518-0.459,2.855-0.728c1.067-0.85,2.233-1.731,3.101-2.791c0.875-0.886,0.522-0.867-1.058,0.057 c0.412,0.45,0.718,0.963,0.918,1.541c0.429,0.906,0.012,1.755,0.159,2.65c0.034,0.207,2.6-0.583,2.855-0.728 c1.03-0.583,1.835-2.989,2.548-3.951c1.018-1.128,1.142-1.229,0.372-0.3c1.032,0.766,1.158,2.122,1.208,3.265 c0.048,1.094-0.611,2.353-1.208,3.235c0.333-0.491,2.416-0.065,2.897-0.776c2.039-3.009,1.3-7.798-2.899-6.673 c-1.064,0.285-2.083,0.639-2.823,1.505c-0.885,1.036-1.78,3.736-2.909,4.375c0.952-0.243,1.904-0.485,2.855-0.728 c-0.278-1.7,0.185-4.129-2.057-4.738c-0.528-0.144-2.414,0.354-2.794,0.749c-1.319,1.365-2.461,2.778-3.979,3.988 c0.952-0.243,1.903-0.485,2.855-0.728c1.61-6.454-5.705-4.769-9.46-3.528c-0.036,0.012-0.712,0.203-0.688,0.305 c0.259,1.078,0.388,1.847,0.21,2.935c-0.213,0.341-0.427,0.683-0.641,1.024c1.542-0.12,1.642-0.301,0.3-0.544 c-1.945-0.861,0.189-3.563,1.378-3.986C76.015,60.449,73.178,61.077,72.815,61.206L72.815,61.206z"/>
<path d="M106.415,61.662c-0.572,4.963-8.326,3.291-2.783-0.747c-0.294,0.215,2.843,5.691,4.499,5.509 c4.611-0.506,9.027-4.269,10.373-8.662c-0.471,0.173-0.942,0.346-1.414,0.519c0.059-0.016,0.116-0.031,0.174-0.046 c-0.495,0.086-0.989,0.172-1.483,0.258c0.497,0.931,2.154,2.579,2.146,3.38c-0.026,3.071-2.833,3.916-5.55,3.867 c-0.877-0.016-2.235,0.828-2.775,0.818c8.218,0.149,16.45-0.016,24.654-0.508c0.596-0.036,2.723-0.817,2.467-0.802 c-6.733,0.404-13.475,0.54-20.22,0.53c-1.344-0.002-2.688-0.015-4.031-0.037c2.453,0.04-5.285,1.101,0.112,0.75 c0.674-0.044,1.361-0.197,2.021-0.356c2.128-0.514,4.272-1.12,5.6-2.986c1.612-2.267-0.495-3.501-1.526-5.432 c-0.097-0.182-1.351,0.222-1.484,0.258c-2.495,0.661-5.389,8.772-7.645,6.996c-3.169-2.495-2.258-5.817-6.831-4.225 c-1.627,0.566-2.912,1.427-3.913,2.852c-1.307,1.857,1.587,2.868,2.951,2.631c3.016-0.524,7.141-1.735,7.558-5.342 C109.294,61.049,106.478,61.124,106.415,61.662L106.415,61.662z"/>
<path d="M156.188,53.636c-0.26-5.587-6.946-7.665-11.595-6.679c-6.151,1.306-9.89,5.162-10.843,11.532 c-0.668,4.458,3.774,7.729,7.872,7.51c6.67-0.355,10.843-6.039,13.815-11.364c-0.149,0.268-2.392,0.43-2.855,0.728 c-4.38,2.811-6.738,8.369-1.2,11.611c2.84,1.663,7.015-1.528,8.556-3.464c-0.405,0.509-2.342,0.078-2.898,0.776 c-1.884,2.368-2.088,2.761-4.296,0.785c-1.31-1.172-1.935-3.074-1.878-4.765c0.079-2.353,2.714-4.458,4.529-5.623 c-0.951,0.243-1.903,0.485-2.855,0.728c-2.477,4.437-7.004,12.462-12.94,8.479c-2.117-1.42-3.186-3.701-2.951-6.179 c0.549-5.801,4.516-11.054,10.829-9.754c3.004,0.618,5.668,3.326,5.813,6.454C153.29,54.406,156.207,54.039,156.188,53.636 L156.188,53.636z"/>
<path d="M201.563,42.136c1.434-2.112,2.229-4.929,1.076-7.321c-2.918-6.051-15.511-3.835-20.445-2.896 c-4.752,0.903-10.853,2.651-12.982,7.464c-2.839,6.413,6.211,9.623,10.717,10.281c2.839,0.415,9.713,0.442,11.182-2.934 c1.983-4.56-7.095-3.375-8.831-2.911c-7.058,1.892-12.876,8.213-16.843,14.067c-5.903,8.712,6.486,9.472,12.069,9.164 c0.596-0.033,2.724-0.816,2.467-0.802c-3.956,0.218-12.693,0.845-13.174-4.849c-0.194-2.314,1.757-4.698,3.053-6.385 c2.588-3.369,5.874-6.552,9.271-9.109c2.215-1.667,9.1-3.641,9.172,1.182c0.073,4.912-12.229,0.054-14.18-1.585 c-2.489-2.094-2.979-5.319-1.406-8.082c3.892-6.833,16.996-6.81,23.695-4.467c4.591,1.605,4.646,6.445,2.261,9.958 C198.999,42.421,201.08,42.847,201.563,42.136L201.563,42.136z"/>
<path d="M191.563,63.011c-0.717-2.832-3.698-2.862-5.99-2.248c-1.787,0.479-7.993,3.637-4.604,5.592 c2.025,1.169,6.179-0.596,8.072-1.416c2.001-0.867,3.412-2.61,4.602-4.356c0.807-1.185,3.491-6.846,1.974-8.057 c-0.428-0.341-2.416,0.495-2.855,0.728c-3.193,1.689-2.79,9.5-2.346,12.283c0.068,0.032,0.141,0.036,0.216,0.013 c2.827-0.389,5.545-1.273,8.038-2.651c3.489-1.929,0.117-2.492-0.789-1.039c-0.347,0.556-0.674,1.105-0.965,1.693 c-0.739,1.496-0.425,2.592,1.207,2.907c2.777,0.536,7.014-1.294,9.109-2.947c0.642-0.506,1.115-1.243,1.54-1.923 c1.371-2.197-0.063-0.497-1.027-0.932c4.014,1.81,1.348,6.668-1.681,3.103c-0.386-0.454-2.751,0.95-2.898,0.776 c1.952,2.298,4.178,2.396,6.827,1.258c1.545-0.664,3.1-1.604,2.854-3.511c-0.156-1.215-2.171-2.871-3.435-2.732 c-2.445,0.269-2.563,0.845-3.538,2.814c-0.859,1.733-5.762,5.379-6.468,2.036c-0.24-1.135,0.911-2.581,1.471-3.478 c-0.021-0.007-0.04-0.014-0.061-0.021c-1.217,0.015-2.549,0.446-3.358,1.336c-0.401,0.44-3.984,3.527-4.372,1.1 c-0.224-1.396-0.051-2.857,0.089-4.25c0.161-1.614,0.713-5.622,2.398-6.514c-0.951,0.243-1.903,0.485-2.855,0.728 c1.091,0.871-0.435,4.54-0.74,5.498c-0.935,2.927-3.672,6.886-7.101,6.939c-5.062,0.08,2.168-8.353,3.788-1.953 C188.712,63.971,191.616,63.221,191.563,63.011L191.563,63.011z"/>
<path d="M219.07,61.876c-2.554,0.784-6.724,3.554-1.664,4.566c2.816,0.563,6.744-1.706,5.157-4.682 c-0.816,0.251-1.633,0.503-2.449,0.755c3.596-0.588,8.36-0.017,6.551,4.646c0.116-0.298,2.49-0.276,2.898-0.776 c0.495-0.607,3.928-4.694,4.181-3.104c0.11,0.69-2.31,2.861-0.563,3.146c4.674,0.763,10.1,0.077,14.835,0.021 c3.695-0.043,7.53-0.059,11.131-0.99c1.479-0.382,4.687-1.054,2.416-2.822c-0.585-0.456-2.569,1.033-2.898,0.776 c1.633,1.271,0.579,1.748-1.218,1.931c-2.903,0.296-5.846,0.286-8.762,0.308c-1.68,0.012-12.73,0.982-13.235-0.674 c-0.362-1.188,2.146-2.028,0.738-3.216c-0.601-0.506-2.25,0.138-2.838,0.296c-2.821,0.756-4.883,2.898-6.686,5.105 c0.966-0.259,1.933-0.518,2.898-0.776c2.008-5.177-3.888-5.187-7.449-4.604c-0.199,0.033-2.513,0.635-2.449,0.755 c2.29,4.292-5.339,1.099,0.243-0.616C221.921,61.303,219.979,61.597,219.07,61.876L219.07,61.876z"/>
</svg>