<?xml version="1.0" encoding="UTF-8" standalone="no"?>
<!-- Created with Inkscape (http://www.inkscape.org/) -->

<svg
   xmlns:dc="http://purl.org/dc/elements/1.1/"
   xmlns:cc="http://creativecommons.org/ns#"
   xmlns:rdf="http://www.w3.org/1999/02/22-rdf-syntax-ns#"
   xmlns:svg="http://www.w3.org/2000/svg"
   xmlns="http://www.w3.org/2000/svg"
   xmlns:sodipodi="http://sodipodi.sourceforge.net/DTD/sodipodi-0.dtd"
   xmlns:inkscape="http://www.inkscape.org/namespaces/inkscape"
   id="svg2816"
   version="1.1"
   inkscape:version="0.47 r22583"
   width="391"
   height="117"
   sodipodi:docname="Untitled 1.png">
  <metadata
     id="metadata2822">
    <rdf:RDF>
      <cc:Work
         rdf:about="">
        <dc:format>image/svg+xml</dc:format>
        <dc:type
           rdf:resource="http://purl.org/dc/dcmitype/StillImage" />
        <dc:title></dc:title>
      </cc:Work>
    </rdf:RDF>
  </metadata>
  <defs
     id="defs2820">
    <inkscape:perspective
       sodipodi:type="inkscape:persp3d"
       inkscape:vp_x="0 : 0.5 : 1"
       inkscape:vp_y="0 : 1000 : 0"
       inkscape:vp_z="1 : 0.5 : 1"
       inkscape:persp3d-origin="0.5 : 0.33333333 : 1"
       id="perspective2824" />
  </defs>
  <sodipodi:namedview
     pagecolor="#ffffff"
     bordercolor="#666666"
     borderopacity="1"
     objecttolerance="10"
     gridtolerance="10"
     guidetolerance="10"
     inkscape:pageopacity="0"
     inkscape:pageshadow="2"
     inkscape:window-width="1366"
     inkscape:window-height="706"
     id="namedview2818"
     showgrid="false"
     inkscape:zoom="1.3810742"
     inkscape:cx="94.769922"
     inkscape:cy="49.144712"
     inkscape:window-x="-8"
     inkscape:window-y="-8"
     inkscape:window-maximized="1"
     inkscape:current-layer="svg2816" />
  <path
     style="fill:#000000"
     d="m 53.614831,108.35802 c -0.281976,-0.45625 -2.096536,-0.70481 -4.032356,-0.55235 -3.237223,0.25494 -5.54398,-1.00528 -4.235392,-2.31387 0.632618,-0.63261 13.944941,-4.31259 17.652917,-4.87986 1.375,-0.21036 4.975,-1.11326 8,-2.006448 3.025,-0.893188 6.85,-1.825331 8.5,-2.071429 1.65,-0.246098 5.79202,-0.925279 9.204488,-1.50929 l 6.204488,-1.061838 -1.593169,-2.431482 c -1.22903,-1.875738 -1.447824,-3.822058 -0.957262,-8.515499 0.546664,-5.230201 0.433513,-5.916045 -0.806278,-4.88711 -0.793201,0.658298 -2.479452,1.049862 -3.747225,0.870142 -3.75718,-0.53262 -3.828669,-5.579081 -0.277329,-19.576764 1.709365,-6.7375 3.016978,-12.25 2.905806,-12.25 -0.111172,0 -5.766693,5.533245 -12.567825,12.296099 -17.912879,17.812064 -25.104489,22.703901 -33.377563,22.703901 -3.441528,0 -4.662129,-0.456601 -5.523591,-2.066257 -1.352252,-2.526706 -0.90562,-8.966572 0.74297,-10.712682 0.664131,-0.703416 0.925159,-2.014736 0.580062,-2.914045 -0.422534,-1.101104 -0.241529,-1.396594 0.554234,-0.904785 0.776246,0.479746 1.392093,-0.321724 1.794939,-2.335955 0.33729,-1.686452 0.951905,-3.066276 1.36581,-3.066276 1.255366,0 2.756065,2.405236 2.495721,4 -1.847893,11.319447 -1.802867,12 0.793933,12 5.060834,0 26.466195,-16.55739 39.6112,-30.639899 C 92.621492,39.406426 102,27.108185 102,25.735836 c 0,-0.288628 1.53852,-2.929868 3.41893,-5.86942 3.29285,-5.147559 9.73439,-11.6941938 11.50646,-11.6941938 0.47069,0 1.03967,1.575 1.2644,3.4999998 0.22474,1.925 0.14599,3.5 -0.17498,3.5 -0.32098,0 -1.43857,1.447364 -2.48355,3.216364 -1.04497,1.769001 -4.63617,6.381501 -7.98044,10.25 -3.34427,3.8685 -6.79467,8.158636 -7.667556,9.533636 -3.131316,4.93254 -6.98846,18.632534 -9.642862,34.25 -0.768449,4.521251 1.424162,3.134951 4.282763,-2.707821 1.468645,-3.001801 3.374874,-6.039301 4.236065,-6.75 0.861191,-0.710698 2.37768,-3.092179 3.36997,-5.292179 2.19816,-4.873526 8.45061,-11.806554 10.14023,-11.243991 3.04632,1.014285 1.17328,5.481572 -7.93207,18.918273 -3.39229,5.005996 -5.66157,13.546265 -5.206727,19.59519 0.349968,4.654196 2.793317,8.306191 4.869367,7.278078 1.42601,-0.706199 10.89934,-1.933889 32,-4.147022 12.34908,-1.295228 24.9765,-2.810726 27.5,-3.300454 1.1,-0.213474 5.15,-0.712129 9,-1.108123 10.97443,-1.128782 15.17804,-3.407339 21.72128,-11.773972 6.73812,-8.615813 9.26549,-12.299524 14.11114,-20.567351 l 3.65328,-6.233383 -3.96317,3.184891 c -2.17974,1.75169 -3.682,3.639839 -3.33834,4.195886 0.35884,0.580625 0.12581,0.702588 -0.54742,0.286506 -0.65762,-0.406433 -2.81074,0.559733 -4.90451,2.200797 -2.05274,1.608908 -4.85726,3.505011 -6.23226,4.213563 -1.375,0.708553 -5.10725,3.901965 -8.29388,7.096472 -3.45134,3.459873 -6.36107,5.590543 -7.19673,5.26987 -0.80551,-0.309104 -1.53199,-2.270479 -1.70612,-4.606279 L 175.5,62.863219 l -3,2.426575 c -5.878,4.754472 -15.5,7.709346 -15.5,4.759983 0,-0.744069 -0.53966,-0.67457 -1.60088,0.206169 -1.70762,1.417201 -1.77775,1.439548 -7.89912,2.517331 -2.2,0.387352 -5.27203,1.760576 -6.82673,3.05161 -1.55469,1.291034 -3.35469,2.417636 -4,2.50356 -0.6453,0.08592 -2.29827,0.258117 -3.67327,0.382653 -1.375,0.124536 -3.93078,0.815919 -5.67951,1.536407 -2.54004,1.046509 -3.7211,1.063213 -5.87233,0.08305 -2.45636,-1.119196 -2.63693,-1.576374 -2.05642,-5.206699 0.35002,-2.188874 1.49256,-4.910941 2.53899,-6.049037 1.04643,-1.138097 3.1776,-3.439721 4.73594,-5.114721 3.53778,-3.802646 8.57968,-6.015137 11.84175,-5.196409 3.14964,0.790508 3.12493,2.0032 -0.17021,8.354449 -1.99678,3.8487 -2.37619,5.416101 -1.51862,6.273667 0.85756,0.857565 2.75566,-0.559001 7.59731,-5.669936 4.64663,-4.905064 6.92263,-6.633338 8.12696,-6.171193 1.54438,0.592636 1.54933,0.830365 0.0645,3.096547 -2.60249,3.971915 -1.78625,5.27698 1.26652,2.024996 3.536,-3.766735 8.86264,-6.733759 9.68889,-5.39686 0.33464,0.541458 0.081,1.620045 -0.56374,2.39686 -0.6447,0.776815 -0.91918,1.821753 -0.60996,2.322086 0.61629,0.997229 5.60993,0.35361 5.60993,-0.723055 0,-0.367298 1.35,-1.46528 3,-2.439959 2.18195,-1.288907 3,-2.525605 3,-4.535272 0,-3.295776 4.76329,-8.124834 6.01556,-6.098618 0.56334,0.911502 2.31928,0.376373 6.74046,-2.054183 6.62751,-3.643493 9.82153,-3.543417 8.74742,0.274076 -0.34895,1.240209 -0.26748,1.804926 0.18105,1.254926 0.44853,-0.55 2.6026,-1.9 4.78681,-3 3.56355,-1.794652 10.94412,-7.457124 18.87376,-14.480201 2.7914,-2.472271 4.4376,-2.814764 3.86648,-0.804424 -0.15865,0.558456 -3.12047,5.575956 -6.58181,11.15 C 206.8175,60.338913 206,61.800347 206,63.540256 c 0,0.897581 -0.50695,1.519466 -1.12656,1.381966 -0.86783,-0.192583 -13.1515,15.372202 -12.51796,15.861653 0.32611,0.251939 43.88424,-5.575054 53.14452,-7.109413 5.5,-0.911308 21.475,-3.163922 35.5,-5.005808 14.025,-1.841885 32.025,-4.290088 40,-5.440449 7.975,-1.150362 23.725,-2.907916 35,-3.905677 17.44564,-1.543819 20.98423,-1.613666 23.75,-0.468788 4.3705,1.809148 4.09111,3.020791 -1,4.336726 -2.3375,0.60419 -5.57547,1.516369 -7.19549,2.027065 -2.06392,0.650632 -3.56038,0.551534 -5,-0.331107 -1.48317,-0.909352 -4.41827,-1.06735 -10.55451,-0.568157 -4.675,0.380319 -11.2,0.774585 -14.5,0.876147 -3.3,0.101563 -7.575,0.561264 -9.5,1.021559 -1.925,0.460295 -6.16788,1.111875 -9.42863,1.447956 -3.26074,0.336081 -6.24991,0.80962 -6.64259,1.052308 -0.88917,0.549541 -22.66258,3.441496 -29.42878,3.908745 -5.20462,0.359413 -24.88532,3.260549 -27.5,4.053781 -0.825,0.250285 -3.075,0.655272 -5,0.89997 -12.41388,1.578003 -38.45395,5.756011 -39.35814,6.314831 -0.59737,0.369194 -2.7095,0.55405 -4.69362,0.410792 -1.98412,-0.143258 -7.39666,0.438715 -12.02787,1.293274 -4.6312,0.854559 -10.18298,1.823128 -12.33728,2.152376 -2.15429,0.329248 -5.05332,1.030697 -6.44227,1.558777 -1.38896,0.52808 -7.27635,1.187712 -13.0831,1.465849 -20.42355,0.978268 -58.50098,6.202239 -60.05532,8.239192 -0.27632,0.362119 -3.96523,0.693108 -8.197578,0.735532 -7.711924,0.0773 -12.278724,0.820424 -27.445744,4.466064 -4.477507,1.07624 -9.282864,1.9568 -10.678571,1.9568 -1.395708,0 -3.216102,0.67845 -4.045321,1.50767 -0.829219,0.82922 -1.738378,1.13438 -2.020355,0.67813 z M 134.31023,67.253307 c 1.53736,-3.287089 1.45854,-5.081085 -0.22322,-5.081085 -1.22276,0 -5.61693,4.332597 -6.36115,6.272019 -0.3647,0.95039 -1.10138,1.727981 -1.63706,1.727981 -0.53568,0 -0.80064,0.9 -0.5888,2 0.21184,1.1 -0.1515,2.006891 -0.80742,2.015313 -0.74589,0.0096 -0.65169,0.357526 0.2515,0.928963 1.90508,1.205325 7.20636,-3.245273 9.36615,-7.863191 z m 47.14706,-4.150183 C 180.60006,61.71608 180,61.974713 180,63.731239 c 0,0.857459 0.45734,1.276365 1.01631,0.930902 0.55897,-0.345464 0.75742,-1.047021 0.44098,-1.559017 z m 5.13772,-6.085704 1.90499,-2.154801 -3,1.852142 c -4.08404,2.521405 -4.02363,2.457461 -2.32165,2.457461 0.83142,0 2.36892,-0.969661 3.41666,-2.154802 z M 109.82874,21.074843 c 1.89628,-3.036418 0.75554,-3.443285 -1.21633,-0.433829 -0.91219,1.392164 -1.30639,2.531208 -0.87601,2.531208 0.43038,0 1.37193,-0.94382 2.09234,-2.097379 z"
     id="path2846"
     sodipodi:nodetypes="cssssscccsssssssssssssssssssssssssssssssssssscccsssssscccssssssssssssssssssssssssssssssssssssssssssssssssssssssssssssssccssssssccssccccsccssc" />
</svg>
