<?xml version="1.0" encoding="UTF-8" standalone="no"?>
<!-- Created with Inkscape (http://www.inkscape.org/) -->

<svg
   xmlns:dc="http://purl.org/dc/elements/1.1/"
   xmlns:cc="http://creativecommons.org/ns#"
   xmlns:rdf="http://www.w3.org/1999/02/22-rdf-syntax-ns#"
   xmlns:svg="http://www.w3.org/2000/svg"
   xmlns="http://www.w3.org/2000/svg"
   xmlns:sodipodi="http://sodipodi.sourceforge.net/DTD/sodipodi-0.dtd"
   xmlns:inkscape="http://www.inkscape.org/namespaces/inkscape"
   id="svg2"
   version="1.1"
   inkscape:version="0.47 r22583"
   width="100"
   height="75"
   sodipodi:docname="CheGuevaraSignature.svg">
  <metadata
     id="metadata8">
    <rdf:RDF>
      <cc:Work
         rdf:about="">
        <dc:format>image/svg+xml</dc:format>
        <dc:type
           rdf:resource="http://purl.org/dc/dcmitype/StillImage" />
        <dc:title />
      </cc:Work>
    </rdf:RDF>
  </metadata>
  <defs
     id="defs6">
    <inkscape:perspective
       sodipodi:type="inkscape:persp3d"
       inkscape:vp_x="0 : 0.5 : 1"
       inkscape:vp_y="0 : 1000 : 0"
       inkscape:vp_z="1 : 0.5 : 1"
       inkscape:persp3d-origin="0.5 : 0.33333333 : 1"
       id="perspective10" />
  </defs>
  <sodipodi:namedview
     pagecolor="#ffffff"
     bordercolor="#666666"
     borderopacity="1"
     objecttolerance="10"
     gridtolerance="10"
     guidetolerance="10"
     inkscape:pageopacity="0"
     inkscape:pageshadow="2"
     inkscape:window-width="751"
     inkscape:window-height="486"
     id="namedview4"
     showgrid="false"
     inkscape:zoom="0.67428571"
     inkscape:cx="42.813931"
     inkscape:cy="38.806458"
     inkscape:window-x="0"
     inkscape:window-y="0"
     inkscape:window-maximized="0"
     inkscape:current-layer="svg2" />
  <path
     style="fill:#000000;fill-opacity:1"
     d="m 33.967262,68.80327 c -0.13992,-1.41666 1.024218,-2.52785 3.730935,-3.56125 7.132675,-2.87767 14.319418,-6.13389 22.121276,-6.48369 2.20798,0.17917 4.167516,0.89756 3.431394,2.56916 -0.422744,1.05574 -1.402573,1.43694 -2.286524,2.02624 -6.429182,2.38748 -13.196884,3.68502 -19.661073,6.012 -2.080792,0.86745 -6.668975,3.13311 -7.336008,-0.56246 z M 8.7271766,61.86807 C 5.5540996,60.58203 3.9425476,59.13556 3.1758374,56.88539 1.7344809,52.65524 2.6011235,48.43418 5.7516066,44.33989 c 2.657823,-3.45403 4.8888204,-5.51672 7.2921434,-6.74201 4.31393,-2.19937 7.563339,-2.21291 10.795713,-0.045 2.425675,1.62687 3.210208,3.40234 3.235205,7.32155 l 0.02037,3.19398 -6.548438,3.15489 c -0.157767,0 -0.09619,-0.95221 0.36614,-5.6618 0.177384,-1.80694 -0.82035,-3.24485 -2.251533,-3.24485 -2.066578,0 -5.094768,1.99756 -6.985058,4.60774 -2.4317964,3.3579 -2.3816344,6.30836 0.136182,8.01002 8.09527,3.85681 24.280349,-12.02742 29.495595,-17.28596 5.382628,-5.75297 6.86743,-7.78315 9.613877,-13.1451 1.493535,-2.91587 3.428378,-6.35129 4.299643,-7.63428 0.87127,-1.28298 2.80708,-4.14583 4.301807,-6.36189 1.494727,-2.2160602 2.921271,-4.2597202 3.170102,-4.5414602 l 5.061468,-1.8160197 c 0.37307,0.148905 0.422408,0.54283 0.619881,1.58046 0.192193,1.0098797 0.06022,1.5705097 -0.499192,2.1206297 -0.739791,0.7275 -2.370582,3.2834402 -4.093552,6.4158302 -0.911753,1.65759 -5.013308,7.99427 -5.724029,8.84332 -0.532546,0.6362 -3.393778,6.17855 -4.198897,8.13347 -0.516484,1.25408 -0.508188,1.57921 0.06493,2.54442 1.548553,2.60797 4.848663,5.9458 6.67705,6.75336 2.140332,0.94534 5.937768,1.58005 5.937768,0.99244 0,-0.21049 -0.286286,-1.19413 -0.63619,-2.18586 -1.262395,-3.57802 -0.545558,-9.14832 1.662062,-12.91535 1.297937,-2.21475 4.391348,-4.86787 6.554494,-5.62156 2.749534,-0.95801 5.188799,-0.70442 7.158657,0.74423 2.629456,1.93373 3.559081,3.71122 3.592388,6.86885 0.05375,5.09608 -0.844389,7.07991 -5.103821,11.2734 -3.405115,3.3524 -3.457371,3.69453 -0.661688,4.33226 1.956105,0.44622 3.811123,-0.0119 6.582045,-1.62556 3.978322,-2.31676 6.162038,-3.55656 7.532029,-4.23261 0.965299,-0.47635 1.526613,-0.67282 2.027053,-0.76893 1.72789,-0.33185 2.25419,0.0124 2.25419,1.47448 0,2.48384 -6.611486,7.38978 -11.737756,8.7098 -4.834946,1.52324 -9.191694,2.02526 -13.804618,0.0114 C 70.662387,46.97281 70.18209,46.92512 69.286878,47.33301 61.86234,49.2024 55.291636,45.4412 49.925251,40.537 l -1.132922,-1.20734 -4.804846,4.80133 C 37.201925,50.64559 29.881949,57.4414 21.224219,61.42671 17.702984,62.75365 11.456473,62.97428 8.7271756,61.8681 l 0,-10e-6 z M 75.332757,37.89068 c 3.056016,-3.47182 3.956283,-5.06854 3.985506,-7.06875 0.06624,-4.53425 -2.391059,-5.87619 -6.047201,-3.3024 -1.841875,1.29661 -2.638133,3.50794 -2.354987,6.54012 0.264006,2.82718 1.394939,5.71225 2.239175,5.71225 0.286875,0 1.266751,-0.84655 2.177507,-1.88122 z"
     id="path2818"
     sodipodi:nodetypes="ccccccccsssscccsssccsssccsssssssssssssssssssccccccccccssscc" />
</svg>
