<?xml version="1.0" standalone="no"?>
<!DOCTYPE svg PUBLIC "-//W3C//DTD SVG 20010904//EN"
 "http://www.w3.org/TR/2001/REC-SVG-20010904/DTD/svg10.dtd">
<svg version="1.0" xmlns="http://www.w3.org/2000/svg"
 width="468pt" height="57pt" viewBox="0 0 468 57"
 preserveAspectRatio="xMidYMid meet">
<metadata>
Created by POTRACE VERSION, written by Peter Selinger 2001-2007
</metadata>
<g transform="translate(0,57) scale(0.023400,-0.023400)"
fill="#000000" stroke="none">
<path d="M1237 2140 c-26 -16 -51 -30 -56 -30 -5 0 -69 -52 -142 -115 -74 -64
-176 -155 -227 -203 -51 -48 -139 -139 -196 -202 -57 -63 -125 -143 -152 -177
-27 -34 -67 -89 -89 -123 -22 -34 -54 -87 -72 -119 -24 -41 -33 -69 -33 -103
0 -26 5 -58 11 -71 6 -14 22 -30 36 -36 13 -6 33 -11 44 -11 11 0 31 11 44 25
14 13 25 29 25 34 0 6 -13 23 -30 38 -21 19 -30 35 -30 58 0 21 13 50 39 86
22 30 54 79 72 109 18 30 48 73 67 95 20 22 90 98 156 170 67 71 136 143 155
160 19 16 77 67 128 112 52 46 106 89 121 97 15 8 58 35 95 60 38 25 74 46 81
46 7 0 17 -5 24 -12 7 -7 12 -34 12 -60 0 -41 3 -48 19 -48 11 0 29 12 40 26
15 19 21 41 21 78 0 34 -8 67 -22 96 -20 39 -28 45 -58 48 -25 2 -48 -6 -83
-28z"/>
<path d="M14417 2029 c-11 -6 -25 -26 -33 -44 -8 -19 -11 -41 -8 -50 5 -13 17
-15 65 -9 48 5 63 3 91 -14 18 -11 46 -34 62 -51 17 -17 38 -31 48 -31 10 0
21 7 24 15 3 8 -5 34 -19 57 -14 24 -46 63 -71 87 -38 37 -52 44 -93 48 -26 2
-56 -2 -66 -8z"/>
<path d="M5338 2019 c-12 -7 -18 -22 -18 -47 0 -24 10 -53 28 -80 15 -24 37
-45 49 -49 13 -3 30 -3 38 1 9 3 15 18 15 38 -1 19 -15 57 -34 88 -18 30 -39
56 -47 57 -8 2 -22 -2 -31 -8z"/>
<path d="M1439 1889 c-6 -12 -19 -46 -30 -77 -11 -31 -44 -99 -73 -152 -29
-52 -55 -99 -57 -105 -2 -5 -19 -36 -38 -69 -22 -38 -45 -63 -64 -71 -25 -11
-40 -9 -113 16 -46 15 -110 31 -142 34 -33 4 -69 2 -84 -4 -22 -8 -28 -17 -28
-40 0 -15 6 -33 13 -39 6 -5 53 -13 102 -16 50 -4 109 -8 132 -9 23 -2 49 -9
57 -16 9 -8 16 -24 16 -36 0 -13 -9 -45 -21 -71 -11 -27 -42 -87 -69 -134 -27
-47 -52 -99 -56 -116 -4 -21 -1 -34 10 -44 14 -11 21 -9 46 15 16 15 56 72 90
127 33 54 60 102 60 106 0 4 25 50 56 102 32 52 68 120 81 150 14 30 33 66 43
80 10 14 26 53 34 87 9 34 32 95 51 135 20 41 35 88 35 108 0 20 -5 41 -12 48
-7 7 -15 12 -20 12 -4 0 -12 -9 -19 -21z"/>
<path d="M10100 1806 c-25 -7 -79 -29 -120 -49 -41 -20 -97 -52 -125 -71 -27
-19 -72 -52 -99 -73 -27 -21 -83 -64 -125 -96 -42 -32 -147 -129 -234 -215
-87 -86 -175 -181 -195 -210 -20 -29 -54 -79 -74 -110 -20 -32 -37 -70 -37
-87 0 -16 3 -36 8 -43 4 -8 19 -12 32 -10 17 2 33 20 59 68 20 36 58 93 85
127 28 34 75 92 106 130 31 37 77 85 102 106 25 20 49 46 52 57 3 11 41 44 83
74 42 31 113 83 156 116 44 34 98 71 120 82 23 11 66 40 96 64 46 36 68 45
126 55 39 7 78 10 87 6 9 -3 31 -37 50 -74 18 -37 40 -68 48 -68 9 0 15 12 17
33 2 21 -7 56 -26 97 -17 35 -41 70 -54 78 -12 9 -39 18 -58 21 -19 3 -55 -1
-80 -8z"/>
<path d="M19204 1771 c-12 -5 -31 -22 -43 -37 -11 -14 -21 -34 -21 -44 0 -9 3
-19 6 -23 4 -3 27 4 53 17 25 13 60 27 78 30 17 4 49 2 72 -4 22 -6 64 -31 92
-55 29 -25 56 -45 60 -45 3 0 25 -24 48 -54 33 -43 46 -73 65 -148 22 -88 23
-105 15 -259 -7 -140 -13 -184 -44 -304 -21 -77 -41 -167 -46 -199 -5 -33 -19
-100 -30 -149 -12 -49 -30 -108 -40 -131 -10 -23 -21 -60 -24 -81 -5 -28 -2
-46 8 -60 15 -19 16 -19 35 -2 11 10 32 53 47 95 15 42 39 119 52 172 14 52
32 122 40 155 8 33 28 121 44 195 25 115 30 163 34 320 4 164 2 194 -16 260
-11 41 -38 104 -59 140 -21 36 -56 78 -78 95 -23 17 -66 50 -97 74 -56 44 -58
45 -144 48 -47 2 -96 -1 -107 -6z"/>
<path d="M17661 1687 c-35 -23 -78 -61 -94 -85 -25 -34 -32 -55 -35 -106 -2
-35 1 -80 8 -100 6 -19 32 -56 57 -80 34 -34 56 -47 87 -51 24 -4 62 -1 87 5
24 7 64 21 89 32 25 11 64 38 87 59 24 22 53 39 65 40 13 0 42 2 66 4 24 2 50
9 58 15 7 7 14 23 14 36 0 14 -10 30 -24 39 -13 9 -48 21 -77 27 -30 6 -68 8
-84 4 -16 -4 -52 -31 -80 -61 -27 -29 -60 -58 -72 -64 -12 -6 -43 -11 -70 -11
-26 0 -53 4 -60 8 -6 4 -12 14 -13 22 -1 8 -2 23 -1 33 0 10 35 51 76 91 69
67 75 77 75 113 0 26 -6 46 -18 56 -10 10 -32 17 -48 17 -17 0 -54 -17 -93
-43z"/>
<path d="M15271 1639 c-6 -18 -11 -48 -11 -68 0 -20 -6 -52 -13 -71 -7 -19
-20 -48 -29 -65 -9 -16 -29 -42 -45 -56 -15 -14 -65 -54 -111 -88 -53 -41 -84
-72 -88 -88 -5 -19 -2 -30 11 -39 12 -9 24 -10 43 -3 14 6 48 30 74 55 41 38
51 43 68 34 13 -7 20 -21 20 -41 0 -16 6 -45 14 -64 8 -18 24 -39 36 -45 11
-6 33 -10 48 -8 16 2 32 13 41 30 14 24 13 29 -12 65 -16 23 -27 53 -27 71 0
18 6 48 14 67 8 18 27 46 43 62 15 16 57 48 93 72 36 24 75 53 88 64 14 14 22
32 22 54 0 26 -6 36 -26 45 -23 11 -29 8 -71 -35 -29 -30 -54 -47 -69 -47 -17
0 -25 7 -30 28 -4 15 -15 44 -26 65 -10 20 -25 37 -32 37 -8 0 -19 -14 -25
-31z"/>
<path d="M3277 1651 c-21 -5 -50 -17 -65 -28 -15 -11 -31 -31 -36 -45 -5 -14
-6 -37 -2 -52 4 -18 13 -26 28 -26 12 0 29 7 39 16 10 9 35 22 56 30 21 7 64
13 95 14 38 0 62 5 72 16 9 8 16 20 16 25 0 5 -9 18 -20 29 -11 11 -28 20 -39
20 -10 0 -38 2 -62 4 -24 3 -61 1 -82 -3z"/>
<path d="M14555 1650 c-17 -5 -45 -25 -64 -43 -24 -26 -32 -42 -29 -63 2 -19
10 -30 22 -32 10 -2 38 11 63 28 28 21 61 35 89 38 25 2 50 13 61 24 13 15 15
23 7 36 -8 12 -27 18 -65 19 -30 1 -68 -2 -84 -7z"/>
<path d="M16373 1644 c-7 -3 -13 -16 -13 -29 0 -15 7 -25 23 -29 12 -3 42 -6
66 -6 31 0 69 -12 128 -40 59 -29 87 -49 98 -70 8 -16 15 -41 15 -55 0 -14 -6
-40 -14 -58 -7 -18 -44 -63 -81 -102 -36 -38 -78 -88 -92 -112 -14 -25 -23
-53 -21 -70 2 -20 9 -29 24 -31 17 -2 49 27 138 127 64 71 140 145 169 164 29
19 81 48 116 66 36 18 75 31 90 29 24 -3 26 -8 31 -57 3 -35 11 -58 22 -64 12
-8 24 -7 43 1 15 7 33 28 41 49 10 22 13 49 10 68 -4 18 -17 48 -29 66 -14 21
-37 39 -61 47 -27 9 -49 9 -75 2 -20 -5 -54 -23 -76 -39 -22 -16 -58 -34 -80
-40 -32 -8 -44 -8 -62 4 -13 9 -23 20 -23 25 0 5 -24 27 -52 48 -29 21 -84 52
-123 69 -45 20 -93 33 -135 37 -36 3 -71 3 -77 0z"/>
<path d="M11242 1573 c-5 -10 -12 -31 -16 -47 -4 -15 -2 -43 4 -61 6 -18 18
-36 27 -39 9 -4 26 0 39 9 13 8 26 29 29 49 4 19 4 45 0 58 -4 12 -12 29 -17
36 -6 6 -21 12 -34 12 -13 0 -27 -8 -32 -17z"/>
<path d="M14116 1514 c-3 -9 -6 -31 -6 -50 0 -19 -6 -49 -14 -67 -7 -18 -31
-47 -52 -65 -21 -18 -49 -42 -61 -52 -17 -13 -23 -29 -23 -58 0 -25 6 -45 16
-53 13 -11 52 -13 159 -12 79 1 160 6 181 12 22 6 53 11 69 11 17 0 41 7 53
16 12 8 22 22 22 30 0 8 -9 23 -19 33 -18 18 -30 19 -128 14 -96 -5 -111 -4
-127 12 -15 15 -17 26 -10 59 5 23 8 62 9 87 0 25 -6 58 -14 73 -8 14 -22 26
-32 26 -9 0 -20 -7 -23 -16z"/>
<path d="M10295 1454 c-16 -10 -54 -24 -84 -31 -31 -8 -91 -38 -138 -70 -47
-30 -98 -73 -114 -96 -24 -32 -29 -50 -29 -94 0 -33 7 -66 17 -83 9 -15 37
-38 62 -49 42 -20 53 -21 131 -12 53 6 114 21 160 40 41 17 83 31 92 31 9 0
25 -12 35 -26 10 -14 30 -40 45 -59 16 -18 41 -35 58 -39 21 -4 55 3 102 19
39 14 80 32 90 42 10 9 18 26 18 39 0 13 -9 28 -20 34 -15 8 -34 7 -75 -6 -43
-14 -60 -15 -79 -6 -14 6 -28 23 -32 36 -3 14 2 50 11 81 17 53 17 58 0 114
-11 37 -32 75 -56 102 -36 41 -41 43 -101 46 -45 2 -72 -1 -93 -13z m125 -109
c8 -9 10 -29 7 -50 -3 -20 -16 -52 -27 -71 -12 -19 -43 -46 -69 -60 -25 -13
-59 -33 -76 -44 -26 -16 -42 -18 -113 -13 -73 5 -85 9 -98 29 -14 20 -14 26 2
59 11 24 38 50 83 79 36 23 86 50 111 59 25 9 54 18 65 20 11 3 39 5 61 6 26
1 46 -5 54 -14z"/>
<path d="M13001 1457 c-6 -8 -16 -38 -21 -67 -6 -30 -17 -64 -25 -77 -8 -12
-41 -39 -72 -60 -31 -21 -73 -49 -93 -63 -21 -14 -60 -44 -87 -67 -28 -24 -53
-52 -56 -62 -3 -11 2 -29 10 -40 12 -18 21 -20 76 -14 34 3 78 14 97 24 19 10
55 43 80 74 26 31 63 64 87 76 34 16 55 20 100 15 32 -3 77 -8 99 -11 36 -6
44 -4 58 16 13 20 14 26 2 44 -8 12 -37 26 -77 37 -36 9 -71 25 -80 37 -9 11
-20 42 -24 68 -4 26 -11 56 -16 66 -5 9 -18 17 -28 17 -10 0 -24 -6 -30 -13z"/>
<path d="M7536 1428 c-8 -13 -28 -68 -46 -123 -26 -83 -31 -109 -26 -155 4
-30 17 -78 31 -107 14 -31 47 -75 82 -107 37 -36 70 -58 90 -62 18 -3 50 -3
70 1 20 4 55 16 78 27 22 11 53 31 68 44 18 15 41 24 64 24 25 0 45 -9 70 -30
18 -16 39 -30 46 -30 7 0 18 5 25 12 7 7 12 24 12 39 0 15 -7 32 -15 39 -9 7
-25 26 -37 43 -14 20 -23 54 -29 108 -4 44 -15 92 -25 108 -10 17 -24 33 -32
36 -8 3 -26 -2 -39 -11 -23 -15 -25 -21 -23 -87 2 -40 2 -82 1 -94 0 -12 -17
-37 -36 -54 -19 -18 -52 -43 -73 -55 -23 -15 -53 -23 -80 -24 -24 0 -60 9 -83
21 -31 15 -46 33 -65 72 -13 29 -24 71 -24 94 0 23 13 75 30 116 17 42 30 93
30 114 0 22 -5 44 -12 51 -7 7 -18 12 -25 12 -7 0 -19 -10 -27 -22z"/>
<path d="M2999 1430 c-9 -5 -22 -24 -29 -42 -8 -18 -24 -49 -37 -68 -13 -19
-49 -78 -78 -130 -30 -52 -78 -141 -106 -198 -28 -56 -53 -119 -56 -140 -4
-31 0 -44 22 -70 18 -22 36 -32 54 -32 15 0 45 12 68 26 22 15 48 40 57 55 14
23 14 30 4 34 -7 2 -26 5 -42 7 -16 2 -34 11 -40 20 -7 12 -5 32 8 75 10 32
39 94 64 138 25 44 71 120 104 170 33 50 58 101 58 115 0 14 -5 31 -12 38 -7
7 -14 12 -17 12 -4 0 -13 -5 -22 -10z"/>
<path d="M15800 1425 c-8 -9 -10 -29 -6 -52 4 -21 14 -67 24 -102 10 -38 28
-76 45 -94 25 -27 31 -29 73 -23 25 3 65 14 87 25 23 11 66 42 95 69 44 41 53
55 50 79 -2 23 -7 28 -26 25 -13 -1 -42 -18 -64 -36 -22 -19 -55 -42 -73 -50
-18 -9 -44 -16 -57 -16 -13 0 -34 9 -46 20 -12 11 -24 33 -28 48 -3 15 -12 46
-20 69 -8 23 -21 44 -29 47 -7 2 -19 -2 -25 -9z"/>
<path d="M1883 1418 c-6 -7 -18 -29 -26 -49 -8 -20 -31 -57 -50 -83 -20 -25
-56 -84 -81 -129 -24 -45 -49 -101 -55 -124 -7 -23 -9 -54 -5 -68 4 -14 18
-34 32 -43 24 -15 25 -15 48 12 14 16 24 40 24 59 0 18 11 55 25 82 13 28 33
64 43 80 9 17 39 69 65 117 36 65 47 96 45 120 -2 27 -8 34 -29 36 -14 2 -30
-3 -36 -10z"/>
<path d="M7281 1334 c-13 -9 -36 -37 -52 -62 -16 -25 -29 -52 -29 -59 0 -7
-20 -42 -45 -79 -41 -59 -45 -71 -45 -125 0 -33 5 -69 10 -80 7 -12 21 -19 38
-19 15 0 45 9 67 19 22 10 62 42 88 71 26 28 47 56 47 60 0 5 -4 11 -9 15 -6
3 -25 -4 -43 -15 -18 -11 -40 -20 -49 -20 -9 0 -22 7 -29 15 -10 12 -11 24 -1
56 7 22 34 65 62 95 38 42 49 62 49 87 0 18 -5 38 -12 45 -7 7 -15 12 -18 12
-3 0 -16 -7 -29 -16z"/>
<path d="M12271 1288 c-5 -13 -17 -45 -26 -73 -9 -27 -23 -72 -32 -98 -8 -27
-12 -59 -9 -73 4 -14 17 -29 29 -35 16 -7 31 -7 50 0 17 7 33 24 41 43 8 18
17 74 20 125 5 61 4 99 -4 112 -6 13 -21 21 -36 21 -16 0 -27 -8 -33 -22z"/>
<path d="M2231 1283 c-5 -10 -23 -63 -40 -119 -18 -58 -31 -123 -31 -153 0
-28 6 -67 14 -86 8 -18 23 -38 34 -44 12 -6 32 -11 47 -11 14 0 39 7 54 15 16
8 31 22 35 30 3 9 6 20 6 25 0 5 -20 16 -45 25 -35 14 -47 24 -55 51 -9 26 -8
51 5 116 10 46 19 95 22 111 3 15 0 34 -7 42 -7 8 -16 15 -21 15 -5 0 -12 -8
-18 -17z"/>
<path d="M3396 1284 c-9 -8 -16 -26 -16 -39 0 -15 9 -30 23 -39 12 -8 42 -17
67 -21 25 -4 61 -16 82 -26 25 -13 40 -29 48 -53 9 -27 8 -41 -3 -68 -8 -18
-33 -50 -56 -70 -33 -30 -49 -38 -80 -38 -30 0 -44 6 -60 26 -11 14 -27 46
-35 72 -9 26 -30 64 -47 85 -19 23 -39 37 -54 37 -17 0 -26 -8 -34 -30 -5 -17
-7 -38 -4 -48 4 -9 15 -23 26 -31 10 -7 32 -42 50 -78 17 -36 46 -81 64 -101
30 -32 36 -34 78 -30 24 3 70 18 100 33 31 15 69 38 86 52 16 14 39 43 49 64
12 23 20 58 20 89 0 28 -6 66 -14 84 -8 18 -22 43 -32 56 -11 12 -51 37 -91
56 -44 21 -87 34 -112 34 -23 0 -46 -7 -55 -16z"/>
<path d="M11655 1198 c-27 -35 -59 -72 -72 -83 -12 -11 -32 -42 -44 -68 -15
-37 -19 -58 -14 -90 4 -23 14 -50 23 -59 8 -10 24 -18 35 -18 10 0 35 7 54 17
19 9 40 27 46 40 8 19 6 31 -11 62 -18 32 -20 44 -12 67 6 15 27 45 46 66 19
22 40 50 45 62 8 17 8 30 0 45 -7 11 -20 21 -30 21 -10 0 -38 -26 -66 -62z"/>
<path d="M4244 1218 c-20 -18 -58 -61 -85 -96 -33 -44 -52 -80 -60 -119 -12
-50 -11 -59 7 -92 11 -20 31 -40 47 -45 22 -8 32 -6 55 11 15 11 35 34 45 50
17 29 16 31 -3 56 -11 14 -20 38 -20 55 0 16 9 37 20 47 11 10 33 39 50 65 16
26 30 54 30 63 0 9 -9 21 -19 27 -11 5 -22 10 -25 10 -3 0 -22 -14 -42 -32z"/>
<path d="M4732 1224 c-11 -8 -23 -27 -27 -44 -3 -16 -14 -39 -24 -52 -10 -13
-41 -69 -70 -124 -29 -59 -51 -115 -51 -133 0 -18 6 -44 14 -59 8 -15 26 -34
39 -41 14 -7 37 -13 52 -13 15 0 31 6 36 13 5 8 9 26 9 40 0 15 -10 39 -22 54
-20 25 -20 31 -9 74 7 25 25 71 40 101 15 30 38 73 51 95 16 29 21 49 17 67
-4 14 -13 28 -21 31 -7 3 -23 -1 -34 -9z"/>
<path d="M5850 1130 c-8 -16 -8 -40 0 -96 6 -42 20 -101 31 -132 11 -31 26
-66 34 -79 9 -13 24 -23 34 -23 10 0 22 7 25 16 3 9 6 27 6 40 0 14 -7 39 -16
55 -8 17 -22 65 -30 107 -8 42 -22 88 -32 101 -10 14 -23 26 -29 28 -7 3 -17
-5 -23 -17z"/>
<path d="M5341 1116 c-6 -8 -16 -38 -22 -68 -6 -29 -12 -93 -15 -143 -4 -74
-2 -96 13 -125 16 -31 23 -35 60 -38 30 -2 62 5 105 24 35 15 76 39 91 53 16
15 27 34 25 46 -2 11 -11 21 -20 23 -10 2 -44 -9 -77 -23 -32 -15 -69 -25 -82
-23 -13 1 -29 14 -37 28 -9 17 -11 43 -6 80 3 30 7 82 7 115 2 47 -1 60 -14
63 -9 1 -21 -4 -28 -12z"/>
</g>
</svg>
