<?xml version="1.0" encoding="utf-8"?>
<!-- Generator: Adobe Illustrator 12.0.0, SVG Export Plug-In . SVG Version: 6.00 Build 51448)  -->
<!DOCTYPE svg PUBLIC "-//W3C//DTD SVG 1.1//EN" "http://www.w3.org/Graphics/SVG/1.1/DTD/svg11.dtd" [
	<!ENTITY ns_svg "http://www.w3.org/2000/svg">
	<!ENTITY ns_xlink "http://www.w3.org/1999/xlink">
]>
<svg  version="1.1" id="Vrstva_1" xmlns="&ns_svg;" xmlns:xlink="&ns_xlink;" width="822.351" height="263.398"
	 viewBox="0 0 822.351 263.398" overflow="visible" enable-background="new 0 0 822.351 263.398" xml:space="preserve">
<path fill="none" stroke="#000000" stroke-width="5" stroke-linecap="round" d="M172.683,25.645c0,0,17.997-24.289,27.895,3.148
	c9.899,27.437,16.198,28.336,40.493,18.891c24.296-9.445,48.592-40.929,31.046-44.978c-17.547-4.047-55.79,52.625-79.187,80.511
	s-61.639,77.811-96.734,115.141C61.103,235.69,5.229,279.791,2.613,252.331c-2.7-28.336,43.181-66.378,112.481-90.404
	c29.814-10.336,50.147-23.936,53.99-19.342c8.399,10.046,13.797,8.396,25.945,2.25c12.136-6.141,33.445-25.638,22.646-30.135
	c-10.799-4.5-44.742,10.345-48.343,27.885"/>
<path fill="none" stroke="#000000" stroke-width="5" stroke-linecap="round" d="M198.967,142.966c0,0,9.261,11.766,19.608,5.918
	s22.767-13.102,25.645-22.04c5.7-17.695-4.753-2.177,0.646,5.622c4.311,6.226,15.031,2.859,21.601,1.5
	c8.7-1.799,11.802-8.285,5.399-13.5c-7.299-5.947-20.679,30.627-6.599,31.799c10.799,0.902,17.399-4.799,24.599-10.198"/>
<path fill="none" stroke="#000000" stroke-width="5" stroke-linecap="round" d="M313.566,128.868c-0.899-6-9-5.402-17.399,3.896
	c-8.399,9.302-9.3,20.402-0.601,18.902C304.267,150.167,314.467,134.868,313.566,128.868z"/>
<path fill="none" stroke="#000000" stroke-width="5" stroke-linecap="round" d="M312.667,134.566c0,0,1.8,6.302,13.8,2.101
	s18.899-6.902,17.399-4.5c-1.5,2.399,4.8,16.201-3.3,27.899c-8.099,11.698-18,1.5-9-6s23.912-9.952,34.8-11.101
	c5.7-0.598,30.917-14.877,49.5-35.098c20.622-22.444,24.211-35.936,8.101-30.602c-17.994,5.956-69,70.8-59.101,79.8
	c9.901,9,26.101-9.899,33.302-10.5"/>
<path fill="none" stroke="#000000" stroke-width="5" stroke-linecap="round" d="M422.168,145.368
	c3.896-4.5,6.876-12.65-2.701-12.302c-18.727,0.68-27.867,17.268-15.299,22.802C413.648,160.04,416.027,152.449,422.168,145.368z"/>
<path fill="none" stroke="#000000" stroke-width="5" stroke-linecap="round" d="M418.866,149.566c0,0-2.399,15.302,10.802,9.899
	c13.198-5.399,20.698-14.399,27.598-21c6.902-6.598-4.5-1.201-5.098,11.101c-0.604,12.302,7.198,13.5,13.198,5.698
	c6-7.799,9.601-11.396,8.101-21c-1.5-9.598-3.601,1.802,5.098,3c8.701,1.201,16.5-6.598,16.5-6.598"/>
<path fill="none" stroke="#000000" stroke-width="5" stroke-linecap="round" d="M712.866,104.265c0,0,29.101,39.902,27.601,3"/>
<path fill="none" stroke="#000000" stroke-width="5" stroke-linecap="round" d="M578.467,81.766c0,0-5.716-8.971,2.701-16.5
	c11.396-10.2,15.299,14.399,32.396,11.7c17.104-2.7,36.023-14.26,28.802-29.099c-5.399-11.101-24.302,16.5-39,39
	c-15.489,23.708-57,82.2-79.5,77.099c-13.644-3.094-17.01-23.918-3-46.201c10.286-16.354,35.101-11.396,54.302-11.698
	c19.198-0.302,36,0.601,62.698-3s47.399-6.899,65.698-24.901c16.406-16.134,24.302-44.399,8.701-46.5
	c-15.598-2.099-51.899,31.201-67.5,45.901c-15.598,14.698-39.299,41.399-50.701,56.698c-11.396,15.302-22.5,55.802,8.104,28.201"/>
<path fill="none" stroke="#000000" stroke-width="5" stroke-linecap="round" d="M639.668,152.868
	c12.322-9.533,19.799-19.201,2.698-20.701s-35.256,20.2-28.802,26.399C621.064,165.765,632.115,158.707,639.668,152.868z"/>
<path fill="none" stroke="#000000" stroke-width="5" stroke-linecap="round" d="M640.266,152.265c0,0,5.08,19.626,20.101,8.701
	c9.899-7.201,21.601-12.598,29.101-14.399s9.899-9.302,8.098-10.198c-1.799-0.902-4.799,18.299-4.5,24
	c0.302,5.698-3.448,13.148-10.799,9.299c-6.299-3.299-4.295-16.963,12.902-7.799c10.371,5.525,37.198-0.604,39.896-9
	c2.701-8.402-7.198-13.5-12.299-3.302c-5.098,10.198-12.899,26.101,4.201,21c17.098-5.101,33.574-16.017,46.5-25.802
	c11.098-8.396,24.035-24.27,12.899-24.299c-10.843-0.029-22.5,33.601-29.698,47.701c-7.201,14.098-6.902,14.098-6.902,14.098
	s7.746-18.768,15.299-23.396c9.302-5.701,22.802-9.604,23.402-0.902c0.598,8.701-13.799,6.902-27.299,4.5
	c12,12.299,10.995,34.298,26.396,50.101c11.854,12.155,36-3,31.802-19.198"/>
</svg>
