<?xml version="1.0" encoding="UTF-8"?>
<svg version="1.1" xmlns="http://www.w3.org/2000/svg" width="567" height="101" >
<path d="M38.968,68.625c-2.188,0.634-2.644-2.621-2.197-3.912c0.566-1.638,2.625-2.916,3.947-3.907 c3.05-2.287,6.343-4.187,9.291-6.619c7.01-5.785,14.95-16.047,25.289-14.544c5.903,0.858-5.133,13.017-6.23,14.18 c-5.65,5.987-12.19,10.789-19.412,14.698c-9.344,5.057-20.347,9.705-31.116,9.826C5.75,78.49,15.517,66.859,19.943,62.795 c3.825-3.512,8.35-6.453,13.013-8.717c4.708-2.285,2.737,0.579,1.593,1.778c-1.563,1.639-3.585,2.94-5.468,4.158 c-3.965,2.564-8.31,3.835-12.709,5.378c-3.916,1.373-9.641,4.647-13.852,4.09c-0.655-0.087-3.092,0.971-2.397,1.063 c2.674,0.354,5.503-0.584,8.009-1.395c5.509-1.782,11.113-3.609,16.509-5.703c3.961-1.537,7.643-3.887,10.973-6.502 c0.46-0.361,5.081-4.276,2.333-4.688c-7.04-1.057-15.846,6.663-20.612,10.816C12.989,66.861,3.33,77.56,14.124,79.295 c9.1,1.463,19.552-2.694,27.762-6.048c9.991-4.083,19.128-9.582,27.022-16.953c2.141-2,14.507-13.43,10.348-16.945 c-5.077-4.291-16.638,2.831-20.771,5.553c-3.447,2.271-6.656,4.978-9.465,8.001c-3.364,3.62-7.909,5.934-11.833,8.875 c-1.699,1.273-5.323,4.532-2.877,6.923c1.337,1.308,3.163,1.195,4.868,0.701C40.84,68.92,40.642,68.14,38.968,68.625 L38.968,68.625 M41.72,66.806c0.288,0.206,0.385,0.725,0.466,1.127c0.377,1.882-0.133,3.962-0.556,5.788 c-0.219,0.946,2.678,0.476,2.884-0.414c0.458-1.978,0.902-4.114,0.569-6.15c-0.073-0.449-0.258-1.148-0.659-1.435 C43.653,65.169,41.043,66.321,41.72,66.806L41.72,66.806 M67.331,68.47c-3.002,0.952-6.001,2.21-8.509,4.136c-2.589,1.988-0.983,4.186,1.796,3.973 c4.26-0.327,8.362-2.065,12.233-3.761c1.577-0.69,7.559-2.65,8.105-4.584c0.107-0.38-0.59-0.31-0.79-0.286 c-3.044,0.368-6.012,2.936-8.218,4.864c-2.117,1.85-2.893,4.786,0.86,4.088c4.123-0.767,7.619-4.537,10.211-7.535 c1.489-1.722,9.264-10.47,6.604-13.166c-0.344-0.349-1.505,0.071-1.859,0.19c-2.734,0.918-5.242,8.747-3.06,10.857 c2.791,2.699,11.786,1.325,13.009-2.88c0.054-0.187-0.059-0.237-0.231-0.277c-3.379-0.795-12.97,7.902-11.359,10.812 c1.967,3.552,16.835-3.988,10.949-9.872c-0.441-0.44-2.571,0.21-2.794,0.749c-0.526,1.27,3.077,3.706,3.867,3.968 c2.49,0.824,4.774,0.103,7.098-0.906c6.211-2.697,12.62-7.895,17.234-12.804c0.581-0.618-2.158-0.19-2.613,0.255 c-4.224,4.135-8.463,8.253-12.852,12.213c-2.555,2.305-5.311,4.336-7.695,6.828c-4.028,4.208-7.443,8.625-12.347,11.915 c-1.179,0.791,1.72,0.357,2.205,0.032c7.423-4.979,12.975-12.469,19.69-18.354c4.698-4.117,9.149-8.521,13.612-12.89 c-0.871,0.085-1.742,0.17-2.613,0.255c-2.637,2.805-5.824,5.189-8.879,7.506c-2.186,1.657-6.588,5.526-9.602,5.144 c-0.791-0.101-4.724-2.556-4.252-3.693c-0.932,0.25-1.863,0.499-2.794,0.749c4.036,4.034-4.431,9.725-5.492,7.809 c-0.983-1.776,3.896-5.603,4.938-6.54c0.95-0.854,1.952-1.675,3.016-2.383c-1.256-0.368-2.169-0.036-2.738,0.995 c-2.77,2.896-6.196,2.184-6.996-0.632c-0.363-1.278,0.84-7.987,1.683-8.27c-0.62,0.063-1.239,0.127-1.859,0.19 c2.64,2.675-6.756,12.794-8.152,14.263c-0.743,0.782-5.245,5.517-5.921,3.78c-0.677-1.739,4.474-4.798,5.482-5.455 c0.374-0.238,0.753-0.468,1.137-0.688c1.151-0.516,0.678-0.575-1.418-0.176c-0.555,0.55-1.417,0.916-2.088,1.292 c-2.946,1.65-6.103,2.992-9.272,4.145c-1.888,0.687-9.246,1.903-5.221-1.977c1.748-1.685,4.594-2.57,6.878-3.294 C70.292,68.43,68.407,68.129,67.331,68.47L67.331,68.47 M107.208,71.847c1.015-0.6,1.028,2.087,2.365,3.055c0.949,0.687,2.931,0.518,3.862-0.16 c3.087-2.248,2.461-6.677-1.567-7.367c-0.772-0.132-1.795,0.346-1.973,1.151c-0.462,2.099,4.706,3.403,6.006,3.668 c4.006,0.815,9.148-2.607,12.377-4.538c1.426-0.854-0.213-1.823-1.216-1.613c-6.47,1.35-4.975,8.379,1.357,7.547 c3.974-0.522,7.832-3.529,11.511-5.022c2.862-1.161,5.567-2.864,8.206-4.448c8.089-4.855,16.007-10.145,23.207-16.257 c1.371-1.164,12.197-11.224,7.48-12.833c-2.405-0.82-5.669,2.096-7.352,3.315c-4.411,3.197-8.485,6.916-12.379,10.719 c-3.606,3.521-7.026,7.241-10.246,11.119c-2.056,2.477-4.915,5.629-5.71,8.855c-1.255,5.088,5.991,2.016,7.957,1.094 c7.167-3.362,13.875-8.016,20.295-12.606c1.017-0.727,8.386-5.124,7.163-7.031c-0.227-0.354-0.815-0.454-1.193-0.407 c-3.248,0.401-6.768,4.43-9.101,6.401c-2.885,2.438-7.722,5.682-9.045,9.39c-0.872,2.445,2.524,4.188,4.343,4.555 c6.079,1.227,11.962-5.827,15.227-9.758c1.11-1.336-1.322-1.763-2.165-1.055c-1.781,1.5-9.79,7.85-5.914,10.218 c3.781,2.31,13.594-3.238,14.69-7.054c0.082-0.285-0.147-0.553-0.346-0.709c-2.1-1.652-6.361,1.99-6.58,4.083 c-0.483,4.607,4.595,5.064,7.742,3.438c1.759-0.909,0.174-2.414-1.272-1.666c-0.058,0.03-0.116,0.06-0.175,0.09 c-1.602,0.932-2.523-0.093-2.764-3.075c0.465-0.363,0.931-0.727,1.397-1.09c-0.735-0.875-1.352-0.823-1.848,0.156 c-1.884,1.693-4.263,2.994-6.638,3.834c-3.969,1.405-0.535-2.93,0.404-3.933c1.001-1.07,2.095-2.064,3.215-3.007 c-0.722-0.352-1.443-0.703-2.165-1.055c-2.554,3.075-7.657,9.885-12.487,8.32c-2.959-0.958-1.28-3.167,0.033-4.593 c2.345-2.547,5.036-4.794,7.691-7.007c1.263-1.053,2.555-2.073,3.864-3.067c0.476-0.361,0.962-0.707,1.453-1.048 c1.92-1.339-2.074,1.293-1.09-1.302c-0.571,1.508-3.714,3.148-4.933,4.054c-3.16,2.347-6.431,4.546-9.733,6.688 c-3.444,2.233-6.965,4.357-10.624,6.219c-2.346,1.194-5.874,3.271-3.75-0.842c4.106-7.956,11.97-15.036,18.518-20.975 c2.232-2.024,4.569-3.937,6.936-5.8c1.08-0.85,5.61-5.352,4.089-1.859c-1.527,3.508-4.861,6.21-7.697,8.617 c-6.668,5.66-14.083,10.524-21.546,15.061c-2.723,1.655-5.506,3.302-8.428,4.585c-2.017,0.886-4,1.703-5.954,2.741 c-0.42,0.221-0.841,0.441-1.262,0.661c-1.842,1.32-3.585,0.693-5.228-1.882c0.393-0.225,0.917-0.344,1.368-0.438 c-0.405-0.538-0.811-1.075-1.216-1.613c-1.691,1.012-3.475,1.852-5.27,2.657c-1.981,1.275-3.953,1.478-5.915,0.607 c0.412,0.142-2.383-1.206-2.353-1.342c-0.658,0.383-1.315,0.767-1.973,1.15c-0.745-0.127,0.931,4.983-0.288,0.719 c-0.137-0.478-0.729-0.63-1.118-0.813c-1-0.473-2.683,0.341-3.514,0.832C104.245,71.18,105.794,72.682,107.208,71.847 L107.208,71.847 M220.263,47.204c-1.813-0.236-3.855,0.519-5.401,1.394c-6.268,3.547-11.614,9.353-17.19,13.898 c-5.264,4.289-10.61,8.355-16.138,12.298c-1.236,0.881-6.319,3.539-6.41,5.358c-0.021,0.424,2.855,0.075,2.897-0.776 c0.077-1.533,5.547-4.371,6.724-5.21c2.853-2.034,5.705-4.065,8.502-6.175c3.868-2.917,7.543-6.113,11.292-9.181 c1.834-1.5,3.647-3.025,5.447-4.567c1.618-1.386,5.666-6.208,7.895-5.919C218.565,48.412,221.035,47.304,220.263,47.204 L220.263,47.204 M188.282,68.171c0.713-0.578,1.459-1.107,2.217-1.624c2.304-1.569,1.926-0.247,3.588,1.101 c2.681,2.172,6.556,3.951,10.096,3.143c2.451-0.559,6.298-2.216,6.654-5.141c0.257-2.11-2.359-2.468-3.813-1.783 c-7.445,3.509-1.126,6.793,3.913,7.12c1.873,0.122,17.026-2.371,13.992-6.642c-0.351-0.494-1.077-0.458-1.592-0.352 c-1.664,0.342-2.02,2.134-1.313,3.5c1.442,2.785,4.622,3.903,7.508,2.345c5.001-2.699,7.258-11.787,0.125-13.549 c-0.446,0.674-0.893,1.349-1.339,2.023c4.113,0.755,8.692-0.649,12.698-1.534c6.809-1.502,13.426-3.733,19.747-6.675 c6.993-3.255,13.625-7.926,19.394-13.023c1.643-1.451,5.046-4.455,3.673-7.045c-4.135-7.801-20.656,10.954-23.637,13.889 c-9.804,9.655-19.609,20.318-31.332,27.68c-1.662,1.043,0.737,2.059,1.92,1.315c8.575-5.384,15.965-12.767,23.238-19.745 c7.724-7.41,15.325-17.099,24.759-22.267c2.403-1.316,2.702,0.565,2.005,1.96c-0.861,1.726-2.781,3.127-4.201,4.321 c-5.621,4.729-11.907,8.797-18.559,11.893c-5.27,2.453-10.884,4.136-16.526,5.487c-3.77,0.902-8.334,2.348-12.174,1.644 c-1.121-0.206-2.986,1.617-1.339,2.023c1.126,0.278,1.871,1.062,2.536,1.967c0.686,1.263,0.943,2.613,0.772,4.05 c-0.371,0.802-0.742,1.604-1.113,2.406c-2.676,1.492-4.78,1.263-6.312-0.689c-0.531-0.117-1.061-0.234-1.592-0.352 c0.471,0.663-6.43,2.988-7.118,3.099c-2.307,0.373-4.745,0.207-6.998-0.383c-0.888-0.04-1.163-0.523-0.825-1.451 c-2.442,1.961-4.927,2.382-7.457,1.264c-1.853-0.611-3.85-2.001-4.731-3.772c-1.606-3.228-7.316,1.286-8.787,2.479 C184.833,68.097,187.164,69.079,188.282,68.171L188.282,68.171 M236.644,64.27c-1.085,3.79-0.735,7.099,3.782,6.434c2.377-0.35,9.467-3.113,9.606-6.046 c0.012-0.258-0.721-0.201-0.821-0.192c-3.083,0.277-6.034,4.104-6.455,6.962c-0.402,2.73,8.496-1.452,8.966-1.675 c9.647-4.571,23.237-7.587,29.317-17.371c2.081-3.349-3.729-3.481-5.502-2.844c-7.623,2.74-12.139,11.114-17.316,16.818 c-1.501,1.654-5.423,6.635-0.095,5.746c1.553-0.259,11.946-5.7,8.425-7.35c-0.773-0.363-2.053,0.117-2.676,0.604 c-3.227,2.519,1.162,3.978,3.312,3.774c3.29-0.312,7.452-2.845,8.631-6.018c0.11-0.295-0.306-0.317-0.488-0.333 c-3.196-0.271-6.826,7.034-3.197,7.074c3.812,0.042,7.614-1.067,11.113-2.504c0.579-0.238,5.474-2.547,3.705-3.625 c-2.721-1.657-9.257,5.181-2.841,5.565c3.066,0.183,15.563-0.028,16.485-4.199c0.048-0.097,0.026-0.176-0.063-0.236 c-1.413-1.197-4.964,1.713-3.46,2.411c3.267,1.516,8.032,0.928,11.346-0.175c6.82-2.271,9.947-10.302,13.039-16.038 c1.478-2.741,5.185-7.62,1.232-9.781c-0.737-0.403-3.087,0.791-2.73,0.985c3.968,2.169-0.647,7.986-2.058,10.602 c-2.278,4.227-4.308,8.568-7.858,11.905c-1.845,1.734-4.241,2.178-6.672,2.06c-0.817-0.04-4.484-1.056-3.855-1.279 c-0.621,0.056-1.243,0.111-1.865,0.167c0.465,0.394-15.906,5.394-13.124,0.077c-0.331,0.632-3.536,1.414-4.452,1.744 c-1.294,0.465-7.07,2.435-6.538-0.457c0.237-1.287,1.191-2.893,2.106-3.823c-0.75,0.233-1.501,0.467-2.251,0.7 c-1.118-0.095-1.368,1.242-2.308,2.247c-5.386,5.758-6.309,0.281-4.585-1.065c-0.892,0.201-1.784,0.402-2.676,0.604 c1.766,0.828-3.605,5.819-5.383,5.034c-1.283-0.567,0.81-2.816,1.086-3.149c3.388-4.095,6.894-8.151,10.349-12.192 c1.376-1.611,5.302-6.224,7.825-4.782c1.245,0.71,0.732,1.846,0.168,2.754c-2.048,3.295-6.245,5.674-9.414,7.701 c-5.645,3.611-12.35,5.359-18.398,8.274c-1.101,0.53-5.14,2.958-4.076,0.134c0.375-0.997,1.236-2.006,1.882-2.797 c0.189-0.211,0.377-0.421,0.566-0.632c1.168-1.013,0.551-0.94-1.852,0.218c-1.383,1.556-6.363,5.038-7.482,2.004 c-0.501-1.36,0.026-3.209,0.409-4.547C239.671,63.165,236.852,63.542,236.644,64.27L236.644,64.27 M340.211,61.146c2.183,0.397,4.701-0.514,6.748-1.117c10.102-2.975,19.783-7.801,29.161-12.495 c15.953-7.984,30.412-18.336,45.344-27.953c4.959-3.194,12.768-7.94,14.893-13.777c1.937-5.321-9.894-1.767-11.19-1.21 c-7.669,3.295-14.509,8.45-21.534,12.906c-6.235,3.955-12.508,7.85-18.786,11.735c-15.195,9.403-30.441,18.732-45.847,27.788 c-4.88,2.869-9.759,5.799-14.82,8.34c-2.868,1.44-0.526,1.184,1.454,0.339c1.677-0.715,5.246-2.14,6.604-0.336 c1.722,2.287,2.944,4.713,5.259,6.546c7.633,6.044,14.56-0.289,20.142-6.117c3.035-3.169,6.437-7.232,7.59-11.536 c0.563-2.105-2.048-2.22-3.357-1.697c-3.321,1.327-13.343,10.275-8.495,14.053c5.951,4.64,16.444-2.202,21.027-5.759 c1.47-1.141,2.795-2.447,4.108-3.759c0.953-0.952-0.664-1.46-1.418-1.193c-4.153,1.468-7.578,4.454-10.264,7.872 c-1.673,2.128-5.646,8.721-0.384,9.393c4.775,0.61,10.304-2.112,13.794-5.192c3.689-3.255,10.233-10.595,5.17-15.316 c-0.852-0.793-3.59,0.35-2.672,1.206c6.769,6.31-7.322,15.849-12.478,17.278c-7.619,2.111-0.057-8.061,1.686-9.801 c1.451-1.449,3.917-3.122,5.608-3.72c-0.473-0.398-0.945-0.795-1.418-1.193c-4.636,4.63-11.056,9.728-18.014,9.574 c-7.472-0.166,1.849-10.365,4.358-11.748c-0.4,0.221-1.008,2.396-1.274,2.909c-0.658,1.265-1.513,2.438-2.328,3.603 c-1.912,2.731-4.276,5.15-6.711,7.412c-2.696,2.505-6.202,5.699-10.187,3.78c-3.092-1.49-5.412-4.908-7.071-7.799 c-2.245-3.912-11.587-0.195-13.945,1.978c-2.7,2.489,3.399,1.185,4.431,0.678c12.349-6.077,24.057-13.749,35.813-20.869 c14.441-8.747,28.829-17.59,43.104-26.605c3.809-2.405,7.571-4.881,11.375-7.293c3.746-2.375,7.574-4.662,11.655-6.415 c1.387-0.596,7.558-2.321,5.759,1.194c-2.509,4.903-9.047,8.712-13.496,11.66c-2.685,1.779-5.48,3.269-8.127,5.139 c-14.806,10.465-30.188,19.659-46.65,27.308c-6.139,2.852-12.412,5.632-18.917,7.548c-1.153,0.34-2.329,0.645-3.521,0.805 c-0.372,0.05-0.981-0.003-0.454,0.093C340.855,59.185,338.499,60.834,340.211,61.146L340.211,61.146 M383.607,61.384c-0.166,7.23,17.226-1.499,19.156-2.547c1.399-0.761,6.624-3.158,6.008-5.461 c-0.724-2.698-5.1,0.594-5.962,1.253c-3.794,2.902-7.804,6.577-10.366,10.627c-2.316,3.662,1.528,5.477,4.74,5.283 c4.877-0.294,9.329-3.019,13.344-5.589c1.803-1.154,7.259-4.043,7.631-6.554c0.083-0.56-0.494-0.844-0.955-0.901 c-3.993-0.492-16.646,12.595-9.391,13.04c6.145,0.377,13.12-4.432,18.119-7.39c1.378-0.815,11.856-6.294,10.863-8.738 c-0.164-0.403-0.516-0.587-0.938-0.633c-3.386-0.363-18.737,11.283-16.258,14.499c2.396,3.107,11.01-1.63,13.307-2.721 c5.692-2.703,12.517-6.212,16.623-11.137c2.548-3.056-2.39-1.74-3.718-0.846c-4.107,2.765-8.67,6.53-11.257,10.804 c-2.393,3.952,4.045,4.019,6.233,3.7c7.619-1.11,14.288-6.396,18.741-12.408c1.024-1.384-1.312-1.749-2.158-1.031 c-1.844,1.563-3.638,3.182-5.402,4.833c-1.66,1.553-4.877,3.95-5.359,6.356c-0.845,4.216,9.313,0.012,10.41-0.691 c17.3-11.078-8.276-29.73-19.763-31.636c-4.603-0.764-11.964,0.77-13.755,5.761c-2.018,5.625,6.791,8.035,10.459,8.8 c17.313,3.611,37.398-3.854,51.564-13.663c1.62-1.122-0.771-2.043-1.904-1.259c-8.626,5.973-18.839,10.144-29.032,12.41 c-7.814,1.737-17.705,2.341-25.089-1.309c-5.244-2.593-3.111-7.007,1.597-8.404c6.553-1.943,13.728,2.337,18.761,6.094 c4.788,3.573,10.695,9.577,9.864,16.085c-0.399,3.125-3.305,5.256-5.907,6.518c-1.561,0.756-5.512,2.445-3.234-0.359 c2.5-3.078,5.68-5.72,8.695-8.275c-0.719-0.344-1.438-0.687-2.158-1.031c-3.83,5.172-12.155,13.075-19.491,11.189 c-2.31-0.594,7.887-9.589,9.001-10.438c0.649-0.494,1.319-0.985,2.028-1.389c-0.845-0.901-1.477-0.962-1.896-0.183 c-0.405,0.446-0.84,0.863-1.303,1.251c-2.561,2.25-5.565,4.069-8.493,5.788c-3.021,1.773-6.173,3.329-9.42,4.641 c-1.214,0.49-6.757,2.865-4.476-0.093c2.728-3.538,6.872-6.336,10.55-8.8c0.585-0.392,1.181-0.759,1.811-1.073 c-0.697-1.109-1.267-1.325-1.707-0.647c-0.429,0.484-0.984,0.878-1.486,1.279c-2.272,1.813-4.759,3.374-7.226,4.903 c-3.158,1.958-6.447,3.709-9.832,5.242c-0.979,0.443-8.002,3.261-6.713,0.8c1.067-2.04,3.305-3.767,5.013-5.227 c0.701-0.599,1.43-1.166,2.163-1.725c1.043-0.794,1.92-0.675,0.544-0.844c-0.318-0.3-0.637-0.601-0.955-0.901 c-0.12,0.806-3.067,2.555-3.749,3.068c-2.474,1.863-5.129,3.475-7.883,4.884c-1.742,0.891-10.697,3.826-8.393-1.039 c1.089-2.297,3.657-4.316,5.45-6.058c1.741-1.69,3.558-3.309,5.551-4.696c-0.178-0.157-0.355-0.314-0.534-0.472 c-0.389,0.396-0.812,0.751-1.27,1.064c-1.197,0.901-2.538,1.614-3.851,2.327c-0.93,0.505-14.085,6.572-14.014,3.429 C386.571,59.664,383.636,60.126,383.607,61.384L383.607,61.384 M462.602,60.981c2.715-0.438,5.418-0.945,8.109-1.509c1.535-0.322,5.001-0.655,5.948-2.222 c0.115-0.19,0.183-0.344,0.015-0.53c-1.85-2.048-8.483,3.174-9.747,4.118c-3.933,2.938-1.085,5.558,2.972,4.741 c5.144-1.036,10.109-4.511,14.47-7.23c5.172-3.226,11.472-7.028,14.815-12.254c2.151-3.361-7.663,0.461-7.978,0.596 c-6.46,2.765-10.762,8.657-13.627,14.89c-1.32,2.873-0.853,6.689,3.024,4.769c2.104-1.042,8.406-6.351,7.284-9.045 c-0.226-0.541-1.202-0.37-1.62-0.249c-2.721,0.788-3.877,4.625-0.405,5.266c3.898,0.719,9.091-3.05,12.055-4.976 c1.491-0.97,9.106-5.674,8.426-8.217c-0.551-2.054-4.914,1.806-5.291,2.152c-1.848,1.697-13.409,12.621-5.327,11.799 c10.293-1.046,21.657-7.547,26.54-16.771c0.461-0.87-2.271-0.251-2.588,0.029c-3.974,3.513-8.146,8.322-8.031,13.899 c0.135,6.46,10.22,5.324,14.206,4.995c0.608-0.05,15.156-1.676,10.7-4.391c-5.366-3.27-14.692-2.728-20.702-2.573 c-3.354,0.086-10.11,0.053-12.114,3.51c-2.315,3.994,6.385,1.624,7.375,1.24c5.329-2.063,13.155-7.756,15.023-13.366 c0.898-2.697-8.846,2.453-8.94,2.508c-1.684,0.988,0.907,1.208,1.758,0.709c1.192-0.7,2.389-1.387,3.607-2.04 c2.4-1.284-0.348,0.99-0.916,1.717c-3.107,3.975-7.019,7.365-11.632,9.449c-2.207,0.997-5.771-0.199-1.765-1.446 c1.662-0.517,3.536-0.618,5.256-0.735c3.992-0.271,8.034-0.039,12.006,0.373c1.459,0.151,2.906,0.385,4.35,0.647 c0.748,0.136,6.19,1.267,3.801,1.94c-4.794,1.352-11.703,2.166-16.457,0.471c-7.685-2.74,1.646-13.798,4.767-16.556 c-0.863,0.009-1.726,0.019-2.588,0.029c-3.522,6.653-10.077,10.77-16.938,13.376c-2.031,0.771-4.707,1.765-6.924,1.518 c-0.547-0.061,2.31-4.065,2.517-4.323c1.473-1.827,3.112-3.533,4.792-5.168c0.604-0.587,1.23-1.146,1.873-1.69 c0.923-0.783-1.272-0.435-1.877,0.451c-1.813,2.658-5.01,4.679-7.659,6.401c-1.271,0.827-2.605,1.552-3.951,2.249 c-0.884,0.447-1.795,0.826-2.734,1.135c-4.639,1.523,0.272-2.957-1.868-2.337c-0.54-0.083-1.08-0.166-1.62-0.249 c0.698,1.675-3.519,5.513-4.525,6.46c-1.533,1.443-0.647-1.448-0.426-2.247c0.792-2.849,2.699-5.407,4.371-7.794 c1.278-1.824,2.798-3.429,4.522-4.833c1.052-0.777,2.177-1.428,3.374-1.954c0.244-0.115,3.949-1.193,3.779-0.928 c-1.979,3.09-5.729,5.562-8.702,7.684c-3.265,2.329-6.704,4.422-10.19,6.399c-1.502,0.852-3.039,1.64-4.605,2.366 c-0.54,0.245-1.089,0.471-1.645,0.68c-2.828,1.114-1.6-2.779-0.068-3.738c0.705-0.446,1.415-0.885,2.129-1.317 c0.976-0.169,1.286-0.693,0.933-1.569c-1.566,0.665-3.483,0.899-5.136,1.229c-1.911,0.382-3.833,0.717-5.757,1.027 C461.731,59.757,460.588,61.307,462.602,60.981L462.602,60.981 M503.09,60.395c-1.518,0.441-12.15,3.447-8.378,6.112c2.088,1.475,5.024,2.171,7.41,2.934 c5.65,1.805,11.47,3.087,17.285,4.226c12.612,2.471,25.471,3.385,38.124,5.626c1.395,0.247,2.783,0.524,4.162,0.847 c0.424,0.099,0.842,0.217,1.259,0.343c1.545,0.464-2.154-0.614,1.412-1.142c-1.838,0.272-3.864,0.016-5.711-0.03 c-30.334-0.752-60.589-3.235-90.939-3.335c-19.947-0.066-39.98,0.267-59.849,2.164c-7.764,0.741-15.576,1.747-23.072,3.964 c-6.217,1.839-15.656,5.305-17.914,12.187c-4.022,12.262,31.382,3.749,36.3,2.784c20.114-3.945,40.274-7.68,60.509-10.96 c12.381-2.007,24.808-3.873,37.298-5.06c11.701-1.112,23.321-0.202,35.048,0.127c3.466,0.097,11.022-0.549,12.228,3.822 c2.332,8.455-17.652,8.676-22.184,8.909c-8.79,0.453-17.665,0.497-26.464,0.458c-3.504-0.015-7.007-0.128-10.5-0.397 c-2.423-0.188-6.362-0.192-8.206-2.063c-0.823-0.835-3.576,0.292-2.67,1.211c1.688,1.712,4.347,2.022,6.61,2.385 c5.449,0.87,11.104,0.766,16.604,0.763c11.883-0.007,24.419,0.505,36.13-1.66c4.955-0.916,16.417-3.797,13.241-11.355 c-2.188-5.208-13.366-3.965-17.525-4.057c-8.618-0.19-17.215-1.013-25.831-0.507c-8.44,0.495-16.852,1.612-25.221,2.777 c-20.469,2.847-40.825,6.521-61.132,10.337c-8.572,1.611-17.134,3.274-25.688,4.974c-4.253,0.846-8.489,1.789-12.804,2.274 c-3.469,0.39-11.235,1.071-12.848-3.253c-1.266-3.396,4.015-6.664,6.229-8.028c4.619-2.846,10.069-4.363,15.34-5.479 c8.721-1.846,17.729-2.508,26.604-3.113c33.095-2.256,66.167-1.202,99.249,0.37c12.46,0.592,24.923,1.171,37.391,1.569 c3.02,0.096,6.059,0.242,9.08,0.133c0.965-0.035,3.616-1.009,1.993-2.144c-2.395-1.675-6.874-1.684-9.645-2.145 c-9.418-1.567-18.925-2.488-28.358-3.933c-8.668-1.327-17.347-3.205-25.678-5.971c-1.641-0.545-3.892-1.069-5.22-2.26 c0.128,0.114,5.92-2.41,6.796-2.665C505.304,61.624,504.852,59.883,503.09,60.395L503.09,60.395 M538.783,37.71c0.386-6.723-14.129-7.665-6.808-15.708c3.389-3.724,9.383-5.75,12.053-10.039 c0.809-1.299-2.14-1.204-2.744-0.232c-1.494,2.401-5.252,4.2-7.468,5.885c-2.373,1.806-4.496,3.721-6.148,6.211 c-4.412,6.647,8.471,9.324,8.193,14.156C535.781,39.385,538.715,38.894,538.783,37.71L538.783,37.71 M545.879,11.242c2.487-1.339,4.917-2.819,7.227-4.447c1.527-1.077,6.395-4.063,4.899-6.504 c-0.474-0.773-3.297,0.133-2.697,1.112c1.479,2.412-9.432,8.093-11.208,9.049C542.381,11.378,544.976,11.728,545.879,11.242 L545.879,11.242z"/>
</svg>