<?xml version="1.0" encoding="utf-8"?>
<!-- Generator: Adobe Illustrator 15.0.2, SVG Export Plug-In . SVG Version: 6.00 Build 0)  -->
<!DOCTYPE svg PUBLIC "-//W3C//DTD SVG 1.0//EN" "http://www.w3.org/TR/2001/REC-SVG-20010904/DTD/svg10.dtd">
<svg version="1.0" id="Ebene_1" xmlns="http://www.w3.org/2000/svg" xmlns:xlink="http://www.w3.org/1999/xlink" x="0px" y="0px"
	 width="595.28px" height="249.89px" viewBox="0 0 595.28 249.89" enable-background="new 0 0 595.28 249.89" xml:space="preserve">
<g>
	<path fill-rule="evenodd" clip-rule="evenodd" d="M443.703,68.974c-4.019-0.875-8.701-1.702-13.618,0.567
		c-5.84,2.696-9.726,8.558-13.24,13.807c-2.169,3.239-4.539,8.322-4.539,8.322s5.843,3.388,5.741,8.809
		c-0.184,9.82-16.298,18.685-22.651,23.651c-16.675,13.043,9.254,18.42,10.984,15.053c-0.165-11.919,12.318-39.78,27.665-31.733
		c4.298,12.829-1.832,23.055-8.443,30.113c-3.514,2.96-9.955,6.018-9.955,6.018s2.088,2.046,4.31,4.646
		c8.516,9.967-10.253,0.332-12.705-2.789c-7.651,1.412-14.598,3.95-22.927-2.784c-9.627-7.784,4.577-22.847,12.229-27.973
		c4.848-3.247,17.163-8.767,10.03-15.825c-4.16,3.566-6.539,7.058-13.745,10.252c-2.451,1.115-9.726,3.084-14.843,3.903
		c-5.862,0.938-9.204,0.824-14.725,0.034c-13.878-1.987-4.717-16.897,2.229-20.281c8.692-4.235,26.993-7.717,39.66-3.622
		c6.357-9.83,16.755-26.464,28.027-31.043c12.122-4.925,32.794,7.891,19.571,20.466C447.617,78.182,448.156,69.942,443.703,68.974z
		 M393.285,94.325c-8.494-0.424-21.099,1.783-24.74,3.768c-5.43,6.152-8.7,11.193,3.662,9.764
		c9.458-1.094,26.427-3.577,28.478-10.984C401.555,93.729,396.257,94.473,393.285,94.325z M413.641,137.488
		c3.549-0.926,6.415-5.136,8.199-8.477c1.299-3.404,4.803-7.973,2.034-11.798c-0.678,0-1.324-0.551-2.034,0
		S410.903,130.326,413.641,137.488z"/>
	<path fill-rule="evenodd" clip-rule="evenodd" d="M88.884,140.971c3.527-1.812,10.172-9.183,13.888-3.143
		c1.374,2.233,12.769,10.797,3.199,12.094c-5.931,0.803-4.884-6.185-9.357-6.917c-2.547,0.395-4.589,1.647-6.125,3.755
		c-4.715,3.854-9.941-5.793-10.962-1.313c-0.833,3.655-2.738,11.349-4.051,14.255c-3.008,6.658-4.639,12.036-10.595,15.85
		c-3.033,1.942-6.864,1.564-9.847,1.564c-3.218-2.271-4.921-6.247-5.206-11.734c0.727-11.071,2.368-21.228,8.95-26.444
		c3.637-4.031,12.912-8.195,12.912-8.195s-6.947-19.612-7.623-27.199c-0.906-10.163,4.167-37.579,15.459-41.497
		c16.021-5.557,34.315,0.147,31.326,19.121c-1.232,7.83-4.775,12.135-11.362,16.937c-5.629,4.104-22.879,6.328-23.636,8.789
		C74.324,111.867,77.982,133.827,88.884,140.971z M94.214,68.09c-16.08,2.533-22.54,12.213-19.569,30.164
		c13.465,2.202,23.355-4.99,28.478-10.171C108.6,80.015,105.063,66.381,94.214,68.09z M55.524,161.719
		c0.986,8.088,5.26,10.205,9.357,4.068c6.337-9.49,9.831-14.192,8.137-26.851C63.977,139.372,54.254,151.304,55.524,161.719
		C55.87,164.56,54.254,151.304,55.524,161.719z"/>
	<path fill-rule="evenodd" clip-rule="evenodd" d="M534.125,146.099c-1.704,7.441-12.639,4.617-16.273,2.034
		c-9.56-6.794-1.08-16.224,9.357-17.494c2.564-5.888,9.172-20.812,15.276-35.249c1.867-4.415,8.627-29.021-0.128-22.389
		c-8.338,6.317-14.128,19.707-17.996,28.753c-5.512,12.876-14.31,24.084-19.528,37.021c-5.754,14.267-8.233,26.16-10.021,40.992
		c-1.366,11.346-18.648,17.237-12.654,0.266c3.178-8.997,6.733-27.423-10.994-22.394c-10.777,3.057-9.112-19.119-0.098-16.83
		c2.257,1.811-0.29,9.56,2.71,10.628c2.678-0.3,5.799-2.657,8.274-3.712c3.937,0.169,5.454,5.721,9.356,5.289
		c5.218-0.577,12.461-23.762,14.305-28.06c4.957-11.552,10.704-23.581,16.614-34.592c2.34-4.355,4.815-9.709,6.917-14.239
		c7.705-16.607,23.709-19.603,26.037-7.73c1.389,7.083-1.484,19.265-4.885,25.469c-6.633,12.101-17.856,32.615-17.491,46.947
		C532.959,142.925,534.464,143.59,534.125,146.099C533.701,147.95,534.464,143.59,534.125,146.099z"/>
	<path fill-rule="evenodd" clip-rule="evenodd" d="M268.872,89.143c6.001,6.065-1.776,23.208-4.068,29.292
		c-3.287,8.72-9.53,20.811-8.305,30.247c1.882,14.498-4.273,42.929-20.987,44.203c-7.71-2.7-16.425-15.994-12.02-25.8
		c0.946-1.136,3.422-2.798,5.511-3.085c-0.121-0.03,6.764,37.7,15.866,13.833c1.356-3.558,7.007-28.675,2.441-30.105
		c-8.203,0.648-12.888,6.531-22.113,6.017c-5.867-0.327-4.383-5.383-8.806-6.423c-3.972-0.935-6.949,3.097-10.984,1.627
		c-3.808-4.908-2.475-15.265,3.661-16.68c3.582,0.745,3.083,6.172,2.034,9.357c7.035,5.753,3.876-8.504,10.578-7.323
		c4.983,0.878,0.654,9.301,5.696,10.578c4.947,1.251,9.172-3.26,14.239-2.848c2.366-2.411,4.536-4.988,6.509-7.729
		c1.256-3.912,0.278-8.585,1.212-12.664c2.695-11.771,8.498-21.697,13.434-32.495C264.493,88.735,267.218,88.42,268.872,89.143
		C273.043,93.358,267.218,88.42,268.872,89.143z"/>
	<path fill-rule="evenodd" clip-rule="evenodd" d="M116.718,120.875c-4.7-4.305-1.17-12.863,5.289-11.392
		C125.16,113.55,123.411,121.848,116.718,120.875z"/>
	<path fill-rule="evenodd" clip-rule="evenodd" d="M208.661,111.111c6.192-1.734,6.728,4.602,3.662,9.357
		c-3.29,5.102-11.833,7.997-10.984-1.22C201.672,115.62,206.608,111.687,208.661,111.111z"/>
	<path fill-rule="evenodd" clip-rule="evenodd" d="M472.287,117.621c2.179,6.019,0.448,13.238-4.476,14.646
		C457.537,130.767,464.326,115.872,472.287,117.621z"/>
	<path fill-rule="evenodd" clip-rule="evenodd" d="M187.913,141.624c1.77,5.361-1.928,11.378-5.289,11.391
		c-1.806,0.007-2.183-1.946-4.475-3.661c-1.018-0.762-2.744-1.086-3.254-1.627c-1.713-1.814-1.16-4.026-3.255-4.475
		c-4.071-0.873-5.245,4.319-8.137,5.695c-3.446,1.641-4.952,0.809-9.764,0.407c-1.843-2.226-2.196-5.941-4.882-7.323
		c-0.198-5.215,2.097-7.938,5.289-9.764c5.268,1.181,2.088,9.701,6.916,10.578c6.058,1.1,7.704-7.091,9.764-12.205
		c1.141-0.487,2.807-0.447,4.475-0.407c2.188,1.88,1.135,7.001,4.475,7.729c2.225-1.891,5.194-3.627,8.137-6.102
		c1.102-0.928,8.528-9.907,10.578-3.255C200.155,134.008,188.504,137.378,187.913,141.624z"/>
	<path fill-rule="evenodd" clip-rule="evenodd" d="M304.673,127.792c2.997,2.268,0.174,5.614,0.813,8.543
		c4.825,2,4.745-2.756,8.544-2.848c3.968-0.096,4.015,3.617,5.695,7.73c0.503,1.231,3.374,3.9,3.255,5.696
		c-0.268,4.026-5.429,5.051-9.357,6.102c-2.187,1.464-5.281,6.035-8.137,2.848c-1.199-1.339,3.749-8.275,3.749-8.275
		s-16.089,6.436-11.925-10.6c-7.676-0.598-8.281-7.114-1.181-6.349C298.978,129.823,300.507,125.986,304.673,127.792z"/>
	<path fill-rule="evenodd" clip-rule="evenodd" d="M128.109,130.232c0.276,3.068-1.653,5.831-0.407,8.543
		c7.792,4.489,8.753-7.023,13.832-6.916c6.019,0.127,3.336,9.012,6.509,12.611c-1.562,3.071-2.588,4.53-6.102,3.662
		c-2.458-0.607-2.848-4.533-5.289-4.475c-2.545,0.06-2.821,4.688-5.695,5.289c-4.375,0.914-5.588-2.637-7.323-5.289
		c-2.051-0.797-4.641-1.054-6.509-2.034C115.025,135.623,121.094,124.568,128.109,130.232z"/>
	<path fill-rule="evenodd" clip-rule="evenodd" d="M438.52,135.521c1.708,1.547,1.458,5.051,2.441,7.323
		c2.937,1.823,12.195,3.056,12.611,7.323c0.693,7.11-10.271,5.519-17.493,4.475C432.278,149.992,427.291,133.973,438.52,135.521z"/>
	<path fill-rule="evenodd" clip-rule="evenodd" d="M339.254,148.54c-2.75-8.385,5.445-11.116,8.543-6.509
		C352.014,148.301,343.908,154.452,339.254,148.54z"/>
	<path fill-rule="evenodd" clip-rule="evenodd" d="M558.128,144.064c1.95,3.221-0.555,8.165-1.628,10.984
		c-3.27,1.712-5.411-0.377-5.695-2.441c-0.579-4.207,5.3-5.803,6.103-8.543C557.314,144.064,557.721,144.064,558.128,144.064z"/>
</g>
</svg>
