<?xml version="1.0" encoding="UTF-8"?>
<svg version="1.0" xmlns="http://www.w3.org/2000/svg" width="505" height="76" >
<path fill="#231F20" d="M33.343,23.101c-0.567-3.045-2.046-6.084-4.609-7.898c-5.048-3.575-11.582,2.92-14.542,6.278 c-5.55,6.298-9.406,14.712-11.651,22.743c-0.873,3.121-2.809,12.319,3.354,10.901c3.935-0.905,7.466-4.988,10.123-7.71 c7.501-7.684,13.931-16.479,20.237-25.141c-0.503-0.294-1.007-0.589-1.511-0.883C30.36,29.681,24.929,39.19,23.771,48.61 c-0.428,3.48,1.725,4.86,4.81,3.514c7.71-3.364,13.635-12.177,17.423-19.314c1.433-2.699,6.424-11.544,3.793-14.634 c-2.901-3.407-8.493,9.976-8.859,10.803c-2.455,5.542-6.107,18.318,0.558,22.782c6.99,4.681,13.96-5.547,16.997-10.439 c0.514-0.827,4.227-6.499,1.425-7.138c-2.458-0.561-5.155,2.855-6.44,4.459c-1.813,2.262-3.653,5.529-2.169,8.397 c2.017,3.897,10.654,3.347,13.924,2.199c1.628-0.571,2.623-1.988,3.438-3.418c1.948-3.422,3.975-6.222,7.279-8.508 c-0.261-0.813-0.481-0.892-0.662-0.238c-0.29,0.561-0.641,1.094-0.972,1.63c-0.708,1.143-1.448,2.266-2.165,3.403 c-0.974,1.546-2.827,3.913-2.785,5.876c0.102,4.641,6.286-0.841,7.447-1.853c0.367-0.325,0.734-0.651,1.101-0.978 c0.874-0.777-0.536-0.901-0.387-0.63c0.489,0.89,1.191,1.563,1.931,2.25c2.753,2.556,6.368,3.83,10.041,4.185 c1.124,0.108,1.113-1.643,0-1.75c-4.728-0.457-7.807-2.599-10.667-6.037c-0.24-0.289-0.755-0.335-1.061-0.137 c-0.799,0.52-1.486,1.229-2.196,1.859c-0.486,0.431-4.423,2.946-4.416,2.902c0.545-3.059,3.43-6.213,5.034-8.801 c0.521-0.841,1.781-2.477,0.831-3.433c-1.273-1.281-4.375,2.104-5.099,2.736c-2.468,2.154-3.71,5.023-5.417,7.724 c-2.042,3.232-11.538,3.126-13.689,0.136c-1.418-1.971,1.079-5.258,2.256-6.728c0.682-0.85,1.466-1.614,2.285-2.331 c0.39-0.341,0.808-0.624,1.245-0.897c0.624-0.39,0.603-0.683,0.471-0.041c-0.901,4.371-5.208,9.218-8.19,12.109 c-6.104,5.915-10.943,1.187-11.219-5.835c-0.263-6.704,2.823-13.41,6.063-19.08c0.764-1.337,1.64-2.942,2.903-3.875 c-0.428,0.316-0.518,3.215-0.689,3.879c-2.514,9.78-9.196,19.218-17.145,25.298c-1.255,0.96-5.222,4.099-5.329,0.868 c-0.091-2.718,1.146-5.654,2.051-8.161c2.369-6.561,5.473-12.926,8.732-19.089c0.538-1.016-0.857-1.781-1.511-0.883 C27.128,31.851,18.866,44.969,7.81,52.287c-6.073,4.02-4.51-4.107-3.581-7.597c1.799-6.753,5.003-13.323,8.96-19.068 c2.833-4.113,8.22-10.862,13.76-9.354c2.812,0.765,4.229,4.734,4.707,7.299C31.862,24.675,33.549,24.204,33.343,23.101 L33.343,23.101 M101.517,39.24c-2.816,0.389-12.811,3.453-8.361,8.005c2.898,2.965,12.034-4.589,13.898-6.759 c-0.145,0.169-0.914-1.22-1.422,0.323c-0.306,0.925-0.627,1.844-0.913,2.776c-0.466,1.516-1.05,3.438-0.478,5.001 c1.884,5.147,12.738-5.848,13.877-6.883c-0.487-0.284-0.975-0.567-1.462-0.851c-0.398,1.852-1.063,6.199,1.246,7.21 c1.98,0.868,3.666-0.047,5.517-0.916c2.034-0.954,3.44-1.882,5.355-0.05c1.074,1.027,1.89,1.747,3.323,2.2 c2.081,0.656,4.17-1.671,5.264-3.021c1.188-1.467,1.695-4.459,4.911-1.57c0.471,0.423,1.013,1.503,1.826,1.519 c4.356,0.084,8.729-9.537,10.657-12.448c-0.533-0.225-1.066-0.449-1.599-0.674c-0.869,2.961-4.214,13.117-0.023,14.881 c3.468,1.459,8.455-3.905,10.504-6.102c0.941-1.009,3.179-4.378,2.391-5.828c-0.19-0.351-0.614-0.493-0.988-0.402 c-2.842,0.688-7.351,7.963-4.594,10.478c5.239,4.778,15.387,0.812,15.429-6.295c-0.573,0.078-1.146,0.155-1.719,0.232 c1.854,5.702,8.941,7.101,14.094,7.143c1.129,0.009,1.128-1.741,0-1.75c-4.251-0.035-10.822-0.988-12.406-5.857 c-0.302-0.928-1.713-0.779-1.719,0.232c-0.028,4.737-4.302,6.397-8.389,6.389c-5.832-0.012-4.145-4.455-1.886-7.277 c0.392-0.489,0.837-0.929,1.292-1.359c-0.557,0.527-0.43-1.938-1.067-0.103c-0.65,1.872-1.616,3.178-3.059,4.55 c-0.695,0.661-6.186,5.772-7.48,4.051c-1.021-1.356-0.386-4.389-0.173-5.894c0.315-2.233,0.847-4.462,1.482-6.626 c0.29-0.987-1.066-1.479-1.599-0.674c-1.548,2.337-3.082,4.682-4.688,6.98c-0.883,1.263-1.841,2.464-2.879,3.602 c-1.453,1.593-1.945,0.192-3.179-0.917c-2.791-2.506-4.421-0.816-5.884,1.727c-2.247,3.905-5.814,1.616-8.584-0.021 c-0.735-0.434-1.604-0.248-2.366-0.046c-1.768,0.468-6.386,4.298-7.439,1.336c-0.444-1.25-0.153-2.975,0.119-4.236 c0.186-0.863-0.802-1.452-1.462-0.851c-2.812,2.557-5.659,5.195-8.99,7.067c-2.333,1.312-2.263-0.308-1.842-2.168 c0.309-1.367,2.32-4.829,1.525-6.185c-0.926-1.581-4.751,2.527-5.225,2.875c-1.253,0.922-2.56,1.76-3.901,2.547 c-0.672,0.386-1.368,0.727-2.086,1.021c-1.991,0.833-2.497-1.468-0.795-2.671c1.755-1.24,4.308-1.732,6.416-2.023 C103.096,40.773,102.62,39.087,101.517,39.24L101.517,39.24 M204.058,35.839c9.812,4.707,32.541-22.482,24.52-25.762c-12.794-5.232-23.514,23.887-4.596,20.351 c-0.369-0.281-0.738-0.563-1.107-0.844c-0.099,6.246-0.836,12.531-2.223,18.617c-1.115,4.893-3.3,8.8-5.921,13.003 c-1.19,1.909-2.347,3.84-3.525,5.758c-0.558,0.909-1.133,1.806-1.718,2.698c-0.158,0.228-0.315,0.456-0.473,0.684 c-0.914,0.618-0.833,1.036,0.244,1.253c-0.391-4.271,3.372-9.758,5.68-13.077c3.007-4.325,6.713-8.179,10.255-12.062 c4.254-4.662,10.622-10.41,11.181-17.125c0.055-0.658-0.786-1.097-1.316-0.755c-1.545,0.993-2.011,2.638-0.288,3.705 c1.34,0.829,9.674,0.892,8.953,2.37c-1.174,2.405-4.201,3.746-5.843,5.813c-0.368,0.464-0.328,1.327,0.387,1.462 c3.618,0.688,11.27,2.579,13.738-1.152c0.624-0.944-0.892-1.819-1.512-0.883c-1.711,2.585-9.303,0.815-11.762,0.348 c0.129,0.487,0.258,0.975,0.387,1.462c1.601-2.016,7.093-4.798,6.574-7.884c-0.279-1.666-1.877-1.995-3.335-2.24 c-0.799-0.134-7.854-0.565-6.417-1.489c-0.438-0.251-0.878-0.503-1.316-0.755c-0.385,4.633-4.312,8.69-7.189,12.015 c-3.498,4.04-7.221,7.876-10.66,11.97c-2.727,3.246-5.46,6.791-7.087,10.735c-0.676,1.64-3.41,6.893-1.775,8.618 c0.205,0.216,0.565,0.32,0.851,0.225c2.384-0.794,4.123-5.324,5.292-7.239c2.683-4.397,5.63-8.526,7.296-13.435 c2.413-7.112,3.154-15.154,3.272-22.639c0.01-0.606-0.563-0.946-1.107-0.844c-7.51,1.404-9.759-3.938-6.994-10.178 c0.952-2.146,2.493-4.031,4.375-5.422c1.454-1.073,6.799-3.25,7.771-0.493c0.932,2.647-2.88,6.93-4.269,8.676 c-2.975,3.74-6.586,7.125-10.455,9.92c-2.069,1.495-6.689,4.194-9.005,3.084C203.929,33.842,203.041,35.351,204.058,35.839 L204.058,35.839 M258.267,31.74c-2.729,1.048-11.243,6.362-5.259,9.314c3.581,1.767,8.616-7.485,8.616-10.156 c0-1.128-1.75-1.128-1.75,0c0,2.082-3.135,11.091,1.58,10.058c1.566-0.343,3.042-2.387,4.055-3.438 c2.173-2.254,4.247-4.604,6.316-6.952c2.643-2.998,5.238-6.04,7.793-9.114c-0.459-0.354-0.917-0.707-1.375-1.06 c-2.304,5.039-4.654,10.362-5.666,15.83c-1.526,8.248,6.25,2.05,8.791-0.52c-0.459-0.059-0.917-0.118-1.375-0.177 c0.938,1.812,2.772,2.826,4.672,3.328c2.182,0.577,4.543-0.187,6.566-0.926c1.982-0.724,2.521-4.104,5.535-3 c0-0.563,0-1.125,0-1.688c-2.74,0.492-8.533,3.963-4.24,6.837c3.042,2.036,9.271-3.846,11.342-5.625 c-0.459-0.354-0.917-0.707-1.375-1.06c-1.142,1.843-2.56,4.964-0.328,6.523c1.855,1.296,5.463-0.358,7.125-1.079 c2.062-0.894,4.565-1.718,6.231-3.26c1.01-0.935,4.699-4.753,6.286-3.737c-0.06-0.458-0.118-0.916-0.178-1.374 c-0.916,0.861-5.545,5.447-2.797,6.758c3.5,1.669,7.809-1.038,9.422-4.198c-0.533-0.225-1.066-0.449-1.6-0.674 c-1.121,4.547,2.643,5.809,6.331,3.958c1.591-0.798,5.687-4.247,7.59-2.765c0.862,0.671,1.366,1.972,2.071,2.818 c1.918,2.301,5.263,1.848,7.834,1.314c1.104-0.229,0.636-1.916-0.465-1.688c-3.648,0.758-5.486,0.186-7.479-2.809 c-0.563-0.847-1.458-1.669-2.534-1.708c-2.75-0.099-13.086,7.121-11.661,1.342c0.231-0.938-1.135-1.583-1.6-0.674 c-1.195,2.341-3.344,3.582-5.994,3.816c-1.779,0.158,1.709-3.871,2.119-4.256c0.426-0.4,0.283-1.079-0.178-1.374 c-1.657-1.062-3.498,0.243-4.914,1.178c-2.846,1.878-4.973,3.801-8.15,5.291c-1.304,0.611-7.704,3.628-6.728-0.12 c0.22-0.844,0.647-1.662,1.106-2.402c0.55-0.888-0.65-1.682-1.375-1.06c-1.625,1.397-3.356,2.656-5.166,3.803 c-0.524,0.323-1.063,0.621-1.616,0.894c-1.563,1.107-2.134,0.462-1.714-1.937c0.853-0.584,2.081-0.865,3.098-1.048 c0.931-0.167,0.733-1.419,0-1.688c-2.535-0.928-4.646,0.96-6.354,2.674c-2.342,2.351-7.796,1.774-9.373-1.271 c-0.261-0.503-0.993-0.563-1.375-0.177c-0.751,0.76-5.943,6.208-5.989,3.475c-0.035-2.113,0.848-4.37,1.497-6.346 c1.155-3.512,2.58-6.958,4.117-10.319c0.382-0.836-0.692-1.881-1.375-1.06c-4.007,4.822-8.112,9.568-12.35,14.19 c-1.468,1.601-2.943,3.355-4.689,4.661c-1.005,0.751-0.437-3.714-0.434-3.731c0.26-1.536,0.717-2.878,0.717-4.436 c0-1.128-1.75-1.128-1.75,0c0,2.304-2.836,5.754-4.247,7.366c-1,1.47-1.834,1.109-2.503-1.08c0.5-1.116,1.925-1.859,2.913-2.461 c0.843-0.514,1.772-0.942,2.694-1.296C259.774,33.027,259.322,31.334,258.267,31.74L258.267,31.74 M389.244,9.392c-3.809,8.102-7.394,16.424-11.75,24.25c-0.563,1.013,0.849,1.76,1.512,0.883 c3.443-4.558,6.945-9.073,10.488-13.554c3.751-4.743,7.919-11.829,13.142-15.107c-1.108,0.696-0.522-1.328-0.927-0.037 c-0.503,1.61-1.441,3.134-2.272,4.591c-1.245,2.186-2.858,4.137-4.387,6.125c-1.21,1.574-1.701,3.322,0.592,3.965 c1.776,0.498,4.39-0.588,4.569,2.044c0.123,1.797-0.858,3.762-1.656,5.294c-1.708,3.281-6.569,9.073-9.049,3.295 c-0.252,0.438-0.504,0.877-0.756,1.316c5.662,0.495,12.331,0.461,17.626-1.824c2.945-1.271,9.588-7.602,4.621-10.564 c-5.386-3.211-4.716,9.012-4.294,10.771c1.318,5.5,5.228,6.79,9.934,4.038c2.743-1.604,23.08-22.002,17.316-24.446 c-6.046-2.564-13.005,21.075-2.149,21.817c5.184,0.354,10.837-3.494,14.852-6.269c5.051-3.491,9.84-7.82,13.188-13.004 c2.14-3.313,3.22-7.343-0.198-10.095c-4.732-3.812-8.699,1.094-10.202,5.365c-2.731,7.758-0.799,18.258,4.188,24.705 c3.895,5.034,10.514,5.343,16.358,4.655c11.518-1.356,23.155-6.618,33.202-12.268c0.983-0.553,0.102-2.065-0.883-1.511 c-11.121,6.254-24.82,12.659-37.809,12.303c-11.97-0.329-15.498-14.427-14.099-24.353c0.61-4.325,3.585-11.22,8.729-7.076 c2.327,1.874,0.357,5.472-0.8,7.392c-3.7,6.141-10.104,11.058-16.147,14.698c-4.818,2.9-13.618,7.095-13.854-1.62 c-0.108-3.996,0.431-10.594,4.331-12.979c1.178-0.72-2.067,5.035-2.53,5.718c-3.991,5.889-9.652,13.977-16.613,16.546 c-4.839,1.786-5.72-5.549-5.755-8.685c-0.008-0.691,1.91-6.33,2.923-3.433c0.845,2.414-1.787,4.934-3.532,6.001 c-5.046,3.085-12.675,2.868-18.403,2.367c-0.736-0.064-0.988,0.774-0.756,1.316c4.022,9.37,12.44-2.465,13.729-7.483 c0.705-2.745-0.153-5.364-3.224-5.583c-1.667-0.119-3.275,0.312-1.939-1.532c0.966-1.332,2.016-2.598,2.974-3.938 c1.623-2.271,3.369-4.993,4.017-7.753c0.422-1.797-1.361-1.799-2.389-0.963c-3.236,2.633-5.841,6.231-8.468,9.437 c-5.211,6.359-10.244,12.873-15.2,19.433c0.504,0.294,1.008,0.589,1.512,0.883c4.355-7.826,7.941-16.147,11.75-24.25 C391.232,9.26,389.724,8.371,389.244,9.392L389.244,9.392z"/>
</svg>