<?xml version="1.0" encoding="UTF-8" standalone="no"?>
<!-- Created with Inkscape (http://www.inkscape.org/) -->
<svg
   xmlns:svg="http://www.w3.org/2000/svg"
   xmlns="http://www.w3.org/2000/svg"
   version="1.0"
   width="500"
   height="170"
   id="svg2609">
  <defs
     id="defs2611" />
  <g
     id="layer1">
    <path
       d="M 202.13574,145.81658 C 204.03138,144.88268 207.39603,142.94604 209.61273,141.51296 C 213.48641,139.00863 213.59071,138.75348 212.29515,134.95119 C 210.13627,128.6152 214.55789,126.73093 217.53127,132.71982 L 219.05466,135.7882 L 224.72584,131.71108 C 230.73495,127.39102 234.42704,127.64609 233.71791,132.33231 C 233.5024,133.75648 233.85038,137.01346 234.4912,139.57004 C 235.35803,143.0283 236.60478,144.562 239.36083,145.56048 C 241.3983,146.29863 242.97987,147.46726 242.87543,148.15743 C 242.76404,148.8936 241.11375,148.84284 238.88282,148.03459 C 236.79133,147.27687 234.3356,146.54426 233.42564,146.40656 C 232.51568,146.26886 231.01238,144.27483 230.08499,141.97538 C 228.4373,137.89004 228.37327,137.85813 227.28036,140.57804 C 225.74175,144.40717 220.63322,145.93925 217.09501,143.63269 C 214.85872,142.17484 213.43649,142.28341 209.16445,144.23804 C 202.91061,147.09942 196.70114,148.49397 202.13574,145.81658 z M 223.23159,138.36065 C 224.91282,136.37978 223.44468,135.68423 221.4098,137.49755 C 220.23957,138.54037 220.03541,139.24597 220.8675,139.37189 C 221.60143,139.48295 222.66528,139.02789 223.23159,138.36065 z M 25.315775,112.10185 C 19.460869,109.55597 17.912932,105.03783 20.199124,97.167204 C 22.863061,87.996077 28.121373,80.045946 34.030319,76.255577 L 39.09953,73.003879 L 50.456587,75.493234 L 61.813619,77.982588 L 67.644149,65.756581 C 70.850919,59.03228 74.116489,51.750461 74.900939,49.57476 C 76.289599,45.723295 76.212799,45.601636 71.989199,44.9625 C 67.452979,44.276064 64.032189,40.669288 66.333139,38.998918 C 67.052969,38.476365 70.209749,38.256513 73.348199,38.510378 C 78.802219,38.951541 79.111489,38.78262 80.344349,34.689169 C 81.184649,31.899157 82.421779,30.375841 83.893759,30.31873 C 85.704749,30.248471 86.018599,31.121165 85.474759,34.715047 L 84.796229,39.19901 L 102.0279,41.958576 C 111.50531,43.476332 119.6932,44.715349 120.22319,44.711948 C 120.75318,44.708547 121.11133,45.204588 121.01907,45.814254 C 120.7844,47.364983 116.07678,47.72548 108.68209,46.758984 C 105.22069,46.306576 97.524309,45.877114 91.579009,45.804634 L 80.769379,45.67286 L 78.378349,51.075409 C 77.063269,54.046819 74.174939,60.246993 71.959809,64.85358 C 65.002319,79.322438 65.105739,78.591747 69.928649,79.20451 C 72.260519,79.500764 77.124709,79.226009 80.737949,78.593943 C 86.451629,77.594424 87.860249,76.692235 91.550529,71.668865 C 93.884199,68.492147 97.343859,65.295555 99.238639,64.565334 C 102.29612,63.387007 103.01631,63.535419 105.64004,65.884497 C 110.13612,69.909934 108.77675,72.833688 100.15054,77.691386 C 91.122349,82.775458 89.492699,86.74711 94.324179,91.890934 C 98.031189,95.837622 99.739869,96.050836 109.37275,93.768769 C 115.57641,92.299087 117.84066,91.050031 120.01054,87.900512 C 125.79847,79.499419 140.03764,71.712231 143.17479,75.232351 C 144.12901,76.303068 144.05166,77.376882 142.91024,78.904893 C 141.6436,80.600506 141.70599,80.974494 143.20075,80.646144 C 144.39949,80.382837 145.53189,81.634266 146.25901,84.025885 C 147.24383,87.265082 148.25484,88.007512 153.13195,89.072962 C 156.68447,89.849025 161.52921,89.742938 165.92352,88.792814 C 173.48904,87.157028 174.24316,87.281098 172.74683,89.915261 C 170.76564,93.403018 156.60372,96.603011 150.03664,95.046799 C 146.30113,94.161604 144.82613,92.976652 143.21663,89.567836 L 141.16296,85.218363 L 134.27764,88.990355 C 130.49072,91.064956 125.91653,92.972401 124.11274,93.229108 C 122.30898,93.485841 116.65552,95.025161 111.54952,96.649817 C 99.552679,100.46709 93.563419,99.723798 89.258289,93.88341 C 87.364129,91.31377 86.344869,88.341726 86.654969,86.29243 C 87.069139,83.555455 86.725999,83.042281 84.823229,83.553082 C 83.535469,83.898769 77.901569,84.419519 72.303489,84.710291 L 62.125129,85.238974 L 56.479119,93.322923 C 44.317839,110.73544 35.036171,116.32854 25.315775,112.10185 z M 35.115009,110.24668 C 37.481753,109.39898 41.551839,106.71782 44.159616,104.28856 C 48.686235,100.07182 58.348229,86.741348 58.736199,84.177534 C 58.990779,82.495208 46.681296,79.188126 40.657684,79.320522 C 34.03037,79.46618 27.195553,86.089318 23.620315,95.830248 C 19.498803,107.05948 20.238873,109.00155 29.577462,111.46266 C 30.25636,111.6416 32.748253,111.0944 35.115009,110.24668 z M 134.67913,82.903628 C 139.1957,79.909336 141.79544,77.429538 141.06657,76.810912 C 139.7205,75.668463 130.94293,80.878243 127.23361,85.021241 C 123.50006,89.191309 126.46815,88.347132 134.67913,82.903628 z M 102.12719,72.275764 C 104.0331,71.255571 104.39912,70.528307 103.42339,69.700185 C 101.88971,68.398485 98.608139,70.031949 96.152339,73.3195 C 94.722639,75.233391 94.831689,75.401171 96.990039,74.608571 C 98.354749,74.107416 100.66647,73.057652 102.12719,72.275764 z M 232.39666,97.171126 C 229.79973,94.385022 230.10647,88.525433 233.20968,81.639863 C 234.71913,78.290632 236.22337,74.863248 236.55242,74.023425 C 236.88148,73.183614 237.92427,71.926258 238.86975,71.229326 C 239.81524,70.532381 240.68944,69.297197 240.81242,68.484494 C 240.93539,67.671792 241.92104,66.47326 243.00274,65.821129 C 244.55797,64.883506 245.36871,65.403444 246.87759,68.30613 C 251.10052,76.429867 269.41461,75.954792 280.34048,67.438094 C 286.27893,62.809082 289.27351,64.219419 284.21782,69.264199 C 282.6284,70.850197 280.84605,74.385242 280.25705,77.119831 C 279.33547,81.398537 279.55976,82.204018 281.86559,82.896356 C 286.01564,84.142442 291.50723,81.692354 304.15691,72.950994 C 310.56172,68.525069 315.72316,65.424944 315.62678,66.061858 C 315.32982,68.024281 293.20647,84.523791 288.13623,86.564203 C 281.62157,89.185877 277.11887,88.328971 275.17938,84.098378 C 274.32217,82.228576 273.83745,79.267167 274.10223,77.517476 C 274.68367,73.675048 274.64522,73.665859 267.53858,75.950198 C 264.42065,76.95242 258.29345,77.548342 253.92258,77.274463 C 247.80191,76.890956 245.8846,77.23861 245.5798,78.787168 C 243.66144,88.53339 238.72451,98.385712 235.52251,98.857817 C 234.77124,98.9686 233.36461,98.209569 232.39666,97.171126 z M 240.86541,84.528995 C 243.36718,76.678795 242.65487,72.484943 239.68902,77.6028 C 236.85283,82.496922 234.63816,89.720792 235.41551,91.542189 C 236.55678,94.216228 238.62734,91.551733 240.86541,84.528995 z M 197.18949,86.571843 C 194.05413,82.028053 194.09524,78.01735 197.34262,71.63291 C 200.16893,66.076288 211.54111,45.95542 235.90492,39.599193 C 244.9876,38.891258 248.52247,40.810022 240.65592,42.50561 C 223.72586,46.2617 213.40652,56.638719 212.35161,57.65961 C 210.24179,59.701392 208.45139,61.796135 208.37293,62.314614 C 208.29447,62.833094 206.83152,64.702819 205.12192,66.46958 C 203.41232,68.236328 201.2627,72.415407 200.34498,75.756439 C 198.84126,81.230885 198.94785,82.074097 201.42394,84.290982 C 203.46057,86.114435 205.17166,86.60762 208.03698,86.19708 C 214.93386,85.208895 221.4264,83.174284 223.45695,81.364816 C 224.54889,80.391759 226.71185,79.154011 228.26354,78.614249 C 229.82926,78.0696 228.50002,79.614491 225.27661,82.085748 C 218.9242,86.955908 207.51431,91.142272 202.61416,90.400768 C 200.9053,90.142169 198.4642,88.419156 197.18949,86.571843 z M 349.57347,87.066247 C 347.86133,84.743555 346.58815,81.999637 346.74417,80.968631 C 346.97481,79.444402 346.03492,79.457575 341.71485,81.039093 C 331.44174,84.799942 325.93129,78.150495 329.17812,65.911072 C 331.44287,57.373776 336.30498,45.748576 339.39019,41.494238 L 341.7514,38.23825 L 337.626,38.338118 C 335.35701,38.393034 333.02817,38.639588 332.45075,38.886029 C 331.87336,39.132456 331.16297,38.77649 330.8721,38.094978 C 330.08647,36.254188 333.74383,34.471373 340.07135,33.610736 C 344.74341,32.975255 346.47598,31.86522 350.42145,26.979551 C 353.02777,23.752182 355.86745,21.208534 356.73199,21.326982 C 359.02519,21.641194 358.31016,23.888183 354.89657,27.09442 C 349.92229,31.766685 350.65534,32.361388 362.39169,33.175106 C 368.36944,33.589566 377.83869,34.385567 383.43481,34.944024 C 389.03093,35.502468 394.73251,35.781474 396.10483,35.564008 C 397.49135,35.344334 398.51009,35.763821 398.39739,36.508028 C 398.28596,37.244709 397.98949,37.816378 397.73858,37.778418 C 397.4878,37.740458 394.44455,37.811644 390.97588,37.936615 C 387.50721,38.061587 382.07278,38.145274 378.89944,38.122581 C 375.72597,38.099889 370.79335,38.251665 367.93793,38.459866 C 365.08251,38.668068 361.04971,38.599014 358.97607,38.306428 C 356.90243,38.013829 352.96215,38.046522 350.21984,38.379086 C 346.03164,38.886981 344.67898,39.862107 341.76621,44.473288 C 337.68855,50.928608 332.09391,68.1723 332.56241,72.8411 C 332.96239,76.827233 337.60934,78.463158 343.153,76.569421 C 345.83985,75.651609 347.93933,73.433062 350.2654,69.053726 C 353.91426,62.183932 363.72847,53.503223 365.8299,55.286826 C 367.49551,56.700374 367.22848,58.940217 365.47708,58.247232 C 363.78939,57.579439 356.19223,64.536702 354.35998,68.428031 C 353.05467,71.200339 353.13704,71.304712 355.50981,69.885618 C 356.91551,69.044906 360.07273,66.35032 362.52558,63.897617 C 365.96189,60.461629 366.66156,60.125613 365.57366,62.433494 C 363.89447,65.99599 359.9401,70.275255 355.78636,73.024528 C 352.08652,75.473372 351.0837,80.940736 353.73848,84.18987 C 356.40874,87.458168 362.79946,88.234294 372.96751,86.525177 C 384.5816,84.572958 385.6129,84.085217 387.16048,79.81339 C 389.17675,74.248023 400.21682,66.071339 404.78215,66.762179 C 406.79118,67.0662 409.8465,66.667895 411.57163,65.877047 C 415.37243,64.134615 415.39718,65.802003 411.64752,70.972643 C 408.33712,75.53759 406.62201,80.879868 407.61777,83.525212 C 408.28635,85.301402 409.10037,85.323625 413.76355,83.692877 C 416.71987,82.659066 423.73754,79.069411 429.35828,75.71589 C 434.97902,72.362345 440.0435,70.013724 440.61245,70.496693 C 441.20831,71.002392 440.53567,73.720483 439.02654,76.905246 C 437.58519,79.946966 436.62877,82.957731 436.90112,83.595864 C 437.62897,85.301415 443.48602,83.716775 450.97848,79.787157 C 458.49543,75.844543 461.64758,76.576756 460.81591,82.072384 C 459.74591,89.143361 467.80186,91.554322 476.03625,86.627444 C 481.29161,83.483038 481.42613,83.471705 480.12108,86.282874 C 478.30419,90.196057 473.22931,93.130763 466.51305,94.151997 C 461.50759,94.913071 460.68659,94.713753 458.10339,92.110684 C 456.52903,90.52409 455.28871,87.701905 455.34722,85.839159 C 455.40585,83.976427 455.21002,82.415494 454.91241,82.370453 C 454.6148,82.325411 451.39069,83.813165 447.74765,85.676558 C 439.12959,90.08469 435.03461,90.48179 432.8267,87.123459 C 431.89553,85.707119 431.1772,82.987264 431.23038,81.079312 L 431.32696,77.610351 L 423.97842,82.60891 C 419.93687,85.35812 414.07144,88.325087 410.94417,89.20216 L 405.25858,90.796865 L 403.09636,87.078963 L 400.93439,83.361087 L 396.12082,86.524352 C 392.38588,88.978755 390.54729,89.412329 387.91612,88.459108 C 385.66189,87.642421 382.36544,87.942533 378.08326,89.354304 C 371.47094,91.534307 361.47969,92.61995 355.85832,91.769313 C 354.02569,91.491982 351.37206,89.506232 349.57347,87.066247 z M 400.30477,76.918991 C 406.54218,72.64809 405.82042,67.070375 399.47882,70.536721 C 397.39135,71.677876 390.60834,79.498606 390.37634,81.032113 C 390.2017,82.186428 396.30408,79.658289 400.30477,76.918991 z"
       id="path2669"
       style="fill:#000000" />
  </g>
</svg>
