<?xml version="1.0" encoding="UTF-8" standalone="no"?>
<!-- Created with Inkscape (http://www.inkscape.org/) -->

<svg
   xmlns:dc="http://purl.org/dc/elements/1.1/"
   xmlns:cc="http://creativecommons.org/ns#"
   xmlns:rdf="http://www.w3.org/1999/02/22-rdf-syntax-ns#"
   xmlns:svg="http://www.w3.org/2000/svg"
   xmlns="http://www.w3.org/2000/svg"
   xmlns:sodipodi="http://sodipodi.sourceforge.net/DTD/sodipodi-0.dtd"
   xmlns:inkscape="http://www.inkscape.org/namespaces/inkscape"
   id="svg2"
   version="1.1"
   inkscape:version="0.48.2 r9819"
   width="1106"
   height="248"
   sodipodi:docname="Gabriel_Marquez_Signature.png">
  <metadata
     id="metadata8">
    <rdf:RDF>
      <cc:Work
         rdf:about="">
        <dc:format>image/svg+xml</dc:format>
        <dc:type
           rdf:resource="http://purl.org/dc/dcmitype/StillImage" />
        <dc:title></dc:title>
      </cc:Work>
    </rdf:RDF>
  </metadata>
  <defs
     id="defs6" />
  <sodipodi:namedview
     pagecolor="#ffffff"
     bordercolor="#666666"
     borderopacity="1"
     objecttolerance="10"
     gridtolerance="10"
     guidetolerance="10"
     inkscape:pageopacity="0"
     inkscape:pageshadow="2"
     inkscape:window-width="1366"
     inkscape:window-height="706"
     id="namedview4"
     showgrid="false"
     inkscape:zoom="1.06"
     inkscape:cx="550.1185"
     inkscape:cy="124"
     inkscape:window-x="-8"
     inkscape:window-y="-8"
     inkscape:window-maximized="1"
     inkscape:current-layer="svg2" />
  <path
     style="fill:#000000"
     d="m 234.7047,230.72843 c -0.79577,-0.53192 -4.62077,-0.91585 -8.5,-0.85317 -7.65177,0.12363 -14.55316,-1.63464 -14.55316,-3.70773 0,-2.55576 2.85257,-3.83752 6.75846,-3.0368 4.32578,0.8868 7.66535,1.16151 22.64588,1.86283 7.13375,0.33398 11.1704,0.941 11.67378,1.75549 0.59592,0.96421 1.0919,0.97737 2.19923,0.0584 0.78638,-0.65264 2.50818,-1.16135 3.82622,-1.13047 2.99226,0.0701 24.56007,-1.78777 35.89643,-3.09216 11.79394,-1.35704 40.01986,-3.48017 51.90896,-3.90455 2.42493,-0.0866 5.28517,-0.62631 6.35609,-1.19945 1.07092,-0.57314 4.03688,-1.02023 6.59104,-0.99354 4.4084,0.0461 8.34542,-0.35871 28.14391,-2.89355 4.675,-0.59855 10.975,-1.12593 14,-1.17196 3.025,-0.046 6.28122,-0.48213 7.23605,-0.96912 1.25621,-0.64069 2.20979,-0.33214 3.44999,1.11631 1.45118,1.69486 1.95154,1.79736 3.26394,0.66865 2.23042,-1.91827 10.02843,-3.61497 16.61421,-3.61497 3.1232,0 13.16143,-0.64913 22.30718,-1.44251 9.14575,-0.79338 21.50242,-1.68925 27.45927,-1.99083 5.95686,-0.30157 11.15535,-0.74898 11.5522,-0.99425 0.39685,-0.24527 6.32306,-0.70387 13.16935,-1.01911 6.8463,-0.31524 14.92281,-0.96957 17.94781,-1.45407 3.025,-0.4845 9.1,-0.94351 13.5,-1.02001 4.4,-0.0765 10.89829,-0.59798 14.44064,-1.15881 6.90928,-1.0939 39.41508,-1.43663 41.03945,-0.43272 0.53822,0.33264 1.77538,0.19023 2.74924,-0.31647 1.95183,-1.01553 18.35778,-2.29048 27.77067,-2.15814 13.3724,0.18802 26.39605,0.80464 27.17604,1.2867 0.45539,0.28145 5.9766,-0.15345 12.2693,-0.96644 13.747,-1.77605 16.0547,-1.19048 16.0547,4.07379 0,4.33894 -2.3737,6.99845 -4.9944,5.59588 -1.0205,-0.54617 -2.9018,-0.95817 -4.1806,-0.91556 -4.2898,0.14295 -26.27639,-1.11191 -30.82504,-1.7593 -6.45545,-0.91877 -58.91495,-1.09924 -69,-0.23738 -8.9231,0.76257 -29.6478,2.0372 -39,2.39863 -3.025,0.1169 -9.1,0.52135 -13.5,0.89878 -4.4,0.37742 -11.15,0.84729 -15,1.04414 -3.85,0.19686 -7.675,0.59249 -8.5,0.87918 -0.825,0.2867 -6.675,0.76768 -13,1.06885 -6.325,0.30118 -13.975,1.02996 -17,1.61952 -5.04035,0.98234 -10.99893,1.43964 -32,2.4559 -4.125,0.19961 -14.475,1.26356 -23,2.36432 -8.525,1.10077 -17.8664,2.03355 -20.75867,2.07285 -2.89228,0.0393 -8.06728,0.48688 -11.5,0.99463 -3.43273,0.50775 -6.91633,0.94367 -7.74133,0.96872 -7.48615,0.22731 -20.53517,1.32527 -25,2.10354 -3.025,0.52729 -10,1.45045 -15.5,2.05146 -5.5,0.60101 -12.925,1.57099 -16.5,2.15552 -3.575,0.58452 -9.425,1.2153 -13,1.40173 -3.575,0.18643 -9.425,0.59024 -13,0.89737 -13.31439,1.14381 -50.50757,1.60196 -51.94684,0.63988 z M 54.151548,142.63636 c -3.85,-0.42272 -9.475,-1.66079 -12.5,-2.75128 -3.025,-1.09048 -5.95,-2.1156 -6.5,-2.27805 -0.55,-0.16245 -2.44805,-0.90039 -4.21788,-1.63987 -1.76984,-0.73949 -3.49902,-1.34452 -3.84262,-1.34452 -1.53351,0 -10.29956,-7.83286 -13.86136,-12.38576 C 7.011147,114.288 5.3088274,108.84001 5.2260374,96.622645 c -0.071,-10.4776 -0.0614,-10.52027 4.5017996,-20.000004 3.824321,-7.944775 6.034101,-10.993195 13.498331,-18.621092 8.47793,-8.66383 11.68586,-11.201581 22.33332,-17.667575 9.8489,-5.981045 34.35728,-15.711333 39.57328,-15.711333 1.38533,0 2.51878,-0.377087 2.51878,-0.83797 0,-0.460884 1.57928,-0.897341 3.50951,-0.969906 1.93023,-0.07257 4.39766,-0.607259 5.483172,-1.188209 1.08552,-0.58095 4.11874,-1.269787 6.74048,-1.53075 2.62176,-0.260963 7.46683,-0.964026 10.76683,-1.562361 13.03743,-2.363865 28.94828,-0.534666 37,4.253724 1.65,0.981261 4.63419,2.677614 6.63152,3.769673 4.78922,2.618539 5.97776,6.705811 2.68635,9.238068 -3.03433,2.334466 -3.19089,2.311667 -7.03307,-1.024181 -1.80664,-1.568552 -6.2495,-4.256795 -9.87302,-5.973873 -5.75979,-2.729389 -7.77171,-3.147211 -16,-3.322767 -13.23031,-0.282278 -23.52631,0.778417 -29.38832,3.027588 -2.762902,1.060082 -7.273452,2.449591 -10.023452,3.087798 -7.40858,1.719346 -15.86852,4.333971 -16.95,5.238557 -0.5225,0.437035 -1.56715,0.794609 -2.32143,0.794609 -0.75429,0 -2.04575,0.674324 -2.86993,1.498499 -0.82417,0.824174 -2.70453,1.794121 -4.17857,2.155438 -1.47404,0.361317 -4.24703,1.711993 -6.16221,3.001502 -1.91517,1.289508 -4.03287,2.344561 -4.70599,2.344561 -2.02173,0 -10.90302,5.613463 -15.32584,9.686773 -11.03771,10.165465 -15.99915,15.478252 -18.62225,19.940998 -2.74659,4.672845 -2.86225,5.383761 -2.82631,17.372233 0.0422,14.089175 0.94553,17.208215 6.88868,23.786575 9.80747,10.85569 31.2915,17.63774 52.57385,16.59642 5.225,-0.25565 10.33579,-0.64191 11.35732,-0.85835 1.02152,-0.21645 2.86577,-0.0101 4.09832,0.45849 1.67915,0.63841 2.6406,0.38533 3.8348,-1.00938 0.87658,-1.02378 3.292102,-2.18002 5.367812,-2.56943 5.00179,-0.93834 12.51895,-4.30858 11.88782,-5.32977 -0.27565,-0.44602 -2.67913,-1.09986 -5.34105,-1.45297 -13.348012,-1.77068 -21.109422,-7.28573 -23.061222,-16.38668 -1.6549,-7.716515 -0.67502,-10.423135 6.48181,-17.904085 3.50591,-3.66469 6.37439,-7.015506 6.37439,-7.446261 0,-1.034985 6.254252,-6.874 7.369192,-6.879936 0.47805,-0.0025 3.40304,-1.535465 6.49999,-3.406489 3.09695,-1.871024 8.07007,-4.119564 11.05139,-4.996755 2.98131,-0.877192 6.4132,-2.245291 7.62642,-3.04022 1.77197,-1.161042 3.53807,-1.256661 8.97898,-0.486133 3.72522,0.527557 6.96118,0.771146 7.19101,0.54131 0.22984,-0.229836 1.99141,0.01659 3.9146,0.547606 3.45166,0.953047 5.88731,2.556 9.4228,6.201344 1.88798,1.946642 9.94561,17.837424 9.94561,19.614144 0,2.04543 2.07583,0.95131 3.0484,-1.60673 0.54939,-1.44501 2.56325,-5.879731 4.47525,-9.854931 1.91199,-3.9752 3.47635,-7.730302 3.47635,-8.344671 0,-1.599806 12.84357,-28.824632 17.30088,-36.673102 3.8978,-6.863276 5.13907,-8.5 6.44628,-8.5 0.69634,0 2.27559,-1.167964 3.50945,-2.595475 5.06707,-5.86232 17.72736,-10.08933 21.39361,-7.142887 5.02893,4.041586 8.9347,9.475255 13.82746,19.236623 3.03728,6.059554 5.52232,11.335726 5.52232,11.724826 0,0.389101 1.26301,2.699016 2.80669,5.133145 2.72874,4.302779 2.88844,4.391315 5.75039,3.187957 1.61903,-0.680753 3.56112,-1.981685 4.31575,-2.890961 0.75463,-0.909275 2.21696,-1.653228 3.24961,-1.653228 1.03266,0 1.87756,-0.45 1.87756,-1 0,-0.55 0.69545,-1 1.54545,-1 0.85,0 2.7625,-1.2375 4.25,-2.75 1.4875,-1.5125 4.95139,-3.875 7.69754,-5.25 4.10939,-2.057582 5.1072,-3.087825 5.63836,-5.82166 0.35495,-1.826913 1.52733,-4.143335 2.60529,-5.147605 3.70782,-3.454368 18.94571,-5.277336 27.76336,-3.32144 2.75,0.609994 5.9,1.090971 7,1.068837 5.98403,-0.120407 32.93356,2.440303 35.26615,3.350945 1.50362,0.587012 6.88642,1.000856 11.96177,0.919654 5.07536,-0.0812 10.83608,0.154051 12.80159,0.522783 3.45205,0.647608 3.5634,0.804936 3.27208,4.623021 -0.27221,3.56748 -0.74004,4.175922 -4.80159,6.244649 -9.11584,4.643107 -13.53883,6.566304 -15.09501,6.563594 -1.90855,-0.0033 -5.32035,3.516138 -4.57605,4.720449 0.28868,0.467089 2.47932,1.825354 4.8681,3.018366 2.38878,1.193012 5.65586,3.539204 7.26019,5.21376 1.60432,1.674556 3.5167,3.044647 4.24973,3.044647 0.73303,0 3.1149,1.125 5.29304,2.5 2.17814,1.375 4.40167,2.5 4.94117,2.5 0.53951,0 1.8937,0.979752 3.00931,2.177227 1.11562,1.197474 2.29297,1.91266 2.61632,1.589301 0.9066,-0.90659 12.11899,4.972268 12.78286,6.702278 0.39031,1.017151 1.91299,1.531194 4.53562,1.531194 2.17143,0 4.11394,0.497653 4.31669,1.105895 0.28634,0.859039 10.93711,5.894109 12.4679,5.894109 0.18157,0 0.33013,-3.77547 0.33013,-8.389925 0,-4.73922 0.91582,-12.680331 2.10471,-18.25 1.1576,-5.423043 2.44243,-11.435079 2.85519,-13.360079 0.41276,-1.925 1.44521,-5.075 2.29434,-7 0.84913,-1.925 2.36465,-5.483476 3.36782,-7.907724 1.00316,-2.424248 3.18609,-5.684666 4.85094,-7.245372 3.54455,-3.322822 8.44454,-3.87825 9.18641,-1.041307 0.2597,0.993078 1.79257,2.303989 3.40638,2.913136 1.61382,0.609146 2.93421,1.821628 2.93421,2.694403 0,0.872775 0.46114,1.586864 1.02475,1.586864 0.56361,0 1.46724,1.0125 2.00805,2.25 0.54082,1.2375 2.26711,4.5 3.83621,7.25 1.56911,2.75 2.63133,5.591197 2.36049,6.313771 -0.27083,0.722574 0.46674,1.985591 1.63904,2.806704 1.1723,0.821113 2.13146,2.389763 2.13146,3.485889 0,1.096126 0.69438,3.33574 1.54307,4.976922 1.07775,2.084141 1.7915,7.924309 2.3669,19.366954 0.71938,14.305584 1.10466,16.837374 3.03849,19.966374 1.84914,2.991975 2.78467,3.583395 5.66828,3.583395 5.83955,0 13.30387,-6.387055 18.01994,-15.419255 l 2.56854,-4.919242 -1.68404,-6.580756 c -0.92622,-3.619416 -2.1728,-7.592061 -2.77017,-8.828101 -1.22113,-2.526686 -1.24516,-19.134174 -0.043,-29.740974 0.72683,-6.413019 1.03446,-7.104363 3.73684,-8.397937 2.83202,-1.355625 3.05089,-1.282553 5.71428,1.907754 1.60789,1.925998 3.2336,5.553121 3.87608,8.647937 0.60861,2.931811 1.48739,5.330565 1.95282,5.330565 2.55517,0 3.47468,21.398389 1.10942,25.817915 -0.59709,1.11568 -1.56461,4.261956 -2.15005,6.991726 -0.92583,4.317034 -0.79706,5.531329 0.98912,9.326793 2.43814,5.18083 7.18527,9.22056 12.81847,10.90831 3.70563,1.11023 4.34055,1.02527 6.80096,-0.91009 1.49257,-1.17406 3.44058,-2.14762 4.32891,-2.16348 1.4474,-0.0258 4.47508,-2.54907 16.11514,-13.430204 1.925,-1.799489 4.4,-3.57387 5.5,-3.943067 1.1,-0.369197 4.25,-3.596589 7,-7.171982 2.75,-3.575392 6.8,-8.667557 9,-11.315921 3.68174,-4.432084 5.36882,-6.917673 9.514,-14.017012 3.72792,-6.38471 8.24982,-12.171714 9.25027,-11.83823 3.5235,1.1745 3.40545,5.065567 -0.79624,26.245242 -1.82955,9.222309 -1.37544,20.053041 1.11881,26.683934 3.82604,10.17142 8.50545,18.816355 10.19323,18.831375 3.34851,0.0298 4.3995,1.5106 3.70388,5.21857 -0.7055,3.76062 -3.69444,5.95188 -6.64767,4.87359 -2.61894,-0.95624 -9.19954,-10.0228 -12.05386,-16.607465 -5.40443,-12.46754 -6.19355,-17.334543 -4.89204,-30.172226 0.64655,-6.377355 0.94658,-11.824148 0.66675,-12.103985 -0.80823,-0.808222 -3.3455,1.690153 -5.72642,5.638625 -1.20641,2.00067 -3.57434,5.240635 -5.26209,7.199921 -1.68774,1.959287 -4.2665,5.109606 -5.73057,7.000709 -3.15839,4.079624 -18.6341,19.370536 -24.39503,24.103726 -4.38371,3.601675 -8.77832,5.929975 -14.7023,7.789415 -3.46012,1.08607 -4.17632,0.94095 -9,-1.82362 -5.77569,-3.31018 -8.95676,-6.006455 -11.29288,-9.571825 -1.61453,-2.46409 -5.44784,-2.51094 -5.44784,-0.0666 0,1.69354 -10.64151,10.417085 -14.91166,12.224075 -6.94988,2.94096 -14.08662,-1.04159 -19.20712,-10.718225 -2.11557,-3.99798 -2.40287,-5.95027 -2.57528,-17.500004 -0.22641,-15.16742 -1.02206,-22.824182 -2.80568,-27 -0.70477,-1.65 -2.03663,-4.99905 -2.95969,-7.442334 -2.52864,-6.69315 -10.61896,-17.057656 -13.31486,-17.057656 -1.73265,0 -7.22571,5.0467 -7.22571,6.638554 0,0.803421 -0.72101,2.855047 -1.60225,4.559169 -0.88123,1.704121 -2.2555,7.156707 -3.05393,12.116857 -0.79843,4.960151 -1.87742,9.813939 -2.39775,10.786196 -2.31591,4.327303 0.6808,28.511008 3.42234,27.618608 0.62237,-0.20259 1.51655,-2.58483 1.98705,-5.29387 1.10898,-6.385272 2.24517,-9.352476 4.7579,-12.425514 l 2.04419,-2.5 -0.55756,7.5 c -0.30666,4.125 -0.0257,12.348354 0.62437,18.274124 l 1.18194,10.774125 -2.69084,2.69084 -2.69085,2.69084 -4.09472,-3.96496 c -2.2521,-2.18074 -4.75086,-5.21534 -5.55279,-6.74358 l -1.45806,-2.778625 -2.49225,2.961875 c -3.10317,3.68791 -7.5311,5.19742 -15.07682,5.13981 -3.21748,-0.0246 -13.04997,0.11972 -21.84997,0.32063 -8.90429,0.20329 -17.77393,-0.0854 -20,-0.65106 -2.2,-0.559 -5.25171,-0.9401 -6.78157,-0.8469 -1.52986,0.0932 -3.74009,-0.34353 -4.91163,-0.97052 -1.17153,-0.62698 -5.31983,-1.31442 -9.21843,-1.52765 -3.8986,-0.21322 -8.21337,-0.82406 -9.58837,-1.35741 -1.375,-0.53335 -7.36282,-0.86162 -13.30628,-0.72949 l -10.80628,0.24024 -1.53349,3.16631 c -0.84342,1.74148 -2.23805,3.43668 -3.09918,3.76713 -3.39855,1.30415 -9.80135,-7.86751 -11.48784,-16.455725 -0.48602,-2.475 -1.2335,-13.275004 -1.66108,-24.000004 -0.83612,-20.97269 -1.65175,-24.348648 -6.51095,-26.949212 -2.91059,-1.557699 -8.80863,-0.703107 -10.67596,1.546884 -0.70511,0.849611 -2.51526,2.075203 -4.02254,2.723537 -5.33662,2.295468 -21.8964,17.282214 -21.8964,19.816436 0,1.043018 2.025,5.232252 4.5,9.309408 2.475,4.077156 4.5,7.664353 4.5,7.971548 0,0.600925 2.52494,3.815593 5.0693,6.454053 2.23588,2.31857 5.9307,12.694385 5.9307,16.654615 0,3.68918 -4.97412,10.22479 -6.88368,9.04462 -0.59124,-0.36541 -2.02251,-0.15728 -3.1806,0.46251 -1.26751,0.67835 -7.5517,1.12689 -15.7882,1.12689 -15.21605,0 -25.30898,-1.94057 -37.14752,-7.14237 -3.575,-1.57084 -9.425,-3.37788 -13,-4.01566 -3.575,-0.63777 -7.55039,-1.83461 -8.8342,-2.65964 -2.21441,-1.42308 -2.2467,-1.59674 -0.62908,-3.384195 0.93782,-1.03627 3.25319,-2.39504 5.14528,-3.01949 1.89209,-0.62444 5.76492,-2.66638 8.60628,-4.53764 2.84136,-1.87126 5.65468,-3.40229 6.25183,-3.40229 0.59714,0 2.37909,-1.35 3.95989,-3 1.5808,-1.650004 3.51808,-3.000004 4.30508,-3.000004 0.78699,0 2.91511,-1.2375 4.72916,-2.75 1.81406,-1.5125 5.27129,-3.964339 7.68276,-5.448531 7.3058,-4.496526 13.783,-10.728634 13.783,-13.261456 0,-4.817412 -1.24667,-8.371257 -3.10728,-8.857818 -1.041,-0.272226 -1.96022,-1.437085 -2.04272,-2.588575 -0.0825,-1.151491 -0.195,-2.65612 -0.25,-3.34362 -0.055,-0.6875 -0.8875,-2.0375 -1.85,-3 -0.9625,-0.9625 -1.75,-2.65 -1.75,-3.75 0,-1.1 -0.45,-2 -1,-2 -0.55,0 -1,-0.605007 -1,-1.344461 0,-0.739453 -1.16886,-2.651953 -2.59747,-4.25 -1.42861,-1.598046 -3.45332,-4.769783 -4.49936,-7.048304 -1.04604,-2.278521 -2.53816,-4.386928 -3.31584,-4.685348 -4.14171,-1.589325 -11.65634,1.44462 -17.38648,7.019588 -0.71454,0.695185 -2.11627,1.836496 -3.11497,2.536248 -2.0394,1.428939 -9.19989,15.147231 -11.10342,21.272277 -0.68371,2.2 -1.55697,4.45 -1.94059,5 -0.38361,0.55 -1.48492,3.25 -2.44734,6 -0.96242,2.75 -2.10188,5.9 -2.53212,7 -0.43023,1.1 -1.50082,4.475 -2.37907,7.5 -3.6033,12.411024 -5.04676,16.741104 -7.16718,21.500004 -1.22532,2.75 -3.05784,8.487495 -4.07226,12.749995 -1.35425,5.69042 -2.27189,7.75 -3.45302,7.75 -3.54872,0 -4.68747,-2.42012 -5.88166,-12.5 -0.65161,-5.499995 -1.82586,-11.574995 -2.60945,-13.499995 -0.78359,-1.925 -1.92478,-5.4713 -2.53597,-7.88067 -1.38112,-5.444479 -8.69467,-13.119334 -12.50173,-13.119334 -1.38947,0 -4.00192,-0.616549 -5.80544,-1.370109 -4.85136,-2.027027 -12.73179,-0.408761 -23.65663,4.857948 -5.44787,2.626341 -9.32548,4.802629 -10,5.612457 -0.275,0.330163 -1.5081,1.131139 -2.74021,1.779947 -3.31857,1.747491 -9.759812,10.915231 -11.626542,16.547901 -2.66328,8.036165 -2.23218,9.611375 3.67003,13.410015 4.871662,3.13537 6.154842,3.42581 13.696722,3.1001 4.12927,-0.17832 14.24601,0.87402 18.27835,1.90132 4.88202,1.24376 6.44069,2.60472 7.26111,6.34007 0.80165,3.64988 -0.7965,5.61785 -5.06904,6.24204 -3.50019,0.51136 -12.12087,3.14894 -14.97042,4.58034 -2.40006,1.20562 -22.970192,6.70591 -29.993872,8.02013 -7.45135,1.39425 -21.09177,1.86054 -29.00612,0.99156 z M 262.77917,106.4814 c 4.36774,-2.14183 1.7781,-10.262665 -7.88909,-24.739401 -2.11648,-3.169449 -4.44057,-7.192897 -5.16466,-8.940996 -1.61342,-3.895144 -2.99214,-3.981459 -6.84226,-0.428362 -1.63894,1.5125 -5.84903,4.73742 -9.35575,7.166488 -3.50673,2.429069 -8.46332,6.141566 -11.01465,8.249996 -2.55133,2.10844 -5.10617,3.83352 -5.67742,3.83352 -1.1121,0 -5.1838,4.75157 -5.1838,6.04936 0,1.5253 9.58493,6.117205 14.78521,7.083215 11.75936,2.18446 33.31955,3.20852 36.34242,1.72618 z m 140.87237,-8.548975 c 1.925,-0.3601 3.8375,-0.74586 4.25,-0.85725 0.4125,-0.11139 1.65,-0.25878 2.75,-0.32753 1.1,-0.0687 2,-0.62407 2,-1.23405 0,-1.47149 -4.19673,-5.85175 -5.62756,-5.87368 -0.62015,-0.01 -1.68775,-0.69227 -2.37244,-1.51727 -0.68469,-0.825 -2.08979,-1.5 -3.12244,-1.5 -1.03266,0 -1.87756,-0.45 -1.87756,-1 0,-0.55 -0.8449,-1 -1.87756,-1 -1.03265,0 -2.36016,-0.58151 -2.95002,-1.29225 -0.58986,-0.710733 -3.90746,-2.56504 -7.37244,-4.120682 -3.46499,-1.555641 -6.97498,-3.220116 -7.79998,-3.698834 -3.21635,-1.866333 -11.42328,-6.48531 -14.90411,-8.388238 -2.01211,-1.1 -4.94251,-3.0125 -6.51199,-4.25 -1.56949,-1.2375 -3.58043,-2.264221 -4.46876,-2.281601 -2.99066,-0.05851 -10.11514,-7.941936 -10.11514,-11.192669 0,-1.942025 2.95095,-3.421687 10.60243,-5.316262 3.79366,-0.939345 7.65158,-2.497242 8.57316,-3.461996 1.5828,-1.656966 1.44436,-1.793659 -2.5,-2.468571 -2.29658,-0.392961 -5.52559,-0.754161 -7.17559,-0.802666 -1.65,-0.04851 -3.23994,-0.437946 -3.53319,-0.865425 -0.29326,-0.427479 -2.54326,-0.982621 -5,-1.233648 -2.45675,-0.251028 -8.51681,-1.018872 -13.46681,-1.706321 -13.24552,-1.839518 -23.57743,-1.535432 -25.24343,0.742959 -1.15518,1.579797 -1.00011,2.047581 1.21318,3.659852 2.9422,2.143247 9.53025,11.703512 9.53025,13.829853 0,0.795572 0.41525,1.873995 0.92279,2.396495 1.79067,1.843484 3.31198,24.002127 2.06144,30.025964 -0.63325,3.05035 -0.92973,6.12369 -0.65883,6.82962 0.97751,2.54736 12.86175,4.6683 28.1746,5.02823 8.77395,0.20623 20.32656,1.48289 22.17657,2.45069 1.48321,0.77592 29.62194,0.30476 34.32343,-0.57472 z m -92.09099,-12.79379 c 0.67499,-3.016199 1.25546,-9.304052 1.28993,-13.973004 0.0609,-8.247435 -1.91234,-20.54299 -3.29681,-20.54299 -0.37692,0 -0.96767,-1.125 -1.31277,-2.5 -0.34511,-1.375 -1.33612,-2.5 -2.20225,-2.5 -1.29412,0 -1.47054,0.846562 -0.98985,4.75 0.32172,2.6125 0.84146,11.05 1.15498,18.75 0.53446,13.126047 1.87698,21.500004 3.44692,21.500004 0.37542,0 1.23485,-2.4678 1.90985,-5.48401 z M 509.74361,55.384887 c -0.005,-8.047656 -1.25558,-13.897798 -3.68113,-17.214928 -5.13036,-7.016193 -4.9403,17.596963 0.24288,31.452682 1.12913,3.018398 3.44267,-6.56193 3.43825,-14.237754 z m 580.40799,78.759723 c -4.1091,-1.84928 -23.6663,-6.28338 -31,-7.02849 -6.5145,-0.66188 -14.5,-2.58805 -14.5,-3.49751 0,-0.31207 -0.7875,-0.61225 -1.75,-0.66707 -0.9625,-0.0548 -6.475,-0.33451 -12.25,-0.62155 -5.775,-0.28703 -12.75,-1.04389 -15.5,-1.68191 -2.75,-0.63801 -6.2022,-1.19722 -7.6715,-1.24268 -4.7011,-0.14545 -0.5523,-2.78482 4.3501,-2.76745 2.5454,0.009 3.8041,0.34374 3.0626,0.81445 -0.6923,0.43952 1.4463,0.60346 4.7525,0.36431 4.0795,-0.29508 6.5238,-0.009 7.6062,0.88885 0.9416,0.78142 3.8081,1.27184 6.9975,1.19717 2.9714,-0.0696 5.4026,0.28895 5.4026,0.79671 0,0.50776 1.125,0.9232 2.5,0.9232 2.6152,0 3.4011,-1.46975 1.25,-2.33772 -0.6875,-0.27741 -0.088,-0.53991 1.3333,-0.58333 1.4209,-0.0434 2.9119,0.24961 3.3135,0.65119 0.4016,0.40157 3.5141,0.79313 6.9167,0.87012 3.4026,0.077 9.2731,0.92329 13.0456,1.88068 5.6642,1.43746 7.3191,1.52396 9.5,0.49653 3.9995,-1.8842 8.1632,-1.9923 13.1164,-0.34055 5.8724,1.9583 7.1956,3.16881 6.8689,6.28386 -0.1489,1.41923 0.1079,3.19296 0.5706,3.94162 0.5263,0.8516 0.3253,1.688 -0.5369,2.23409 -1.8661,1.18195 -3.8119,1.03043 -7.3781,-0.57452 z m -99.50002,-16.50603 c -2.475,-0.41186 -8.5204,-1.05857 -13.4341,-1.43715 -4.9138,-0.37858 -9.1888,-0.83929 -9.5,-1.0238 -0.3113,-0.1845 -4.6159,-0.63595 -9.5659,-1.00321 -4.95,-0.36726 -17.325,-1.52441 -27.5,-2.57144 -10.175,-1.04703 -23.9,-1.97567 -30.5,-2.06362 -6.6,-0.088 -15.6,-0.58694 -20,-1.10885 -4.4,-0.5219 -13.4,-1.13237 -20,-1.35658 -6.6,-0.22422 -14.025,-0.74752 -16.5,-1.16289 -2.475,-0.41536 -7.65,-0.80318 -11.5,-0.86182 -3.85,-0.0586 -13.525,-0.39102 -21.5,-0.73863 -7.975,-0.3476 -20.9009,-0.84702 -28.7243,-1.10983 -7.8233,-0.2628 -15.6983,-0.71153 -17.5,-0.99716 -1.8016,-0.28564 -13.4007,-0.98581 -25.7757,-1.55594 -23.2197,-1.069755 -43.881,-3.691075 -50,-6.343545 -1.925,-0.83445 -5.4674,-3.65045 -7.8719,-6.25778 l -4.3719,-4.7406 0.6743,-6.581116 c 0.4229,-4.12728 1.214,-6.883178 2.1219,-7.391237 0.7961,-0.445567 1.4476,-1.233867 1.4476,-1.751778 0,-0.517911 1.5625,-2.988698 3.4723,-5.490637 5.33,-6.982746 7.186,-17.468326 3.0919,-17.468326 -0.7686,0 -1.5476,-0.42446 -1.7309,-0.943244 -0.4997,-1.414023 -16.5933,-3.154891 -22.3255,-2.414986 -4.986,0.643577 -4.9999,0.637485 -3.1933,-1.397688 1.9301,-2.174402 8.6552,-2.90095 9.798,-1.058532 0.3647,0.588044 2.7706,-0.10613 5.9477,-1.716076 3.9036,-1.97811 5.7606,-2.437953 6.9203,-1.713681 0.8718,0.544443 3.0632,1.314549 4.8699,1.711348 1.8066,0.396798 3.5274,1.354018 3.8241,2.127155 0.2967,0.773137 1.3555,1.405704 2.3529,1.405704 1.4873,0 1.9321,1.123732 2.4736,6.25 0.8152,7.717893 0.1014,9.645804 -6.9512,18.77374 -3.0636,3.96514 -5.8402,8.284859 -6.1701,9.599375 -0.7278,2.899857 0.3697,9.376889 1.5889,9.376889 0.4828,0 2.2008,1.11315 3.8177,2.47368 1.6558,1.39325 4.4191,2.56088 6.3267,2.67333 1.8629,0.10981 4.2847,0.64646 5.3819,1.19257 2.325,1.15724 12.541,2.05819 20.6921,1.82485 3.1279,-0.0895 6.9529,0.32716 8.5,0.926 1.5471,0.59884 4.9417,1.2111 7.5435,1.36057 2.6018,0.14947 5.4143,0.83924 6.25,1.53283 1.1578,0.96092 1.8518,0.98526 2.9157,0.10226 1.3966,-1.15905 28.5521,-0.76377 40.1038,0.58376 2.75,0.32079 10.2875,0.59593 16.75,0.61141 6.4625,0.0155 11.75,0.36752 11.75,0.78231 0,0.82205 4.5406,1.00061 21.75,0.8553 7.9473,-0.0671 11.25,0.24688 11.25,1.069545 0,0.71637 1.4431,1.08365 3.75,0.95436 2.0625,-0.11559 4.425,0.0448 5.25,0.35639 2.0499,0.77428 23.7634,1.90255 33.1524,1.72266 4.4823,-0.0859 7.9244,0.29348 8.309,0.91577 0.3611,0.58432 3.105,1.0624 6.0976,1.0624 2.9925,0 5.441,0.45 5.441,1 0,0.55 0.7875,0.99311 1.75,0.98469 1.5094,-0.0132 1.5437,-0.16049 0.25,-1.0713 -1.0883,-0.76613 -0.1276,-0.86343 3.5,-0.35448 2.75,0.38583 7.3677,0.61958 10.2616,0.51944 2.8938,-0.10013 5.7317,0.10848 6.3062,0.4636 0.5746,0.35511 4.9569,0.73854 9.7385,0.85207 4.7815,0.11353 9.6766,0.74632 10.8779,1.4062 1.2014,0.65988 3.3123,1.19978 4.691,1.19978 1.3787,0 2.7848,0.45 3.1248,1 0.854,1.3819 4.5,1.26181 4.5,-0.14822 0,-0.83208 2.2714,-0.94181 8.25,-0.39853 4.5375,0.41233 9.0375,0.80045 10,0.8625 0.9625,0.062 1.75,0.52391 1.75,1.02634 0,0.50244 1.7439,0.63466 3.8754,0.29382 3.013,-0.4818 4.4451,-0.17164 6.4352,1.39379 1.40792,1.10743 2.92642,1.95049 3.37462,1.87348 2.3231,-0.39922 5.3148,0.21818 5.3148,1.09682 0,1.12914 -6.2642,1.13682 -13.00002,0.0159 z M 628.40154,94.873385 c -3.92108,-0.8904 -0.75979,-6.09696 6.38538,-10.51655 3.08209,-1.906408 3.86462,-1.424174 3.86462,2.38158 0,1.9795 -0.93787,3.47599 -3.25,5.18581 -4.2455,3.13953 -4.91658,3.42226 -7,2.94916 z"
     id="path2987"
     inkscape:connector-curvature="0" />
</svg>
