<?xml version="1.0" standalone="no"?>
<!DOCTYPE svg PUBLIC "-//W3C//DTD SVG 20010904//EN"
 "http://www.w3.org/TR/2001/REC-SVG-20010904/DTD/svg10.dtd">
<svg version="1.0" xmlns="http://www.w3.org/2000/svg"
 width="468pt" height="82pt" viewBox="0 0 468 82"
 preserveAspectRatio="xMidYMid meet">
<metadata>
Created by POTRACE VERSION, written by Peter Selinger 2001-2007
</metadata>
<g transform="translate(0,82) scale(0.018217,-0.018217)"
fill="#000000" stroke="none">
<path d="M1996 4119 c-32 -11 -75 -31 -94 -44 -20 -14 -69 -55 -110 -92 -42
-38 -105 -98 -141 -134 -36 -36 -79 -83 -96 -105 -16 -21 -42 -58 -57 -81 -15
-23 -39 -68 -53 -100 -15 -32 -38 -80 -53 -108 -14 -27 -42 -77 -63 -110 -20
-33 -40 -71 -44 -85 -4 -14 -14 -32 -21 -41 -8 -8 -36 -58 -63 -110 -26 -52
-67 -130 -90 -174 -23 -43 -48 -86 -56 -95 -7 -8 -25 -40 -39 -70 -15 -30 -39
-79 -55 -108 -15 -29 -39 -65 -53 -80 -14 -15 -55 -92 -93 -172 -37 -80 -72
-150 -77 -157 -5 -7 -19 -29 -29 -50 -11 -21 -31 -66 -44 -99 -13 -34 -37 -90
-54 -125 -17 -35 -38 -73 -46 -83 -8 -11 -15 -30 -15 -41 0 -12 -9 -30 -20
-40 -11 -10 -20 -29 -20 -43 0 -13 -8 -36 -19 -50 -10 -15 -30 -63 -45 -107
-14 -44 -26 -91 -26 -105 -1 -14 -7 -36 -15 -50 -8 -14 -14 -33 -15 -42 0 -10
-13 -46 -29 -80 -19 -42 -32 -88 -36 -138 -4 -41 -14 -84 -22 -97 -11 -16 -14
-57 -15 -160 0 -88 6 -177 17 -246 14 -84 25 -118 46 -150 16 -23 29 -48 29
-54 0 -7 29 -41 64 -75 36 -35 78 -73 95 -86 29 -22 37 -23 163 -19 77 2 153
10 181 19 27 8 52 19 55 25 4 5 17 15 29 22 12 6 38 11 58 11 19 0 51 7 70 14
19 8 50 26 67 40 18 13 51 31 72 40 22 9 68 23 104 31 38 9 79 27 101 44 20
15 46 31 58 35 11 4 28 18 37 31 9 14 45 54 79 89 42 43 68 80 80 114 10 27
39 74 64 103 25 30 61 85 80 124 18 38 33 78 33 89 0 11 11 36 25 56 14 20 37
69 51 110 14 41 34 113 44 159 16 74 23 88 54 115 24 22 49 62 81 134 25 56
45 117 45 135 0 18 9 51 20 72 12 22 26 60 32 85 6 25 22 65 35 89 13 24 23
53 23 63 0 11 16 50 37 86 20 37 48 79 61 95 14 15 29 27 34 27 4 0 8 -14 8
-31 0 -17 -7 -54 -16 -83 -9 -28 -24 -67 -34 -86 -10 -19 -21 -64 -25 -99 -4
-35 -16 -94 -26 -130 -11 -36 -19 -77 -19 -90 0 -14 -7 -33 -16 -43 -12 -12
-18 -43 -22 -95 -3 -50 -11 -89 -22 -108 -10 -16 -23 -52 -29 -80 -5 -27 -17
-75 -26 -105 -13 -41 -18 -109 -21 -270 -3 -155 0 -239 10 -300 8 -47 19 -105
26 -130 6 -25 25 -75 41 -111 28 -60 36 -69 82 -92 29 -13 73 -28 100 -31 27
-4 72 -2 104 4 32 7 93 28 138 48 44 19 86 43 92 52 7 10 32 29 55 43 24 14
64 48 90 76 25 28 50 51 55 51 4 0 43 33 86 74 49 47 77 82 77 95 0 12 19 42
43 66 23 24 60 64 82 88 27 29 54 78 84 150 26 64 52 112 63 118 11 6 25 8 32
6 9 -4 15 -32 18 -79 4 -44 14 -92 28 -122 12 -26 37 -74 56 -106 19 -33 53
-71 80 -91 25 -19 63 -50 85 -70 22 -20 59 -42 84 -49 30 -9 74 -11 128 -7 68
5 95 13 157 44 42 21 89 48 105 59 17 12 71 43 120 69 50 26 102 58 117 70 16
14 47 26 75 29 26 3 136 5 244 3 185 -4 199 -5 230 -27 19 -12 48 -37 64 -55
19 -20 59 -43 110 -62 56 -21 91 -29 117 -26 27 4 41 0 57 -16 12 -12 21 -28
21 -36 0 -8 -13 -28 -30 -45 -16 -17 -30 -34 -30 -39 0 -5 -24 -38 -54 -75
-30 -36 -57 -79 -61 -95 -3 -16 -15 -37 -26 -47 -10 -9 -19 -28 -19 -40 0 -13
-6 -41 -14 -61 -8 -21 -17 -56 -20 -78 -4 -32 1 -54 23 -102 l29 -62 46 2 c40
2 46 5 46 23 0 12 12 38 26 59 14 21 34 62 45 91 11 30 35 78 52 107 18 28 42
67 55 84 13 18 30 56 38 85 13 41 30 66 84 120 46 46 76 68 92 68 13 0 34 -7
46 -16 12 -8 27 -12 33 -8 6 3 21 2 32 -3 12 -6 39 -18 60 -27 21 -9 46 -16
55 -16 10 0 22 -4 28 -9 5 -5 28 -11 52 -14 38 -5 42 -3 42 16 0 12 9 50 21
83 15 43 20 72 15 97 -4 19 -18 46 -32 61 -21 20 -33 24 -53 19 -14 -3 -35
-12 -46 -19 -16 -10 -34 -10 -91 0 -39 6 -83 19 -97 29 -23 15 -25 20 -15 41
6 14 24 30 40 37 20 8 37 27 49 53 10 23 28 52 39 66 13 16 28 63 40 125 11
55 25 123 31 150 6 28 27 81 47 118 33 65 34 70 22 108 -7 22 -18 43 -24 48
-6 4 -41 19 -79 32 l-67 24 -25 -30 c-14 -17 -32 -39 -40 -50 -8 -12 -17 -59
-21 -110 -4 -50 -15 -114 -26 -144 -10 -30 -18 -66 -18 -80 0 -15 -9 -34 -20
-44 -13 -11 -20 -29 -20 -51 0 -26 -13 -51 -56 -106 -30 -40 -60 -84 -67 -99
-6 -14 -20 -36 -31 -48 -16 -19 -30 -23 -80 -23 -34 1 -72 7 -86 15 -14 8 -40
14 -58 15 -27 0 -36 6 -50 32 -9 18 -31 47 -48 63 -23 23 -56 38 -131 59 -94
27 -107 28 -217 21 -64 -4 -119 -11 -122 -16 -3 -5 -19 -9 -35 -9 -17 0 -32 6
-36 15 -3 9 4 42 16 74 11 32 21 75 21 95 0 20 13 67 28 104 28 66 28 69 24
230 l-4 162 -36 31 c-33 29 -38 31 -91 24 -31 -4 -66 -13 -78 -20 -11 -8 -29
-38 -39 -67 -9 -29 -28 -73 -40 -99 -13 -25 -31 -52 -39 -59 -9 -8 -40 -64
-70 -125 -30 -62 -61 -140 -70 -175 -15 -58 -15 -70 0 -160 9 -54 15 -113 13
-131 -2 -22 -11 -37 -29 -48 -14 -9 -46 -29 -70 -45 -24 -16 -62 -34 -84 -39
-22 -6 -45 -14 -52 -19 -7 -6 -39 -12 -72 -15 -59 -6 -62 -5 -101 31 -22 20
-44 36 -50 36 -5 0 -19 18 -30 40 -11 21 -20 45 -20 53 0 7 -11 23 -24 34 -15
13 -27 38 -31 63 -4 24 -16 61 -26 84 -10 23 -18 63 -18 91 0 28 6 84 13 125
8 41 21 107 31 145 9 39 24 86 32 105 9 19 20 42 25 50 4 8 24 46 43 85 19 38
35 78 35 88 0 10 11 39 24 65 14 27 31 54 40 61 8 7 18 33 22 58 4 30 16 55
35 74 15 16 30 43 33 61 3 18 7 51 10 73 3 22 19 59 36 83 16 23 30 45 30 49
0 3 15 29 34 57 18 28 38 67 44 86 6 19 13 55 17 80 3 25 9 58 12 74 3 16 16
39 28 50 13 12 35 57 50 101 14 44 44 106 66 138 21 33 39 66 39 74 0 8 11 28
25 45 14 16 25 36 25 45 0 8 8 27 19 41 10 15 22 38 26 52 4 14 19 45 33 70
15 25 34 61 44 80 10 19 27 64 38 99 11 35 20 81 20 103 0 21 -5 48 -10 59 -6
10 -24 26 -40 34 -16 8 -38 15 -50 15 -11 0 -38 -9 -60 -20 -21 -11 -42 -30
-45 -42 -4 -13 -23 -54 -41 -92 -19 -39 -34 -77 -34 -87 0 -9 -6 -32 -14 -51
-8 -19 -22 -40 -30 -48 -9 -7 -16 -21 -16 -30 0 -10 -11 -32 -25 -48 -14 -17
-25 -41 -25 -54 0 -13 -11 -39 -25 -58 -14 -19 -25 -44 -25 -56 0 -11 -16 -42
-35 -67 -19 -25 -42 -65 -51 -89 -8 -23 -22 -59 -29 -77 -7 -19 -23 -45 -35
-58 -12 -12 -31 -46 -42 -75 -11 -29 -26 -60 -33 -68 -7 -8 -18 -33 -24 -55
-6 -22 -17 -49 -25 -61 -8 -11 -23 -47 -34 -80 -11 -32 -23 -75 -27 -94 -4
-19 -15 -49 -24 -65 -10 -17 -21 -43 -25 -59 -4 -16 -18 -45 -32 -65 -13 -20
-34 -67 -46 -106 -11 -38 -26 -76 -32 -84 -6 -7 -16 -27 -22 -45 -6 -17 -21
-56 -32 -86 -10 -30 -34 -80 -52 -110 -20 -33 -36 -77 -41 -108 -4 -30 -15
-62 -23 -71 -9 -10 -27 -45 -40 -78 -13 -33 -35 -78 -50 -99 -14 -21 -26 -45
-26 -52 0 -7 -10 -32 -21 -55 -12 -23 -32 -55 -45 -70 -13 -16 -24 -33 -24
-39 0 -5 -13 -27 -29 -47 -15 -20 -35 -50 -44 -67 -8 -16 -27 -35 -41 -42 -18
-8 -26 -19 -26 -36 0 -19 -14 -36 -55 -67 -30 -23 -55 -45 -55 -50 0 -5 -13
-15 -29 -23 -16 -9 -31 -23 -33 -33 -3 -10 -36 -34 -73 -53 -38 -19 -98 -63
-134 -97 -36 -35 -74 -63 -83 -63 -10 0 -18 -4 -18 -10 0 -5 -11 -10 -24 -10
-17 0 -29 -9 -38 -27 -10 -21 -22 -29 -46 -31 -26 -3 -39 3 -60 25 -15 15 -28
38 -29 51 -1 13 -12 40 -24 60 -13 20 -26 62 -31 92 -4 30 -11 92 -14 138 -5
62 -1 119 15 230 16 104 31 166 52 213 21 47 29 81 29 121 0 31 7 75 15 98 8
23 15 52 15 63 0 11 6 28 14 36 8 9 19 43 24 76 5 33 31 143 56 245 25 102 57
220 71 263 14 44 30 115 36 160 6 44 12 84 15 89 3 5 10 54 15 111 6 56 12
134 14 172 2 39 7 81 10 94 3 13 -1 33 -10 47 -11 18 -25 24 -51 24 -26 0 -43
-8 -64 -28 -17 -17 -32 -45 -36 -68 -3 -21 -13 -51 -21 -66 -7 -16 -18 -28
-23 -28 -5 0 -14 9 -20 21 -6 11 -15 64 -19 117 -5 53 -14 110 -20 125 -6 16
-11 52 -11 80 0 29 5 72 11 96 7 33 5 73 -11 175 -11 72 -36 182 -55 245 -18
62 -35 114 -37 115 -2 2 -19 12 -38 24 -27 16 -43 39 -70 97 -31 69 -39 78
-84 100 -28 14 -59 25 -70 25 -12 -1 -48 -10 -80 -21z m146 -139 c14 -10 42
-53 62 -95 20 -42 46 -85 56 -95 10 -10 24 -44 30 -77 7 -32 19 -74 27 -93 11
-26 16 -89 19 -250 2 -118 8 -236 14 -262 7 -32 5 -94 -5 -205 -8 -87 -23
-192 -34 -233 -10 -41 -30 -106 -44 -145 -13 -38 -35 -91 -48 -116 -13 -26
-44 -75 -69 -109 -25 -35 -54 -78 -65 -96 -11 -18 -42 -65 -69 -106 -27 -40
-60 -97 -74 -126 -16 -36 -22 -61 -17 -80 3 -14 22 -43 41 -65 31 -33 34 -42
28 -75 -3 -20 -19 -55 -34 -77 -15 -22 -33 -61 -40 -85 -6 -25 -17 -54 -24
-65 -7 -11 -19 -38 -25 -60 -7 -22 -30 -74 -51 -115 -21 -41 -49 -97 -64 -124
-14 -27 -26 -59 -26 -72 0 -13 -4 -26 -10 -29 -5 -3 -26 -37 -46 -76 -20 -38
-70 -107 -111 -152 -41 -45 -98 -98 -127 -117 -30 -19 -73 -49 -97 -65 -24
-17 -81 -45 -126 -63 -45 -17 -89 -32 -98 -32 -8 0 -42 -14 -75 -30 -37 -19
-89 -34 -137 -41 -43 -7 -100 -20 -126 -30 -26 -11 -64 -19 -83 -19 -19 0 -54
10 -77 21 -23 12 -62 40 -87 62 -25 23 -49 48 -54 56 -6 9 -16 45 -23 81 -7
36 -18 90 -24 120 -6 30 -9 96 -7 145 3 61 9 98 20 115 9 14 23 54 31 90 8 36
24 108 36 160 12 52 26 99 30 105 5 5 12 26 16 45 4 19 14 44 21 55 8 10 17
41 20 68 4 28 19 66 35 90 16 23 29 49 29 58 0 9 8 27 18 40 11 13 38 60 60
103 23 44 42 83 42 89 0 5 26 61 58 125 33 65 71 135 85 156 15 21 27 46 27
55 0 9 5 32 10 52 6 19 34 62 64 95 30 33 61 77 70 98 9 21 29 54 46 72 16 19
30 40 30 47 0 7 11 29 24 48 14 20 28 48 32 63 3 14 30 62 59 105 29 43 73
118 97 167 25 49 64 128 87 176 24 48 65 120 92 160 27 40 49 79 49 86 0 7 12
36 27 65 15 28 44 78 65 109 21 32 47 62 57 67 10 6 29 26 42 46 13 19 51 54
83 77 33 23 81 61 108 85 39 35 56 43 87 43 23 0 48 -8 63 -20z m2294 -2398
c6 -4 13 -15 17 -24 3 -10 0 -48 -7 -85 -7 -37 -20 -82 -29 -100 -9 -17 -27
-39 -39 -47 -16 -11 -25 -13 -35 -4 -7 6 -13 19 -13 29 0 10 11 39 25 65 17
31 25 63 25 95 0 30 6 53 16 63 8 9 18 16 22 16 4 0 12 -4 18 -8z"/>
<path d="M15290 4061 c-30 -4 -64 -11 -75 -15 -11 -3 -32 -23 -46 -44 -22 -31
-27 -51 -32 -132 -4 -71 -1 -104 9 -130 8 -19 26 -49 40 -67 15 -20 34 -33 48
-33 13 0 36 5 53 10 21 8 36 25 56 66 15 30 27 65 27 79 0 13 7 31 16 39 8 9
18 16 20 16 3 0 32 -14 65 -31 36 -19 76 -51 102 -81 23 -28 71 -79 107 -115
36 -35 71 -69 78 -76 8 -6 37 -47 65 -91 29 -43 60 -92 69 -110 10 -17 18 -42
18 -56 0 -14 12 -50 26 -80 14 -30 38 -75 54 -100 16 -25 32 -58 36 -75 4 -16
15 -47 25 -67 10 -20 21 -56 23 -80 3 -24 12 -83 21 -132 8 -49 18 -93 21 -98
3 -4 2 -17 -1 -29 -6 -18 -12 -20 -48 -13 -23 3 -58 15 -77 25 -19 11 -40 19
-46 19 -7 0 -31 9 -55 20 -29 13 -66 20 -109 20 -36 0 -80 4 -98 9 -21 7 -54
6 -92 -1 -53 -9 -64 -8 -98 10 -22 11 -73 30 -115 41 -42 12 -127 28 -189 36
-62 8 -144 19 -181 25 -38 6 -81 16 -96 24 -22 12 -52 13 -162 6 -74 -5 -165
-14 -204 -20 -38 -7 -84 -14 -101 -16 -19 -3 -55 -26 -95 -59 -45 -39 -74 -74
-96 -118 -20 -39 -38 -97 -49 -157 -11 -62 -15 -121 -11 -175 2 -48 12 -98 23
-120 12 -27 18 -63 18 -125 1 -79 3 -90 31 -129 17 -24 39 -59 50 -79 11 -19
26 -37 33 -40 7 -2 12 -19 12 -37 0 -27 11 -47 56 -97 30 -34 69 -80 84 -103
16 -22 43 -63 59 -90 23 -38 43 -57 78 -74 27 -12 68 -35 93 -51 25 -16 72
-33 104 -39 33 -6 96 -11 140 -11 45 0 110 5 146 11 36 5 108 14 160 18 82 7
104 13 163 44 38 21 77 37 87 37 9 0 23 7 30 15 7 8 23 15 35 15 12 0 34 9 48
20 14 11 32 20 41 20 8 0 27 11 42 25 15 14 31 25 36 25 6 0 23 10 39 23 16
12 45 36 63 52 18 17 47 41 66 55 18 14 43 36 56 50 13 14 24 30 24 37 0 7 14
32 31 55 16 24 39 57 50 75 11 17 26 33 33 36 7 3 25 27 40 53 20 36 29 71 37
148 7 71 18 117 35 153 14 29 31 56 37 60 7 4 66 8 132 8 81 0 145 6 195 19
41 10 112 29 156 42 45 13 108 38 140 54 33 17 66 34 74 40 8 5 30 16 49 24
19 9 54 16 78 16 24 0 65 5 91 12 26 6 67 25 92 42 25 17 67 39 95 49 27 10
57 19 65 20 10 1 14 -5 12 -18 -2 -11 -13 -30 -24 -42 -13 -14 -18 -28 -13
-42 4 -14 -7 -40 -35 -86 -27 -41 -44 -81 -46 -108 -3 -23 -11 -67 -19 -97 -7
-30 -21 -90 -31 -133 -17 -75 -17 -82 0 -170 10 -51 27 -104 37 -119 10 -15
19 -32 19 -37 0 -6 19 -21 43 -33 37 -20 57 -22 167 -23 109 0 131 3 174 23
27 12 83 26 125 31 57 6 92 17 141 44 36 19 79 38 95 41 17 4 53 23 80 44 28
20 76 47 107 60 32 13 61 21 66 18 5 -3 11 -39 14 -80 4 -56 10 -81 27 -102
12 -15 38 -39 59 -53 36 -25 40 -26 187 -23 130 2 160 5 230 29 44 14 112 37
150 51 39 13 93 33 120 43 28 11 64 33 79 50 16 17 40 35 53 40 14 5 37 9 53
9 16 0 53 10 82 23 29 13 93 36 143 52 49 15 107 41 129 57 26 19 51 28 76 28
21 0 59 -3 85 -7 46 -6 48 -7 76 -67 16 -34 29 -72 29 -86 0 -14 -5 -41 -10
-60 -6 -19 -15 -55 -20 -80 -6 -32 -5 -52 5 -70 7 -14 21 -33 31 -42 11 -9 30
-18 44 -19 14 -1 35 -1 46 -1 12 1 38 19 58 39 20 21 36 47 36 58 1 11 6 31
13 46 7 14 44 55 84 92 72 67 72 67 131 67 36 0 66 6 78 15 10 8 35 15 55 15
22 0 42 -7 52 -18 9 -9 20 -36 25 -60 6 -23 17 -54 27 -68 9 -14 22 -61 30
-104 8 -44 19 -88 25 -99 5 -11 20 -27 32 -35 12 -9 33 -16 47 -16 13 0 40 10
60 22 19 12 49 38 66 57 16 19 42 57 58 84 15 28 27 57 27 66 0 9 7 27 16 39
8 12 19 22 24 22 5 0 15 -7 22 -15 7 -8 29 -33 48 -56 19 -22 53 -61 75 -86
34 -37 50 -47 100 -59 33 -7 87 -14 120 -14 33 0 106 11 163 24 67 16 119 35
150 55 26 17 66 51 89 76 24 27 49 45 62 45 12 0 34 -12 49 -28 15 -15 38 -37
52 -49 17 -15 48 -26 94 -32 49 -7 103 -6 190 4 76 8 139 21 166 34 25 11 106
39 180 62 74 24 178 60 230 82 52 21 108 42 123 47 16 5 34 7 42 4 7 -3 19 3
26 14 8 10 34 32 58 48 24 16 54 36 67 44 23 14 26 13 59 -25 19 -22 37 -56
40 -75 4 -19 10 -46 14 -60 4 -14 18 -30 30 -36 12 -6 32 -21 45 -33 19 -18
31 -21 60 -16 20 4 62 24 93 44 43 28 64 51 92 100 20 35 47 73 62 83 21 16
30 17 55 8 16 -6 42 -23 57 -38 21 -20 42 -28 95 -34 37 -5 95 -12 129 -16 35
-4 68 -13 74 -19 9 -9 20 -9 46 2 18 8 68 17 111 20 42 4 98 13 123 21 30 10
54 12 69 6 15 -6 42 -4 74 5 28 8 67 23 87 34 20 10 45 19 56 19 11 0 32 -14
49 -31 16 -17 40 -36 54 -43 14 -7 42 -16 63 -19 35 -5 43 -2 75 29 19 19 55
47 79 63 24 16 59 32 79 36 20 3 41 2 45 -2 5 -5 3 -37 -5 -74 -8 -35 -20 -91
-26 -124 -6 -33 -15 -82 -20 -110 -6 -27 -14 -169 -20 -315 -5 -146 -10 -317
-11 -380 -2 -102 -5 -123 -30 -184 -16 -38 -42 -83 -58 -101 -15 -18 -31 -49
-35 -69 -4 -20 -18 -53 -31 -74 -13 -20 -37 -54 -52 -75 -15 -22 -37 -52 -48
-67 -11 -16 -49 -76 -85 -135 -36 -58 -84 -136 -107 -172 -24 -37 -45 -74 -48
-83 -3 -10 -2 -27 3 -40 5 -14 26 -29 56 -41 36 -13 59 -16 97 -10 27 5 51 10
52 12 1 2 17 25 35 51 19 28 32 59 32 77 0 20 6 34 16 38 9 3 36 47 60 96 24
50 44 100 44 111 0 12 12 44 28 72 15 28 39 66 54 84 l27 34 6 -27 c4 -15 4
-62 0 -104 -4 -43 -12 -89 -18 -103 -5 -14 -14 -54 -18 -90 -5 -36 -13 -85
-18 -110 -5 -25 -12 -60 -16 -79 -6 -23 -5 -32 2 -28 6 4 16 0 23 -8 9 -11 33
-15 82 -15 38 0 78 5 88 10 11 6 24 19 30 30 8 15 7 32 -1 63 -9 28 -12 106
-10 237 1 111 -3 225 -9 265 -6 39 -14 93 -17 122 -5 48 -1 60 52 170 32 65
61 120 65 123 4 3 15 20 25 38 11 17 23 32 27 32 4 0 15 26 24 57 11 39 28 68
51 90 18 18 41 49 49 69 8 20 33 59 55 87 22 28 49 68 60 90 18 35 20 52 15
170 -3 72 -10 135 -15 140 -7 7 -15 6 -24 -2 -8 -6 -17 -33 -20 -59 -4 -26
-11 -71 -16 -100 -6 -32 -28 -84 -56 -130 -26 -42 -52 -94 -58 -116 -7 -22
-21 -43 -34 -48 -12 -6 -24 -22 -28 -36 -3 -13 -17 -41 -31 -61 -13 -19 -24
-41 -24 -47 0 -6 -9 -19 -19 -28 -11 -10 -24 -30 -31 -46 -6 -15 -19 -30 -28
-32 -9 -3 -23 -3 -29 -1 -9 3 -13 26 -13 65 0 33 6 86 14 117 8 31 16 131 19
227 3 128 8 177 20 195 8 13 17 56 20 96 3 39 12 84 20 100 8 15 20 58 27 95
7 37 18 73 26 79 8 6 14 24 14 40 0 15 19 81 41 146 23 65 49 134 59 153 10
19 23 50 29 69 6 19 11 52 11 74 0 36 -6 47 -50 89 -27 26 -59 48 -70 48 -11
0 -53 -18 -93 -41 -40 -22 -89 -57 -110 -77 -21 -20 -73 -80 -116 -133 -43
-52 -86 -107 -95 -121 -11 -16 -26 -25 -42 -25 -14 -1 -43 -8 -64 -18 -21 -9
-40 -25 -43 -35 -3 -12 -19 -19 -52 -23 -26 -4 -66 -7 -89 -7 -23 0 -58 -9
-79 -20 -28 -15 -54 -20 -100 -19 -42 1 -83 -5 -127 -21 -61 -20 -75 -22 -219
-15 -84 3 -163 10 -175 15 -12 4 -28 16 -36 25 -8 10 -32 28 -52 41 -21 13
-46 24 -56 24 -11 0 -31 9 -46 21 -20 15 -34 19 -59 14 -17 -3 -43 -11 -57
-16 -14 -5 -45 -37 -69 -71 -23 -33 -47 -73 -53 -89 -5 -15 -16 -30 -24 -33
-8 -3 -25 7 -39 22 -14 15 -30 43 -35 62 -5 19 -10 42 -10 51 0 9 -21 33 -47
53 -27 21 -57 36 -73 36 -15 0 -62 -16 -103 -35 -56 -25 -80 -42 -91 -64 -13
-25 -24 -31 -63 -36 -27 -3 -62 -8 -79 -11 -18 -2 -48 -18 -68 -34 -21 -16
-51 -32 -69 -36 -18 -3 -43 -14 -57 -24 -14 -9 -41 -24 -60 -33 -19 -8 -52
-18 -72 -22 -21 -3 -61 -16 -90 -29 -29 -14 -78 -27 -108 -31 -30 -4 -68 -14
-84 -22 -20 -11 -51 -14 -103 -11 -44 2 -77 8 -82 16 -4 7 -3 46 2 88 5 42 6
87 3 99 -3 12 -15 34 -27 48 -18 23 -28 27 -74 27 -37 0 -65 -7 -90 -21 -22
-13 -45 -40 -60 -69 -13 -26 -57 -80 -97 -119 -39 -39 -77 -71 -83 -71 -6 0
-28 -9 -49 -21 -22 -11 -71 -32 -110 -45 -39 -13 -88 -24 -109 -24 -34 0 -45
7 -88 53 -27 28 -58 70 -70 92 -11 22 -27 54 -37 72 -9 17 -34 47 -54 66 -21
20 -47 39 -58 42 -11 4 -36 1 -55 -5 -19 -6 -48 -27 -66 -47 -17 -20 -44 -64
-59 -97 -15 -34 -34 -67 -42 -74 -9 -7 -22 -10 -31 -6 -8 3 -18 15 -21 27 -3
12 -6 32 -6 44 0 15 -29 48 -90 103 -70 63 -95 79 -113 75 -12 -3 -52 -9 -89
-15 -37 -6 -105 -25 -150 -44 -46 -18 -99 -43 -118 -55 -19 -11 -47 -21 -62
-21 -17 0 -31 7 -38 19 -5 11 -10 35 -10 53 0 18 -8 47 -19 64 -10 16 -41 45
-69 63 -27 17 -64 36 -82 41 -21 6 -63 5 -123 -4 -66 -10 -126 -28 -212 -63
-66 -28 -138 -56 -160 -63 -22 -7 -69 -26 -105 -42 -36 -16 -74 -34 -84 -40
-11 -6 -43 -19 -73 -29 -30 -10 -65 -27 -79 -38 -14 -11 -51 -25 -82 -32 -31
-6 -87 -27 -124 -45 -37 -19 -81 -34 -98 -34 -17 0 -45 -7 -62 -16 -24 -12
-45 -15 -92 -9 -33 3 -66 11 -73 17 -7 6 -13 20 -13 31 0 11 5 49 11 85 10 57
14 63 32 58 15 -4 38 14 96 73 42 43 89 96 104 119 16 22 35 58 43 79 7 21 13
79 14 130 0 69 -5 106 -20 145 -15 39 -35 66 -74 101 -49 42 -59 47 -103 47
-26 -1 -58 -6 -70 -13 -12 -7 -33 -27 -47 -45 -13 -18 -27 -52 -30 -76 -5 -29
-16 -52 -36 -71 -23 -22 -30 -38 -30 -67 0 -21 -7 -55 -15 -75 -8 -19 -15 -50
-15 -68 0 -18 -7 -49 -15 -68 -8 -20 -15 -47 -15 -61 0 -13 -8 -39 -17 -58
-10 -18 -22 -35 -26 -37 -5 -2 -20 -16 -35 -32 -21 -24 -33 -29 -74 -29 -35 0
-50 -4 -55 -15 -3 -9 -23 -25 -44 -35 -21 -11 -47 -20 -58 -20 -10 0 -52 -14
-92 -31 -41 -17 -98 -39 -127 -49 -29 -11 -85 -24 -125 -30 -39 -6 -99 -13
-133 -17 -53 -5 -63 -3 -87 18 -26 23 -27 26 -17 79 6 30 18 95 26 145 11 67
25 108 55 164 22 41 46 98 54 125 7 28 27 96 44 150 22 74 37 106 60 126 16
15 34 44 39 64 6 20 30 59 53 87 25 30 60 59 84 69 37 16 43 23 49 59 4 26 13
44 26 51 11 6 45 36 75 67 30 30 65 76 76 102 12 25 30 73 39 106 10 33 27 91
38 130 14 47 19 85 15 116 -3 28 1 67 11 101 9 31 16 70 16 87 0 18 -9 49 -20
71 -11 22 -20 48 -20 59 0 11 -12 33 -26 50 -19 23 -34 31 -57 31 -18 0 -47
-9 -65 -20 -18 -11 -35 -28 -38 -38 -3 -9 -17 -42 -32 -72 -15 -30 -34 -64
-43 -75 -9 -11 -19 -36 -23 -56 -3 -20 -15 -44 -26 -54 -11 -10 -20 -30 -20
-45 0 -15 -9 -39 -20 -53 -11 -14 -20 -37 -20 -52 0 -15 -10 -36 -25 -49 -16
-15 -25 -34 -25 -52 0 -16 -12 -61 -26 -101 -20 -56 -31 -73 -48 -75 -14 -2
-20 -9 -18 -22 2 -10 -9 -57 -24 -105 -15 -47 -40 -102 -57 -123 -16 -20 -57
-53 -90 -73 -34 -20 -75 -39 -91 -42 -16 -3 -55 -19 -88 -35 -32 -15 -64 -28
-70 -28 -6 0 -19 -7 -28 -15 -9 -9 -39 -22 -66 -29 -27 -8 -82 -28 -123 -45
-40 -17 -80 -31 -90 -31 -9 0 -36 -10 -61 -21 -25 -12 -76 -27 -115 -35 -38
-7 -104 -25 -145 -40 -52 -18 -107 -29 -180 -34 -58 -4 -114 -11 -126 -14 -14
-5 -27 -2 -38 10 -11 11 -15 25 -11 38 3 12 10 52 15 90 8 53 7 84 -4 130 -8
34 -18 86 -22 116 -3 30 -15 74 -25 97 -10 23 -19 48 -19 56 0 8 -22 59 -49
113 -27 55 -52 117 -56 139 -4 22 -14 52 -21 66 -7 15 -19 29 -26 32 -8 2 -26
31 -42 63 -16 33 -36 74 -45 93 -9 18 -37 49 -63 70 -26 20 -50 47 -54 61 -3
14 -8 33 -11 43 -2 10 -21 28 -41 41 -20 13 -59 44 -87 70 -27 26 -60 56 -73
69 -12 12 -31 32 -43 44 -11 12 -53 32 -92 44 -40 12 -94 23 -122 25 -27 1
-75 -1 -105 -5z m2708 -663 c7 -7 12 -27 12 -44 0 -18 -4 -44 -9 -57 -5 -13
-23 -30 -40 -37 -17 -7 -31 -16 -31 -21 0 -5 -9 -13 -20 -19 -17 -9 -22 -7
-30 15 -8 21 -4 38 21 93 17 37 37 70 43 74 6 4 18 8 27 8 8 0 20 -5 27 -12z
m-3098 -747 c91 -6 189 -13 218 -17 29 -3 64 -15 78 -27 l26 -20 -80 -77 c-63
-62 -81 -85 -86 -116 -4 -22 -21 -82 -37 -134 -17 -52 -35 -131 -40 -175 -8
-68 -7 -89 6 -126 9 -24 23 -68 30 -97 8 -30 21 -62 29 -71 9 -10 16 -22 16
-28 0 -5 10 -15 23 -20 13 -6 45 -29 71 -52 44 -38 51 -41 107 -41 47 0 71 6
116 30 31 17 64 30 74 30 10 0 32 14 49 30 17 17 34 30 38 30 4 0 25 17 47 37
22 21 53 47 69 58 16 11 46 49 67 83 21 35 50 96 65 135 27 69 27 73 17 174
-8 72 -17 112 -32 136 -12 19 -21 44 -21 55 0 11 3 23 8 25 4 3 26 8 48 11 33
6 45 4 59 -11 10 -10 37 -26 59 -36 23 -11 61 -24 86 -31 42 -10 45 -13 48
-49 2 -25 -4 -49 -17 -71 -12 -18 -21 -46 -21 -62 0 -16 -14 -63 -31 -104 -16
-41 -43 -88 -59 -105 -16 -16 -36 -46 -45 -65 -8 -19 -20 -42 -25 -50 -6 -8
-14 -28 -20 -43 -5 -15 -24 -36 -42 -45 -17 -9 -43 -28 -57 -42 -14 -14 -48
-39 -76 -57 -27 -18 -59 -41 -70 -52 -11 -11 -101 -47 -200 -80 -100 -33 -190
-58 -200 -55 -11 3 -38 -4 -60 -16 -35 -18 -46 -19 -105 -9 -36 5 -101 19
-145 31 -52 13 -106 36 -153 65 -48 30 -87 64 -115 102 -24 31 -55 62 -70 69
-15 7 -34 26 -42 42 -9 17 -29 45 -45 63 -16 19 -43 65 -60 102 -17 38 -36
100 -42 139 -6 39 -18 96 -27 126 -9 30 -16 78 -15 105 0 32 12 79 33 130 18
44 42 90 53 102 11 12 43 33 72 47 28 14 74 29 101 35 28 5 75 8 105 6 30 -2
129 -8 220 -14z m10221 -68 c0 -5 1 -25 3 -46 2 -26 -3 -46 -16 -62 -10 -13
-32 -26 -48 -30 -16 -4 -39 -4 -50 0 -15 5 -20 15 -20 39 0 21 8 39 23 52 12
11 33 28 47 37 14 9 33 16 43 16 9 1 17 -2 18 -6z m-6458 -30 c8 -10 18 -30
22 -45 4 -17 0 -41 -13 -70 -10 -23 -38 -64 -61 -90 -28 -32 -51 -48 -66 -48
-13 0 -26 4 -30 10 -3 5 3 28 14 52 11 24 29 65 40 92 12 27 21 55 21 62 0 8
9 23 20 34 11 11 24 20 28 20 5 0 16 -8 25 -17z m-3172 -82 c24 -15 53 -39 65
-52 12 -13 29 -46 39 -74 9 -27 20 -72 22 -98 3 -30 0 -53 -7 -62 -7 -9 -17
-36 -21 -62 -5 -26 -20 -64 -34 -85 -14 -21 -32 -38 -41 -38 -8 0 -28 -15 -45
-32 -16 -18 -47 -42 -68 -53 -21 -11 -51 -27 -67 -36 -16 -9 -45 -19 -65 -22
-34 -5 -38 -2 -69 40 -17 25 -36 69 -42 97 -9 41 -8 66 6 126 9 41 20 102 25
134 6 55 11 63 57 103 27 25 66 53 86 64 21 11 45 30 54 44 8 13 23 26 32 28
9 3 19 5 23 6 3 0 25 -12 50 -28z"/>
<path d="M23082 3674 c-13 -20 -24 -50 -24 -68 -1 -17 10 -70 24 -117 13 -48
32 -99 41 -113 10 -14 31 -33 48 -42 17 -8 51 -16 75 -17 37 -2 48 3 79 33 34
32 36 39 32 78 -3 32 -14 54 -39 80 -19 21 -42 49 -51 65 -10 15 -23 27 -30
27 -6 0 -34 25 -60 55 -27 30 -54 55 -60 55 -7 0 -22 -16 -35 -36z"/>
<path d="M11307 2769 c-9 -5 -35 -34 -56 -62 -21 -29 -47 -70 -58 -92 -12 -22
-24 -59 -28 -82 -3 -23 -15 -53 -25 -65 -10 -13 -25 -39 -34 -58 -9 -19 -31
-62 -51 -95 -19 -33 -46 -85 -60 -115 -14 -30 -34 -62 -44 -70 -10 -8 -25 -36
-34 -61 -8 -26 -34 -77 -56 -115 -23 -37 -41 -75 -41 -84 0 -9 -7 -25 -14 -36
-14 -18 -16 -18 -45 17 -17 20 -43 39 -58 42 -18 3 -55 -6 -108 -27 -44 -18
-100 -40 -125 -49 -25 -9 -59 -32 -76 -49 -16 -18 -40 -50 -53 -71 -12 -20
-43 -51 -68 -68 -24 -17 -53 -45 -64 -62 -10 -18 -19 -44 -19 -58 0 -20 -13
-34 -67 -69 -38 -25 -88 -50 -112 -57 -23 -6 -53 -20 -65 -31 -11 -11 -48 -32
-82 -45 -33 -14 -85 -29 -115 -33 -30 -4 -67 -13 -83 -21 -16 -8 -81 -32 -145
-53 -64 -21 -125 -39 -136 -40 -11 -1 -26 -2 -32 -1 -10 1 -13 33 -12 124 0
67 -4 162 -10 210 -6 58 -17 99 -31 123 -12 19 -31 39 -42 45 -12 6 -34 15
-51 20 -22 6 -39 3 -68 -11 -23 -12 -40 -29 -43 -43 -3 -12 -8 -47 -11 -77 -4
-30 -9 -80 -11 -110 -2 -30 -6 -69 -9 -86 -4 -22 -33 -58 -103 -126 -87 -85
-102 -96 -143 -102 -25 -4 -53 -4 -62 0 -9 3 -17 10 -17 15 0 5 -9 9 -19 9
-13 0 -23 12 -32 37 -7 21 -13 70 -14 108 0 47 -6 80 -17 102 -10 18 -18 53
-18 81 0 27 7 69 15 93 9 23 17 72 18 108 2 56 -2 72 -23 103 -16 23 -35 39
-54 42 -15 3 -40 0 -54 -7 -15 -6 -36 -26 -47 -43 -12 -18 -29 -71 -39 -119
-9 -48 -25 -104 -36 -124 -10 -21 -34 -50 -54 -64 -19 -15 -46 -51 -61 -81
-15 -31 -32 -59 -38 -64 -7 -5 -23 -13 -37 -17 -14 -4 -38 -19 -55 -32 -16
-14 -57 -44 -89 -68 -32 -24 -108 -68 -167 -99 -60 -31 -119 -56 -132 -56 -12
0 -33 7 -45 16 -20 14 -21 17 -8 42 7 15 21 79 31 142 10 63 26 132 37 152 10
21 18 48 18 62 0 14 4 36 10 51 7 17 5 45 -4 90 -7 36 -21 76 -31 91 -9 14
-31 31 -48 39 -18 7 -48 15 -68 19 -31 5 -42 2 -69 -20 -26 -22 -33 -25 -41
-13 -5 8 -9 20 -9 27 0 7 12 35 27 63 23 46 26 63 27 159 l1 109 -32 33 c-18
19 -33 39 -33 45 0 6 -21 21 -46 33 -45 22 -46 22 -112 5 -37 -10 -89 -29
-117 -42 -27 -12 -58 -23 -67 -23 -9 0 -23 -6 -31 -14 -7 -8 -39 -30 -70 -50
-30 -20 -58 -45 -62 -55 -3 -11 -37 -49 -76 -84 -38 -36 -69 -70 -69 -76 0 -6
-18 -31 -40 -55 -22 -24 -46 -62 -55 -85 -8 -23 -31 -66 -51 -96 -20 -30 -42
-76 -50 -102 -8 -26 -20 -54 -28 -62 -8 -9 -22 -36 -32 -61 -9 -25 -26 -53
-36 -63 -10 -10 -18 -32 -18 -50 0 -18 -8 -43 -17 -57 -9 -13 -20 -42 -24 -64
-4 -23 -15 -65 -23 -95 -9 -30 -16 -97 -17 -150 -1 -67 3 -107 14 -131 8 -19
26 -45 39 -56 12 -12 34 -25 48 -29 14 -4 46 -20 73 -36 42 -26 57 -29 130
-29 l82 0 48 46 c47 44 48 45 84 33 33 -11 37 -10 53 11 10 13 33 31 51 39 21
10 35 25 37 39 2 14 15 27 35 36 18 7 56 41 85 74 29 34 70 71 90 84 20 12 50
38 67 56 16 19 37 57 45 85 9 27 23 55 32 61 9 6 20 7 24 4 3 -4 6 -56 6 -115
-1 -76 4 -122 16 -157 9 -27 24 -52 32 -56 8 -4 30 -12 49 -18 23 -8 40 -8 52
-1 13 6 25 6 38 0 10 -6 43 -8 72 -5 30 3 63 7 74 9 11 3 47 25 80 50 33 24
76 50 95 56 19 7 58 25 86 41 28 15 56 39 62 53 6 13 25 31 41 40 17 8 35 24
41 35 6 11 28 25 50 31 26 8 42 19 45 33 4 12 11 33 17 49 6 15 18 27 27 27 9
0 22 -5 29 -12 7 -7 12 -28 12 -49 0 -22 9 -49 24 -70 14 -19 36 -58 50 -88
14 -29 40 -70 58 -90 28 -32 37 -36 82 -37 36 0 57 5 72 18 16 14 38 19 95 19
41 1 83 6 94 12 11 6 28 20 37 33 10 12 38 32 63 44 24 12 54 34 65 48 20 26
20 27 35 8 8 -11 15 -28 15 -38 0 -11 7 -33 16 -51 9 -18 28 -42 43 -54 14
-12 37 -22 49 -23 13 0 74 13 135 29 62 16 155 37 207 46 62 10 119 28 165 50
39 19 85 37 103 41 17 3 45 19 62 35 16 16 47 36 69 44 30 10 43 11 54 2 8 -7
18 -30 22 -52 5 -28 19 -51 46 -78 l40 -37 89 3 c70 3 96 9 126 27 22 13 59
40 84 59 24 20 76 62 115 94 38 32 80 74 92 94 11 19 37 48 56 64 26 21 38 42
47 78 6 28 17 54 23 60 7 5 19 11 27 13 12 2 15 -13 15 -92 1 -86 4 -101 32
-155 17 -33 45 -73 63 -90 17 -16 41 -31 53 -31 12 -1 37 -8 54 -15 26 -11 39
-11 66 -1 18 7 48 12 66 12 18 0 65 14 104 31 68 30 75 31 176 27 71 -4 121
-1 151 8 25 7 77 18 115 25 39 6 122 29 186 50 64 22 126 39 137 39 11 0 24
-4 27 -10 3 -5 8 -27 10 -47 2 -21 4 -48 4 -60 1 -12 15 -38 32 -58 21 -23 40
-35 58 -35 14 0 42 5 62 10 25 7 54 31 103 86 36 42 75 93 86 114 11 21 22 57
26 80 4 23 18 55 31 71 14 16 31 50 39 75 7 25 22 57 34 71 11 14 20 38 20 53
0 15 13 47 30 71 16 24 30 52 30 61 0 10 9 23 20 30 11 7 20 21 20 30 0 9 18
32 40 49 22 18 43 43 46 55 3 12 14 30 25 40 10 9 19 25 19 34 0 9 -8 24 -18
34 -16 14 -27 15 -83 5 -35 -6 -86 -13 -114 -16 -40 -4 -57 -12 -87 -41 -21
-20 -38 -45 -38 -57 0 -11 -6 -32 -14 -47 -8 -14 -19 -43 -26 -65 -7 -21 -21
-54 -31 -73 -11 -19 -19 -55 -19 -80 0 -28 -8 -58 -20 -78 -12 -19 -27 -57
-34 -85 -8 -29 -20 -64 -27 -80 -7 -15 -17 -26 -23 -24 -6 2 -14 22 -18 45 -4
22 -14 54 -22 70 -10 19 -29 35 -50 42 -26 8 -45 8 -77 0 -24 -7 -54 -20 -67
-31 -14 -10 -34 -19 -46 -19 -11 0 -40 -13 -63 -29 -23 -15 -62 -31 -87 -34
-26 -4 -64 -16 -86 -27 -21 -11 -51 -20 -65 -20 -20 0 -25 5 -25 24 0 13 6 29
14 35 8 6 19 32 25 56 6 25 20 60 31 77 17 29 20 51 20 164 0 110 -4 141 -23
199 -13 38 -30 72 -38 75 -8 4 -28 14 -44 23 -25 13 -35 13 -60 2 -17 -7 -40
-26 -52 -42 -12 -17 -36 -68 -53 -114 -18 -46 -38 -99 -46 -117 -8 -18 -18
-69 -23 -115 -6 -45 -19 -99 -30 -121 -15 -29 -19 -50 -14 -81 5 -37 2 -46
-27 -78 -18 -21 -41 -37 -52 -37 -11 0 -34 -11 -50 -25 -27 -23 -36 -25 -100
-21 -39 3 -76 10 -82 16 -6 6 -12 44 -14 84 -2 40 1 104 7 141 8 52 18 78 43
109 28 35 34 51 39 117 5 60 14 90 43 144 20 37 36 74 36 80 0 7 22 59 50 116
27 57 52 124 56 149 4 25 13 59 22 75 8 17 20 37 27 45 7 8 23 44 35 80 12 36
30 80 41 99 11 18 22 53 26 76 3 24 3 54 0 68 -4 13 -18 29 -32 35 -14 7 -47
12 -73 12 -26 0 -55 -5 -65 -11z m-3885 -869 c-1 -41 -7 -79 -12 -84 -6 -6
-10 -25 -10 -44 0 -20 -17 -68 -40 -115 -22 -44 -58 -100 -80 -123 -27 -30
-40 -52 -39 -71 0 -16 4 -49 8 -74 5 -30 19 -60 42 -87 19 -23 42 -42 52 -42
9 0 17 -4 17 -9 0 -4 -9 -20 -21 -35 -11 -14 -28 -26 -38 -26 -9 0 -22 -5 -29
-12 -7 -7 -12 -20 -12 -29 0 -9 -31 -42 -70 -73 -38 -31 -70 -61 -70 -66 0 -5
-15 -13 -32 -18 -18 -5 -57 -26 -87 -46 -29 -20 -59 -36 -66 -36 -7 0 -43 -16
-79 -35 -57 -30 -69 -33 -95 -24 -23 8 -33 20 -41 47 -5 21 -10 56 -10 80 0
23 6 57 13 75 8 18 17 50 21 72 4 21 18 51 31 66 12 15 26 48 29 72 4 26 20
63 37 87 17 24 44 75 61 114 17 39 39 80 49 92 10 11 19 25 19 31 0 7 13 21
30 33 16 12 33 36 39 56 6 21 29 52 58 79 26 24 56 47 66 50 9 4 17 13 17 21
0 8 27 34 61 59 34 25 67 45 73 45 7 0 28 11 46 25 19 14 41 24 50 22 12 -2
14 -17 12 -77z m3246 -302 c7 -7 12 -18 12 -25 0 -7 -31 -50 -69 -96 -38 -45
-109 -118 -158 -163 -48 -44 -100 -89 -115 -98 -16 -10 -35 -16 -43 -12 -8 3
-15 16 -15 29 0 14 6 40 14 59 8 19 34 51 58 70 24 20 75 67 113 104 39 38 89
85 113 106 24 21 51 38 61 38 9 0 22 -5 29 -12z"/>
</g>
</svg>
