<?xml version="1.0" standalone="no"?>
<!DOCTYPE svg PUBLIC "-//W3C//DTD SVG 20010904//EN"
 "http://www.w3.org/TR/2001/REC-SVG-20010904/DTD/svg10.dtd">
<svg version="1.0" xmlns="http://www.w3.org/2000/svg"
 width="468pt" height="65pt" viewBox="0 0 468 65"
 preserveAspectRatio="xMidYMid meet">
<metadata>
Created by POTRACE VERSION, written by Peter Selinger 2001-2007
</metadata>
<g transform="translate(0,65) scale(0.015600,-0.015600)"
fill="#000000" stroke="none">
<path d="M16984 3951 c-12 -5 -31 -23 -43 -40 -12 -16 -37 -35 -56 -41 -19 -6
-46 -25 -60 -41 -20 -25 -25 -41 -25 -85 0 -41 5 -59 20 -74 11 -11 32 -20 48
-20 15 0 48 -11 74 -25 26 -14 56 -25 66 -25 11 0 36 -11 56 -25 20 -14 58
-36 84 -50 26 -14 58 -25 72 -25 15 0 64 -19 111 -41 46 -23 108 -50 138 -60
29 -10 83 -22 120 -25 36 -4 84 -16 106 -27 22 -11 72 -23 110 -27 39 -4 104
-13 145 -19 41 -7 111 -23 155 -36 44 -13 94 -27 110 -30 17 -4 68 -13 115
-21 47 -8 155 -17 240 -20 112 -5 171 -12 212 -25 32 -11 74 -19 95 -19 21 0
54 -5 73 -10 19 -6 90 -15 158 -21 68 -5 261 -10 430 -10 169 0 361 1 427 3
66 2 129 8 140 14 11 6 55 17 98 24 45 8 108 10 150 7 58 -5 83 -2 127 14 30
11 89 29 130 39 41 10 92 26 114 35 30 13 45 14 69 6 16 -6 39 -11 50 -11 11
0 34 13 52 29 31 27 38 29 97 25 51 -4 71 0 108 18 30 15 46 31 48 45 2 12 -6
31 -19 44 -20 20 -27 21 -113 14 -50 -4 -102 -13 -116 -21 -14 -7 -53 -23 -87
-34 -46 -15 -89 -20 -167 -20 -58 0 -117 -5 -133 -11 -15 -6 -55 -12 -88 -13
-33 -1 -85 -6 -116 -10 -52 -8 -62 -6 -139 29 -64 29 -89 35 -113 30 -18 -4
-54 -8 -82 -8 -27 -1 -64 -10 -80 -19 -25 -13 -46 -15 -112 -9 -54 4 -88 12
-100 23 -10 9 -32 22 -48 29 -18 7 -90 13 -180 14 -82 1 -181 7 -220 13 -38 6
-122 13 -185 15 -84 3 -132 10 -177 25 -39 14 -106 25 -180 31 -77 5 -131 14
-152 25 -25 13 -45 16 -86 11 -45 -6 -60 -4 -89 14 -19 12 -67 28 -108 36 -40
8 -106 26 -147 40 -41 14 -87 25 -103 25 -16 0 -82 14 -146 30 -64 17 -138 39
-164 50 -26 11 -67 20 -92 20 -28 0 -58 8 -78 20 -18 11 -42 20 -52 20 -11 0
-58 20 -105 44 -47 24 -99 46 -115 50 -17 4 -42 16 -57 27 -15 10 -32 19 -39
19 -6 0 -31 9 -56 20 -24 11 -56 23 -72 25 -15 2 -37 0 -48 -4z"/>
<path d="M2277 3540 c-14 -11 -29 -20 -35 -20 -5 0 -29 -18 -53 -39 -25 -21
-63 -46 -84 -55 -22 -10 -56 -32 -75 -50 -19 -18 -61 -52 -92 -75 -32 -23 -77
-60 -100 -84 -24 -23 -49 -54 -55 -69 -7 -16 -20 -28 -29 -28 -9 0 -32 -14
-51 -31 -20 -17 -52 -38 -72 -47 -20 -9 -58 -34 -86 -56 -27 -21 -65 -56 -83
-77 -18 -21 -42 -41 -54 -45 -12 -3 -44 -23 -71 -42 -28 -20 -70 -63 -94 -97
-25 -33 -58 -67 -75 -76 -16 -8 -55 -40 -86 -71 -32 -30 -71 -62 -88 -71 -17
-9 -39 -29 -49 -44 -10 -15 -46 -54 -80 -85 -35 -32 -76 -79 -93 -105 -17 -27
-34 -61 -37 -78 -4 -16 -9 -38 -11 -47 -3 -10 -31 -33 -62 -52 -43 -26 -64
-47 -85 -86 -15 -28 -51 -75 -80 -103 -29 -29 -63 -60 -77 -68 -14 -9 -42 -38
-63 -65 -21 -27 -57 -80 -79 -119 -23 -38 -55 -87 -72 -109 -29 -35 -31 -45
-34 -132 -3 -80 0 -107 23 -181 15 -49 34 -108 44 -132 9 -24 26 -50 39 -58
12 -9 68 -31 125 -50 56 -19 113 -41 126 -50 13 -8 56 -20 95 -25 39 -5 163
-11 276 -13 150 -2 230 1 300 12 75 12 115 26 190 64 52 26 127 59 167 72 41
14 91 40 117 61 35 29 66 43 143 63 54 14 105 31 113 38 8 7 38 20 67 29 28
10 63 26 77 37 14 11 67 41 117 67 50 26 113 58 140 72 34 18 60 42 89 85 23
33 60 79 83 103 23 23 47 42 54 42 6 0 32 19 56 43 25 23 80 73 122 112 43 38
84 84 92 103 7 18 20 35 28 38 8 3 26 26 40 50 14 24 32 44 40 44 9 0 15 -23
20 -85 6 -65 4 -93 -8 -122 -8 -21 -17 -78 -21 -128 -6 -77 -4 -100 14 -155
12 -36 25 -103 30 -150 5 -47 16 -119 25 -159 8 -41 23 -89 32 -108 9 -19 22
-37 30 -40 8 -3 33 -33 55 -67 23 -33 60 -77 83 -97 22 -20 61 -53 87 -72 26
-20 61 -43 78 -52 23 -12 61 -17 143 -17 97 -1 123 2 195 26 53 17 95 38 117
59 19 18 50 47 69 64 25 24 45 33 69 33 18 0 54 7 79 16 31 10 62 33 97 70 28
30 51 63 51 75 0 11 -4 29 -10 39 -6 12 -31 23 -65 31 -43 9 -57 9 -69 0 -8
-7 -52 -26 -98 -42 -46 -17 -110 -37 -143 -46 -34 -9 -103 -17 -160 -17 -72
-1 -107 3 -126 14 -14 8 -39 31 -56 50 -17 19 -35 44 -40 55 -6 11 -23 56 -38
100 -15 44 -33 116 -41 160 -8 44 -19 181 -23 304 -5 124 -5 236 -1 250 4 14
21 48 38 75 18 27 34 69 37 95 3 25 13 77 22 114 12 54 25 79 60 120 24 29 57
72 73 97 16 25 42 62 57 83 15 22 40 45 56 53 15 8 27 19 27 25 0 5 11 21 25
34 13 14 31 25 40 25 8 0 32 -16 54 -35 21 -19 47 -35 57 -35 10 0 50 19 88
42 39 23 105 72 146 109 67 59 79 76 108 146 18 43 32 93 32 111 0 18 -9 65
-20 105 -11 41 -36 95 -58 127 -26 38 -48 59 -72 67 -19 7 -61 12 -93 12 -31
1 -89 -8 -127 -18 -38 -11 -99 -37 -135 -59 -36 -21 -102 -72 -146 -113 -45
-41 -112 -104 -150 -142 -38 -37 -69 -72 -69 -77 0 -5 -22 -34 -48 -64 -27
-30 -54 -73 -61 -96 -7 -22 -23 -47 -37 -57 -19 -12 -28 -13 -37 -4 -8 8 -12
53 -13 129 -1 88 -5 125 -17 149 -9 17 -26 38 -37 46 -11 7 -26 29 -34 49 -8
19 -42 60 -75 90 -32 31 -72 59 -88 62 -15 4 -38 16 -49 27 -15 14 -47 23
-110 31 -84 11 -93 10 -161 -14 -55 -19 -73 -22 -77 -12 -3 7 -8 41 -12 76 -6
54 -13 70 -47 111 -39 46 -41 47 -97 47 -42 0 -64 -5 -83 -20z m473 -490 c10
-5 33 -31 50 -56 17 -25 42 -69 56 -97 l26 -51 -22 -53 c-12 -30 -26 -68 -30
-86 -4 -18 -17 -68 -29 -112 -12 -44 -47 -143 -77 -220 -30 -77 -71 -171 -91
-210 -20 -38 -44 -79 -53 -90 -10 -11 -32 -43 -49 -72 -18 -29 -41 -55 -53
-58 -11 -4 -44 -28 -72 -53 -29 -26 -62 -54 -72 -63 -10 -9 -59 -58 -107 -108
-48 -50 -94 -91 -101 -91 -7 0 -37 -18 -68 -39 -33 -24 -79 -46 -119 -56 -35
-9 -80 -26 -99 -37 -19 -11 -58 -24 -88 -28 -37 -7 -64 -18 -88 -40 -23 -20
-46 -30 -67 -30 -18 -1 -68 -14 -112 -29 -44 -16 -138 -50 -210 -76 -123 -45
-132 -47 -195 -40 -36 4 -117 8 -180 9 -63 1 -136 6 -161 10 -28 5 -71 25
-115 55 -38 26 -75 60 -83 75 -12 26 -10 35 15 100 23 57 43 87 105 151 42 44
93 110 113 148 21 37 41 67 45 67 4 0 26 28 48 63 22 34 48 76 57 94 8 17 30
40 48 51 18 11 55 27 81 37 26 10 57 30 68 44 11 14 34 48 52 76 18 27 49 61
70 75 21 14 52 47 68 73 16 26 45 55 66 67 21 11 47 26 58 32 11 7 45 28 75
48 30 19 84 64 120 100 36 36 90 88 120 116 30 29 71 69 91 90 21 22 57 58 81
82 24 23 52 42 61 42 10 0 30 -6 45 -14 15 -7 70 -16 122 -19 91 -6 97 -5 158
25 44 21 72 29 95 25 21 -3 46 3 72 16 30 15 56 20 106 19 56 -1 71 2 99 23
19 14 38 25 43 25 4 0 17 -4 27 -10z"/>
<path d="M25546 3058 c-11 -6 -39 -10 -63 -9 -34 1 -49 -4 -68 -23 -13 -13
-27 -37 -31 -53 -3 -15 -21 -50 -38 -78 -18 -27 -48 -75 -68 -105 -19 -30 -42
-67 -51 -81 -8 -14 -21 -46 -27 -70 -7 -24 -25 -64 -41 -88 -23 -35 -29 -56
-29 -98 0 -35 -9 -75 -26 -116 -14 -34 -34 -71 -45 -83 -10 -11 -26 -43 -34
-72 -9 -29 -30 -67 -50 -88 -31 -33 -38 -36 -72 -30 -21 3 -77 10 -125 15 -51
5 -99 16 -117 27 -16 10 -35 31 -42 46 -6 16 -23 38 -37 48 -19 16 -40 20 -96
20 -39 0 -108 5 -152 11 -45 7 -93 9 -108 5 -17 -4 -33 -20 -46 -46 -15 -29
-34 -47 -70 -65 -40 -20 -50 -30 -50 -51 0 -13 8 -36 17 -50 9 -15 40 -44 69
-65 29 -21 71 -43 93 -48 23 -5 52 -16 65 -25 14 -8 58 -22 99 -31 41 -8 108
-31 149 -50 41 -19 108 -41 149 -51 41 -9 82 -20 91 -25 10 -5 22 -19 28 -30
9 -15 7 -36 -5 -84 -9 -36 -22 -80 -30 -99 -8 -20 -15 -55 -15 -78 0 -24 -9
-59 -20 -78 -10 -19 -33 -63 -51 -98 -17 -34 -41 -69 -52 -77 -12 -8 -33 -15
-48 -15 -15 0 -51 -7 -80 -16 -30 -9 -69 -22 -87 -30 -18 -8 -60 -14 -93 -14
-34 0 -87 -6 -118 -14 -31 -8 -139 -19 -241 -25 -127 -7 -261 -8 -430 -1 -135
5 -290 14 -345 19 -55 5 -118 16 -140 24 -22 9 -75 22 -118 31 -43 9 -103 30
-134 46 -31 17 -64 30 -75 30 -11 0 -29 5 -41 12 -12 6 -38 24 -59 41 -20 16
-38 37 -41 47 -2 9 0 24 5 33 5 9 28 25 51 36 23 11 67 41 97 66 30 25 68 53
84 63 16 9 50 35 74 57 30 26 57 64 79 112 18 39 33 77 33 83 0 6 12 37 27 68
20 41 28 77 31 130 2 40 1 97 -2 126 -5 35 -18 71 -39 103 -18 27 -57 78 -87
113 -35 40 -70 69 -98 81 -24 11 -57 19 -72 19 -16 0 -52 -9 -80 -20 -28 -11
-61 -20 -74 -20 -13 0 -38 -11 -57 -25 -19 -13 -52 -34 -74 -46 -22 -12 -54
-32 -71 -45 -17 -13 -55 -32 -85 -43 -30 -10 -72 -29 -95 -42 -22 -13 -64 -42
-93 -64 -30 -22 -66 -53 -80 -68 -14 -16 -42 -47 -63 -70 -26 -31 -39 -57 -46
-97 -6 -30 -15 -68 -21 -83 -6 -16 -11 -47 -11 -70 0 -23 9 -73 19 -111 12
-47 16 -81 11 -108 -4 -22 -14 -46 -21 -54 -8 -7 -48 -18 -89 -24 -41 -6 -88
-16 -105 -22 -16 -6 -64 -14 -105 -18 -41 -4 -104 -13 -138 -19 -46 -8 -105
-9 -208 -2 l-143 9 -59 52 c-47 40 -61 59 -66 88 -3 20 -6 78 -6 129 0 87 2
96 36 158 26 47 49 74 78 92 22 14 62 44 87 67 26 23 70 58 97 80 28 21 64 57
79 79 25 37 28 48 26 117 -1 47 -7 89 -16 106 -9 16 -28 42 -43 58 -15 15 -42
34 -60 42 -18 8 -51 14 -73 14 -27 0 -58 -10 -93 -31 -29 -18 -72 -40 -95 -50
-26 -11 -54 -34 -73 -60 -16 -23 -45 -52 -63 -64 -17 -13 -63 -60 -102 -105
-38 -45 -79 -87 -90 -93 -11 -6 -72 -13 -135 -15 -104 -4 -120 -2 -155 17 -22
11 -47 21 -56 21 -9 0 -41 18 -72 41 -32 22 -57 43 -57 47 0 5 -16 24 -35 45
-19 20 -37 49 -41 64 -3 16 -11 46 -17 68 -9 29 -21 44 -43 55 -17 8 -47 32
-66 53 -20 20 -45 37 -56 37 -11 0 -28 -3 -37 -6 -8 -4 -22 -19 -31 -35 -8
-16 -32 -38 -54 -49 -22 -11 -45 -30 -51 -43 -7 -13 -13 -70 -14 -139 -2 -101
-5 -120 -23 -143 -11 -14 -24 -40 -28 -58 -3 -18 -17 -53 -30 -79 -13 -26 -24
-56 -24 -66 0 -11 -14 -46 -31 -78 -17 -32 -43 -72 -58 -89 -15 -16 -53 -64
-84 -107 -31 -42 -76 -91 -99 -109 -24 -18 -68 -56 -98 -85 -38 -36 -91 -70
-169 -109 -112 -56 -115 -57 -245 -69 -74 -7 -146 -19 -166 -29 -24 -11 -65
-16 -130 -17 -52 0 -126 1 -165 3 -43 2 -88 11 -115 24 -25 11 -53 29 -63 41
-19 20 -18 21 75 65 51 25 104 48 118 52 14 4 30 11 35 15 6 3 53 22 105 40
52 18 121 50 152 72 31 21 61 38 66 38 4 0 22 10 39 23 17 12 53 49 80 82 28
33 60 83 72 110 13 28 33 78 46 113 14 34 30 102 36 150 8 56 10 152 6 269 -6
168 -8 187 -32 236 -14 30 -25 59 -25 65 0 6 -12 20 -26 31 -14 11 -45 23 -69
27 -36 5 -69 -2 -185 -40 -77 -25 -150 -51 -162 -57 -11 -6 -52 -15 -91 -20
-47 -6 -84 -18 -115 -36 -24 -16 -64 -39 -89 -52 -24 -13 -64 -42 -90 -65 -25
-23 -70 -57 -98 -76 -29 -19 -77 -51 -107 -71 -29 -21 -109 -91 -176 -156 -91
-89 -123 -127 -128 -151 -4 -18 -15 -37 -26 -43 -10 -6 -35 -35 -54 -64 -25
-40 -38 -76 -48 -135 -8 -44 -23 -95 -33 -113 l-19 -32 -173 0 c-166 -1 -174
0 -187 21 -12 18 -12 26 2 60 9 21 23 71 31 109 8 39 28 115 45 170 18 55 31
122 31 150 0 28 -6 125 -14 216 -13 135 -19 172 -37 200 -12 20 -44 54 -72 78
-28 23 -64 46 -81 51 -21 6 -53 5 -95 -4 -53 -11 -73 -22 -121 -65 -32 -28
-93 -80 -136 -117 -43 -36 -94 -70 -114 -76 -25 -7 -66 -42 -149 -126 -62 -64
-119 -123 -126 -129 -7 -7 -42 -39 -79 -70 -36 -32 -85 -75 -109 -95 -24 -21
-54 -38 -67 -38 -12 0 -25 5 -28 11 -4 6 -13 36 -21 67 -7 31 -13 70 -14 86 0
19 -27 75 -71 148 -39 64 -89 133 -110 153 -22 20 -51 40 -65 45 -14 6 -52 10
-84 10 -32 0 -70 -4 -85 -10 -14 -5 -51 -29 -82 -52 -36 -26 -77 -46 -111 -54
-30 -7 -62 -20 -72 -29 -11 -10 -22 -31 -26 -48 -4 -20 -32 -56 -78 -102 -40
-38 -80 -82 -89 -96 -9 -15 -53 -47 -103 -73 -47 -25 -123 -56 -168 -68 -49
-13 -127 -24 -196 -27 -63 -3 -146 -2 -184 2 -49 5 -93 19 -151 48 -45 22 -91
50 -102 62 -11 12 -33 45 -48 72 -15 28 -33 57 -40 65 -7 8 -19 29 -28 45 -8
17 -22 68 -31 114 -8 46 -22 94 -31 108 -9 13 -29 26 -45 29 -16 4 -39 17 -51
30 -16 17 -33 24 -59 24 -29 0 -41 -6 -58 -30 -13 -16 -44 -40 -70 -52 -45
-22 -48 -26 -70 -98 -12 -41 -34 -115 -48 -165 -14 -49 -39 -119 -56 -154 -16
-36 -50 -91 -75 -122 -24 -32 -72 -78 -104 -104 -37 -29 -83 -54 -120 -65 -33
-10 -83 -33 -112 -52 -34 -22 -73 -37 -117 -44 -50 -8 -76 -8 -115 2 -28 8
-76 15 -108 17 -49 3 -61 8 -94 39 -21 19 -51 55 -68 78 -16 24 -36 52 -43 64
-6 11 -28 55 -46 96 -27 59 -37 97 -46 178 -6 57 -15 115 -21 129 -5 13 -9 53
-9 89 0 36 -6 80 -14 99 -10 24 -23 36 -43 41 -15 4 -34 12 -41 17 -8 6 -21
28 -29 49 -8 21 -24 43 -34 48 -10 6 -25 10 -34 10 -10 0 -33 -17 -52 -37 -20
-21 -57 -64 -84 -96 -44 -53 -49 -63 -49 -108 0 -28 -8 -69 -19 -92 -10 -23
-22 -64 -26 -92 -6 -40 -15 -57 -45 -86 -21 -20 -49 -54 -64 -75 -14 -21 -32
-59 -41 -84 -9 -27 -35 -64 -63 -91 -26 -26 -72 -76 -102 -113 -30 -36 -64
-68 -75 -72 -11 -3 -35 -17 -52 -31 -18 -13 -68 -42 -110 -64 -63 -32 -88 -39
-134 -39 -31 0 -70 5 -87 11 -25 9 -35 21 -52 66 -17 47 -21 75 -19 167 2 61
1 158 0 216 -1 58 0 129 4 158 5 38 15 62 35 86 16 18 34 54 40 80 6 27 17 61
26 78 8 16 14 46 12 66 -3 32 -7 38 -38 47 -19 5 -41 14 -47 18 -7 5 -13 19
-13 31 0 13 -8 34 -18 46 -13 17 -24 20 -45 15 -15 -4 -35 -17 -45 -29 -9 -12
-43 -39 -74 -59 -31 -20 -63 -49 -71 -64 -8 -15 -17 -40 -20 -54 -4 -14 -22
-46 -41 -71 -19 -25 -55 -58 -80 -74 -29 -18 -51 -42 -62 -67 -10 -22 -47 -69
-83 -106 -37 -37 -83 -81 -105 -96 -21 -16 -49 -46 -62 -67 -22 -34 -29 -38
-65 -38 -31 0 -46 -6 -67 -28 -15 -16 -74 -60 -131 -97 -57 -38 -123 -74 -145
-82 -23 -7 -84 -34 -136 -59 -52 -25 -126 -61 -165 -80 -58 -29 -81 -35 -135
-35 -36 1 -76 1 -90 2 -14 0 -46 -3 -71 -6 -38 -6 -58 -2 -121 24 -41 18 -86
43 -98 56 -20 21 -25 42 -34 131 -7 79 -7 115 2 147 7 23 19 78 26 122 7 44
18 96 24 115 6 19 20 67 32 105 12 39 39 107 61 151 21 45 39 86 39 92 0 5 36
46 80 90 50 50 88 98 100 127 11 26 20 57 20 70 0 13 -18 45 -41 71 -22 26
-52 65 -65 86 -13 20 -35 40 -48 44 -14 3 -32 4 -42 2 -10 -2 -30 -21 -45 -43
-16 -23 -44 -48 -66 -58 -21 -9 -50 -34 -64 -55 -14 -21 -29 -51 -33 -67 -4
-17 -23 -48 -41 -71 -19 -23 -45 -67 -59 -98 -14 -31 -29 -56 -34 -56 -5 0
-15 8 -23 18 -8 9 -22 33 -31 52 -8 20 -26 48 -39 64 -13 15 -61 66 -106 112
-46 46 -83 87 -83 92 0 6 -17 22 -37 38 -21 16 -56 31 -83 35 -25 4 -70 17
-100 29 -30 12 -69 29 -87 37 -24 12 -50 14 -105 9 -40 -3 -80 -6 -88 -6 -8 1
-40 2 -70 3 l-55 2 -30 -47 c-28 -45 -33 -48 -75 -49 -25 0 -53 -3 -62 -7 -9
-4 -72 -59 -139 -122 -67 -63 -129 -123 -138 -133 -9 -10 -41 -31 -71 -47 -35
-18 -66 -43 -85 -70 -16 -24 -48 -63 -70 -89 -22 -25 -50 -61 -63 -78 -12 -18
-25 -47 -29 -65 -3 -18 -19 -57 -36 -85 -16 -29 -42 -62 -58 -74 -16 -11 -45
-48 -65 -82 -20 -34 -50 -78 -66 -97 -16 -19 -45 -57 -64 -85 -18 -27 -45 -71
-59 -97 -14 -26 -31 -74 -39 -106 -7 -31 -20 -71 -28 -87 -9 -17 -22 -64 -31
-105 -8 -41 -18 -106 -21 -145 -3 -38 -1 -97 6 -131 8 -45 8 -84 0 -145 -8
-67 -8 -88 2 -104 8 -11 37 -43 65 -72 28 -29 76 -68 106 -88 29 -20 86 -45
125 -56 64 -18 81 -19 153 -10 44 6 103 11 132 11 29 0 73 6 98 14 26 8 65 28
89 45 33 24 52 31 89 31 26 0 51 5 54 11 4 5 32 21 63 35 32 14 71 38 87 54
17 15 67 48 113 71 46 24 106 55 132 69 27 14 79 49 115 77 36 29 69 53 74 53
5 0 31 18 59 40 30 24 64 64 84 100 18 32 77 104 131 160 84 85 101 99 117 90
12 -6 21 -26 25 -53 4 -24 26 -77 50 -119 l44 -75 108 -53 c102 -51 113 -54
218 -63 96 -8 123 -7 208 11 54 11 110 29 124 39 14 10 35 24 47 30 11 7 44
13 71 14 28 0 81 6 118 13 57 9 74 17 95 42 15 17 54 45 87 61 33 17 83 38
110 48 28 10 64 29 82 42 17 12 45 23 61 23 16 0 40 8 53 19 13 10 42 28 64
39 22 11 55 36 72 55 21 23 58 45 103 62 43 16 77 36 86 51 9 13 25 26 35 29
11 4 26 2 33 -4 7 -6 25 -64 40 -129 15 -64 37 -148 48 -185 15 -48 29 -73 46
-85 14 -9 45 -37 70 -62 24 -25 51 -53 60 -62 11 -13 30 -18 65 -18 28 0 74
-8 103 -17 51 -16 59 -16 150 3 76 14 113 28 170 62 45 27 96 48 139 57 36 7
78 21 92 30 14 9 51 42 82 73 31 32 96 92 144 135 48 42 93 77 101 77 7 0 23
9 36 20 13 11 26 20 30 20 4 0 36 -30 71 -66 35 -36 80 -74 99 -84 19 -10 53
-32 75 -50 22 -18 70 -47 106 -65 36 -18 90 -41 121 -50 30 -8 95 -16 144 -17
55 -1 98 3 111 10 17 9 38 10 83 3 33 -6 84 -7 113 -4 29 3 68 14 87 23 19 10
60 23 90 30 42 10 66 24 106 62 28 27 67 53 85 58 19 6 46 10 60 10 14 0 53
18 86 40 33 23 74 58 90 78 16 20 35 47 42 59 7 13 28 27 53 34 35 9 50 8 97
-9 31 -11 94 -35 141 -54 47 -20 105 -41 130 -48 25 -6 131 -19 235 -27 105
-9 219 -16 255 -17 58 -1 71 3 114 32 38 25 60 32 97 32 28 0 81 12 130 30 45
17 98 35 118 40 20 5 65 19 100 31 53 19 66 28 77 54 7 18 30 45 51 61 21 16
66 44 101 62 35 17 71 32 80 32 9 0 27 -8 39 -18 12 -9 27 -37 33 -62 7 -25
12 -88 12 -140 -1 -52 -4 -128 -7 -170 -4 -41 -18 -130 -31 -198 -13 -68 -24
-138 -24 -155 0 -18 -4 -38 -9 -46 -5 -8 -29 -24 -52 -35 -33 -16 -46 -29 -51
-51 -4 -16 -10 -42 -13 -57 -4 -19 -17 -34 -43 -47 -21 -11 -56 -41 -78 -67
-21 -26 -48 -62 -59 -79 -12 -16 -33 -53 -47 -80 -15 -28 -29 -63 -32 -78 -4
-15 -27 -69 -51 -120 -25 -50 -48 -107 -51 -125 -4 -18 -15 -37 -25 -43 -11
-5 -19 -19 -19 -31 0 -11 10 -31 23 -43 12 -12 34 -36 49 -53 16 -20 35 -32
51 -32 13 0 50 13 83 30 33 16 82 48 110 72 27 24 66 54 84 68 19 14 53 44 76
67 23 24 49 43 58 43 9 0 16 4 16 8 0 4 20 39 45 77 25 37 50 86 57 107 7 25
25 50 50 69 24 20 42 45 50 71 6 22 22 47 36 56 20 13 31 13 73 4 28 -7 95
-12 150 -12 61 0 113 5 136 14 21 8 70 17 108 19 51 4 94 15 159 43 50 21 119
57 155 82 36 24 99 54 139 67 40 13 87 34 105 48 18 13 43 28 57 32 14 4 47
18 73 32 31 15 72 26 115 29 37 2 142 6 233 8 123 2 179 8 218 21 31 10 63 14
79 10 15 -4 59 -37 98 -73 39 -37 85 -79 103 -93 18 -15 68 -36 114 -49 45
-12 98 -30 117 -40 19 -9 58 -22 85 -29 28 -6 78 -18 113 -26 35 -8 89 -15
119 -15 31 0 73 -5 95 -12 31 -9 47 -9 76 2 20 8 60 13 89 11 31 -1 63 4 81
13 16 8 60 20 98 26 38 7 102 14 143 17 41 2 84 11 95 18 12 8 55 25 96 39 41
14 82 26 91 26 8 0 37 14 65 31 27 18 64 36 81 41 18 5 52 26 76 46 25 20 72
57 105 81 34 24 88 69 121 101 32 32 77 84 99 117 22 32 63 74 91 93 41 28 60
53 101 127 34 63 60 98 79 108 16 8 47 17 69 21 26 4 69 -1 125 -15 47 -12
106 -21 130 -21 24 0 63 7 87 15 31 11 52 12 83 5 23 -5 47 -17 54 -26 7 -10
15 -31 18 -48 2 -17 9 -99 14 -182 6 -95 16 -166 26 -191 11 -28 26 -45 46
-54 17 -6 53 -34 81 -60 27 -27 55 -49 61 -49 6 0 29 -9 51 -19 23 -11 72 -31
109 -45 52 -20 89 -26 160 -27 51 -1 116 -2 145 -2 28 0 81 1 117 2 37 1 87 9
113 17 26 7 61 14 78 14 17 0 47 6 65 14 19 7 72 17 119 22 47 4 123 7 170 6
48 -1 118 -11 160 -23 41 -12 95 -33 120 -49 25 -15 63 -33 85 -40 22 -7 76
-31 120 -52 44 -22 103 -46 130 -53 28 -8 109 -29 180 -48 72 -19 153 -43 180
-53 42 -15 85 -18 270 -20 124 -1 245 -6 276 -13 31 -7 106 -11 165 -11 60 1
129 1 154 0 25 -1 97 1 160 3 63 3 162 10 220 16 58 6 132 15 165 20 51 8 64
6 85 -9 22 -16 25 -24 23 -76 -1 -33 -12 -93 -24 -134 -12 -41 -24 -97 -26
-124 -3 -27 0 -66 6 -87 6 -21 26 -50 43 -64 31 -26 34 -27 122 -20 76 6 103
14 173 47 56 27 94 53 119 81 19 23 42 58 50 77 9 19 16 51 16 70 1 19 -4 65
-12 101 -13 64 -12 67 20 159 19 51 45 107 59 123 14 17 59 46 101 64 41 19
93 52 115 73 22 21 52 44 66 51 14 8 52 42 84 76 37 41 62 78 71 108 7 25 33
72 58 104 25 32 59 70 75 83 25 21 44 26 123 32 55 4 133 2 188 -5 52 -6 120
-19 150 -29 30 -10 93 -21 139 -24 47 -4 91 -12 98 -18 7 -6 13 -18 13 -27 0
-9 -14 -61 -30 -116 -17 -55 -36 -113 -42 -130 -6 -16 -17 -50 -25 -75 -7 -25
-19 -60 -25 -79 -5 -18 -14 -62 -18 -96 -5 -39 -16 -74 -29 -92 -12 -16 -29
-59 -37 -95 -9 -41 -30 -89 -55 -126 -25 -39 -39 -73 -39 -93 0 -19 10 -46 24
-64 14 -18 37 -37 53 -43 15 -5 56 -15 90 -22 50 -9 68 -8 96 4 19 7 42 25 51
37 10 13 31 46 49 73 18 27 41 64 52 82 12 18 28 41 37 51 9 10 29 59 46 108
16 50 33 106 37 125 4 19 16 52 26 72 11 21 19 46 19 56 0 11 14 46 30 78 17
32 35 77 41 99 5 22 22 68 36 102 19 47 33 65 57 77 17 8 59 20 94 27 54 11
81 11 205 -6 78 -11 169 -20 202 -22 33 -1 159 -6 280 -12 121 -5 244 -14 274
-21 30 -7 78 -10 108 -7 29 3 81 1 115 -4 35 -5 122 -14 193 -20 72 -5 247
-14 390 -19 143 -5 379 -14 525 -20 146 -6 314 -17 375 -25 60 -8 132 -15 160
-15 32 0 61 7 83 20 18 11 39 20 48 20 8 0 26 11 39 24 23 23 24 29 18 113 -3
48 -11 93 -17 99 -6 7 -35 19 -64 29 -49 16 -57 16 -131 0 -77 -17 -80 -17
-138 3 -47 16 -83 21 -174 20 -63 0 -157 5 -209 11 -52 6 -133 15 -180 21 -47
6 -148 12 -225 15 -77 2 -152 8 -167 13 -14 6 -61 16 -105 21 -43 6 -159 13
-258 15 -107 2 -192 8 -210 16 -19 7 -76 10 -155 9 -69 -2 -174 3 -235 9 -60
7 -164 16 -230 21 -66 5 -142 14 -170 20 -27 5 -79 16 -115 24 -36 9 -87 18
-113 22 -27 3 -57 15 -68 26 -10 10 -19 32 -19 48 0 16 20 87 44 157 24 71 60
174 80 229 21 55 42 118 48 140 6 22 21 80 34 128 13 48 24 108 24 132 0 24
-4 55 -10 70 -5 14 -24 44 -41 65 -21 26 -43 42 -65 46 -18 3 -41 3 -51 0 -10
-3 -25 -19 -34 -34 -10 -18 -30 -32 -55 -40 -21 -6 -53 -24 -71 -39 -24 -22
-37 -47 -56 -113 -14 -47 -28 -100 -32 -117 -4 -19 -18 -41 -35 -53 -16 -11
-38 -35 -48 -53 -11 -17 -34 -86 -51 -152 -16 -66 -41 -162 -55 -214 -14 -51
-34 -108 -44 -125 -10 -17 -31 -37 -47 -45 -23 -11 -41 -12 -89 -3 -34 6 -118
11 -188 12 -121 1 -130 2 -185 31 -47 25 -67 30 -113 28 -30 -2 -65 2 -77 9
-12 7 -31 25 -42 40 -11 16 -31 63 -45 105 -14 41 -32 90 -42 109 -9 18 -37
62 -63 98 -42 59 -46 70 -45 120 0 45 9 70 43 135 24 44 47 85 51 90 4 6 19
39 33 75 14 36 28 89 32 118 4 29 18 74 31 100 13 26 24 61 24 77 0 17 -4 35
-8 40 -4 6 -22 23 -40 38 -21 17 -45 27 -65 27 -18 0 -41 -6 -51 -12z m-16790
-628 c32 -33 57 -72 64 -97 10 -32 10 -61 2 -126 -6 -46 -23 -118 -38 -158
-14 -41 -38 -108 -53 -149 -15 -41 -37 -91 -49 -110 -12 -19 -22 -42 -22 -50
0 -9 -11 -31 -23 -50 -13 -19 -32 -58 -41 -87 -13 -39 -37 -74 -97 -137 -43
-47 -79 -90 -79 -94 0 -5 -11 -21 -25 -36 -14 -15 -30 -37 -37 -51 -7 -13 -35
-39 -63 -59 -27 -20 -72 -48 -98 -64 -27 -15 -69 -43 -94 -63 -24 -20 -81 -55
-126 -77 -45 -22 -98 -44 -117 -47 -19 -4 -53 -18 -75 -30 -22 -13 -80 -31
-130 -40 -49 -10 -112 -23 -139 -31 -41 -11 -54 -11 -75 1 -14 7 -34 21 -43
32 -9 10 -28 43 -42 73 -14 30 -26 67 -26 82 0 15 11 62 25 105 13 43 27 98
31 123 4 25 17 87 30 139 20 81 29 100 62 135 22 23 43 55 46 71 4 17 26 73
48 125 24 56 55 112 78 136 21 23 43 51 49 62 6 12 21 27 32 33 12 6 50 15 86
20 36 5 77 18 92 28 14 10 47 26 73 36 33 12 54 29 72 56 14 21 41 46 58 55
18 9 51 31 73 49 22 18 54 40 72 49 17 9 38 24 45 35 7 10 29 28 48 40 19 11
76 33 125 50 50 16 102 32 116 35 14 3 38 17 52 30 18 17 33 23 45 18 9 -4 40
-32 68 -62z m10037 -341 c-3 -42 -16 -106 -31 -147 -21 -61 -32 -78 -61 -97
-20 -12 -53 -43 -73 -67 -27 -32 -60 -56 -115 -83 -43 -21 -112 -51 -153 -66
-54 -21 -93 -29 -139 -29 -47 0 -79 -7 -123 -27 -53 -23 -65 -25 -115 -17 -49
8 -58 13 -65 36 -8 22 -3 38 29 91 21 36 62 101 92 146 30 45 58 81 64 81 5 0
32 22 60 50 29 27 68 66 87 85 29 29 42 35 78 35 24 0 61 9 85 21 23 12 59 33
81 48 25 17 75 33 145 47 l106 21 26 -27 c25 -26 26 -32 22 -101z m-1927 -124
c-3 -44 -12 -125 -19 -180 -11 -79 -21 -113 -48 -164 -19 -35 -51 -78 -72 -95
-33 -26 -50 -32 -125 -39 -48 -5 -114 -10 -147 -11 -33 -1 -70 -7 -82 -14 -12
-7 -45 -12 -74 -12 -29 0 -67 -5 -85 -12 -26 -9 -36 -9 -48 1 -9 8 -16 24 -16
38 0 17 24 49 75 103 41 43 75 85 75 93 0 9 15 27 33 41 17 14 63 51 101 83
38 32 99 88 136 124 43 42 94 80 139 102 38 19 80 42 92 51 21 15 25 14 47 -7
23 -21 24 -26 18 -102z m5823 66 c20 -11 43 -26 50 -35 7 -8 17 -31 21 -51 7
-29 4 -41 -16 -68 -13 -17 -32 -49 -41 -69 -9 -21 -19 -38 -23 -38 -5 0 -39
-24 -76 -53 -38 -30 -104 -73 -147 -96 -56 -31 -85 -41 -102 -37 -14 4 -31 20
-40 36 -9 17 -15 56 -15 95 0 36 6 80 14 98 7 18 34 50 59 72 25 22 66 58 93
80 26 22 65 50 88 62 23 12 54 22 69 23 15 0 45 -9 66 -19z"/>
<path d="M27937 2631 c-20 -31 -33 -39 -66 -45 -31 -5 -44 -13 -54 -34 -8 -15
-19 -78 -26 -140 -7 -68 -9 -166 -5 -245 3 -73 10 -148 15 -168 6 -25 23 -48
52 -71 23 -19 52 -40 64 -47 15 -7 80 -11 195 -10 140 2 181 5 213 19 22 10
56 25 76 33 25 11 39 24 43 43 4 15 2 40 -5 56 -6 16 -24 35 -40 43 -15 8 -47
15 -71 15 -24 1 -67 9 -97 19 -29 10 -58 25 -63 32 -5 8 -6 78 -3 164 l6 150
-35 70 c-20 39 -36 77 -36 87 0 9 -14 28 -31 42 -21 18 -42 26 -68 26 -33 0
-42 -5 -64 -39z"/>
<path d="M5902 2239 c-39 -18 -83 -43 -97 -57 -14 -13 -37 -50 -52 -81 -26
-52 -28 -64 -28 -186 0 -71 4 -147 8 -169 6 -26 25 -56 60 -93 28 -30 64 -61
79 -69 17 -9 59 -14 112 -14 l86 0 57 52 c32 28 61 61 66 71 4 11 5 35 1 53
-3 18 -26 56 -50 84 -31 37 -44 61 -45 83 0 18 0 80 1 139 1 81 -3 116 -15
142 -9 19 -24 41 -34 50 -9 9 -31 18 -47 21 -19 3 -53 -5 -102 -26z"/>
<path d="M27712 1056 c-13 -7 -33 -30 -45 -51 -12 -21 -29 -41 -37 -45 -8 -4
-32 -15 -52 -23 -30 -13 -43 -29 -74 -91 -34 -70 -36 -80 -31 -136 4 -33 17
-79 29 -103 12 -23 25 -66 29 -95 4 -30 19 -71 33 -92 18 -28 37 -43 65 -51
31 -9 64 -9 143 0 56 6 112 18 124 26 12 8 31 29 42 47 11 18 23 56 26 83 4
29 0 101 -9 170 -8 66 -25 149 -37 185 -11 36 -32 84 -45 108 -14 23 -36 51
-50 62 -14 11 -40 20 -57 20 -17 -1 -41 -7 -54 -14z"/>
</g>
</svg>
