<?xml version="1.0" standalone="no"?>
<!DOCTYPE svg PUBLIC "-//W3C//DTD SVG 20010904//EN"
 "http://www.w3.org/TR/2001/REC-SVG-20010904/DTD/svg10.dtd">
<svg version="1.0" xmlns="http://www.w3.org/2000/svg"
 width="469pt" height="165pt" viewBox="0 0 469 165"
 preserveAspectRatio="xMidYMid meet">
<metadata>
Created by POTRACE VERSION, written by Peter Selinger 2001-2007
</metadata>
<g transform="translate(0,165) scale(0.030871,-0.030871)"
fill="#000000" stroke="none">
<path d="M8825 5220 c-3 -4 -42 -9 -87 -10 -46 0 -90 -2 -98 -2 -8 0 -20 -5
-26 -10 -6 -4 -18 -6 -27 -2 -8 3 -18 1 -22 -5 -4 -8 25 -12 92 -13 54 -1 112
-3 128 -3 17 -1 37 -4 45 -7 8 -4 32 -9 53 -12 21 -3 59 -15 83 -27 35 -16 51
-32 70 -72 15 -29 28 -75 31 -106 4 -44 -1 -71 -22 -126 -14 -38 -34 -81 -43
-95 -9 -14 -29 -60 -43 -104 l-26 -78 23 -27 c16 -19 20 -31 13 -42 -8 -12
-10 -12 -19 1 -5 8 -10 21 -10 28 0 6 -7 12 -15 12 -8 0 -15 -7 -15 -15 0 -9
-11 -21 -25 -27 -21 -9 -22 -13 -10 -22 12 -9 12 -19 4 -51 -6 -22 -14 -58
-19 -80 -5 -22 -12 -52 -16 -68 -3 -15 -10 -30 -15 -33 -5 -3 -9 -17 -9 -32 0
-15 -15 -53 -34 -84 -19 -31 -43 -66 -53 -78 -10 -12 -45 -49 -78 -82 -33 -33
-69 -64 -80 -69 -11 -5 -38 -20 -60 -34 -22 -14 -51 -30 -65 -36 -14 -6 -61
-13 -105 -16 -80 -4 -81 -4 -130 32 -28 21 -64 56 -82 80 -17 23 -37 60 -43
82 -7 21 -10 64 -7 94 3 30 8 68 12 84 4 17 13 44 21 61 8 18 21 35 30 38 8 3
12 11 8 17 -4 7 1 18 11 25 10 8 16 16 13 19 -3 3 -16 -6 -29 -19 -13 -13 -29
-30 -34 -38 -6 -7 -18 -25 -28 -40 -9 -15 -24 -53 -32 -85 -8 -31 -15 -74 -15
-95 0 -20 10 -63 21 -94 15 -39 39 -75 79 -115 31 -33 63 -59 70 -59 7 0 21
-7 30 -15 11 -10 40 -16 86 -17 38 -1 87 4 109 11 22 8 48 17 57 22 10 5 24 9
32 9 8 0 34 8 58 19 24 10 69 44 101 75 32 31 65 56 74 56 14 0 15 -9 8 -67
-4 -38 -9 -95 -12 -128 -2 -33 -6 -163 -7 -290 -1 -126 -3 -240 -4 -252 -2
-20 -7 -23 -50 -23 -26 0 -52 -4 -57 -9 -6 -5 -55 -23 -110 -39 -55 -16 -119
-33 -142 -37 -26 -4 -55 -18 -73 -35 -16 -15 -30 -35 -30 -44 0 -9 6 -13 14
-10 8 3 17 12 20 20 3 8 15 14 27 14 11 0 62 14 111 30 50 17 93 29 95 26 3
-2 19 2 38 9 18 8 35 12 38 9 3 -3 18 1 34 9 15 8 50 18 76 22 l48 7 -15 -35
c-8 -20 -13 -44 -10 -54 2 -10 7 -52 10 -93 3 -41 7 -109 9 -150 2 -41 6 -97
9 -125 3 -27 17 -133 32 -235 14 -102 31 -210 37 -240 11 -49 15 -55 39 -58
21 -3 30 3 42 25 11 22 13 57 10 158 -3 72 -5 139 -6 150 -1 11 -1 58 0 105 1
47 -1 166 -3 265 -2 99 -7 201 -10 228 -3 26 -1 55 4 66 6 10 27 22 48 27 21
4 42 6 47 5 5 -1 16 1 25 5 9 4 27 8 41 10 14 1 75 9 135 18 61 9 146 17 190
17 44 0 114 -2 155 -5 41 -3 86 -12 99 -18 21 -12 23 -17 17 -67 -4 -30 -12
-61 -18 -68 -6 -8 -15 -35 -20 -61 -5 -26 -16 -87 -24 -137 -8 -49 -19 -119
-24 -155 -5 -36 -14 -83 -19 -105 -6 -22 -13 -110 -16 -195 -4 -85 -8 -161
-10 -167 -2 -7 3 -26 13 -43 9 -16 20 -30 23 -30 3 0 14 10 25 23 11 12 26 40
33 62 7 22 19 54 26 70 7 17 20 53 29 82 9 28 16 59 16 67 0 9 11 39 24 68 14
29 29 70 35 91 5 21 7 45 4 53 -3 7 2 16 10 20 9 3 15 18 15 40 0 19 6 49 13
67 7 18 21 43 31 56 10 13 16 27 13 30 -4 3 -10 -1 -15 -9 -5 -8 -12 -11 -16
-7 -4 3 -2 46 3 95 8 67 7 105 -3 152 -7 34 -18 76 -25 91 -8 21 -19 29 -38
31 -14 0 -39 2 -56 3 -16 1 -73 3 -126 5 -52 2 -100 1 -106 -3 -5 -3 -54 -9
-109 -12 -54 -3 -144 -8 -199 -12 -55 -3 -113 -5 -129 -5 -16 1 -35 -3 -42 -9
-7 -6 -28 -9 -46 -7 l-33 3 -1 265 c0 146 5 329 12 408 7 78 18 160 25 180 6
20 15 48 20 62 4 14 13 44 19 68 6 24 28 80 50 125 21 45 50 94 65 110 14 15
30 25 34 22 5 -2 39 2 77 10 38 8 98 21 133 29 35 8 76 20 92 26 15 7 32 9 38
6 5 -4 25 0 43 8 18 7 49 18 68 24 19 6 67 18 105 27 39 9 90 26 115 38 25 12
61 26 80 32 34 11 35 13 33 57 -2 32 -14 65 -42 112 -21 37 -55 84 -74 104
-19 20 -58 57 -86 82 -28 24 -66 49 -83 56 -18 6 -55 16 -83 20 -36 7 -73 4
-135 -8 -47 -9 -101 -25 -120 -35 -19 -10 -37 -21 -40 -25 -3 -4 -22 -18 -42
-32 -20 -13 -39 -22 -42 -18 -3 3 -6 15 -6 27 0 12 -20 44 -45 71 -24 27 -45
52 -45 55 0 4 -8 9 -17 13 -10 3 -25 9 -33 14 -8 5 -25 14 -37 20 -13 7 -32
12 -44 12 -11 0 -28 4 -37 9 -9 4 -34 11 -54 14 -21 3 -40 2 -43 -3z m715
-161 c0 -6 9 -5 20 1 17 9 28 7 54 -9 18 -12 41 -21 50 -21 9 0 19 -6 22 -14
3 -7 25 -28 50 -46 25 -18 50 -42 55 -54 5 -11 13 -28 18 -36 4 -8 20 -40 35
-71 14 -31 26 -63 26 -71 0 -8 -8 -22 -18 -31 -10 -9 -49 -28 -88 -43 -38 -14
-98 -34 -134 -44 -36 -10 -78 -23 -94 -29 -16 -7 -41 -13 -55 -15 -14 -2 -46
-8 -71 -14 -25 -5 -75 -13 -112 -17 -37 -4 -70 -11 -73 -16 -4 -5 -24 -9 -46
-9 -35 0 -39 3 -39 24 0 14 5 28 10 31 6 3 10 19 10 34 0 15 5 32 11 38 5 5
13 61 16 122 5 95 9 113 25 122 10 5 18 15 18 21 0 6 11 26 25 44 13 17 46 42
72 55 27 12 55 28 63 35 8 6 40 16 70 21 30 5 61 7 68 5 6 -2 12 -8 12 -13z
m-700 -1753 c0 -3 -4 -8 -10 -11 -5 -3 -10 -1 -10 4 0 6 5 11 10 11 6 0 10 -2
10 -4z m35 -304 c0 -7 -4 -13 -10 -14 -5 -1 -12 6 -13 16 -3 12 1 17 10 14 7
-3 13 -10 13 -16z m20 -570 c-2 -2 -9 -1 -14 3 -6 3 -8 11 -5 17 4 6 9 5 15
-3 4 -7 6 -15 4 -17z"/>
<path d="M8445 5183 c-16 -2 -55 -9 -85 -15 -42 -8 -50 -12 -35 -18 11 -4 47
-1 79 7 33 7 66 11 73 9 7 -3 20 -3 28 0 8 4 15 10 15 15 0 5 -10 8 -22 8 -13
-1 -36 -4 -53 -6z"/>
<path d="M8155 5125 c-5 -1 -36 -8 -67 -15 -32 -6 -58 -16 -58 -22 0 -6 9 -8
23 -4 12 4 44 11 72 16 27 6 54 15 59 20 7 7 5 10 -4 9 -8 0 -19 -2 -25 -4z"/>
<path d="M7955 5079 c-22 -5 -57 -14 -77 -20 -21 -5 -38 -14 -38 -20 0 -6 10
-8 23 -4 12 3 38 12 57 20 19 7 51 18 70 23 19 5 28 10 20 10 -8 0 -33 -4 -55
-9z"/>
<path d="M7718 5018 c-32 -11 -58 -24 -58 -29 0 -5 6 -9 14 -9 8 0 48 13 88
30 55 22 65 29 43 28 -16 0 -56 -9 -87 -20z"/>
<path d="M7626 4993 c-4 -5 -22 -13 -39 -20 l-32 -11 28 -1 c16 -1 37 4 48 9
10 6 19 15 19 20 0 6 -4 10 -8 10 -5 0 -12 -3 -16 -7z"/>
<path d="M7498 4944 c-16 -8 -28 -17 -28 -20 0 -2 12 -1 28 2 15 4 34 13 42
20 13 12 13 14 0 14 -8 -1 -27 -8 -42 -16z"/>
<path d="M7428 4923 c-16 -2 -28 -8 -28 -13 0 -4 6 -10 14 -13 8 -3 22 3 32
14 9 10 15 18 13 18 -2 -1 -16 -4 -31 -6z"/>
<path d="M7360 4889 c0 -5 5 -7 10 -4 6 3 10 8 10 11 0 2 -4 4 -10 4 -5 0 -10
-5 -10 -11z"/>
<path d="M7263 4862 c-23 -9 -45 -20 -49 -24 -4 -5 3 -8 15 -8 12 0 40 9 61
20 22 11 40 23 40 25 0 3 -6 5 -12 4 -7 0 -32 -8 -55 -17z"/>
<path d="M7161 4821 c-14 -4 -26 -12 -29 -19 -2 -6 -1 -12 3 -12 3 0 19 7 35
15 17 9 30 18 30 20 0 3 -3 5 -7 4 -5 -1 -19 -4 -32 -8z"/>
<path d="M7065 4783 c-11 -3 -29 -12 -40 -19 -14 -10 -16 -14 -5 -15 8 -1 21
-1 28 0 8 1 28 11 45 22 25 14 27 19 12 18 -11 -1 -29 -4 -40 -6z"/>
<path d="M6950 4730 c-8 -5 -68 -35 -132 -66 -65 -32 -116 -60 -114 -62 2 -1
28 5 57 14 29 10 61 26 71 36 10 10 47 30 83 44 36 14 68 30 71 35 3 5 -1 9
-8 8 -7 0 -20 -4 -28 -9z"/>
<path d="M6660 4579 c0 -5 5 -7 10 -4 6 3 10 8 10 11 0 2 -4 4 -10 4 -5 0 -10
-5 -10 -11z"/>
<path d="M6580 4548 c-19 -11 -54 -34 -77 -49 -23 -16 -44 -29 -48 -29 -3 0
-27 -16 -53 -35 -26 -19 -51 -38 -57 -43 -5 -4 -18 -11 -27 -15 -10 -3 -18
-16 -18 -27 0 -11 4 -20 8 -20 5 0 27 17 49 38 22 20 50 45 63 55 13 9 29 17
36 17 7 0 14 6 17 14 3 8 20 21 38 30 18 9 40 16 51 16 10 0 18 4 18 10 0 5
14 16 30 25 17 9 30 20 30 25 0 6 -6 10 -12 9 -7 0 -29 -10 -48 -21z"/>
<path d="M7129 4501 c-8 -9 -26 -25 -40 -34 -23 -17 -24 -21 -27 -175 -2 -86
-8 -161 -12 -166 -5 -5 -4 -18 2 -29 6 -12 11 -93 12 -194 2 -143 0 -175 -12
-182 -12 -7 -12 -11 1 -32 12 -19 14 -40 7 -104 -4 -44 -11 -87 -14 -96 -4
-10 -3 -20 2 -23 5 -3 8 -49 6 -103 -2 -54 -4 -118 -3 -143 0 -25 0 -205 -1
-400 0 -195 -1 -477 -3 -627 -1 -183 1 -275 9 -283 7 -7 21 -6 47 5 26 11 38
22 39 38 1 12 2 31 3 42 1 11 7 52 14 90 6 39 14 90 16 115 3 25 8 74 11 110
4 36 10 70 15 76 5 6 12 74 14 150 3 77 7 177 11 224 3 47 7 103 8 125 2 22 6
123 10 225 5 102 12 190 17 196 5 6 4 15 -2 21 -7 7 -9 43 -5 105 4 51 8 134
9 183 1 50 6 95 10 102 4 7 8 50 8 95 1 46 1 101 0 123 0 22 0 67 -1 100 0 33
-5 87 -10 120 -5 33 -10 97 -12 143 -1 46 -5 85 -10 88 -4 3 -8 14 -8 25 0 11
-7 34 -17 52 -9 18 -23 37 -32 44 -9 7 -23 12 -31 12 -8 0 -22 -8 -31 -18z
m76 -571 c3 -5 1 -10 -4 -10 -6 0 -11 5 -11 10 0 6 2 10 4 10 3 0 8 -4 11 -10z"/>
<path d="M14902 4487 c-12 -13 -33 -61 -47 -108 -13 -46 -25 -92 -25 -101 0
-9 -10 -38 -22 -65 -11 -26 -23 -65 -24 -86 -2 -20 -11 -51 -19 -67 -8 -16
-15 -43 -15 -59 0 -17 -7 -56 -15 -88 -9 -32 -18 -84 -22 -115 -5 -50 -9 -58
-32 -67 -16 -6 -20 -10 -9 -10 9 -1 21 -9 27 -18 5 -10 6 -24 2 -33 -5 -8 -12
-42 -16 -75 -4 -33 -9 -73 -11 -90 -2 -16 -5 -48 -7 -70 -2 -22 1 -46 6 -52 6
-9 5 -18 -3 -28 -7 -8 -18 -15 -25 -15 -7 0 -23 -16 -36 -35 -13 -19 -29 -35
-36 -35 -6 0 -40 -28 -75 -62 -35 -35 -86 -91 -113 -125 -28 -35 -53 -63 -57
-63 -5 0 -8 -7 -8 -16 0 -9 -18 -38 -41 -65 -26 -31 -49 -49 -63 -49 -12 0
-32 7 -44 16 -12 8 -22 25 -22 36 0 12 8 31 19 42 10 12 26 42 36 69 10 26 29
59 43 74 16 17 26 41 28 66 1 21 9 46 17 55 8 10 18 40 22 67 4 28 11 58 17
68 5 10 11 41 13 70 2 29 9 84 15 122 6 39 11 81 11 95 0 14 -2 66 -5 115 -4
50 -6 116 -5 148 0 33 -4 81 -10 108 -6 27 -16 73 -22 102 -6 28 -17 69 -26
90 -12 27 -22 37 -39 37 -12 0 -36 -12 -53 -27 -16 -16 -33 -41 -37 -56 -3
-16 -15 -34 -25 -40 -11 -7 -19 -23 -19 -39 0 -16 -9 -37 -20 -48 -11 -11 -20
-33 -20 -50 0 -16 -8 -44 -18 -62 -10 -18 -26 -62 -37 -98 -10 -36 -22 -69
-26 -75 -4 -5 -9 -35 -12 -65 -3 -30 -10 -80 -16 -110 -6 -30 -12 -75 -14
-100 -2 -25 -11 -94 -20 -155 -13 -85 -15 -128 -8 -190 5 -44 15 -102 22 -130
6 -27 11 -63 11 -80 -1 -16 -10 -35 -19 -42 -10 -7 -24 -18 -32 -25 -8 -7 -26
-20 -39 -30 -14 -9 -30 -14 -37 -12 -7 3 -28 -5 -48 -16 -29 -17 -45 -20 -76
-15 -22 3 -47 13 -58 20 -10 8 -25 15 -34 15 -9 0 -20 7 -23 16 -3 9 -6 25 -6
36 0 12 7 26 16 32 9 7 23 41 31 76 9 36 16 86 15 112 0 32 -8 56 -23 77 -13
17 -27 31 -32 31 -5 0 -21 -9 -37 -20 -15 -11 -42 -50 -60 -87 -18 -38 -37
-79 -42 -93 -6 -14 -14 -33 -20 -43 -5 -10 -8 -49 -6 -87 1 -39 -2 -74 -7 -79
-6 -6 -38 -23 -72 -40 -34 -17 -77 -33 -96 -36 -22 -4 -38 -1 -42 6 -4 6 -9
35 -10 63 -3 43 4 65 43 146 26 52 50 96 54 98 4 2 15 19 24 39 15 30 15 36 3
44 -8 5 -27 6 -44 3 -16 -4 -37 -14 -45 -23 -8 -9 -28 -36 -43 -59 -16 -24
-30 -55 -31 -68 -2 -14 -13 -32 -25 -40 -12 -9 -19 -19 -16 -24 3 -5 1 -11 -4
-14 -5 -3 -12 -48 -16 -100 -5 -63 -4 -100 4 -115 8 -15 21 -21 44 -21 18 0
38 -5 45 -12 8 -8 15 -8 24 0 7 6 33 17 58 26 25 9 52 16 61 16 8 0 28 14 44
30 16 17 35 30 42 30 7 0 13 -5 13 -11 0 -6 6 -9 14 -6 8 3 27 -5 43 -19 15
-13 36 -27 46 -30 10 -3 24 0 32 6 11 9 22 9 48 0 28 -11 38 -10 65 4 17 9 40
16 51 16 11 0 23 5 26 10 3 6 28 10 54 10 30 0 53 5 61 15 6 8 21 17 33 21 11
4 39 20 61 36 35 25 47 29 86 24 25 -3 64 -7 88 -10 24 -3 49 -10 57 -16 7 -6
11 -20 8 -30 -4 -13 7 -35 30 -64 35 -42 37 -43 89 -40 29 1 76 4 103 5 28 1
59 8 70 15 11 8 26 14 34 14 7 0 53 16 102 35 48 19 104 44 125 55 l37 21 43
-22 c24 -12 50 -19 60 -15 12 4 15 13 10 31 -3 14 -9 36 -12 50 -5 20 -2 25
19 30 20 5 32 22 53 73 15 37 33 74 40 82 7 8 18 35 24 60 6 25 15 61 19 81 4
20 7 121 6 225 -2 104 -6 241 -9 304 -4 63 -9 122 -12 130 -4 8 -8 62 -11 120
-2 58 -9 119 -14 137 -6 18 -15 69 -21 115 -6 46 -12 123 -12 171 -1 75 -4 91
-21 103 -10 8 -26 14 -35 14 -9 0 -26 -10 -38 -23z m63 -388 c-3 -5 0 -19 7
-31 7 -13 13 -48 15 -78 1 -30 5 -111 9 -180 4 -69 7 -209 5 -313 -1 -103 -7
-211 -12 -240 -6 -28 -11 -64 -12 -78 -1 -14 -8 -33 -15 -41 -7 -9 -11 -29
-10 -45 1 -16 -6 -47 -16 -69 -11 -21 -24 -42 -30 -46 -6 -4 -16 -8 -22 -8 -7
0 -14 25 -16 63 -3 34 -1 67 3 73 6 7 3 16 -6 24 -12 10 -16 33 -15 94 0 45 0
110 0 146 1 36 3 103 6 150 3 47 8 92 11 100 4 8 7 20 8 25 1 6 5 36 9 68 4
31 10 57 14 57 4 0 8 12 8 28 1 15 6 80 11 144 5 65 15 123 22 132 7 8 10 24
6 35 -3 12 -3 26 1 33 5 7 10 4 16 -11 4 -13 6 -27 3 -32z m-680 -116 c4 -38
9 -97 10 -133 2 -39 -3 -84 -12 -112 -12 -38 -13 -57 -4 -95 6 -27 9 -58 7
-71 -3 -12 -8 -27 -11 -32 -4 -6 -9 -32 -11 -58 -3 -26 -10 -60 -16 -77 -6
-16 -16 -43 -23 -60 -8 -16 -23 -56 -35 -87 -12 -32 -26 -60 -31 -64 -5 -3 -7
-14 -4 -24 4 -12 -1 -22 -12 -28 -9 -6 -17 -22 -18 -38 0 -15 -5 -29 -11 -31
-8 -3 -13 14 -16 44 -2 26 0 73 4 103 4 30 10 96 13 145 3 50 12 131 21 180 8
50 19 99 24 110 5 11 11 49 14 84 3 35 11 70 16 76 6 7 10 17 9 21 -1 5 2 28
6 52 4 23 12 45 16 48 5 3 9 23 9 44 0 21 3 45 6 54 3 9 14 16 24 16 14 0 19
-13 25 -67z m394 -790 c10 -21 26 -62 35 -92 9 -30 16 -66 16 -79 0 -14 13
-50 28 -81 16 -31 27 -62 25 -68 -3 -7 -11 -13 -19 -13 -8 0 -25 -9 -37 -20
-12 -11 -39 -25 -62 -31 -22 -6 -52 -17 -67 -25 -14 -8 -40 -14 -57 -14 -18 0
-34 -6 -37 -15 -4 -10 -20 -13 -59 -12 -42 2 -59 8 -75 25 -12 13 -20 32 -18
45 2 15 9 21 21 19 11 -2 26 3 35 12 10 8 29 17 44 21 14 4 34 15 44 26 9 10
15 21 13 24 -3 2 -25 -2 -49 -9 -25 -7 -55 -12 -67 -12 -13 1 -26 6 -30 10 -4
4 -3 10 2 14 6 4 23 32 38 64 16 31 38 65 49 75 11 10 27 31 35 46 8 16 27 33
44 39 16 5 29 15 29 21 0 6 15 23 33 38 17 16 40 28 49 29 10 0 25 -15 37 -37z"/>
<path d="M8770 4461 l-35 -7 48 -5 c27 -2 46 0 44 5 -2 5 -7 11 -13 11 -5 1
-25 -1 -44 -4z"/>
<path d="M10398 4423 c-8 -10 -21 -34 -28 -53 -7 -19 -14 -58 -15 -86 -2 -45
-7 -56 -39 -85 -36 -34 -37 -34 -56 -179 -10 -80 -18 -187 -16 -239 l2 -95
-38 -37 c-21 -20 -38 -44 -38 -52 0 -12 10 -16 40 -15 23 0 44 -2 47 -6 3 -3
7 -57 8 -120 1 -63 -1 -120 -6 -127 -4 -7 -3 -19 3 -26 7 -8 8 -31 3 -61 -3
-26 -9 -74 -11 -107 -3 -33 -7 -85 -9 -115 -3 -30 -5 -64 -6 -75 -1 -11 2 -65
6 -120 4 -55 14 -115 22 -132 9 -18 21 -33 27 -33 7 0 24 12 38 28 14 15 32
46 42 70 9 23 16 53 16 67 0 13 4 27 10 30 6 4 8 66 5 166 -3 88 -2 165 2 172
4 7 9 41 11 77 1 36 4 88 6 115 1 28 3 78 4 112 1 41 7 67 18 78 14 14 19 14
38 2 11 -8 38 -17 59 -20 l37 -6 -32 27 c-17 15 -50 36 -72 47 -37 18 -42 25
-47 65 -4 25 -2 51 3 57 6 7 7 27 4 45 -3 18 -5 60 -4 93 2 33 2 111 1 174 -2
62 -7 119 -13 126 -5 6 -7 15 -3 18 3 4 5 31 4 60 -1 34 5 67 16 93 13 28 23
38 36 36 9 -2 17 -12 17 -23 0 -11 7 -31 16 -44 12 -19 17 -58 21 -158 2 -72
6 -142 9 -154 2 -13 8 -23 13 -23 5 0 13 24 18 53 5 28 5 81 1 117 -5 36 -10
92 -12 126 -2 34 -11 75 -20 92 -9 17 -26 38 -38 46 -12 9 -37 16 -54 16 -17
0 -38 -8 -46 -17z"/>
<path d="M8305 4400 c-16 -7 -17 -9 -3 -9 9 -1 20 4 23 9 3 6 5 10 3 9 -2 0
-12 -4 -23 -9z"/>
<path d="M840 4361 c-8 -5 -49 -11 -90 -14 -51 -5 -100 -17 -155 -40 -44 -18
-107 -47 -141 -64 -33 -17 -66 -38 -73 -47 -11 -13 -11 -16 2 -16 9 0 19 5 22
10 3 6 17 10 30 10 13 0 56 17 97 38 40 21 79 37 86 34 7 -2 19 1 27 8 8 6 47
14 87 16 44 3 89 0 113 -7 22 -7 60 -26 85 -43 24 -16 70 -57 102 -89 32 -33
58 -65 58 -72 0 -7 3 -15 8 -17 4 -1 14 -19 23 -38 8 -19 25 -55 36 -80 12
-25 25 -67 28 -95 4 -27 10 -86 12 -130 3 -44 5 -89 4 -100 0 -11 0 -47 0 -80
-1 -33 -8 -98 -17 -145 -9 -47 -21 -88 -27 -91 -5 -4 -24 -5 -41 -3 -17 2 -69
10 -116 19 -47 9 -101 19 -120 22 -19 3 -41 10 -47 16 -7 5 -23 7 -35 4 -12
-4 -28 -1 -35 5 -7 6 -62 13 -122 15 -91 4 -121 1 -187 -17 -43 -12 -88 -29
-99 -37 -18 -12 -15 -13 25 -6 25 4 81 7 125 6 44 -1 122 -7 173 -12 52 -6
110 -15 130 -21 20 -5 56 -10 78 -10 23 0 59 -6 81 -14 22 -8 71 -16 108 -19
41 -3 71 -11 76 -19 5 -8 3 -17 -6 -24 -8 -6 -15 -20 -15 -30 -1 -10 -12 -37
-25 -59 -14 -22 -36 -64 -49 -92 -14 -29 -29 -53 -33 -53 -5 0 -40 -30 -78
-66 -39 -36 -96 -79 -127 -95 -32 -16 -67 -29 -78 -29 -11 0 -31 -6 -43 -14
-12 -8 -47 -19 -79 -26 -31 -6 -90 -9 -134 -5 -42 3 -82 9 -88 14 -6 5 -27 14
-47 20 -20 6 -45 21 -54 31 -10 11 -22 20 -26 20 -5 0 -18 8 -29 17 -11 10
-20 22 -20 27 0 5 -10 20 -21 32 -12 13 -26 42 -32 66 -5 24 -9 73 -8 109 0
37 8 82 16 100 8 19 30 45 49 59 20 14 36 28 36 33 0 4 -5 7 -11 7 -5 0 -30
-19 -55 -42 -34 -33 -48 -56 -59 -98 -8 -30 -15 -66 -15 -80 0 -14 11 -56 25
-94 14 -38 41 -89 61 -112 19 -24 39 -44 43 -44 4 0 16 -8 27 -19 11 -10 41
-28 66 -39 32 -14 79 -22 166 -27 66 -4 126 -3 134 1 7 5 33 10 57 12 24 2 72
17 106 33 34 16 67 29 74 29 6 0 28 11 49 25 20 13 53 40 72 60 19 19 40 35
47 35 7 0 13 6 13 13 0 8 11 24 25 37 14 13 25 29 25 36 0 7 9 18 20 24 11 6
20 16 20 22 0 6 16 28 35 49 19 22 35 43 35 48 0 5 10 13 22 17 13 4 28 14 34
22 8 11 15 12 31 4 15 -8 47 -6 129 10 60 11 116 24 125 29 9 4 35 5 59 2 l42
-6 -6 -41 c-4 -23 -11 -42 -16 -44 -6 -2 -6 -10 -1 -20 5 -9 6 -57 3 -107 -3
-49 -5 -200 -4 -335 0 -135 4 -294 8 -355 3 -60 7 -132 8 -160 1 -27 5 -56 9
-63 5 -7 5 -27 2 -45 -4 -17 -14 -40 -23 -50 -9 -10 -32 -25 -51 -34 -20 -8
-51 -22 -68 -30 -18 -7 -39 -13 -45 -12 -7 1 -22 -1 -33 -5 -11 -4 -32 -14
-47 -22 -14 -8 -38 -14 -52 -14 -16 0 -26 -6 -26 -15 0 -8 -9 -15 -20 -15 -11
0 -39 -7 -62 -16 -24 -9 -48 -22 -53 -28 -6 -6 -29 -21 -52 -33 -23 -13 -53
-23 -66 -23 -13 0 -48 -13 -78 -28 -30 -15 -70 -38 -89 -50 -19 -12 -42 -22
-50 -22 -8 0 -26 -9 -38 -18 l-24 -19 19 -35 19 -35 28 24 c16 14 38 23 51 21
12 -1 34 4 49 11 14 8 26 18 26 22 0 4 17 13 38 19 20 7 55 20 77 30 22 10 65
28 95 40 30 12 64 26 75 30 11 5 36 14 55 21 19 7 42 17 50 23 8 6 25 17 37
23 12 7 40 16 62 19 23 4 46 13 52 20 6 8 16 14 22 14 6 0 28 12 48 26 31 21
41 24 58 15 11 -7 23 -22 26 -34 2 -12 7 -76 10 -142 3 -66 10 -145 15 -175 6
-30 12 -133 15 -228 2 -96 9 -206 15 -245 6 -40 16 -88 21 -108 5 -20 9 -50 9
-67 0 -17 9 -80 21 -139 12 -59 22 -128 24 -153 1 -25 6 -75 10 -112 4 -38 13
-84 20 -103 7 -21 9 -53 5 -78 -3 -23 -5 -69 -4 -102 2 -33 9 -78 17 -100 8
-22 22 -44 30 -49 9 -6 31 -6 58 0 32 6 47 16 56 34 6 14 12 54 13 90 0 36 -2
106 -5 155 -3 50 -7 128 -9 175 -2 47 -6 92 -9 100 -3 8 -13 60 -21 115 -9 55
-21 143 -27 195 -5 52 -14 111 -19 130 -5 19 -11 91 -14 158 -3 68 -8 127 -10
130 -2 4 -7 67 -10 140 -3 74 -9 138 -12 144 -3 5 -8 53 -9 106 -2 53 -7 126
-10 162 -6 64 -6 66 24 88 17 12 37 22 46 22 8 0 15 3 15 8 0 4 17 13 38 20
20 8 53 16 72 19 19 3 41 12 48 21 7 9 34 22 60 29 26 8 54 15 62 16 8 2 35
13 60 25 25 12 63 25 85 28 22 4 74 17 115 30 41 13 84 24 97 24 12 0 25 5 28
10 3 6 19 10 34 10 15 0 32 5 38 11 6 6 39 13 72 15 34 2 75 11 92 20 22 11
28 19 21 26 -7 7 -25 8 -49 2 -21 -4 -59 -6 -85 -5 -26 2 -64 -3 -85 -9 -21
-7 -46 -16 -55 -21 -10 -5 -61 -14 -115 -20 -53 -6 -108 -17 -122 -25 -15 -8
-33 -18 -41 -23 -8 -4 -24 -12 -35 -18 -11 -5 -46 -10 -78 -11 -41 -2 -69 -9
-96 -27 -26 -16 -49 -23 -70 -20 -20 3 -33 -1 -39 -11 -5 -9 -21 -17 -36 -18
-14 -2 -35 -11 -45 -20 -9 -9 -25 -16 -33 -16 -9 0 -20 6 -26 13 -5 6 -13 32
-16 57 -3 25 -8 110 -11 190 -3 80 -9 199 -14 265 -5 66 -9 226 -8 355 2 162
6 242 14 256 9 15 39 29 105 48 51 15 111 32 133 37 22 6 47 16 55 23 8 6 40
20 70 30 30 10 83 29 118 43 34 14 62 30 62 35 0 5 -14 7 -32 3 -18 -4 -64
-22 -103 -40 -38 -17 -95 -39 -125 -48 -30 -8 -99 -25 -152 -36 -54 -12 -102
-21 -107 -21 -5 0 -11 12 -14 28 -3 15 0 33 6 40 6 8 12 37 13 65 1 29 6 72
11 97 5 25 15 55 22 68 6 12 9 27 6 32 -3 5 6 53 20 106 14 53 32 108 39 123
7 14 19 44 26 66 7 22 22 50 34 63 11 13 20 25 19 28 -2 2 -3 10 -3 18 0 8 28
44 63 80 35 36 68 66 74 66 6 0 13 7 17 15 3 8 15 15 26 15 11 0 34 10 49 21
16 12 34 18 40 14 7 -4 17 -2 24 3 7 6 21 11 32 13 11 1 40 -1 65 -5 25 -5 71
-21 102 -37 32 -16 63 -29 70 -29 7 0 30 -18 52 -40 21 -22 42 -40 46 -40 4 0
24 -17 46 -38 21 -20 51 -53 66 -73 14 -19 32 -53 38 -76 10 -31 10 -49 1 -76
-7 -20 -25 -53 -41 -74 -17 -21 -35 -45 -41 -53 -7 -8 -26 -30 -43 -47 -16
-18 -25 -33 -20 -33 5 0 29 17 52 37 23 20 42 42 42 48 0 7 11 24 24 38 13 14
31 36 40 49 10 14 16 44 16 81 0 32 -6 71 -14 85 -8 15 -17 38 -20 52 -3 14
-27 48 -54 75 -26 28 -59 59 -73 70 -13 11 -50 37 -80 58 -31 20 -62 37 -70
37 -8 0 -19 4 -24 9 -6 4 -31 13 -56 19 -25 6 -83 12 -128 13 -70 1 -87 -2
-112 -20 -16 -12 -43 -24 -61 -28 -18 -3 -46 -16 -62 -27 -17 -12 -45 -36 -63
-54 -18 -19 -33 -36 -33 -38 0 -2 -17 -21 -37 -43 -21 -21 -51 -65 -67 -97
-16 -33 -34 -62 -39 -65 -5 -4 -8 -18 -5 -32 4 -18 1 -24 -8 -20 -8 3 -17 -3
-20 -12 -4 -9 -8 -24 -9 -33 -1 -10 -9 -33 -18 -53 -8 -19 -19 -48 -23 -65 -4
-16 -10 -33 -14 -39 -3 -5 -11 -28 -17 -50 -6 -22 -19 -69 -28 -105 -9 -36
-22 -98 -29 -139 -6 -41 -17 -76 -24 -79 -6 -2 -12 -11 -12 -21 0 -14 -13 -16
-112 -15 -62 0 -140 4 -173 9 -33 4 -66 12 -72 17 -7 6 -13 27 -13 47 0 20 7
54 15 77 7 23 17 65 21 95 3 30 8 90 10 134 2 44 -2 121 -8 170 -7 54 -21 112
-36 145 -14 30 -30 69 -37 85 -6 17 -28 53 -49 80 -21 28 -63 74 -94 103 -31
28 -61 52 -68 52 -6 0 -17 7 -24 15 -7 8 -38 22 -69 31 -31 9 -64 20 -73 25
-10 5 -19 9 -20 9 -2 0 -10 -4 -18 -9z m894 -1995 c-3 -9 -10 -13 -16 -10 -5
3 -4 12 3 20 6 8 14 13 16 11 2 -2 1 -12 -3 -21z"/>
<path d="M8210 4360 c-13 -8 -13 -10 2 -10 9 0 20 5 23 10 3 6 3 10 -2 10 -4
0 -15 -5 -23 -10z"/>
<path d="M6166 4248 c-52 -51 -106 -109 -120 -128 -14 -19 -36 -58 -50 -86
-13 -29 -27 -69 -30 -90 -3 -22 -8 -76 -11 -121 -2 -46 -1 -83 4 -83 5 0 12
21 17 48 4 26 8 68 8 94 1 34 7 51 20 61 12 9 19 26 19 46 0 17 4 31 8 31 4 0
14 10 21 23 7 13 24 40 36 60 13 20 28 37 33 37 5 0 9 6 9 14 0 8 7 16 15 20
8 3 15 12 15 20 0 7 7 16 15 20 8 3 20 17 25 31 5 14 16 25 25 25 8 0 24 9 35
20 11 11 20 27 20 35 0 8 -4 15 -9 15 -6 0 -53 -42 -105 -92z"/>
<path d="M6560 4312 c-14 -4 -37 -15 -51 -25 -15 -10 -30 -28 -34 -40 -3 -12
-11 -38 -16 -57 -5 -19 -14 -69 -20 -110 -7 -41 -13 -111 -15 -155 -2 -44 -3
-100 -4 -125 0 -25 -6 -101 -12 -170 -6 -69 -16 -128 -22 -132 -8 -6 -7 -10 2
-16 9 -6 10 -29 6 -85 -4 -42 -10 -77 -15 -77 -4 0 -7 -15 -6 -32 0 -18 -3
-112 -7 -208 -5 -96 -10 -227 -11 -290 -1 -63 -3 -162 -3 -220 -1 -58 -2 -114
-2 -125 -1 -11 -1 -35 -1 -54 0 -19 -6 -46 -13 -60 -10 -20 -11 -49 -4 -119 4
-51 4 -117 0 -146 -5 -29 -5 -84 -1 -122 4 -38 3 -74 -2 -80 -5 -6 -4 -33 1
-65 6 -30 15 -80 21 -111 5 -31 16 -62 24 -68 8 -6 24 -10 36 -8 13 2 29 17
40 38 10 19 26 67 35 105 9 39 21 79 27 89 5 11 12 57 15 103 3 46 9 86 13 89
5 3 9 26 9 52 0 26 9 75 20 110 11 35 17 74 14 88 -3 13 -2 30 3 37 6 6 11 30
12 52 2 22 2 50 2 63 0 12 -1 30 -2 40 0 9 2 51 5 92 3 41 8 100 11 130 2 30
8 78 11 105 4 28 8 109 10 180 2 78 8 146 17 170 8 23 13 72 11 115 -1 41 3
84 8 94 6 11 11 69 13 130 1 61 -2 119 -7 128 -5 10 -4 19 3 23 6 4 7 14 4 24
-4 9 -8 57 -9 106 -1 50 2 96 7 103 6 7 6 17 -1 25 -5 6 -13 44 -16 82 -4 39
-6 85 -6 104 0 19 5 40 10 46 8 9 6 14 -5 19 -11 4 -15 21 -16 58 -1 29 -4 64
-8 78 -5 17 -14 25 -31 27 -14 0 -36 -2 -50 -5z"/>
<path d="M300 4139 l-35 -30 42 20 c23 12 44 25 48 31 3 5 0 10 -7 10 -7 0
-29 -14 -48 -31z"/>
<path d="M240 4090 c-9 -6 -10 -10 -3 -10 6 0 15 5 18 10 3 6 5 10 3 10 -2 0
-10 -5 -18 -10z"/>
<path d="M4673 3935 c-40 -7 -99 -23 -130 -34 -32 -10 -72 -22 -90 -26 -17 -3
-37 -13 -44 -21 -6 -8 -17 -14 -24 -14 -7 0 -51 -16 -97 -36 -45 -20 -102 -45
-125 -55 -23 -10 -44 -23 -47 -28 -3 -5 -24 -18 -46 -30 -22 -12 -46 -21 -53
-21 -7 0 -39 -20 -72 -45 -33 -25 -84 -56 -112 -70 -29 -13 -53 -30 -53 -37 0
-8 -19 -25 -41 -38 -23 -14 -58 -41 -79 -60 -20 -19 -71 -66 -113 -105 -43
-38 -89 -89 -104 -112 -15 -24 -31 -43 -35 -43 -4 0 -15 -16 -23 -36 -8 -21
-21 -42 -28 -48 -8 -6 -26 -54 -41 -107 -23 -80 -27 -111 -25 -195 1 -54 6
-130 12 -169 5 -38 13 -79 18 -90 4 -11 11 -36 15 -55 3 -19 13 -47 20 -62 8
-14 21 -48 30 -74 9 -26 28 -66 42 -88 14 -23 39 -66 55 -96 16 -30 37 -64 48
-76 10 -11 19 -26 19 -33 0 -7 19 -32 43 -54 24 -23 51 -54 60 -69 10 -16 24
-28 32 -28 7 0 17 -9 20 -20 3 -11 10 -20 13 -20 4 0 24 -16 45 -36 20 -20 37
-45 37 -56 0 -14 5 -18 18 -14 12 4 27 -3 42 -18 12 -14 41 -38 64 -53 22 -15
60 -47 84 -70 23 -24 47 -43 52 -43 5 0 11 -9 15 -19 3 -11 22 -29 41 -40 19
-11 37 -28 41 -38 4 -9 22 -30 40 -46 18 -16 33 -35 33 -42 0 -7 7 -15 15 -19
8 -3 15 -12 15 -19 0 -8 7 -20 15 -27 10 -8 15 -30 15 -64 0 -28 -5 -68 -10
-88 -7 -24 -30 -56 -66 -90 -30 -29 -60 -53 -67 -53 -6 -1 -41 -15 -77 -32
-36 -17 -81 -34 -100 -38 -19 -3 -60 -10 -90 -15 -30 -6 -71 -12 -90 -14 -19
-3 -65 -8 -101 -12 -50 -5 -81 -2 -125 11 -33 9 -75 22 -94 29 -23 7 -41 23
-52 44 -14 30 -17 32 -26 16 -7 -13 -6 -26 4 -46 8 -16 36 -39 62 -52 26 -13
72 -29 102 -35 30 -6 89 -13 130 -15 41 -1 80 0 85 5 6 4 51 10 101 12 57 3
101 11 115 20 13 8 39 18 57 22 18 4 38 12 45 18 7 7 27 22 44 35 18 12 41 22
52 22 11 0 40 10 63 22 24 12 50 29 59 37 9 9 28 26 43 38 14 13 26 30 26 39
0 9 10 29 21 46 19 26 21 39 16 109 -3 55 -11 89 -26 111 -11 18 -30 51 -42
72 -12 22 -40 59 -63 82 -22 23 -61 65 -85 92 -24 27 -48 56 -53 65 -5 9 -15
17 -22 17 -8 0 -61 46 -118 103 -56 57 -132 135 -167 175 -36 39 -70 82 -77
95 -7 13 -26 38 -43 56 -16 17 -39 53 -52 79 -12 26 -30 56 -40 68 -11 11 -30
48 -44 82 -14 34 -25 68 -25 77 0 8 -9 24 -19 34 -11 11 -26 43 -35 73 -8 29
-21 80 -28 113 -7 33 -14 71 -15 85 -2 14 -4 66 -4 116 -2 73 2 100 18 135 11
24 27 60 36 79 9 20 31 53 49 74 18 22 42 49 54 61 11 12 28 39 38 59 9 20 23
36 30 36 6 0 26 15 44 33 18 18 32 38 32 45 0 7 4 12 9 12 5 0 19 11 32 25 13
13 27 25 32 25 4 0 27 20 52 45 27 28 54 46 71 47 14 2 36 14 48 29 12 14 33
29 47 32 13 4 36 18 52 32 15 14 32 23 38 20 5 -4 21 0 34 9 13 9 33 16 44 16
11 0 27 10 35 23 9 12 37 32 63 45 26 13 61 30 76 38 16 8 36 14 46 14 9 0 26
7 37 15 10 8 30 15 45 15 14 0 31 6 37 13 7 6 23 13 35 14 12 2 40 4 62 6 22
1 46 6 53 11 7 4 20 5 31 1 10 -3 29 3 44 16 22 17 27 18 27 5 0 -11 10 -16
33 -17 17 -1 51 -3 75 -3 23 -1 42 1 42 6 0 4 7 8 15 8 8 0 15 -6 15 -14 0 -8
21 -33 46 -55 26 -23 50 -41 54 -41 3 0 17 -21 29 -47 12 -27 27 -56 32 -67 7
-11 8 -48 3 -95 -4 -50 -13 -84 -25 -100 -11 -13 -19 -29 -19 -34 0 -6 -9 -20
-20 -32 -11 -11 -41 -42 -66 -70 -26 -27 -51 -50 -58 -50 -6 0 -22 -17 -35
-37 -19 -29 -31 -38 -52 -38 -15 0 -32 -7 -36 -15 -5 -8 -30 -26 -56 -40 -27
-14 -56 -25 -66 -25 -9 0 -21 -4 -26 -9 -6 -4 -25 -13 -44 -20 -24 -8 -45 -8
-71 -1 -20 6 -58 28 -82 50 -25 22 -58 44 -73 50 -18 7 -31 7 -40 0 -6 -5 -10
-24 -7 -42 2 -20 19 -48 40 -70 20 -21 40 -38 46 -38 5 0 17 -7 25 -14 9 -8
34 -15 56 -15 22 -1 65 1 95 4 33 2 59 10 65 19 7 9 20 13 33 9 13 -3 22 -1
22 6 0 6 16 17 35 25 19 8 35 19 35 24 0 6 11 13 25 16 14 4 35 18 47 31 12
14 28 25 35 25 7 0 18 11 23 25 5 13 15 23 22 20 7 -2 28 9 46 25 17 16 32 34
32 40 0 6 11 16 25 22 14 6 25 14 25 18 0 3 13 19 28 36 16 16 41 60 58 99 24
57 29 83 29 150 0 71 -4 87 -33 145 -19 36 -46 75 -60 88 -15 13 -45 32 -67
43 -22 11 -58 27 -80 35 -22 8 -85 17 -140 19 -61 2 -128 -1 -172 -10z m-650
-2239 c3 -8 3 -17 0 -20 -3 -3 -10 -3 -14 0 -5 3 -9 12 -9 20 0 8 4 14 9 14 5
0 11 -6 14 -14z"/>
<path d="M10540 3920 c0 -5 5 -10 10 -10 6 0 10 5 10 10 0 6 -4 10 -10 10 -5
0 -10 -4 -10 -10z"/>
<path d="M9025 3851 c-3 -5 -1 -12 3 -15 5 -3 12 -3 16 1 3 3 6 10 6 15 0 4
-4 8 -9 8 -6 0 -12 -4 -16 -9z"/>
<path d="M2600 3600 c-14 -10 -22 -22 -18 -26 4 -4 19 1 33 10 14 9 25 21 25
26 0 6 -3 10 -7 10 -5 0 -19 -9 -33 -20z"/>
<path d="M2535 3550 c-3 -5 -2 -10 4 -10 5 0 13 5 16 10 3 6 2 10 -4 10 -5 0
-13 -4 -16 -10z"/>
<path d="M2465 3517 c-22 -12 -46 -27 -53 -33 -6 -7 -8 -15 -4 -18 5 -3 32 9
60 27 29 17 52 35 52 39 0 5 -3 8 -7 7 -5 0 -26 -10 -48 -22z"/>
<path d="M300 3309 c0 -5 5 -7 10 -4 6 3 10 8 10 11 0 2 -4 4 -10 4 -5 0 -10
-5 -10 -11z"/>
<path d="M12584 3296 c-13 -10 -16 -22 -11 -50 3 -20 13 -44 23 -53 9 -10 27
-40 40 -68 13 -27 24 -57 24 -65 0 -9 4 -20 9 -25 5 -6 15 -28 22 -50 8 -22
14 -44 15 -50 1 -5 3 -12 4 -15 1 -3 3 -17 5 -32 2 -15 -1 -31 -7 -34 -7 -4
-6 -9 3 -14 9 -6 10 -12 2 -22 -6 -7 -14 -26 -18 -43 -4 -16 -10 -57 -13 -90
-6 -52 -10 -61 -34 -73 -16 -7 -28 -17 -28 -21 0 -5 -15 -15 -32 -22 -18 -7
-40 -15 -48 -16 -8 -2 -41 5 -72 14 -35 10 -60 23 -63 34 -3 9 -14 24 -25 34
-11 10 -20 26 -20 35 0 10 -7 20 -15 24 -8 3 -15 14 -15 24 0 10 -5 23 -11 29
-8 8 -8 20 0 45 6 18 13 67 15 108 2 41 5 80 7 85 1 6 -1 24 -6 40 -4 17 -14
40 -21 53 -9 13 -24 22 -39 22 -19 0 -31 -13 -59 -63 -32 -57 -36 -73 -40
-153 -2 -49 0 -110 4 -134 6 -33 5 -51 -5 -66 -9 -15 -10 -25 -3 -32 6 -6 6
-12 -1 -16 -6 -4 -11 -20 -11 -35 0 -15 3 -31 7 -34 3 -4 17 0 29 8 22 14 26
13 69 -17 25 -18 45 -40 45 -50 0 -11 7 -18 19 -18 11 0 22 -4 25 -9 3 -5 26
-12 51 -15 25 -4 45 -11 45 -17 0 -5 6 -9 14 -9 7 0 16 9 19 20 4 15 14 20 40
20 20 0 38 4 42 9 3 6 26 13 50 17 25 3 45 10 45 14 0 4 11 12 24 18 18 8 35
7 70 -3 28 -9 65 -12 96 -8 28 3 50 11 50 17 -1 6 -15 20 -33 31 -29 19 -32
25 -33 70 0 28 4 64 9 80 6 17 14 32 18 35 4 3 9 19 11 35 2 21 8 30 21 29 15
-2 16 4 11 32 -5 25 -1 43 16 71 14 23 22 52 21 73 -1 19 3 58 8 85 5 28 7 71
4 97 -4 37 -12 52 -32 65 -21 14 -44 17 -120 15 -73 -2 -99 1 -119 14 -13 9
-37 20 -53 24 -18 5 -34 4 -45 -4z m236 -111 c6 -3 10 -32 10 -64 0 -40 -5
-63 -15 -71 -8 -7 -12 -16 -9 -21 3 -5 2 -18 -1 -29 -4 -11 -12 -20 -19 -20
-8 0 -16 17 -20 41 -4 23 -11 50 -17 60 -5 11 -16 19 -23 19 -7 0 -18 11 -24
25 -7 14 -12 34 -12 45 0 12 8 20 23 22 12 2 39 2 60 1 20 -1 42 -5 47 -8z"/>
<path d="M10723 3250 c-18 -11 -33 -24 -33 -29 0 -5 7 -17 16 -25 8 -9 18 -16
22 -16 4 0 15 -20 25 -45 10 -24 15 -50 11 -56 -4 -7 -9 -35 -11 -63 -2 -29
-16 -76 -33 -110 -16 -32 -32 -74 -36 -92 -4 -21 -2 -40 6 -49 7 -8 23 -15 36
-15 12 0 25 -4 28 -9 3 -5 23 -12 43 -15 21 -4 54 -7 74 -6 21 0 42 -6 49 -15
7 -8 21 -15 31 -15 12 0 26 -15 38 -42 11 -24 27 -68 36 -98 9 -30 20 -68 25
-85 4 -16 7 -178 5 -360 -2 -181 -5 -386 -7 -455 -2 -69 -8 -151 -12 -182 -5
-32 -12 -58 -16 -58 -5 0 -6 -8 -4 -17 3 -10 0 -63 -5 -118 -6 -55 -12 -113
-15 -130 -3 -16 -7 -48 -10 -70 -2 -22 -8 -67 -13 -100 -5 -33 -17 -72 -26
-86 -9 -14 -14 -28 -11 -32 4 -3 1 -37 -7 -74 -7 -37 -16 -72 -21 -77 -4 -6
-8 -25 -8 -42 0 -18 -4 -36 -10 -39 -5 -3 -10 -19 -10 -34 0 -15 -9 -46 -20
-69 -11 -22 -20 -50 -20 -61 0 -11 -10 -40 -21 -65 -21 -43 -23 -44 -80 -50
-32 -4 -61 -11 -64 -16 -4 -6 -15 -10 -26 -10 -10 0 -19 -6 -19 -14 0 -8 9
-18 20 -21 11 -3 20 -10 20 -15 0 -4 11 -11 24 -14 13 -3 26 -14 28 -24 3 -10
14 -19 24 -20 11 0 31 2 46 4 14 3 39 17 55 32 15 15 27 35 25 45 -2 10 10 30
26 45 16 15 43 55 60 87 16 33 33 76 37 95 4 19 14 44 21 55 8 11 14 34 14 52
0 17 4 34 9 37 4 3 11 25 15 48 3 24 11 66 18 93 6 28 16 62 22 78 6 15 15 27
21 27 5 0 11 25 13 56 1 31 8 66 14 78 6 11 13 39 15 61 1 22 5 56 7 75 2 19
7 46 10 60 4 14 9 52 12 85 3 33 5 75 5 94 0 19 5 44 11 55 6 11 12 79 14 150
2 76 8 140 15 154 10 17 10 27 1 45 -7 13 -12 74 -12 157 0 74 -2 184 -6 243
-3 60 -3 120 0 133 4 14 14 24 24 24 9 0 26 7 36 15 10 8 23 12 28 9 5 -3 15
0 23 6 12 10 18 10 30 0 12 -10 19 -10 27 -2 7 7 29 12 49 12 21 0 40 4 43 9
3 5 20 11 38 14 18 2 47 10 65 18 18 7 36 10 40 5 4 -4 9 -105 9 -224 1 -119
4 -233 8 -252 4 -19 9 -66 10 -105 2 -38 10 -113 19 -165 9 -52 13 -98 11
-102 -3 -4 1 -27 7 -50 7 -24 13 -52 15 -63 1 -11 5 -78 9 -150 4 -71 7 -139
8 -150 0 -11 0 -35 -1 -52 -1 -22 -7 -33 -17 -33 -8 0 -15 -4 -15 -10 0 -5 7
-10 16 -10 14 0 16 -7 10 -47 -4 -27 -9 -55 -10 -63 -1 -8 -6 -24 -10 -35 -4
-11 -13 -33 -19 -50 -6 -16 -24 -46 -40 -67 -16 -20 -38 -38 -49 -41 -10 -3
-34 1 -53 9 -18 7 -35 19 -38 26 -4 10 -6 10 -6 0 -1 -7 14 -26 32 -42 19 -18
43 -30 60 -30 21 0 30 -6 34 -21 5 -20 6 -19 17 3 6 13 25 30 42 38 16 8 42
32 57 52 15 21 27 44 27 51 0 6 7 20 14 29 7 10 16 15 19 11 4 -3 7 3 7 14 0
12 5 23 10 25 6 2 13 28 17 58 3 30 9 60 13 65 4 6 11 28 15 50 4 22 9 62 11
88 2 27 7 63 12 80 5 18 7 91 6 162 -1 72 -5 167 -7 211 -3 45 -10 90 -15 100
-5 11 -12 47 -14 82 -3 47 -1 62 9 62 7 0 13 -5 13 -12 0 -6 3 -8 7 -5 3 4 -4
18 -16 31 -18 20 -23 37 -26 107 -1 46 -8 116 -14 154 -7 39 -12 131 -13 205
-1 74 2 146 6 160 5 14 30 45 57 70 26 25 52 57 58 71 7 19 5 39 -5 70 -8 24
-20 55 -26 69 -7 14 -16 31 -21 37 -7 10 -20 7 -56 -14 -29 -16 -53 -38 -62
-57 -8 -17 -14 -35 -15 -41 0 -5 -8 -27 -17 -48 -9 -21 -21 -55 -27 -76 -7
-26 -21 -45 -47 -62 -21 -13 -51 -30 -68 -36 -16 -6 -59 -19 -95 -27 -36 -8
-87 -14 -114 -12 -33 2 -54 10 -62 21 -12 16 -15 17 -37 2 -23 -15 -26 -14
-51 12 -14 15 -26 35 -26 44 0 9 -9 21 -20 27 -19 10 -20 17 -14 87 6 63 13
84 42 129 19 30 40 54 47 54 6 0 26 15 43 34 17 19 45 42 61 52 17 10 31 22
31 26 0 4 5 8 11 8 6 0 18 9 27 19 10 10 40 27 67 37 28 9 56 22 62 27 7 5 24
6 37 3 14 -3 28 -1 31 5 4 6 17 8 30 5 16 -4 30 1 47 19 12 14 26 25 30 25 3
0 9 -21 12 -47 6 -38 2 -61 -18 -110 -24 -61 -24 -63 -5 -63 11 0 24 11 31 25
6 14 17 25 24 25 6 0 15 7 18 16 3 9 6 33 6 54 0 21 5 42 10 45 6 3 10 17 10
29 0 13 -6 28 -12 33 -7 5 -38 15 -68 21 -45 10 -65 9 -110 -3 -50 -13 -56
-13 -73 3 -19 16 -19 16 -13 -3 4 -15 -2 -24 -25 -37 -17 -10 -39 -18 -49 -18
-10 0 -22 -5 -25 -11 -4 -5 -18 -14 -30 -19 -13 -5 -53 -28 -90 -51 -36 -23
-65 -46 -65 -51 0 -4 -6 -8 -13 -8 -7 0 -32 -17 -55 -38 -23 -21 -42 -43 -42
-49 0 -6 -6 -13 -14 -16 -8 -3 -17 -19 -21 -36 -4 -17 -13 -31 -20 -31 -8 0
-19 -9 -26 -21 -8 -15 -17 -19 -32 -15 -12 4 -30 9 -41 11 -10 2 -23 9 -30 14
-6 5 -29 13 -51 17 -22 4 -49 8 -60 9 -15 2 -20 9 -19 31 0 16 -3 32 -8 35 -5
3 -9 14 -9 25 0 10 5 39 12 64 6 25 17 56 23 69 6 13 11 50 10 82 -1 32 -7 73
-14 91 -7 18 -20 39 -28 46 -9 6 -25 12 -36 12 -12 0 -36 -9 -53 -20z"/>
<path d="M6650 2385 c0 -8 5 -15 10 -15 6 0 10 7 10 15 0 8 -4 15 -10 15 -5 0
-10 -7 -10 -15z"/>
<path d="M5970 2232 c0 -4 -14 -13 -32 -20 -24 -9 -34 -9 -39 0 -5 8 -23 8
-68 -2 -33 -7 -66 -19 -73 -27 -7 -8 -22 -19 -35 -24 -12 -4 -33 -26 -47 -48
-14 -22 -28 -52 -31 -68 -4 -15 -10 -37 -15 -48 -5 -11 -16 -48 -24 -83 -9
-35 -16 -87 -16 -115 0 -29 5 -70 11 -92 6 -22 21 -50 33 -62 13 -11 32 -32
42 -46 13 -15 37 -28 65 -34 25 -5 71 -9 102 -7 31 2 67 8 79 15 13 7 52 36
88 64 36 29 78 68 93 88 15 20 27 42 27 50 0 8 6 20 13 26 8 6 20 35 27 64 11
49 10 59 -10 118 -13 35 -29 71 -37 80 -7 8 -13 19 -13 22 0 4 -16 31 -35 61
-19 30 -46 63 -61 75 -15 12 -31 21 -35 21 -5 0 -9 -4 -9 -8z m-80 -87 c0 -14
5 -25 12 -25 6 0 26 11 44 25 l33 25 25 -25 c15 -14 26 -31 26 -37 0 -7 12
-24 26 -39 16 -17 34 -56 46 -101 11 -40 20 -77 20 -83 -1 -5 -5 -23 -9 -40
-4 -16 -28 -56 -51 -87 -24 -32 -53 -60 -65 -64 -11 -4 -39 -20 -61 -36 -37
-27 -47 -29 -95 -25 -29 3 -55 8 -58 11 -3 2 -11 55 -19 116 l-15 112 30 86
c16 48 31 101 33 117 2 22 9 31 26 33 15 2 22 10 22 26 0 12 3 26 7 29 3 4 10
7 15 7 4 0 8 -11 8 -25z"/>
<path d="M4815 2010 c-3 -11 -15 -20 -25 -20 -11 0 -24 -8 -29 -18 -5 -9 -12
-35 -16 -57 -4 -22 -10 -51 -15 -65 -5 -14 -11 -78 -14 -143 -4 -88 -2 -130 9
-165 8 -26 20 -62 26 -80 9 -29 8 -36 -8 -48 -17 -15 -17 -15 5 -11 17 4 27
-2 39 -21 9 -15 35 -46 57 -69 22 -24 45 -43 51 -43 5 0 31 -11 57 -25 28 -15
54 -22 65 -18 10 3 26 14 36 24 9 10 17 20 17 23 0 3 -7 3 -14 0 -8 -3 -31 7
-50 22 -20 17 -47 54 -63 89 -27 58 -28 66 -31 249 -2 139 1 192 10 203 7 9
12 40 10 80 -1 36 -7 72 -13 79 -6 8 -22 14 -36 14 -13 0 -33 4 -43 10 -15 8
-20 6 -25 -10z"/>
<path d="M705 1550 c-3 -5 -14 -10 -25 -10 -10 0 -20 -7 -24 -15 -3 -8 -14
-15 -24 -15 -11 0 -25 -7 -32 -15 -7 -8 -18 -15 -25 -15 -8 0 -15 -4 -17 -8
-1 -4 -21 -14 -42 -23 -22 -8 -41 -20 -44 -27 -2 -7 5 -12 19 -12 12 0 46 11
75 25 29 14 56 30 59 36 5 7 11 6 20 -1 8 -7 18 -9 24 -6 5 4 12 19 16 35 4
18 12 28 23 27 9 0 18 7 20 17 2 9 -1 17 -7 17 -5 0 -13 -4 -16 -10z"/>
<path d="M10430 1259 c0 -5 5 -7 10 -4 6 3 10 8 10 11 0 2 -4 4 -10 4 -5 0
-10 -5 -10 -11z"/>
<path d="M2508 1183 c-8 -10 -18 -23 -22 -30 -3 -6 4 -27 17 -47 13 -19 31
-42 40 -50 8 -9 25 -16 36 -16 14 0 27 12 39 38 18 35 18 38 2 65 -10 16 -30
35 -45 43 -15 8 -33 14 -40 14 -6 0 -19 -8 -27 -17z"/>
</g>
</svg>
