<?xml version="1.0" encoding="UTF-8"?>
<svg version="1.1" xmlns="http://www.w3.org/2000/svg" width="244" height="60" >
<path fill="#231F20" d="M8.665,42.349c-6.146,0.336-3.034-4.898-0.53-7.515c3.645-3.81,8.137-7.055,12.812-9.475 c8.919-4.617,3.039,5.08,1.199,7.764c-1.867,2.723-5.507,6.088-6.333,9.344c-0.12,0.473,1.135,0.12,1.292,0.068 c3.045-1.023,5.497-4.54,8.37-6.122c2.294-1.264,4.552-2.597,6.823-3.902c3.366-1.937,6.742-3.856,10.161-5.696 c1.425-0.767,2.866-1.502,4.327-2.196c1.231-0.584,2.457-1.382,1.089,0.197c-0.412,0.475,1.444,0.226,1.753-0.131 c0.86-0.992,1.187-1.911-0.5-1.617c-3.021,0.526-5.966,2.485-8.611,3.909c-4.318,2.323-8.557,4.796-12.806,7.242 c-1.765,1.016-3.546,2.002-5.296,3.042c-1.875,1.113-4.048,4.156-5.984,4.806c0.431,0.023,0.861,0.046,1.292,0.068 c0.657-2.588,3.465-5.345,5-7.465c1.941-2.682,4.077-5.479,5.118-8.657c1.44-4.395-5.418-2.156-7.098-1.365 c-6.066,2.859-11.967,7.247-16.247,12.428c-3.162,3.827-1.032,6.315,3.342,6.076C8.358,43.123,9.945,42.278,8.665,42.349 L8.665,42.349 M36.733,38.369c-0.606,0.562-1.188,1.152-1.752,1.756c-0.587,0.628-1.627,1.584-1.694,2.507 c-0.054,0.734,1.882,0.336,1.926-0.264c0.061-0.83,1.031-1.674,1.556-2.243c0.478-0.518,0.98-1.016,1.498-1.494 c0.285-0.264,0.243-0.558-0.168-0.627C37.665,37.93,37.063,38.064,36.733,38.369L36.733,38.369 M40.856,33.889c0.417,0.666,0.833,1.333,1.25,2c0.366,0.585,2.239-0.056,1.788-0.777 c-0.417-0.666-0.833-1.333-1.25-2C42.278,32.526,40.405,33.167,40.856,33.889L40.856,33.889 M57.653,35.803c-1.92,0.105-5.255,0.296-6.663,1.861c-2.624,2.919,2.821,3.065,4.447,2.938 c2.887-0.229,7.552-1.357,9.894-3.047c2.246-1.62,7.182-4.068,8.108-6.907c0.203-0.623-1.531-0.044-1.71,0.076 c-3.632,2.423-7.589,8.771-8.688,12.929c-0.163,0.619,1.688,0.072,1.916-0.305c1.795-2.974,5.106-5.048,8.182-6.409 c3.877-1.716,8.139-1.759,12.275-2.175c0.477-0.048,1.335-0.94,0.455-0.693c-0.553,0.156-1.089,0.356-1.618,0.578 c-1.78,0.744-2.941,2.048-1.444,3.714c1.456,1.62,4.922,0.058,6.331-0.747c1.699-0.971,3.075-2.959,0.428-3.499 c-0.765-0.156-3.073,0.86-1.799,0.815c0.904-0.031,1.809-0.031,2.712-0.028c1.405,0.005,6.707-0.279,7.055,1.605 c1.217,6.591,12.183-2.43,13.969-3.933c0.795-0.669-1.13-0.469-1.506-0.152c-1.611,1.355-8.576,7.84-10.394,4.592 c-0.508-0.907,0.186-1.65-1.115-2.126c-3.189-1.168-6.985-0.976-10.336-0.837c-0.389,0.016-2.018,0.865-1.016,0.89 c7.146,0.174-5.956,5.184-2.901,0.793c0.533-0.766,1.907-0.919,2.758-1.205c0.318-0.107,1.009-0.688,0.262-0.728 c-8.154-0.432-19.654,2.298-24.213,9.85c0.639-0.102,1.277-0.203,1.916-0.305c1.036-3.925,4.766-10.129,8.276-12.472 c-0.57,0.025-1.141,0.051-1.71,0.076c-1.086,3.325-5.683,3.858-7.656,6.406c-0.102,0.132-2.927,0.985-3.22,1.106 c-0.766,0.269-1.531,0.537-2.297,0.807c-3.15,1.628-4.275,0.84-3.375-2.367c0.611-0.119,1.251-0.173,1.871-0.207 C57.426,36.666,58.941,35.731,57.653,35.803L57.653,35.803 M163.228,14.673c0.818-3.843,5.689-7.294,8.666-9.436c4.655-3.352,1.06,2.062-0.097,3.943 c-4.087,6.653-8.54,13.183-13.704,19.052c-1.771,2.012-5.935,7.347-8.812,4.568c-2.147-2.073,16.555-8.632,17.709-9.033 c5.361-1.865,10.622-4.068,15.613-6.776c2.168-1.177,5.134-4.056,6.431-4.782c-0.464-0.1-0.927-0.198-1.391-0.298 c0.405,1.159-5.734,9.235-6.767,10.892c-2.363,3.796-5.951,8.131-7.104,12.524c-0.24,0.914,1.736,0.679,1.955-0.154 c1.255-4.78,5.429-9.656,8.007-13.787c0.944-1.514,6.503-8.096,5.841-9.992c-0.185-0.53-0.977-0.53-1.39-0.299 c-1.28,0.718-2.243,2.062-3.45,2.938c-3.928,2.855-8.669,4.747-13.135,6.569c-4.611,1.881-9.38,3.354-14.049,5.083 c-2.963,1.098-6.66,2.279-9.038,4.493c-2.133,1.986-1.281,4.972,1.922,4.99c3.48,0.021,6.446-3.363,8.62-5.67 c3.928-4.165,7.273-8.951,10.449-13.699c2.302-3.441,6.034-7.703,7.151-11.775c0.983-3.582-3.898-0.998-5.109-0.266 c-3.692,2.235-9.321,6.594-10.274,11.069C161.072,15.767,163.048,15.518,163.228,14.673L163.228,14.673 M192.356,24.298c-1.378,1.222-8.597,7.119-6.392,9.236c3.605,3.46,9.45-5.365,11.834-6.764 c-0.471-0.17-0.94-0.341-1.411-0.512c-0.582,2.045-3.938,5.718-0.08,6.652c4.313,1.046,11.018-1.997,14.97-3.34 c3.062-1.04,9.563-2.775,10.97-6.224c1.145-2.807-2.737-4.568-5.052-4.442c-13.477,0.736-12.25,22.506-12.648,31.389 c-0.047,1.035-0.147,2.057-0.328,3.076c-0.472,2.665-4.996,0.679-5.069-1.411c-0.119-3.379,6.219-7.048,8.58-8.746 c3.481-2.504,7.099-4.794,10.542-7.356c3.651-2.717,7.226-6.141,11.41-8.024c1.205-0.543,0.134-1.612-0.863-1.164 c-6.286,2.831-11.545,8.269-17.212,12.13c-4.859,3.312-10.808,6.536-13.914,11.727c-2.735,4.569,7.407,8.798,8.6,2.062 c1.212-6.845,0.28-13.926,1.663-20.811c0.74-3.687,2.404-7.449,5.282-9.948c1.153-1.001,2.643-1.538,4.165-1.454 c1.28,0.07,3.907,1.337,2.839,2.977c-2.793,4.284-11.964,5.839-16.503,7.019c-0.918,0.238-7.457,2.362-7.288-0.094 c0.107-1.575,1.485-2.712,1.896-4.156c0.204-0.714-1.061-0.717-1.41-0.512c-2.532,1.485-4.437,4.292-6.844,6.057 c-0.752-0.001-1.504-0.002-2.256-0.002c0.35-0.638,0.758-1.233,1.227-1.788c0.568-0.729,1.224-1.396,1.86-2.066 c0.863-0.909,1.781-1.772,2.72-2.604C194.624,24.333,193.093,23.645,192.356,24.298L192.356,24.298 M236.873,21.62c-3.168,1.124-7.491,3.126-8.983,6.343c-2.275,4.908,3.57,5.854,6.991,5.056 c3.216-0.752,8.764-4.45,5.096-8.056c-2.579-2.536-8.001,0.439-10.322,2.016c-1.081,0.734,0.598,0.946,1.191,0.543 c1.833-1.245,5.233-3.353,7.335-1.813c1.431,1.049,1.152,3.005,0.221,4.221c-1.077,1.405-3.078,2.096-4.756,2.344 c-4.44,0.657-5.254-3.567-2.447-6.255c1.748-1.675,4.161-2.834,6.429-3.639C238.904,21.927,237.731,21.315,236.873,21.62 L236.873,21.62z"/>
</svg>