<?xml version="1.0" encoding="UTF-8" standalone="no"?>
<!-- Created with Inkscape (http://www.inkscape.org/) -->

<svg
   xmlns:dc="http://purl.org/dc/elements/1.1/"
   xmlns:cc="http://creativecommons.org/ns#"
   xmlns:rdf="http://www.w3.org/1999/02/22-rdf-syntax-ns#"
   xmlns:svg="http://www.w3.org/2000/svg"
   xmlns="http://www.w3.org/2000/svg"
   xmlns:sodipodi="http://sodipodi.sourceforge.net/DTD/sodipodi-0.dtd"
   xmlns:inkscape="http://www.inkscape.org/namespaces/inkscape"
   id="svg2816"
   version="1.1"
   inkscape:version="0.47 r22583"
   width="250"
   height="68"
   sodipodi:docname="signature-Dalembert.jpg">
  <metadata
     id="metadata2822">
    <rdf:RDF>
      <cc:Work
         rdf:about="">
        <dc:format>image/svg+xml</dc:format>
        <dc:type
           rdf:resource="http://purl.org/dc/dcmitype/StillImage" />
        <dc:title></dc:title>
      </cc:Work>
    </rdf:RDF>
  </metadata>
  <defs
     id="defs2820">
    <inkscape:perspective
       sodipodi:type="inkscape:persp3d"
       inkscape:vp_x="0 : 0.5 : 1"
       inkscape:vp_y="0 : 1000 : 0"
       inkscape:vp_z="1 : 0.5 : 1"
       inkscape:persp3d-origin="0.5 : 0.33333333 : 1"
       id="perspective2824" />
  </defs>
  <sodipodi:namedview
     pagecolor="#ffffff"
     bordercolor="#666666"
     borderopacity="1"
     objecttolerance="10"
     gridtolerance="10"
     guidetolerance="10"
     inkscape:pageopacity="0"
     inkscape:pageshadow="2"
     inkscape:window-width="1366"
     inkscape:window-height="706"
     id="namedview2818"
     showgrid="false"
     inkscape:zoom="4.32"
     inkscape:cx="125"
     inkscape:cy="34"
     inkscape:window-x="0"
     inkscape:window-y="0"
     inkscape:window-maximized="1"
     inkscape:current-layer="svg2816" />
  <path
     style="fill:#000000"
     d="M 182.56751,65.109228 C 181.1284,62.780704 189.49213,54.786379 197.75,50.597307 199.5375,49.69054 201,48.433129 201,47.803061 c 0,-0.630069 0.74724,-1.971272 1.66054,-2.980451 1.91546,-2.11656 1.79943,-2.31096 -1.91054,-3.200986 -1.63254,-0.391648 -2.75,-0.245637 -2.75,0.359324 0,0.560479 -0.7875,1.00474 -1.75,0.987249 -1.66667,-0.03029 -1.66667,-0.09506 0,-1.360243 C 198.15388,40.162703 198.60345,38 197,38 c -0.55,0 -1,0.435877 -1,0.968615 0,0.532739 -0.675,0.709594 -1.5,0.393011 -0.825,-0.316582 -2.19074,-0.310543 -3.03497,0.01342 -1.37704,0.528421 -1.3744,0.899529 0.0257,3.606989 1.77821,3.438688 0.6993,3.990397 -1.99071,1.017965 -1.12318,-1.241098 -1.34932,-2 -0.59597,-2 2.7547,0 -0.15546,-1.784589 -3.88187,-2.380465 -5.48827,-0.87761 -5.72292,-3.684344 -0.82503,-9.868435 l 3.00504,-3.794163 -5.35109,3.218393 c -2.94309,1.770116 -7.98986,4.929805 -11.21503,7.021531 C 164.01928,40.488247 162,40.905614 162,37.981856 c 0,-1.749682 -0.56535,-1.982474 -4.25,-1.75 -3.71116,0.234147 -4.28954,-0.0097 -4.56183,-1.92296 -0.66982,-4.706503 11.80717,-13.283911 15.76505,-10.837809 2.05819,1.272031 -2.79933,6.406742 -7.25345,7.667359 -2.30987,0.653748 -4.87477,1.815624 -5.69977,2.581945 -1.29096,1.199142 -0.77076,1.298074 3.73282,0.709909 4.35041,-0.568161 5.33973,-0.404812 5.86679,0.968671 0.41907,1.09209 1.01807,1.335451 1.76717,0.717966 1.16636,-0.961425 20.48603,-12.830741 26.52223,-16.294311 2.38922,-1.370932 3.70201,-1.631608 4.45,-0.883618 C 199.087,19.686997 199.04693,20 198.2032,20 c -1.28938,0 -10.42452,9.025389 -12.95702,12.801347 -1.08358,1.615625 -1.22883,2.616005 -0.48746,3.35737 1.58012,1.580125 15.00709,-0.96557 19.24128,-3.648063 7.12808,-4.515862 11.17644,-6.512953 14.29703,-7.052841 C 220.34348,25.10376 223.48593,22.982308 227,19.582476 233.40377,13.386894 239.71815,9 242.23213,9 c 3.41745,0 1.86002,3.513439 -4.76124,10.74093 l -3.37854,3.687881 3.20382,1.055274 c 3.09001,1.017784 3.19894,1.241089 3.06624,6.285595 -0.13434,5.106787 -0.0708,5.23032 2.69098,5.23032 6.50254,0 3.87776,4.070013 -6.22403,9.65104 -2.76682,1.528611 -4.901,3.498259 -5.23578,4.832138 -0.77534,3.089175 -6.05023,8.047603 -10.99226,10.332779 C 215.12511,63.348134 211,64.294672 211,63.019052 211,62.458573 211.69293,62 212.53984,62 c 3.8924,0 14.83827,-7.955227 13.2,-9.59349 -0.33075,-0.330757 -1.87003,0.09672 -3.42061,0.949938 -1.55057,0.853224 -7.76923,3.413037 -13.81923,5.688475 -6.05,2.275438 -11.73682,4.518353 -12.63737,4.984255 -2.78495,1.440796 -12.58037,2.236542 -13.29512,1.08005 z m 17.67956,-5.016953 c 5.8112,-2.68122 6.06697,-2.933242 3.62054,-3.56754 -1.44781,-0.375382 -3.02281,-1.54095 -3.5,-2.590151 -0.79483,-1.747606 -1.4129,-1.485419 -7.36761,3.125355 -3.575,2.768147 -6.67236,5.52917 -6.88303,6.135607 -0.62987,1.813198 7.2025,0.09304 14.1301,-3.103271 z M 216.84028,51.92195 C 220.22812,50.229023 223,48.514737 223,48.112427 c 0,-1.007803 -14.68269,0.647388 -17.06829,1.924121 -1.93106,1.033471 -2.52182,3.040012 -1.26504,4.296785 1.47029,1.470289 6.33345,0.50698 12.17361,-2.411383 z m -5.47518,-9.431015 c 0.86203,-2.246392 -2.04876,-0.622673 -3.87197,2.159896 l -1.62686,2.482897 2.4829,-1.626856 c 1.36559,-0.894771 2.72276,-2.251943 3.01593,-3.015937 z m 27.40025,-1.179647 c 1.76674,-1.44676 2.20374,-2.241529 1.23465,-2.245483 -0.825,-0.0034 -3.525,1.815987 -6,4.043009 -3.95503,3.558767 -4.10455,3.830703 -1.23465,2.245484 1.79594,-0.992006 4.49594,-2.81136 6,-4.04301 z M 215,44.940983 c 0,-0.582459 -0.45,-0.780902 -1,-0.440983 -0.55,0.339919 -1,0.816476 -1,1.059017 C 213,45.801558 213.45,46 214,46 c 0.55,0 1,-0.476558 1,-1.059017 z m 12,-2.155287 c 4.42394,-2.133695 4.45148,-2.1769 1.62917,-2.55612 -4.14012,-0.556288 -7.41313,0.49823 -8.63549,2.782231 -1.45395,2.716741 1.07384,2.635163 7.00632,-0.226111 z m -17.87244,-5.454351 c 1.2487,-1.518209 1.0597,-1.606678 -2.09631,-0.98125 C 202.25341,37.296923 200.7407,39 204.67756,39 c 1.69265,0 3.69515,-0.750895 4.45,-1.668655 z m 8.56668,-0.799745 c 2.58185,-2.271413 2.64011,-2.470919 0.73007,-2.499999 C 217.28269,34.014221 215.29175,35.125 214,36.5 c -3.2249,3.432753 -0.20116,3.458619 3.69424,0.0316 z m 16.53971,-0.365552 c 0.54548,-0.545481 0.68944,-1.480993 0.3199,-2.078916 -0.93916,-1.519586 -8.68848,-1.300879 -10.80385,0.304914 -2.14444,1.627859 -2.28703,2.751262 -0.25,1.96958 0.83581,-0.320729 1.5,-0.02713 1.5,0.663054 0,1.457365 7.62718,0.74814 9.23395,-0.858632 z M 214.08969,31.391935 C 214.87275,30.448401 214.89846,30 214.1695,30 c -1.92382,0 -6.11952,2.27185 -5.63715,3.052348 0.65632,1.061939 4.16901,0.01242 5.55734,-1.660413 z m 11.32047,-2.292658 c 1.17815,-1.30185 1.37067,-2.116698 0.61101,-2.586195 C 224.77018,25.739931 220,28.520655 220,30.023053 c 0,1.682143 3.60961,1.065808 5.41016,-0.923776 z m 12.40409,0.174692 c -0.18353,-0.952952 -1.55318,-2.161515 -3.04368,-2.685696 -2.14366,-0.753883 -3.1343,-0.569073 -4.74029,0.884322 C 228.91363,28.483154 228,29.59237 228,29.93752 c 0,0.34515 2.28328,0.726893 5.07396,0.848317 4.33932,0.188806 5.02565,-0.03009 4.74029,-1.511868 z M 233.80741,20.25 c 1.84702,-2.0625 3.80501,-4.571562 4.35109,-5.575694 0.85321,-1.568855 0.73605,-1.687635 -0.83281,-0.844327 -1.00413,0.539752 -4.07569,3.038895 -6.82569,5.553652 -4.58939,4.196798 -4.79678,4.574095 -2.5254,4.594327 1.61322,0.01437 3.64355,-1.283285 5.83281,-3.727958 z M 208,63 c 0,-0.55 0.19844,-1 0.44098,-1 0.24254,0 0.7191,0.45 1.05902,1 0.33992,0.55 0.14148,1 -0.44098,1 C 208.47656,64 208,63.55 208,63 z M 4.75,39.310674 C 3.7875,39.059147 3,38.26983 3,37.556638 3,36.39264 17.626448,26.413051 23.979775,23.242189 29.708702,20.382958 32.110987,17.591421 32.714461,13.092188 33.481428,7.3740203 31.899064,6.1181177 24.758504,6.7776447 17.789588,7.4213181 12.711968,10.111944 9.9097887,14.645965 6.9745312,19.395311 6.2016613,17.467404 9.0830812,12.583761 11.501939,8.4841019 15.979069,5.8645648 23.652168,4.0594903 28.0451,3.0260656 29.258704,3.082421 31.887681,4.4419175 c 1.918149,0.9919133 3.303923,2.6268116 3.66704,4.3262711 0.321032,1.5024964 0.9549,3.6609044 1.408597,4.7964624 0.586381,1.467654 0.264156,2.768835 -1.114382,4.5 C 34.782329,19.404093 33.480571,21.4 32.956142,22.5 c -0.52443,1.1 -2.527093,4.183721 -4.450362,6.852714 -1.923269,2.668993 -3.217508,5.304703 -2.876087,5.857134 0.374312,0.60565 -0.133615,0.764989 -1.279364,0.401342 -1.045071,-0.331693 -5.438998,0.520097 -9.764281,1.892866 -4.325283,1.372769 -7.9140783,2.443743 -7.9750998,2.379943 C 6.5499267,39.820198 5.7125,39.562202 4.75,39.310674 z M 16.79966,34.583019 C 20.104779,32.848685 29.497164,24.163831 28.810392,23.477058 28.292024,22.958691 10,34.663064 10,35.513116 10,36.521 14.201725,35.946264 16.79966,34.583019 z M 45.5,39 c -0.339919,-0.55 -0.339919,-1.45 0,-2 0.888076,-1.436937 -0.82606,-1.232253 -4.135693,0.493839 C 37.693541,39.408276 33,39.467211 33,37.598867 33,35.137957 42.296432,26.87605 48.427213,23.888424 54.509197,20.924578 59.352511,20.262911 62,22.034184 c 1.254314,0.839185 1.008628,1.360823 -1.5,3.184784 C 56.316649,28.260578 49,35.75857 49,37.003994 49,40.325006 65.501916,32.425678 72.633383,25.690893 82.144879,16.708467 84.193906,15.003171 90.405036,10.900492 96.430549,6.9204208 100,5.9595498 100,8.3175955 100,9.042273 94.725863,13.429773 88.279696,18.067595 71.596572,30.070599 67,33.841151 67,35.523254 67,38.738879 77.174533,35.314708 78.591473,31.622222 79.414498,29.477451 87.532557,24.043489 90.92833,23.364334 93.30547,22.888906 94,23.102189 94,24.307612 94,25.164299 93.1,26.150874 92,26.5 c -1.1,0.349126 -2,0.982933 -2,1.408459 0,0.425526 -2.236137,1.990741 -4.969193,3.478257 -4.898451,2.666071 -6.687768,4.289656 -5.755246,5.222178 0.724908,0.724908 11.122064,-4.100492 15.946005,-7.400663 10.653124,-7.288053 15.518564,-7.395996 7.612214,-0.168884 -5.536973,5.061291 -4.472352,5.046264 2.7876,-0.03935 8.58524,-6.013984 12.43888,-5.35845 5.87862,1 -5.42717,5.260218 -4.13083,5.626131 2.25,0.635099 5.44434,-4.258519 11.29802,-6.866196 11.20936,-4.993507 -0.0224,0.472124 -1.37235,2.41641 -3,4.320634 -3.80583,4.452529 -3.87674,6.291539 -0.20936,5.429398 5.83507,-1.371729 15.03147,-7.187387 22.23575,-14.061535 C 153.38257,12.36388 156.39153,10 158.40773,10 c 2.80453,0 1.7314,1.728256 -4.1433,6.672677 -3.15456,2.655028 -6.86706,5.844789 -8.25,7.088359 -1.38294,1.243569 -3.19442,2.477272 -4.02553,2.741563 -1.6524,0.525462 -5.07239,7.514799 -4.30014,8.788078 0.71077,1.171909 4.48725,-0.223828 7.11356,-2.629079 1.59469,-1.460458 2.12979,-2.795947 1.74099,-4.345059 -0.39038,-1.555388 0.0105,-2.542547 1.3162,-3.241349 C 150.19307,23.826302 151,24.575845 151,27.992353 c 0,4.245138 -5.59211,8.522215 -11.97711,9.160585 -3.08364,0.308302 -3.53004,0.04791 -3.99711,-2.331563 L 134.5,32.142751 l -4.11793,1.89714 c -11.33689,5.222928 -17.04803,4.921807 -14.46678,-0.762765 L 117.17633,30.5 l -2.33816,2.088234 c -3.73509,3.335833 -9.71206,6.607741 -10.81993,5.923037 -1.486,-0.918398 -1.24484,-3.078317 0.50593,-4.531327 0.83829,-0.69572 1.3034,-1.485706 1.03358,-1.755526 -0.26982,-0.269819 -2.09635,0.919307 -4.05896,2.642501 C 97.9614,37.972788 93,39.104031 93,36.804719 c 0,-0.657405 1.2375,-2.523016 2.75,-4.145802 l 2.75,-2.95052 -6.5,3.40426 c -8.438007,4.419257 -13.551595,6.164437 -15.888896,5.422606 -1.034583,-0.328364 -3.830424,-0.159033 -6.21298,0.376292 -4.644306,1.043506 -7.436727,-0.0656 -6.475018,-2.571769 0.655471,-1.708128 0.97432,-1.7675 -6.230827,1.160214 C 50.714525,40.132147 46.531377,40.668802 45.5,39 z M 45.25,33.701105 C 47.3125,32.562942 49,31.138923 49,30.536618 49,29.934313 49.9,28.792835 51,28 54.190757,25.700232 53.312614,24.82677 49.75,26.756663 44.195159,29.76576 37,35.047157 37,36.115428 c 0,1.280036 3.311423,0.310964 8.25,-2.414323 z M 40,22.751237 c 0,-0.328565 1.2375,-1.894811 2.75,-3.480547 1.5125,-1.585737 4.697013,-4.989006 7.076695,-7.562821 C 56.230018,4.782168 67,-0.07138994 67,3.9686152 67,4.5358768 66.242076,5 65.315724,5 60.935204,5 55.5277,8.807665 42.25,21.241609 41.0125,22.400469 40,23.079802 40,22.751237 z"
     id="path2828"
     sodipodi:nodetypes="cssssssssssssssscccssssssssssssssssssscccsssssssssssccssssccssscccccccsssccsssccssccssccssccssssccssccssccssssccssssccsssccsssssssssssssssssccssccssssssssssssssssssssssssssssssssssssssccccccssssscccssssccssssccsssssc" />
</svg>
